<svg width="177" height="177" viewBox="0 0 177 177" fill="none" xmlns="http://www.w3.org/2000/svg">
<rect width="177" height="177" fill="white"/>
<g clip-path="url(#clip0_8401_1522)">
<path d="M53.2277 74.9576V77.9179H53.7819V74.0752H53.2607L50.9175 77.0392V74.0752H50.3555V77.9179H50.8766L53.2277 74.9576Z" fill="#002F87"/>
<path d="M62.0235 77.296C61.7815 77.4308 61.505 77.4962 61.2262 77.4846C61.0051 77.4848 60.7854 77.4517 60.5748 77.3866C60.364 77.3216 60.1666 77.2214 59.9914 77.0905L59.7969 77.4959C60.0129 77.6493 60.2542 77.766 60.5106 77.841C60.7657 77.9172 61.0312 77.9559 61.2981 77.956C61.5733 77.9593 61.8468 77.914 62.1052 77.8221C62.3348 77.7446 62.5398 77.6108 62.7002 77.4337C62.8466 77.2678 62.926 77.0562 62.9239 76.8379C62.9291 76.6248 62.8545 76.4171 62.7138 76.2534C62.5613 76.0824 62.3573 75.9624 62.1305 75.9102C62.314 75.8463 62.4743 75.7315 62.5913 75.5802C62.7029 75.4321 62.7617 75.2527 62.7586 75.0693C62.7623 74.8628 62.6891 74.662 62.5524 74.5036C62.4044 74.3319 62.2117 74.2017 61.9943 74.1265C61.7449 74.0398 61.4815 73.997 61.2165 74.0002C60.9914 73.9997 60.7672 74.0276 60.5495 74.0831C60.3274 74.1365 60.1139 74.2196 59.9155 74.3301L60.0964 74.7789C60.2642 74.6775 60.4463 74.6 60.637 74.5489C60.8198 74.4986 61.0089 74.4726 61.199 74.4715C61.4463 74.4622 61.6909 74.5232 61.9029 74.6469C61.9884 74.6961 62.059 74.7662 62.1074 74.8503C62.156 74.9344 62.1806 75.0295 62.179 75.1258C62.1825 75.2075 62.1649 75.2886 62.128 75.3621C62.0909 75.4355 62.0357 75.4988 61.9671 75.5463C61.7936 75.6543 61.5896 75.707 61.3837 75.6971H60.5417V76.1421H61.4246C61.6633 76.1285 61.9011 76.1822 62.1091 76.2967C62.187 76.3441 62.2507 76.4104 62.2937 76.4892C62.3367 76.568 62.3575 76.6564 62.3541 76.7455C62.3575 76.858 62.3283 76.9692 62.2698 77.0665C62.2114 77.1638 62.1261 77.2433 62.0235 77.296Z" fill="#002F87"/>
<path d="M69.2262 77.9179H72.4873V78.7588H73.0143V77.439H72.431V74.0752H69.6443L69.6054 75.3102C69.5982 75.8346 69.533 76.3567 69.4109 76.8676C69.3078 77.2447 69.1328 77.4333 68.8839 77.4333H68.6895V78.7532H69.2165L69.2262 77.9179ZM69.971 76.7055C70.0484 76.261 70.0926 75.8117 70.1032 75.3611L70.1324 74.5522H71.8708V77.4408H69.6326C69.8216 77.2359 69.94 76.9788 69.971 76.7055Z" fill="#002F87"/>
<path d="M79.6909 76.9582H81.7969L82.2325 77.9179H82.8276L81.0268 74.0752H80.4668L78.6719 77.9179H79.2553L79.6909 76.9582ZM80.7429 74.6352L81.5985 76.5207H79.8892L80.7429 74.6352Z" fill="#002F87"/>
<path d="M89.2712 77.9179H89.8258V74.5522H91.1849V74.0752H87.916V74.5522H89.2712V77.9179Z" fill="#002F87"/>
<path d="M100.068 77.439H97.7601V76.2002H99.7477V75.7326H97.7601V74.5522H99.9903V74.0752H97.1924V77.9179H100.068V77.439Z" fill="#002F87"/>
<path d="M106.719 77.7124C106.893 77.4967 107.007 77.2407 107.049 76.9695C107.13 76.5431 107.174 76.1112 107.184 75.6779L107.222 74.5466H108.972V77.9122H109.526V74.0752H106.74L106.678 75.6949C106.672 76.0298 106.639 76.3638 106.583 76.6942C106.554 76.8963 106.479 77.0895 106.363 77.2598C106.318 77.3193 106.259 77.3674 106.192 77.4003C106.124 77.4331 106.05 77.4496 105.974 77.4484C105.913 77.4482 105.852 77.4406 105.793 77.4258L105.754 77.9141C105.871 77.9433 105.991 77.9578 106.112 77.9575C106.225 77.962 106.339 77.9424 106.443 77.9001C106.548 77.8578 106.642 77.7937 106.719 77.7124Z" fill="#002F87"/>
<path d="M118.61 77.5898C118.748 77.4698 118.857 77.3208 118.927 77.1542C118.997 76.9876 119.027 76.8077 119.014 76.6282C119.027 76.4595 118.999 76.2903 118.933 76.1336C118.868 75.9768 118.766 75.8364 118.638 75.7231C118.325 75.4984 117.94 75.3887 117.552 75.4139H116.385V74.0752H115.825V77.9179H117.461C117.872 77.9419 118.278 77.8258 118.61 77.5898ZM116.376 77.4842V75.8495H117.428C118.108 75.8495 118.448 76.1116 118.448 76.6395C118.456 76.7568 118.437 76.8743 118.391 76.9831C118.345 77.0919 118.275 77.1891 118.184 77.2674C117.967 77.4251 117.698 77.5021 117.428 77.4842H116.376Z" fill="#002F87"/>
<path d="M125.751 77.703C126.081 77.8751 126.451 77.9627 126.825 77.9576C127.116 77.9608 127.405 77.9089 127.676 77.8049C127.93 77.7067 128.156 77.5524 128.337 77.3542L127.97 77.0092C127.828 77.1578 127.655 77.2755 127.462 77.3548C127.27 77.4341 127.063 77.4731 126.854 77.4692C126.575 77.474 126.3 77.4091 126.054 77.2807C125.821 77.1602 125.627 76.9803 125.492 76.7603C125.36 76.5296 125.291 76.27 125.291 76.0061C125.291 75.7421 125.36 75.4825 125.492 75.2519C125.624 75.0287 125.816 74.8453 126.049 74.722C126.294 74.5937 126.569 74.5288 126.848 74.5335C127.057 74.5285 127.264 74.5666 127.456 74.6453C127.649 74.724 127.822 74.8414 127.964 74.9898L128.332 74.6428C128.152 74.4462 127.927 74.2932 127.674 74.196C127.404 74.0933 127.115 74.042 126.825 74.0451C126.45 74.04 126.08 74.1276 125.749 74.2997C125.437 74.4631 125.177 74.7063 124.997 75.003C124.818 75.3107 124.725 75.6577 124.725 76.0108C124.725 76.3638 124.818 76.7109 124.997 77.0186C125.179 77.3091 125.44 77.5457 125.751 77.703Z" fill="#002F87"/>
<path d="M135.268 77.9179H135.823V74.5522H137.182V74.0752H133.915V74.5522H135.268V77.9179Z" fill="#002F87"/>
<path d="M145.911 77.6453C146.117 77.4795 146.25 77.2431 146.281 76.9852C146.313 76.7273 146.241 76.4674 146.08 76.2595C145.92 76.0867 145.707 75.9695 145.472 75.9258C145.653 75.8627 145.812 75.7484 145.927 75.5977C146.039 75.4413 146.096 75.2543 146.09 75.0641C146.098 74.9222 146.067 74.7808 146.004 74.653C145.94 74.5251 145.844 74.4149 145.725 74.3325C145.422 74.1455 145.066 74.0557 144.708 74.0761H142.994V77.9187H144.804C145.194 77.9461 145.583 77.8502 145.911 77.6453ZM143.564 74.5097H144.666C144.89 74.4963 145.111 74.5532 145.297 74.6719C145.37 74.7275 145.428 74.799 145.466 74.8807C145.504 74.9623 145.523 75.0517 145.519 75.1414C145.524 75.2305 145.507 75.3196 145.468 75.4008C145.43 75.482 145.372 75.5529 145.299 75.6071C145.112 75.7259 144.89 75.7822 144.666 75.7674H143.564V74.5097ZM143.564 77.4851V76.1841H144.803C145.041 76.1683 145.279 76.2229 145.485 76.3406C145.563 76.3961 145.625 76.4698 145.665 76.555C145.705 76.6401 145.722 76.7337 145.715 76.827C145.715 77.267 145.411 77.4863 144.803 77.4851H143.564Z" fill="#002F87"/>
<path d="M153.157 77.7033C153.49 77.8706 153.86 77.9579 154.235 77.9579C154.61 77.9579 154.98 77.8706 155.313 77.7033C155.626 77.5406 155.887 77.298 156.068 77.0018C156.244 76.6936 156.337 76.3467 156.337 75.994C156.337 75.6413 156.244 75.2945 156.068 74.9862C155.887 74.6899 155.626 74.4468 155.313 74.2829C154.98 74.1156 154.61 74.0283 154.235 74.0283C153.86 74.0283 153.49 74.1156 153.157 74.2829C152.843 74.4469 152.581 74.6907 152.4 74.9881C152.22 75.2944 152.126 75.6407 152.126 75.9931C152.126 76.3455 152.22 76.6918 152.4 76.9981C152.581 77.2959 152.843 77.5398 153.157 77.7033ZM152.892 75.2521C153.025 75.0302 153.217 74.8472 153.448 74.7223C153.69 74.5937 153.962 74.5287 154.238 74.5337C154.51 74.5296 154.778 74.5946 155.015 74.7223C155.245 74.8474 155.435 75.0305 155.566 75.2521C155.697 75.4832 155.766 75.7426 155.766 76.0063C155.766 76.27 155.697 76.5294 155.566 76.7605C155.435 76.9817 155.245 77.1647 155.015 77.2903C154.778 77.418 154.51 77.483 154.238 77.4789C153.962 77.4838 153.69 77.4188 153.448 77.2903C153.218 77.1649 153.026 76.982 152.892 76.7605C152.761 76.5294 152.692 76.27 152.692 76.0063C152.692 75.7426 152.761 75.4832 152.892 75.2521Z" fill="#002F87"/>
<path d="M135.253 83.2862C133.893 82.5291 132.349 82.1386 130.78 82.1549C129.463 82.1407 128.155 82.3691 126.926 82.828C125.795 83.2517 124.788 83.9341 123.988 84.8173L123.842 84.9813L125.697 86.7782L125.864 86.6085C127.103 85.3622 128.717 84.723 130.658 84.723C131.621 84.7136 132.572 84.9303 133.431 85.3546C134.259 85.7739 134.968 86.3837 135.496 87.1307C135.997 87.8325 136.338 88.6295 136.497 89.4688H128.355V91.8559H136.537C136.417 92.7419 136.093 93.5905 135.589 94.3391C135.062 95.1198 134.342 95.7602 133.495 96.202C132.62 96.6498 131.642 96.8786 130.652 96.8676C128.696 96.8676 127.082 96.234 125.86 94.9821L125.691 94.8105L123.836 96.6093L123.982 96.7714C124.776 97.6517 125.776 98.334 126.899 98.7606C128.132 99.2216 129.445 99.4501 130.767 99.4338C132.334 99.4531 133.879 99.0658 135.24 98.3119C136.555 97.5745 137.64 96.5061 138.38 95.2197C139.132 93.8592 139.525 92.3397 139.525 90.7962C139.525 89.2528 139.132 87.7333 138.38 86.3728C137.642 85.0902 136.563 84.0239 135.253 83.2862Z" fill="#002F87"/>
<path d="M62.4083 90.5249C63.1018 90.2001 63.6873 89.6932 64.0982 89.0617C64.5139 88.3909 64.7237 87.6191 64.7029 86.8368C64.7215 86.2189 64.579 85.6065 64.2887 85.0561C63.9984 84.5057 63.5698 84.0352 63.0422 83.688C61.9338 82.9162 60.3632 82.5303 58.3304 82.5303H50.3574V99.1643H58.8146C61.0289 99.1643 62.7142 98.774 63.8707 97.9934C65.0271 97.2128 65.6059 96.0997 65.6072 94.6541C65.6072 93.5819 65.3304 92.6939 64.7769 91.9899C64.1779 91.2592 63.3442 90.7435 62.4083 90.5249ZM53.286 84.6986H58.0271C59.2366 84.6986 60.1629 84.9085 60.8059 85.3284C61.449 85.7482 61.773 86.3679 61.7783 87.1875C61.7953 87.5503 61.7146 87.9111 61.5441 88.2344C61.3736 88.5578 61.1192 88.8325 60.8059 89.0315C60.1499 89.4614 59.2282 89.6764 58.0407 89.6764H53.286V84.6986ZM58.6629 96.9978H53.286V91.8447H58.6629C61.3193 91.8447 62.6481 92.7039 62.6494 94.4222C62.6507 96.1406 61.3219 97.0016 58.6629 97.0054V96.9978Z" fill="#002F87"/>
<path d="M100.909 84.0917C99.6007 83.056 97.808 82.5381 95.532 82.5381H88.5312V99.1721H91.462V94.2811H95.5451C97.8204 94.2811 99.6131 93.7639 100.922 92.7293C102.232 91.6948 102.887 90.2492 102.887 88.3927C102.877 86.5599 102.218 85.1263 100.909 84.0917ZM98.7504 91.0022C97.9722 91.6081 96.8394 91.911 95.3508 91.911H91.462V84.8818H95.3508C96.8407 84.8818 97.9735 85.1841 98.7504 85.7887C99.5268 86.3934 99.9159 87.2626 99.9166 88.3964C99.9146 89.5277 99.5255 90.3963 98.7504 91.0022Z" fill="#002F87"/>
<path d="M111.509 85.5401C112.525 85.014 113.663 84.7473 114.815 84.7652C115.715 84.7463 116.609 84.914 117.438 85.257C118.266 85.6 119.009 86.1105 119.618 86.7544L121.49 84.9084C119.935 83.1713 117.68 82.3027 114.725 82.3027C113.068 82.2805 111.433 82.6631 109.968 83.4151C108.578 84.1341 107.416 85.206 106.605 86.5162C105.794 87.8264 105.365 89.3256 105.365 90.8535C105.365 92.3814 105.794 93.8806 106.605 95.1907C107.416 96.5009 108.578 97.5728 109.968 98.2918C111.432 99.0453 113.068 99.4286 114.725 99.4062C117.664 99.4062 119.919 98.5263 121.49 96.7665L119.618 94.9205C119.012 95.5696 118.27 96.0857 117.441 96.4343C116.613 96.7829 115.717 96.9559 114.815 96.9418C113.661 96.9592 112.522 96.6871 111.509 96.1518C110.551 95.6424 109.756 94.887 109.212 93.9684C108.667 93.0086 108.382 91.931 108.382 90.8355C108.382 89.7401 108.667 88.6625 109.212 87.7028C109.754 86.7884 110.55 86.0392 111.509 85.5401Z" fill="#002F87"/>
<path d="M156.978 91.9974C156.38 91.2635 155.546 90.7451 154.608 90.5249C155.302 90.2002 155.888 89.6933 156.3 89.0617C156.714 88.3908 156.924 87.6189 156.902 86.8368C156.921 86.2189 156.778 85.6065 156.488 85.0561C156.198 84.5057 155.769 84.0352 155.242 83.688C154.133 82.9162 152.563 82.5303 150.53 82.5303H142.557V99.1643H151.014C153.227 99.1643 154.913 98.774 156.07 97.9934C157.228 97.2128 157.807 96.0997 157.807 94.6541C157.808 93.5869 157.532 92.7014 156.978 91.9974ZM145.485 84.7062H150.228C151.435 84.7062 152.362 84.9161 153.007 85.3359C153.653 85.7558 153.977 86.3755 153.979 87.1951C153.996 87.5587 153.913 87.92 153.741 88.2434C153.569 88.5668 153.312 88.841 152.998 89.0391C152.343 89.469 151.422 89.684 150.234 89.684H145.485V84.7062ZM150.862 97.0054H145.485V91.8447H150.862C153.525 91.8447 154.856 92.7058 154.856 94.4279C154.856 96.15 153.525 97.0092 150.862 97.0054Z" fill="#002F87"/>
<path d="M81.3916 83.39C80.0498 82.6513 78.5279 82.2755 76.9851 82.3021C75.4321 82.2784 73.9004 82.6539 72.5454 83.39C71.2441 84.1061 70.1747 85.16 69.4574 86.4332C68.6986 87.7759 68.312 89.2863 68.3353 90.8171C68.3077 92.3638 68.705 93.8899 69.4865 95.2386C70.2514 96.537 71.3864 97.5937 72.7555 98.2818C74.1054 98.9242 75.5769 99.2906 77.079 99.3584C78.5809 99.4261 80.0814 99.1939 81.4869 98.6759C82.6123 98.2405 83.6129 97.5484 84.4038 96.6584L82.6809 94.7031C81.4234 96.0468 79.7646 96.7194 77.7045 96.7206C76.0192 96.7206 74.6048 96.2737 73.4614 95.38C72.9023 94.9467 72.4375 94.4101 72.094 93.8013C71.7505 93.1924 71.5352 92.5235 71.4603 91.8334H85.4327C85.4719 91.5299 85.4942 91.2247 85.4987 90.9189C85.5288 89.3612 85.1546 87.8212 84.4096 86.4408C83.7192 85.1692 82.6732 84.1119 81.3916 83.39ZM71.4565 89.65C71.6289 88.2207 72.2201 87.0643 73.2299 86.1806C74.2399 85.2969 75.4916 84.8569 76.9851 84.8608C78.4811 84.8608 79.7335 85.3069 80.7421 86.1994C81.7526 87.0976 82.3844 88.3268 82.5156 89.65H71.4565Z" fill="#002F87"/>
<path d="M46.4995 89.6363H38.3476C37.483 89.6365 36.6292 89.8225 35.8477 90.1812C35.0662 90.5399 34.3765 91.0621 33.8283 91.7104C33.28 91.0621 32.5904 90.5399 31.8089 90.1812C31.0274 89.8225 30.1735 89.6365 29.309 89.6363H28.8442L33.8283 80.1974L38.2329 88.5465H41.5193L33.8283 74.0732L25.5578 89.6363H21.1571L20 91.8141H29.309C30.0264 91.8145 30.7274 92.0218 31.323 92.4096C31.9186 92.7974 32.3818 93.3481 32.6537 93.9918H35.0028C35.2748 93.3481 35.738 92.7974 36.3336 92.4096C36.9291 92.0218 37.6302 91.8145 38.3476 91.8141H40.0142L43.9248 99.1675H47.1645L43.2559 91.8141H47.6566L46.4995 89.6363Z" fill="#002F87"/>
<path d="M20.4902 99.1717H23.7767L27.1078 92.9023H23.8214L20.4902 99.1717Z" fill="#002F87"/>
</g>
<defs>
<clipPath id="clip0_8401_1522">
<rect width="138" height="26" fill="white" transform="translate(20 74)"/>
</clipPath>
</defs>
</svg>
