<svg width="177" height="177" viewBox="0 0 177 177" fill="none" xmlns="http://www.w3.org/2000/svg">
<rect width="177" height="177" fill="white"/>
<path d="M58.881 85.5216C59.5233 85.5216 60.1614 85.5088 60.8037 85.5216C62.1826 85.5516 63.0904 86.3695 63.1546 87.7527C63.2146 89.0973 63.2103 90.4462 63.1546 91.7951C63.1161 92.7072 62.7649 93.5593 61.9899 94.0946C57.9517 96.8652 51.7811 97.0236 48.3039 93.1226C43.7263 87.9882 46.1714 79.8563 52.6547 78.0749C55.2668 77.3555 57.7847 77.5525 60.2427 78.683C60.7994 78.9399 61.3004 79.2568 61.7329 79.6893C62.4352 80.3958 62.5423 81.3165 62.007 82.083C61.4203 82.9223 60.4997 83.2007 59.5661 82.7425C58.5812 82.2586 57.6691 81.6848 56.5557 81.4321C53.6139 80.7641 50.475 82.7853 50.1838 86.3567C50.0168 88.3864 50.5949 90.2278 52.3849 91.4739C54.3204 92.8228 56.3716 92.8271 58.4613 91.8722C59.579 91.3626 59.1122 90.3306 59.1079 89.5127C59.1037 88.6819 58.3457 88.9774 57.8704 88.9388C57.4122 88.896 56.9411 88.9517 56.4829 88.9174C55.5066 88.8361 54.8857 88.1809 54.8686 87.2645C54.8557 86.3738 55.4895 85.6715 56.4316 85.5388C56.5001 85.5302 56.5729 85.5302 56.6457 85.5302C57.3951 85.5302 58.1402 85.5302 58.8895 85.5302L58.881 85.5216Z" fill="#4A4A4A"/>
<path d="M79.6412 89.4946C79.6412 88.8566 79.6198 88.2185 79.6412 87.5805C79.684 86.5356 79.7011 85.6363 78.485 85.0283C77.53 84.5529 77.6542 82.9129 78.6605 82.4632C79.5898 82.0479 79.6497 81.4483 79.654 80.6219C79.6669 78.9347 81.247 78.0012 82.6002 78.8405C83.3538 79.3115 83.5508 80.0823 83.478 80.8831C83.3924 81.8851 83.7906 82.2191 84.7627 82.1335C85.5035 82.0693 86.2572 82.0907 87.0066 82.1292C87.7474 82.1678 88.0429 81.8766 88.0043 81.14C87.9615 80.3906 87.9915 79.6198 88.6295 79.0803C89.3104 78.5065 90.0855 78.3566 90.9076 78.7977C91.6999 79.2173 92.0296 79.9967 91.9097 80.7589C91.717 81.9665 92.2351 82.1763 93.25 82.1378C93.9737 82.1121 94.676 82.2791 95.0614 83.0199C95.6566 84.1675 94.903 85.4137 93.5455 85.5122C91.884 85.6321 91.8369 85.6578 91.8626 87.3064C91.884 88.6853 91.7512 90.0641 92.0039 91.443C92.1452 92.2138 92.5049 92.5307 93.28 92.5607C94.5604 92.6078 95.1556 93.0874 95.207 94.0894C95.2627 95.1471 94.539 95.6139 93.6397 95.798C91.7298 96.1963 89.5887 96.025 88.6552 94.5904C88.0771 93.6997 88.0429 92.7105 88.0086 91.7385C87.9487 90.0384 87.9615 88.3341 88.0086 86.6341C88.03 85.8333 87.8073 85.4436 86.9295 85.5036C86.1159 85.5635 85.2894 85.5507 84.4715 85.5036C83.7135 85.4651 83.4737 85.7862 83.4866 86.5099C83.5208 88.0344 83.4994 89.5588 83.4994 91.0833C83.4994 92.0297 83.9533 92.5136 84.9254 92.5564C85.8461 92.5949 86.6254 92.8776 86.7111 93.9781C86.7924 94.993 86.3814 95.601 85.2123 95.8109C83.2425 96.1663 81.1185 96.1149 80.1979 94.4877C79.7054 93.6184 79.6369 92.6806 79.6369 91.7256C79.6369 90.9805 79.6369 90.2354 79.6369 89.4903L79.6412 89.4946Z" fill="#4A4A4A"/>
<path d="M26.6877 77.0038C29.0386 77.0038 31.3895 76.9952 33.7362 77.0038C35.2521 77.0124 36.3312 77.8945 36.4425 79.1792C36.5453 80.3739 35.6289 81.423 34.2372 81.7613C33.5991 81.9155 32.9654 81.8812 32.3273 81.8812C29.2998 81.8898 26.2723 81.9198 23.249 81.8641C22.247 81.847 21.8745 82.1125 21.8959 83.1659C21.9601 86.2833 21.9173 89.4051 21.9173 92.5225C21.9173 93.0193 21.8959 93.5074 21.776 93.9956C21.4163 95.4515 20.654 96.0382 19.1895 95.944C17.9991 95.8669 17.0698 94.9077 17.027 93.5931C16.9756 92.1757 17.0142 90.7582 17.0099 89.3408C17.0099 86.2577 17.0099 83.1745 17.0099 80.087C17.0142 77.8046 17.7978 77.0081 20.0674 77.0038C22.277 77.0038 24.4823 77.0038 26.6919 77.0038H26.6877Z" fill="#4A4A4A"/>
<path d="M115.8 86.5871C115.8 89.0323 115.808 91.4774 115.8 93.9268C115.796 95.1301 115.247 95.781 114.168 95.9223C113.299 96.0379 112.391 95.4042 112.117 94.4407C112.01 94.0724 111.954 93.6742 111.954 93.2931C111.942 88.7539 111.942 84.2191 111.954 79.6799C111.954 78.2582 112.404 77.5217 113.385 77.2262C114.678 76.8365 115.783 77.5945 115.796 78.9348C115.821 81.487 115.804 84.0392 115.804 86.5914L115.8 86.5871Z" fill="#4A4A4A"/>
<path d="M29.8692 86.5188C29.8563 88.2873 28.4603 89.6619 26.6704 89.6747C24.8462 89.6876 23.4073 88.253 23.4245 86.4417C23.4416 84.6603 24.9404 83.23 26.756 83.2643C28.486 83.2985 29.8863 84.7588 29.8692 86.5188Z" fill="#DD833A"/>
<path d="M36.4253 86.4636C36.4081 84.9905 35.329 83.9157 33.963 83.9199C32.6826 83.9199 31.5992 85.0205 31.565 86.4079C31.5307 87.684 31.505 88.9601 31.565 90.2362C31.6035 91.0584 31.2909 91.281 30.5158 91.2468C29.2697 91.1954 28.0236 91.2211 26.7775 91.2382C24.9447 91.2596 24.054 92.1932 24.0925 94.0259C24.2852 95.2549 25.1074 96.1071 26.3492 96.1328C28.9442 96.1885 31.5393 96.1842 34.1343 96.1328C34.9607 96.1157 35.7487 95.8202 36.0399 94.8867C36.2882 94.4884 36.4381 94.0688 36.4381 93.5849C36.4295 91.2082 36.4552 88.8359 36.4253 86.4593V86.4636Z" fill="#DD833A"/>
<path d="M106.765 85.7692C105.33 85.2511 103.831 84.9042 102.375 84.4289C101.515 84.1463 100.718 83.6024 100.915 82.6132C101.095 81.714 101.909 81.32 102.859 81.2515C104.439 81.1359 105.763 81.8168 107.111 82.4719C108.024 82.9173 109.004 82.6175 109.518 81.7911C110.04 80.9518 109.835 79.9883 108.97 79.3716C108.623 79.1233 108.242 78.9306 107.874 78.7122C105.844 77.3547 103.596 77.526 101.343 77.8043C100.774 77.8771 100.127 77.9242 99.7503 78.498C98.6798 79.1147 97.7634 79.8726 97.3523 81.0888C96.1918 84.5188 97.6006 87.1096 101.116 88.0988C102.517 88.4927 103.951 88.8053 105.291 89.3877C105.994 89.6917 106.486 90.1157 106.392 90.9935C106.294 91.8928 105.608 92.4409 104.294 92.5308C102.465 92.655 100.907 91.9313 99.3906 90.9978C98.3115 90.3341 97.1639 90.5525 96.6286 91.4046C96.0762 92.2868 96.4145 93.4472 97.4551 94.1409C99.8745 95.7511 102.568 96.2392 105.407 95.9009C106.846 95.7296 108.173 95.1858 109.141 94.0382C111.659 91.0449 110.546 87.1353 106.76 85.7692H106.765Z" fill="#4A4A4A"/>
<path d="M150.624 83.5896C150.525 83.7566 150.435 83.9707 150.191 83.8936C149.956 83.8165 150.011 83.5767 149.994 83.3926C150.204 83.4568 150.414 83.5253 150.624 83.5938V83.5896Z" fill="#4A4A4A"/>
<path d="M152.34 82.3263C152.118 82.5918 151.822 82.7074 151.488 82.7588C151.664 82.4034 151.981 82.322 152.34 82.3263Z" fill="#4A4A4A"/>
<path d="M160.266 86.4854C159.046 82.7342 155.667 81.0513 152.34 82.3274C152.066 82.4944 151.719 82.5115 151.488 82.7599C151.132 82.9655 150.841 83.2438 150.618 83.5907C150.284 83.9075 150.156 83.5992 149.989 83.3894C149.651 82.3274 148.875 81.9934 147.831 82.109C146.867 82.2204 146.422 82.8456 146.272 83.732C146.203 84.1474 146.152 84.5756 146.148 84.9952C146.139 89.0376 146.148 93.08 146.139 97.1224C146.139 97.6235 146.165 98.1116 146.332 98.5912C146.674 99.5676 147.505 100.12 148.452 99.9787C149.394 99.8374 149.967 99.1693 149.993 98.1116C150.019 97.1567 149.993 96.1975 150.006 95.2383C150.006 94.9642 149.92 94.6131 150.224 94.4718C150.554 94.3176 150.704 94.6859 150.914 94.8486C153.085 96.5358 156.515 96.3773 158.446 94.4332C160.69 92.1722 161.213 89.4145 160.262 86.4812L160.266 86.4854ZM155.95 91.38C154.913 92.6989 153.397 93.1014 152.091 92.4206C150.546 91.6155 149.625 89.5515 150.139 88.0227C150.597 86.6567 151.256 85.4748 152.905 85.3078C155.196 85.0809 156.635 86.5026 156.626 88.9777C156.661 89.8513 156.506 90.6734 155.954 91.3757L155.95 91.38Z" fill="#4A4A4A"/>
<path d="M136.432 90.4103C137.429 90.3931 138.427 90.4017 139.425 90.4017C140.53 90.3974 141.635 90.4317 142.735 90.3889C144.17 90.3289 144.863 89.5624 144.851 88.145C144.825 85.6742 142.859 83.0577 140.508 82.2612C136.564 80.9252 132.154 83.2847 131.537 87.8495C131.143 90.74 131.935 93.168 134.342 94.8295C136.791 96.521 139.489 96.5467 142.144 95.2492C143.703 94.4869 144.221 93.5234 143.741 92.6841C143.116 91.5922 142.358 91.5451 140.663 92.4914C139.005 93.4121 136.86 92.9967 135.866 91.5579C135.682 91.2881 135.498 90.9755 135.597 90.6715C135.721 90.2732 136.136 90.4188 136.432 90.4146V90.4103ZM135.605 86.8646C136.008 85.7127 137.108 85.0104 138.453 85.0918C139.661 85.1689 140.598 85.9868 140.877 87.1258C141.005 87.6568 140.834 87.8581 140.324 87.8624C139.613 87.8624 138.903 87.8624 138.192 87.8624C137.554 87.8624 136.911 87.8495 136.273 87.8666C135.494 87.8881 135.37 87.5326 135.605 86.8603V86.8646Z" fill="#4A4A4A"/>
<path d="M122.326 90.411C123.324 90.3981 124.322 90.4067 125.32 90.4067C126.424 90.4024 127.529 90.4367 128.63 90.3938C129.944 90.3424 130.749 89.6316 130.728 88.4668C130.698 86.4242 129.97 84.6428 128.33 83.3667C125.572 81.2213 121.821 81.4355 119.363 83.8035C117.064 86.0174 116.657 90.3253 118.408 92.9417C119.92 95.2027 122.117 96.1277 124.686 96.1106C126.39 96.0977 128.077 95.6695 129.328 94.2949C129.803 93.7725 129.777 93.173 129.615 92.5949C129.452 92.0211 128.865 91.8669 128.347 91.7513C127.808 91.6314 127.418 92.0168 126.994 92.2652C125.041 93.4171 123.012 93.1559 121.804 91.6014C121.59 91.3231 121.311 91.0233 121.47 90.6508C121.628 90.2868 122.027 90.4152 122.331 90.411H122.326ZM121.538 86.7454C122.005 85.5806 123.119 84.964 124.575 85.0925C125.594 85.1824 126.514 86.0688 126.776 87.1308C126.908 87.6703 126.716 87.8588 126.21 87.863C125.499 87.863 124.784 87.863 124.073 87.863C123.47 87.863 122.862 87.8416 122.258 87.8716C121.32 87.9187 121.252 87.4691 121.543 86.7454H121.538Z" fill="#4A4A4A"/>
<path d="M68.9959 90.3983C70.0622 90.4283 71.1327 90.4069 72.199 90.4069C72.7343 90.4069 73.2653 90.4069 73.8006 90.4069C74.3701 90.4069 74.9396 90.424 75.5092 90.4026C76.918 90.3426 77.5089 89.7303 77.5261 88.3471C77.5603 85.4224 75.6376 82.8274 72.8285 82.1336C70.1564 81.4785 67.7755 82.108 65.9556 84.1891C64.1356 86.2745 63.9001 88.7025 64.5767 91.3532C65.7629 95.978 72.0663 97.5239 75.8689 94.6334C76.6525 94.0339 76.858 93.246 76.417 92.5009C75.9759 91.7515 75.1709 91.5288 74.2844 91.9699C73.6807 92.2696 73.1282 92.6593 72.4645 92.8392C70.863 93.2759 69.1801 92.6422 68.4735 91.3575C68.1266 90.728 68.1352 90.3769 69.0002 90.4026L68.9959 90.3983ZM68.3193 87.0111C68.2979 86.5143 68.5377 86.176 68.9617 85.9448C70.6574 84.3561 73.0726 85.0113 73.7278 87.2209C73.8562 87.6491 73.7192 87.8461 73.3124 87.8504C71.7537 87.8632 70.1907 87.8804 68.6319 87.8461C67.9853 87.8333 68.1438 87.3965 68.315 87.0111H68.3193Z" fill="#4A4A4A"/>
</svg>
