<svg width="177" height="177" viewBox="0 0 177 177" fill="none" xmlns="http://www.w3.org/2000/svg">
<rect width="177" height="177" fill="white"/>
<g clip-path="url(#clip0_6911_1498)">
<path fill-rule="evenodd" clip-rule="evenodd" d="M93.4678 84.3884C92.053 85.9231 90.6136 86.3559 89.785 86.4787C89.7507 85.7376 89.8693 84.9973 90.1332 84.304C90.3972 83.6106 90.801 82.979 91.3195 82.4484C92.3193 81.3663 93.6525 80.6499 95.1067 80.4134C95.0023 81.8865 94.4242 83.2863 93.4586 84.4037L93.4678 84.3884ZM87.1794 86.4695C86.3539 86.3498 84.9145 85.9108 83.4966 84.3791C82.5311 83.2618 81.9529 81.862 81.8486 80.3888C83.3027 80.6253 84.6359 81.3417 85.6357 82.4239C86.1536 82.9549 86.557 83.5866 86.8209 84.2798C87.0849 84.973 87.2038 85.7131 87.1702 86.4541L87.1794 86.4695ZM88.6986 78.983C88.6126 78.8633 87.5876 77.6754 85.2644 76.644C84.1217 76.1162 82.9042 75.7684 81.6552 75.6127C81.5343 75.597 81.4115 75.6052 81.2938 75.637C81.176 75.6687 81.0657 75.7234 80.9691 75.7978C80.774 75.948 80.6466 76.1696 80.6148 76.4138C80.5831 76.6581 80.6496 76.9049 80.7999 77.1C80.9501 77.2952 81.1716 77.4226 81.4158 77.4544C82.4787 77.5887 83.5142 77.888 84.4848 78.3415C85.4884 78.7504 86.4088 79.3391 87.2009 80.0788C87.3442 80.2782 87.5608 80.4126 87.8031 80.4523C88.0454 80.492 88.2935 80.4339 88.493 80.2906C88.6924 80.1473 88.8267 79.9307 88.8664 79.6883C88.9061 79.446 88.848 79.1978 88.7047 78.9983L88.6986 78.983ZM88.3303 72.2301C87.8022 71.9044 87.2279 71.6602 86.627 71.5057C86.3881 71.4488 86.1364 71.489 85.9272 71.6177C85.7179 71.7463 85.5684 71.9528 85.5114 72.1918C85.4544 72.4307 85.4947 72.6825 85.6233 72.8917C85.752 73.101 85.9584 73.2505 86.1973 73.3075C86.6007 73.4162 86.987 73.5805 87.3451 73.7956V73.7956C87.5527 73.9266 87.8038 73.9699 88.0432 73.9158C88.2827 73.8617 88.4908 73.7146 88.6219 73.507C88.7529 73.2994 88.7961 73.0483 88.742 72.8088C88.6879 72.5694 88.5409 72.3612 88.3334 72.2301H88.3303ZM85.8505 73.9613C86.7351 74.3232 87.5687 74.7988 88.3303 75.3764V75.3764C88.4264 75.4509 88.5069 75.5437 88.5672 75.6494C88.6275 75.7551 88.6663 75.8716 88.6816 75.9923C88.6968 76.113 88.6881 76.2355 88.656 76.3529C88.6239 76.4703 88.5691 76.5801 88.4945 76.6763C88.4199 76.7724 88.3272 76.8529 88.2215 76.9132C88.1158 76.9735 87.9993 77.0124 87.8786 77.0276C87.7579 77.0429 87.6354 77.0342 87.5181 77.0021C87.4008 76.97 87.2909 76.9151 87.1948 76.8405V76.8405C87.1579 76.8129 86.8725 76.598 86.4735 76.3494C86.0653 76.0992 85.6385 75.8806 85.1968 75.6956C84.4845 75.4391 83.7527 75.24 83.0086 75.1001V75.1001C82.8885 75.0783 82.7739 75.0331 82.6713 74.967C82.5686 74.901 82.48 74.8153 82.4105 74.715C82.341 74.6147 82.2919 74.5016 82.266 74.3823C82.2401 74.263 82.238 74.1398 82.2598 74.0196C82.2816 73.8995 82.3268 73.7849 82.3928 73.6822C82.4589 73.5796 82.5445 73.491 82.6449 73.4214C82.7452 73.3519 82.8582 73.3028 82.9775 73.2769C83.0968 73.251 83.22 73.2489 83.3401 73.2707V73.2707C84.1996 73.4009 85.041 73.6306 85.8475 73.9552L85.8505 73.9613ZM96.9972 79.3513C96.9807 79.1303 96.885 78.9226 96.7277 78.7664C96.5704 78.6102 96.3621 78.516 96.1409 78.5011C94.9876 78.4898 93.8449 78.7218 92.7873 79.182C91.7297 79.6421 90.7809 80.32 90.0029 81.1715C89.3648 81.8386 88.8541 82.6167 88.496 83.4675C88.1391 82.6168 87.6295 81.8386 86.9922 81.1715C86.2142 80.32 85.2654 79.6421 84.2078 79.182C83.1502 78.7218 82.0075 78.4898 80.8542 78.5011C80.6331 78.516 80.4247 78.6102 80.2674 78.7664C80.1101 78.9226 80.0144 79.1303 79.9979 79.3513C79.9979 79.4987 79.7432 83.0347 82.1616 85.6407C84.9421 88.6519 87.7165 88.4984 88.5329 88.4984C89.3492 88.4984 92.0776 88.6519 94.8581 85.6407C97.2519 83.0255 97.0094 79.5017 96.9972 79.3544V79.3513Z" fill="#F9B101"/>
<path fill-rule="evenodd" clip-rule="evenodd" d="M83.4433 94.5317H88.1424C88.4355 94.515 88.7245 94.6035 88.953 94.7799L89.0326 94.856C89.0522 94.8782 89.0699 94.9017 89.0857 94.9265V94.9265C89.1718 95.0595 89.2271 95.2085 89.2478 95.3636C89.2701 95.5102 89.28 95.6583 89.2773 95.8064V102.888H88.2632V95.8036C88.2664 95.7087 88.2565 95.6139 88.2337 95.5216L88.219 95.4877C88.1987 95.4757 88.1769 95.4662 88.1542 95.4595H88.1306C88.091 95.4497 88.0505 95.444 88.0097 95.4426H83.5937C83.5324 95.4461 83.4719 95.4575 83.4139 95.4764H83.3873C83.3703 95.5021 83.3592 95.5309 83.3549 95.561C83.3538 95.5713 83.3538 95.5817 83.3549 95.5921V95.5921C83.349 95.6606 83.349 95.7294 83.3549 95.7979V102.888H82.3408V95.8036C82.3396 95.6555 82.3494 95.5075 82.3703 95.3608C82.3907 95.2052 82.4471 95.0559 82.5354 94.9237C82.6444 94.7706 82.8044 94.6573 82.9893 94.6022C83.0389 94.5841 83.0903 94.5708 83.1426 94.5627C83.251 94.54 83.3619 94.5296 83.4728 94.5317H83.4433ZM116.923 95.6738L114.046 102.338C113.978 102.504 113.869 102.652 113.728 102.769V102.769L113.654 102.826C113.52 102.919 113.36 102.972 113.194 102.978V102.978C113.068 102.971 112.944 102.938 112.831 102.883C112.719 102.828 112.619 102.751 112.54 102.656C112.498 102.612 112.462 102.564 112.43 102.513C112.396 102.457 112.365 102.4 112.339 102.34V102.34L109.462 95.6767C109.458 95.667 109.453 95.6576 109.447 95.6485V102.888H108.436V95.3664C108.422 95.1209 108.505 94.8794 108.669 94.6896C108.753 94.6046 108.856 94.5382 108.97 94.4949C109.084 94.4515 109.207 94.4324 109.329 94.4386V94.4386C109.533 94.4275 109.734 94.4821 109.901 94.5937C110.052 94.713 110.166 94.8689 110.231 95.045L113.091 101.633L113.111 101.678C113.167 101.788 113.182 101.861 113.191 101.861C113.2 101.861 113.218 101.782 113.277 101.661V101.633L116.148 95.045C116.213 94.8689 116.327 94.713 116.478 94.5937C116.645 94.4825 116.847 94.4279 117.05 94.4386V94.4386C117.172 94.4326 117.294 94.4516 117.408 94.4944C117.522 94.5372 117.625 94.6028 117.71 94.6868C117.874 94.8788 117.957 95.122 117.943 95.3693V102.888H116.932V95.6485C116.933 95.654 116.933 95.6598 116.932 95.6654L116.923 95.6738ZM100.403 96.0602C99.7455 96.7596 99.7455 98.0342 99.7455 98.7421V98.7844C99.7455 99.4415 99.7455 100.601 100.394 101.306L100.418 101.331C100.743 101.653 101.162 101.875 101.62 101.965C102.525 102.135 103.455 102.135 104.359 101.965C104.817 101.874 105.236 101.653 105.562 101.331C106.237 100.629 106.234 99.4471 106.234 98.7928V98.7505C106.244 98.2989 106.216 97.8472 106.151 97.3997C106.095 96.9131 105.895 96.4516 105.577 96.0686V96.0686C105.245 95.7464 104.82 95.5281 104.356 95.4426C103.456 95.2884 102.535 95.2884 101.635 95.4426C101.17 95.5246 100.743 95.74 100.409 96.0602H100.403ZM98.6695 98.6575C98.6629 98.1017 98.7243 97.5471 98.8522 97.0049C98.9893 96.3843 99.3036 95.8123 99.7602 95.3523C100.189 94.9683 100.719 94.704 101.293 94.5881C102.413 94.3813 103.564 94.3813 104.683 94.5881C105.258 94.7033 105.788 94.9677 106.216 95.3523C106.675 95.8109 106.989 96.3835 107.124 97.0049C107.252 97.547 107.313 98.1017 107.304 98.6575C107.304 99.9519 107.03 100.846 106.67 101.447C106.541 101.651 106.388 101.84 106.213 102.011C105.741 102.431 105.154 102.715 104.521 102.831C103.506 103.008 102.465 103.008 101.449 102.831C100.816 102.715 100.23 102.431 99.7573 102.011V102.011C99.4765 101.734 99.2543 101.409 99.1028 101.052C99.0674 100.973 99.0321 100.888 98.9996 100.795C98.7631 100.102 98.6505 99.3753 98.6665 98.6462L98.6695 98.6575ZM91.7271 95.7331V101.991H94.4067C94.9441 102.001 95.4698 101.84 95.9014 101.534C95.9825 101.474 96.0584 101.408 96.1283 101.337C96.1995 101.264 96.2636 101.186 96.32 101.102C96.5142 100.795 96.6406 100.452 96.6914 100.096C96.7655 99.6292 96.7981 99.1575 96.7887 98.6857C96.794 98.2389 96.7674 97.7923 96.7091 97.349C96.6739 97.0763 96.5995 96.8097 96.488 96.5565C96.3423 96.2415 96.1062 95.9726 95.807 95.781C95.751 95.7472 95.695 95.7133 95.636 95.6823C95.2872 95.5096 94.8997 95.4205 94.507 95.4229H92.0277C91.9752 95.4304 91.9249 95.4487 91.8804 95.4764L91.8509 95.4934H91.8243C91.788 95.5202 91.7604 95.5564 91.7447 95.5977C91.731 95.6377 91.725 95.6797 91.7271 95.7218V95.7331ZM94.0677 102.888H91.7271V105.519H90.7159V95.6344C90.7123 95.435 90.7697 95.239 90.881 95.0703C90.9548 94.9629 91.0464 94.8676 91.1522 94.7883C91.3139 94.6767 91.499 94.5997 91.6946 94.5627C91.8472 94.5357 92.0023 94.5234 92.1575 94.5261H94.333C94.7385 94.5222 95.1425 94.5735 95.5329 94.6784C96.0756 94.82 96.5665 95.1032 96.9508 95.4962C97.3611 95.9214 97.6388 96.4479 97.7527 97.0162C97.8517 97.5332 97.8942 98.0587 97.8794 98.5841C97.8908 99.1089 97.8533 99.6337 97.7674 100.152C97.6784 100.678 97.4778 101.181 97.1778 101.63C96.8708 102.09 96.417 102.443 95.8837 102.637C95.2994 102.826 94.684 102.911 94.0677 102.888V102.888ZM88.1129 95.4369L94.0677 102.888L88.1129 95.4369ZM26.1176 95.42H23.146V99.6501C23.1414 100.062 23.2133 100.472 23.3583 100.86C23.3862 100.928 23.4177 100.995 23.4526 101.06C23.4862 101.123 23.5246 101.183 23.5676 101.241V101.241C23.8119 101.576 24.1671 101.822 24.5758 101.94C24.9702 102.055 25.3811 102.109 25.7933 102.101C26.1531 102.107 26.5124 102.072 26.8634 101.996C27.268 101.916 27.6349 101.713 27.9099 101.418C28.2006 101.03 28.3777 100.574 28.4229 100.099C28.4963 99.5799 28.5288 99.0567 28.5202 98.5334C28.5338 98.0751 28.5062 97.6166 28.4376 97.1628C28.3798 96.7334 28.1864 96.331 27.8834 96.0094V96.0094C27.7339 95.8646 27.5581 95.7471 27.3646 95.6626C27.3213 95.6425 27.2771 95.6246 27.2319 95.609C26.8748 95.4858 26.4971 95.4266 26.1176 95.4341V95.42ZM39.1445 102.888H38.0627L38.1098 102.775L41.326 95.138C41.4166 94.8936 41.5912 94.6858 41.8213 94.5486C41.9506 94.4765 42.0976 94.4386 42.2473 94.4386C42.3969 94.4386 42.5439 94.4765 42.6732 94.5486C42.9033 94.6858 43.078 94.8936 43.1685 95.138V95.138L46.3847 102.775L46.4319 102.888H45.294L45.2704 102.834L42.3224 95.6597V95.6372C42.3062 95.5773 42.2804 95.5202 42.2458 95.468C42.2157 95.5207 42.192 95.5765 42.175 95.6344V95.6344V95.6597L39.2271 102.834L39.2065 102.888H39.1445ZM31.5418 97.2108C31.4927 97.532 31.4671 97.8562 31.4651 98.1809H36.5975C36.8717 98.1809 36.8687 97.8425 36.8687 97.7353V97.7212C36.8797 97.2655 36.7647 96.8151 36.5356 96.4155C36.5014 96.3582 36.464 96.3027 36.4236 96.2491C36.3874 96.198 36.348 96.1491 36.3057 96.1025V96.1025C36.0458 95.8061 35.6917 95.5991 35.2975 95.5131C34.9223 95.4395 34.5393 95.4092 34.1566 95.4229C33.7326 95.4047 33.3081 95.4484 32.8979 95.5526C32.4548 95.6885 32.0826 95.981 31.8572 96.3704V96.3704C31.6962 96.6304 31.5891 96.9176 31.5418 97.2164V97.2108ZM37.3787 102.081V102.888H33.4403C33.0381 102.892 32.6384 102.826 32.2611 102.693C31.8001 102.521 31.3994 102.228 31.1055 101.847C30.7823 101.433 30.5717 100.948 30.4923 100.437C30.4106 99.8765 30.3771 99.3106 30.3921 98.7449C30.3743 98.1324 30.4317 97.52 30.5631 96.9203C30.7026 96.2833 31.0568 95.7077 31.5713 95.2818C31.9643 94.9795 32.4256 94.769 32.9185 94.6671C33.3744 94.5712 33.8402 94.5257 34.307 94.5317C34.8437 94.5266 35.3782 94.5979 35.893 94.7432C36.0031 94.7763 36.1113 94.8149 36.2172 94.8588C36.3245 94.9024 36.4289 94.9523 36.5297 95.0083V95.0083C36.8607 95.2016 37.1467 95.4579 37.3699 95.7613C37.7707 96.3239 37.9769 96.9926 37.9595 97.6733C37.9611 97.8531 37.9433 98.0327 37.9064 98.2091C37.8651 98.4365 37.7483 98.6452 37.5733 98.8041V98.8041C37.4302 98.9167 37.26 98.9933 37.078 99.0269C36.9246 99.0557 36.7686 99.0699 36.6123 99.0692H31.4681C31.461 99.4461 31.4807 99.8229 31.5271 100.197C31.5271 100.273 31.5477 100.35 31.5624 100.423C31.5772 100.496 31.5919 100.558 31.6096 100.615V100.632C31.6797 100.893 31.8086 101.137 31.9873 101.346C32.166 101.555 32.3902 101.724 32.6443 101.841C32.7606 101.891 32.8822 101.927 33.0069 101.951C33.1474 101.98 33.2907 101.995 33.4344 101.994H37.3846V102.075L37.3787 102.081ZM29.039 91.9852V92.7917H25.245C24.8337 92.7915 24.4286 92.8884 24.0658 93.0737C24.0007 93.1063 23.9386 93.1441 23.8801 93.1865C23.8238 93.226 23.7706 93.2693 23.7209 93.3163V93.3163C23.475 93.5646 23.303 93.8713 23.2227 94.2046C23.205 94.2694 23.1932 94.3371 23.1814 94.4048C23.1814 94.4499 23.1814 94.4951 23.1814 94.5374H26.0999C26.88 94.5235 27.6463 94.7348 28.2991 95.1437C28.4364 95.2389 28.5646 95.3455 28.6823 95.4623C28.8054 95.5858 28.915 95.7209 29.0095 95.8656V95.8656C29.2684 96.2787 29.435 96.7387 29.4989 97.2164C29.5652 97.6837 29.5948 98.155 29.5873 98.6265C29.5944 99.1624 29.557 99.698 29.4753 100.228C29.4065 100.724 29.2384 101.203 28.98 101.638C28.6321 102.177 28.0931 102.577 27.4618 102.766C26.9301 102.922 26.3757 102.994 25.8198 102.981C25.2608 102.997 24.7027 102.928 24.166 102.778C23.4997 102.577 22.9372 102.143 22.5918 101.562C22.3939 101.231 22.2601 100.868 22.1968 100.491C22.1432 100.151 22.1195 99.8075 22.1261 99.464V95.169C22.1219 94.8566 22.1446 94.5445 22.1939 94.2356C22.2533 93.8695 22.3822 93.5168 22.5741 93.195C22.8012 92.8337 23.1208 92.5338 23.5027 92.3236C23.5764 92.2841 23.6501 92.2446 23.7238 92.2136C24.1847 92.006 24.6884 91.9 25.1978 91.9034H29.0478V91.9852H29.039ZM121.207 96.345H123.662C123.94 96.3274 124.219 96.3729 124.475 96.4778C124.731 96.5827 124.957 96.744 125.136 96.9485C125.41 97.2869 125.572 97.8763 125.572 98.9226C125.572 99.5881 125.525 100.544 124.983 101.024C124.629 101.351 123.919 101.52 123.338 101.52C122.542 101.52 121.961 101.289 121.64 100.933C121.335 100.565 121.18 100.103 121.204 99.6332V96.345H121.207ZM154.875 102.809L151.228 99.1594C151.125 99.0851 151.043 98.987 150.989 98.8742C150.936 98.7614 150.913 98.6375 150.923 98.5141C150.933 98.3907 150.976 98.2717 151.047 98.1681C151.117 98.0645 151.214 97.9797 151.329 97.9214L154.571 94.6135H152.319L149.589 97.5294C149.345 97.7917 149 98.1781 149 98.5954C149.033 98.9614 149.206 99.3028 149.486 99.5543L152.605 102.817L154.875 102.809ZM148.619 94.6135H146.73V102.809H148.619V94.6135ZM145.436 102.809V94.6135H143.543V97.8904H139.454V94.6135H137.562V102.809H139.454V99.2807H143.543V102.809H145.436ZM134.378 99.0974V100.984C134.388 101.046 134.381 101.11 134.358 101.169C134.336 101.228 134.298 101.281 134.248 101.322C134.123 101.395 133.976 101.428 133.83 101.416H131.182C130.953 101.408 130.735 101.319 130.569 101.167C130.378 100.9 130.288 100.579 130.313 100.256C130.313 99.6699 130.454 99.4527 130.522 99.3738C130.607 99.2795 130.714 99.2051 130.834 99.1562C130.954 99.1073 131.084 99.0853 131.215 99.0918L134.378 99.0974ZM128.995 94.6135V96.0038H133.214C133.386 95.9902 133.559 96.0152 133.719 96.0769C133.879 96.1386 134.022 96.2352 134.136 96.3591C134.312 96.5813 134.398 96.8567 134.378 97.1346V97.6987H130.664C130.094 97.6579 129.531 97.8309 129.092 98.1809C128.447 98.7195 128.364 99.4471 128.364 100.175C128.364 100.775 128.414 101.827 129.11 102.4C129.593 102.803 130.192 102.803 130.664 102.803H134.749C135.172 102.846 135.594 102.729 135.929 102.479C136.178 102.182 136.299 101.806 136.268 101.427V97.1798C136.268 96.2661 135.993 95.6033 135.637 95.2452C135.156 94.8218 134.521 94.5951 133.868 94.6135H128.995ZM127.023 93.3755V91.9852H122.418C120.817 91.9852 120.089 92.741 119.783 93.2373C119.45 93.8362 119.288 94.5083 119.314 95.186V99.4527C119.314 100.163 119.314 100.863 119.75 101.588C120.558 102.902 122.176 102.902 123.37 102.902C124.65 102.902 126.103 102.888 126.928 101.664C127.518 100.781 127.518 99.5148 127.518 98.7872C127.518 97.9073 127.471 96.9006 126.952 96.1589C126.513 95.5244 125.658 94.9519 124.075 94.9519H121.198C121.188 94.7376 121.223 94.5236 121.301 94.3222C121.378 94.1209 121.496 93.9362 121.649 93.7788C122.103 93.3755 122.813 93.3755 123.282 93.3755H127.023ZM52.9174 99.0974V100.984C52.9272 101.046 52.9204 101.11 52.8978 101.169C52.8751 101.228 52.8372 101.281 52.7876 101.322C52.6619 101.395 52.5154 101.428 52.369 101.416H49.7336C49.5041 101.408 49.2855 101.32 49.1204 101.167C48.9284 100.901 48.8369 100.579 48.861 100.256C48.861 99.6699 49.0054 99.4527 49.0703 99.3738C49.156 99.2798 49.2629 99.2056 49.3829 99.1568C49.5028 99.1079 49.6328 99.0857 49.763 99.0918L52.9174 99.0974ZM74.0099 98.7252C74.0099 98.2006 74.0099 97.1487 74.5405 96.5622C75.0712 95.9756 75.9968 95.9107 76.6041 95.9107C77.2851 95.9107 78.1075 95.9728 78.6677 96.5622C79.2572 97.1967 79.216 98.1245 79.216 98.7252C79.216 99.4358 79.216 100.228 78.65 100.829C78.084 101.43 77.3263 101.509 76.6129 101.509C75.8995 101.509 75.1095 101.432 74.5494 100.829C73.9893 100.225 74.0011 99.4189 74.0011 98.7252H74.0099ZM76.61 94.5204C75.593 94.5204 74.0895 94.5514 73.1521 95.3862C72.1645 96.2661 72.0525 97.8143 72.0525 98.7421C72.0525 99.5881 72.135 101.122 73.1521 102.019C74.0895 102.84 75.593 102.902 76.61 102.902C77.627 102.902 79.1482 102.84 80.0709 102.019C80.6988 101.455 81.1705 100.412 81.1705 98.68C81.1705 97.8143 81.0555 96.2661 80.0709 95.3862C79.1334 94.5402 77.63 94.5204 76.61 94.5204ZM65.1484 101.416V96.4014C65.1481 96.3483 65.1595 96.2958 65.1818 96.2472C65.2042 96.1986 65.237 96.1551 65.2781 96.1194C65.3524 96.0608 65.4422 96.0227 65.5375 96.0094H67.3977C67.7378 95.989 68.0765 96.0665 68.3702 96.2319C68.6639 96.3972 68.8991 96.6429 69.0456 96.9372C69.1428 97.1544 69.2726 97.5887 69.2726 98.6998C69.2726 99.9237 69.0927 100.417 68.9159 100.674C68.7066 101.001 68.2349 101.432 67.2974 101.432L65.1484 101.416ZM65.1484 102.809H67.5421C68.4265 102.809 69.7383 102.747 70.549 101.633C71.1622 100.787 71.227 99.6219 71.227 98.5306C71.227 97.6338 71.1946 96.3676 70.322 95.5018C69.4966 94.684 68.3498 94.605 67.8015 94.605H64.7946C64.4196 94.5805 64.0464 94.6725 63.7304 94.8673C63.5717 94.9862 63.4448 95.1395 63.3602 95.3145C63.2756 95.4896 63.2358 95.6814 63.244 95.8741V105.431H65.1484V102.8V102.809ZM57.6665 102.809V96.6524C57.6665 96.4522 57.6488 96.2999 57.7962 96.1589C57.8998 96.0623 58.0378 96.0069 58.1824 96.0038H62.6043V94.6135H56.956C56.7616 94.5912 56.5645 94.6195 56.3855 94.6954C56.2065 94.7714 56.0522 94.8921 55.939 95.045C55.7902 95.3272 55.7288 95.6442 55.7621 95.9587V102.809H57.6665ZM47.5491 94.6135V96.0038H51.7677C51.9398 95.9902 52.1128 96.0152 52.273 96.0769C52.4332 96.1386 52.5761 96.2352 52.6904 96.3591C52.8648 96.5819 52.9505 96.8569 52.9321 97.1346V97.6987H49.2C48.6315 97.6577 48.0688 97.8308 47.6317 98.1809C46.9861 98.7195 46.9035 99.4471 46.9035 100.175C46.9035 100.775 46.9537 101.827 47.6464 102.4C48.1328 102.803 48.7313 102.803 49.2 102.803H53.2888C53.6927 102.803 54.1732 102.772 54.468 102.479C54.7173 102.182 54.8386 101.806 54.807 101.427V97.1798C54.807 96.2661 54.5328 95.6033 54.1761 95.2452C53.696 94.8208 53.0608 94.5939 52.4074 94.6135H47.5491Z" fill="#545454"/>
</g>
<defs>
<clipPath id="clip0_6911_1498">
<rect width="132.75" height="34.0385" fill="white" transform="translate(22.125 71.4805)"/>
</clipPath>
</defs>
</svg>
