<svg width="177" height="177" viewBox="0 0 177 177" fill="none" xmlns="http://www.w3.org/2000/svg">
<rect width="177" height="177" fill="white"/>
<g clip-path="url(#clip0_6911_1563)">
<path fill-rule="evenodd" clip-rule="evenodd" d="M47.9184 76.5869C46.0869 76.5869 43.9155 78.2945 42.1245 81.1653C40.2577 84.1385 39.144 87.8192 39.144 91.0156C39.144 95.6949 41.8517 100.414 47.9189 100.414C53.9788 100.414 56.6937 95.6949 56.6937 91.0156C56.6937 87.8192 55.5806 84.1385 53.7228 81.1653C51.9149 78.2945 49.7438 76.5869 47.9184 76.5869ZM95.3002 83.6075H101.443V99.1378H108.024V83.6075H114.164V77.8627H95.3002V83.6067V83.6075ZM128.203 83.6075H137.856V77.8627H128.203C119.336 77.8627 114.6 82.1386 114.6 88.4995C114.6 94.8604 119.336 99.1378 128.203 99.1378H137.856V93.3933H128.203C124.099 93.3933 121.402 91.9707 121.402 88.5003C121.402 85.0299 124.099 83.6075 128.203 83.6075ZM81.9148 77.8627L78.4074 90.5609L74.9 77.8627H63.2746V99.1378H69.8532V81.8332L74.6342 99.1378H82.1806L86.9641 81.8228V99.1378H93.5452V77.8627H81.9148Z" fill="#E30613"/>
</g>
<defs>
<clipPath id="clip0_6911_1563">
<rect width="98.7115" height="23.8269" fill="white" transform="translate(39.144 76.5869)"/>
</clipPath>
</defs>
</svg>
