<svg width="177" height="177" viewBox="0 0 177 177" fill="none" xmlns="http://www.w3.org/2000/svg">
<rect width="177" height="177" fill="white"/>
<path d="M128.769 82.0099C129.331 82.0607 129.898 81.9948 130.434 81.8165C130.97 81.6382 131.465 81.351 131.888 80.9726C132.311 80.5942 132.653 80.1325 132.895 79.6155C133.136 79.0986 133.271 78.5373 133.291 77.9658H130.886C130.637 78.9457 130.055 79.4356 128.769 79.4356C127.483 79.4356 126.819 78.9457 126.613 77.9658H124.208C124.232 78.5394 124.371 79.102 124.616 79.6196C124.862 80.1372 125.208 80.599 125.634 80.977C126.061 81.3551 126.558 81.6415 127.097 81.8191C127.636 81.9966 128.205 82.0615 128.769 82.0099V82.0099Z" fill="black"/>
<path d="M79.3887 93.3084V83.2744H76.3594V97.9002H79.513L85.6093 87.6975V97.9002H88.6362V83.2744H85.4848L79.3887 93.3084Z" fill="black"/>
<path d="M66.8307 83.3982C65.7151 83.347 64.6077 83.6144 63.6348 84.1701C62.6619 84.7258 61.8626 85.5473 61.3282 86.541C61.4784 83.2272 62.1471 81.256 66.0422 80.7429L72.0986 79.9249L71.8499 76.6572L65.5448 77.5146C60.1104 78.2495 58.5757 82.3768 58.5757 88.8704C58.5757 94.5484 61.1898 98.1835 66.0422 98.1835C70.7705 98.1835 73.3422 94.5877 73.3422 90.3818C73.4003 89.482 73.2745 88.5797 72.9729 87.7314C72.6712 86.8831 72.2 86.107 71.5889 85.4516C70.9778 84.7961 70.2398 84.2755 69.4211 83.9222C68.6024 83.5689 67.7206 83.3905 66.8307 83.3982V83.3982ZM66.0422 94.9597C63.304 94.9597 61.6872 93.0001 61.6872 90.0583V88.5469C62.2668 87.403 63.8038 86.5041 66.0422 86.5041C68.4075 86.5041 70.2308 87.6064 70.2308 90.3841C70.2308 93.1618 68.7806 94.9597 66.0422 94.9597Z" fill="black"/>
<path d="M147.673 83.2744V88.749H141.78V83.2744H138.754V97.9002H141.78V91.7717H147.673V97.9002H150.7V83.2744H147.673Z" fill="black"/>
<path d="M125.699 93.3084V83.2744H122.669V97.9002H125.823L131.919 87.6975V97.9002H134.949V83.2744H131.795L125.699 93.3084Z" fill="black"/>
<path d="M94.0851 92.2235C93.7543 93.8574 93.2967 94.5529 92.3839 94.5529C92.007 94.5671 91.6299 94.5259 91.2646 94.4305V97.8206C91.7321 98.0363 92.2441 98.1346 92.757 98.1071C93.4661 98.123 94.1618 97.9098 94.7435 97.4986C95.3252 97.0873 95.7627 96.4992 95.9928 95.8193C96.371 94.6684 96.6082 93.4747 96.6991 92.2651C96.9015 90.3115 96.9987 88.3482 96.9901 86.3838H101.014V97.9038H104.041V83.2803H94.4606C94.5268 86.2665 94.4014 89.2538 94.0851 92.2235V92.2235Z" fill="black"/>
<path d="M118.327 93.939L118.37 88.1386C118.412 84.4619 116.129 82.9506 112.811 82.9506C112.125 82.8963 111.435 82.9804 110.781 83.1979C110.128 83.4154 109.523 83.7621 109.002 84.2179C108.482 84.6737 108.055 85.2296 107.748 85.8534C107.441 86.4771 107.259 87.1564 107.212 87.852H110.115C110.281 86.5048 111.358 86.0541 112.811 86.0541C114.298 86.0541 115.296 86.5048 115.446 88.0092L111.734 89.4859C109.204 90.5073 107.296 91.6512 107.296 94.0615C107.296 96.5527 108.707 98.1472 111.527 98.1472C112.403 98.1685 113.266 97.9272 114.007 97.4536C114.747 96.98 115.334 96.2951 115.692 95.485C115.84 97.2459 117.025 98.0247 119.076 98.0247H119.906V95.2054H119.658C118.7 95.2054 118.327 94.838 118.327 93.939ZM112.644 95.0829C111.234 95.0829 110.197 94.7155 110.197 93.4491C110.197 92.3468 111.067 91.8569 112.562 91.2422L115.453 90.059L115.422 94.0199C115.061 94.3879 114.626 94.6731 114.147 94.8565C113.668 95.0399 113.155 95.1171 112.644 95.0829V95.0829Z" fill="black"/>
<path d="M39.3314 100.41C42.4943 100.456 45.5455 99.2266 47.8143 96.9931C50.083 94.7596 51.3836 91.7045 51.43 88.4996C51.3836 85.2947 50.083 82.2396 47.8143 80.0061C45.5455 77.7726 42.4943 76.5435 39.3314 76.5891C36.1686 76.5435 33.1173 77.7726 30.8486 80.0061C28.5798 82.2396 27.2793 85.2947 27.2329 88.4996C27.2793 91.7045 28.5798 94.7596 30.8486 96.9931C33.1173 99.2266 36.1686 100.456 39.3314 100.41V100.41Z" fill="#FFC800"/>
<path d="M44.5365 97.3732C40.4277 99.7072 35.9718 100.125 33.1255 98.7274C34.986 99.8161 37.0935 100.397 39.2419 100.412C41.3903 100.427 43.5057 99.8771 45.3812 98.8152C47.2311 97.7828 48.7705 96.2621 49.836 94.4144C50.9015 92.5667 51.4533 90.4612 51.4328 88.3213C51.2404 91.4457 48.6429 95.0368 44.5365 97.3732Z" fill="black"/>
<path d="M40.8641 77.4642C41.6971 78.8831 39.6838 81.5637 36.3659 83.4471C33.0479 85.3329 29.6854 85.7095 28.8524 84.2883C28.8153 84.2189 28.7847 84.1462 28.7609 84.0711C28.6844 83.6435 28.7044 83.204 28.8194 82.7853C28.9344 82.3667 29.1414 81.9799 29.4249 81.6539C29.5258 81.5129 29.6291 81.3742 29.7347 81.2379C30.7073 79.9944 31.9121 78.9571 33.2802 78.1852C34.6576 77.4008 36.1714 76.8932 37.7386 76.69C37.9169 76.6646 38.0905 76.6461 38.2595 76.6345C38.6903 76.5561 39.1328 76.5727 39.5567 76.6832C39.9807 76.7937 40.3761 76.9954 40.7162 77.2747C40.7709 77.3333 40.8204 77.3968 40.8641 77.4642V77.4642Z" fill="black"/>
<path d="M46.0086 78.9982C47.4634 81.4778 44.528 85.8247 39.4549 88.7087C34.3818 91.5927 29.0881 91.9208 27.6356 89.4412C27.3952 89.0248 27.2591 88.5551 27.2391 88.0731C27.1736 89.7769 27.483 91.474 28.1448 93.0416C28.2457 93.282 28.356 93.52 28.4733 93.7557L28.4897 93.7857C28.9453 94.5406 29.6016 95.1501 30.3834 95.5444C33.2297 97.0441 38.0423 96.5288 42.5429 93.9706C47.0411 91.4124 49.9014 87.5694 50.007 84.3942C50.0497 83.5247 49.8436 82.6612 49.4134 81.9076C49.2492 81.665 49.0778 81.4269 48.8972 81.2005C47.845 79.8647 46.5255 78.7699 45.0255 77.9883C45.4269 78.2421 45.7637 78.588 46.0087 78.9982L46.0109 79.0028L46.0086 78.9982Z" fill="black"/>
<path d="M39.3314 100.41C42.4943 100.456 45.5455 99.2266 47.8143 96.9931C50.083 94.7596 51.3836 91.7045 51.43 88.4996C51.3836 85.2947 50.083 82.2396 47.8143 80.0061C45.5455 77.7726 42.4943 76.5435 39.3314 76.5891C36.1686 76.5435 33.1173 77.7726 30.8486 80.0061C28.5798 82.2396 27.2793 85.2947 27.2329 88.4996C27.2793 91.7045 28.5798 94.7596 30.8486 96.9931C33.1173 99.2266 36.1686 100.456 39.3314 100.41Z" fill="url(#paint0_radial_6911_1581)"/>
<defs>
<radialGradient id="paint0_radial_6911_1581" cx="0" cy="0" r="1" gradientUnits="userSpaceOnUse" gradientTransform="translate(39.3318 88.4996) scale(12.0961 11.9129)">
<stop offset="0.5" stop-color="white" stop-opacity="0"/>
<stop offset="1" stop-color="white" stop-opacity="0.35"/>
</radialGradient>
</defs>
</svg>
