<svg width="177" height="177" viewBox="0 0 177 177" fill="none" xmlns="http://www.w3.org/2000/svg">
<rect width="177" height="177" fill="white"/>
<path d="M35.8826 95.116H34.7131V87.6609H35.9204C37.8821 87.6609 39.5232 88.8669 39.5232 91.3884C39.5043 93.9283 37.8444 95.116 35.8826 95.116ZM35.9769 85.5596H32.7325C32.5251 85.5596 32.3364 85.724 32.3364 85.9433V96.8701C32.3364 97.0711 32.5062 97.2355 32.7325 97.2355H35.9581C39.3911 97.2355 41.9187 95.0977 41.9187 91.4067C41.9376 87.7157 39.41 85.5596 35.9769 85.5596ZM32.7325 85.5596C32.5251 85.5596 32.3364 85.724 32.3364 85.9433V96.8701C32.3364 97.0711 32.5062 97.2355 32.7325 97.2355" fill="#4E2CAB"/>
<path d="M49.597 94.3447C50.4647 94.3447 51.1627 95.0208 51.1627 95.8431C51.1627 96.6653 50.4647 97.3414 49.597 97.3414C48.7482 97.3414 48.0503 96.6653 48.0503 95.8431C48.0503 95.0208 48.7482 94.3447 49.597 94.3447Z" fill="#4E2CAB"/>
<path d="M57.8397 90.7672H55.9345V87.5147H57.8397C59.028 87.5147 59.7259 88.1542 59.7259 89.1409C59.7259 90.1094 59.028 90.7672 57.8397 90.7672ZM59.5562 92.4482C61.1406 92.0097 62.1215 90.7672 62.1215 89.1409C62.1215 87.1127 60.6314 85.5596 58.2735 85.5596H53.9539C53.7464 85.5596 53.5767 85.724 53.5767 85.9433V96.8701C53.5767 97.0711 53.7464 97.2355 53.9539 97.2355H55.5384C55.7459 97.2355 55.9156 97.0711 55.9156 96.8701V92.7406H57.1417L59.311 96.8701C59.4241 97.0711 59.6882 97.2355 59.8957 97.2355H61.7254C61.9329 97.2355 62.0272 97.0711 61.914 96.8701L59.5562 92.4482Z" fill="#4E2CAB"/>
<path d="M47.974 89.0645C47.2572 89.0645 46.1066 89.2654 45.5973 90.3252V89.503C45.5973 89.302 45.4275 89.1558 45.2389 89.1375H43.7864C43.5789 89.1375 43.4092 89.302 43.4092 89.503V96.8667C43.4092 97.0677 43.5789 97.2322 43.7864 97.2322H45.2766C45.4841 97.2322 45.6539 97.0677 45.6539 96.8667V93.5412C45.6539 91.8053 46.6536 91.2571 47.8042 91.2571C48.0117 91.2571 48.2192 91.2754 48.4833 91.3302V89.1193C48.3324 89.0827 48.1626 89.0645 47.974 89.0645Z" fill="#4E2CAB"/>
<path d="M100.752 89.1211H99.1105C98.903 89.1211 98.6389 89.2855 98.5069 89.4865L96.6206 93.8536L94.5646 89.4865C94.4514 89.2855 94.1684 89.1211 93.961 89.1211H92.2067C91.9992 89.1211 91.9238 89.2855 92.0369 89.5048L95.3945 96.2107L93.6026 100.048C93.4894 100.249 93.5837 100.413 93.7912 100.413H95.4134C95.6209 100.413 95.8661 100.249 95.9793 100.066L100.884 89.5048C101.035 89.2855 100.959 89.1211 100.752 89.1211Z" fill="#4E2CAB"/>
<path d="M107.808 92.3173L106.619 92.0615C106.167 91.9884 105.846 91.7326 105.846 91.3306C105.846 90.8738 106.317 90.5266 106.921 90.5266C107.657 90.5266 108.034 90.8921 108.204 91.2941C108.26 91.4768 108.43 91.6047 108.638 91.5499L109.845 91.2941C110.033 91.2392 110.147 91.0565 110.109 90.8738C109.864 90.015 108.977 88.9004 106.902 88.9004C105.11 88.9004 103.771 90.1064 103.771 91.5499C103.771 92.6827 104.507 93.6329 106.11 93.9618L107.223 94.2176C107.864 94.3455 108.128 94.6379 108.128 95.0033C108.128 95.4236 107.77 95.8073 107.015 95.8073C106.11 95.8073 105.638 95.314 105.506 94.7292C105.487 94.6379 105.393 94.6013 105.299 94.6013L103.884 94.8937C103.695 94.9485 103.582 95.1312 103.62 95.3322C103.884 96.2458 104.827 97.4701 107.034 97.4701C109.222 97.4701 110.279 96.1179 110.279 94.8023C110.279 93.6146 109.449 92.6462 107.808 92.3173Z" fill="#4E2CAB"/>
<path d="M64.9318 92.242C64.9884 91.4928 65.6297 90.6523 66.7992 90.6523C68.1008 90.6523 68.6289 91.438 68.6667 92.242H64.9318ZM66.7615 88.8799C64.63 88.8799 62.6494 90.5609 62.6494 93.1373C62.6494 95.8782 64.6677 97.4678 66.969 97.4678C68.8741 97.4678 70.1568 96.4446 70.6661 95.1838C70.685 95.0011 70.5718 94.8366 70.402 94.8001L69.1948 94.4529C69.0628 94.4164 68.893 94.4712 68.7987 94.6174C68.4969 95.2021 67.931 95.6041 67.0067 95.6041C65.8938 95.6041 64.9507 94.8366 64.8941 93.7586H70.5152C70.7227 93.7586 70.8925 93.5941 70.8925 93.3931C70.8925 93.3018 70.9113 93.1921 70.9113 93.0825C70.8925 90.4696 69.3457 88.8799 66.7615 88.8799Z" fill="#4E2CAB"/>
<path d="M76.5323 95.4631C75.3439 95.4631 74.4574 94.6043 74.4574 93.1608C74.4574 91.7173 75.3817 90.895 76.5323 90.895C77.6829 90.895 78.5883 91.699 78.5883 93.1425C78.5883 94.6043 77.6829 95.4631 76.5323 95.4631ZM80.7764 96.8883V89.3419V85.6874C80.7764 85.4864 80.6067 85.3037 80.3992 85.3037H78.9467C78.7581 85.3037 78.5883 85.4499 78.5695 85.6326C78.5695 85.6509 78.5506 85.6692 78.5506 85.6874V89.7987H78.5695V89.9266C78.3243 89.5063 77.6452 88.9216 76.2116 88.9216C73.8538 88.9216 72.1938 90.7854 72.1938 93.1425C72.1938 95.591 73.8915 97.3999 76.2682 97.3999C77.3811 97.3999 78.23 96.9066 78.6072 96.2671C78.6072 96.2853 78.6072 96.2853 78.6072 96.3036V96.2853C78.6072 96.395 78.6072 96.5046 78.6072 96.596C78.6261 96.7787 78.6449 96.9431 78.6638 97.071C78.7015 97.1441 78.777 97.199 78.8524 97.199H80.3992C80.5878 97.2172 80.7387 97.071 80.7764 96.8883Z" fill="#4E2CAB"/>
<path d="M86.5676 95.4631C85.3793 95.4631 84.4927 94.6043 84.4927 93.1608C84.4927 91.7173 85.417 90.895 86.5676 90.895C87.7183 90.895 88.6237 91.699 88.6237 93.1425C88.6237 94.6043 87.7371 95.4631 86.5676 95.4631ZM90.8306 96.8883V89.3419V85.6874C90.8306 85.4864 90.6609 85.3037 90.4534 85.3037H89.0009C88.8123 85.3037 88.6425 85.4499 88.6237 85.6326C88.6237 85.6509 88.6048 85.6692 88.6048 85.6874V89.7987H88.6237V89.9266C88.3785 89.5063 87.6994 88.9216 86.2658 88.9216C83.908 88.9216 82.248 90.7854 82.248 93.1425C82.248 95.591 83.9457 97.3999 86.3224 97.3999C87.4353 97.3999 88.2841 96.9066 88.6614 96.2671V96.3036V96.2853C88.6614 96.395 88.6614 96.5046 88.6614 96.596C88.6803 96.7787 88.6991 96.9431 88.718 97.071C88.7557 97.1441 88.8312 97.199 88.9066 97.199H90.4534C90.642 97.2172 90.7929 97.071 90.8306 96.8883Z" fill="#4E2CAB"/>
<path d="M104.448 87.0013C104.505 86.8552 104.542 86.6907 104.542 86.5263C104.542 85.7954 103.92 85.1924 103.147 85.1924C102.392 85.1924 101.77 85.7954 101.77 86.5263C101.77 87.1475 102.222 87.6774 102.807 87.8236L102.052 89.4498C102.052 89.4498 102.052 89.4681 102.052 89.4864C102.052 89.5595 102.109 89.6325 102.203 89.6325H102.958C103.033 89.6325 103.109 89.5777 103.165 89.5046L104.429 87.0744C104.429 87.0562 104.448 87.0379 104.448 87.0013Z" fill="#4E2CAB"/>
<path d="M129.536 99.7368V83.4379C129.479 80.9529 127.933 78.815 125.707 77.8466C124.971 77.536 124.179 77.335 123.349 77.2984C119.275 77.0791 116.125 79.418 115.276 82.5791C114.729 84.4977 115.144 86.8183 116.521 88.7551C118.2 91.1305 125.084 97.4527 128.423 100.267C128.536 100.358 128.687 100.395 128.838 100.395C129.234 100.413 129.536 100.12 129.536 99.7368ZM128.102 92.2634C128.102 92.9212 127.555 93.4694 126.876 93.4694C126.197 93.4694 125.631 92.9395 125.631 92.2634C125.631 91.6056 126.178 91.0757 126.876 91.0757C127.555 91.0574 128.102 91.6056 128.102 92.2634Z" fill="#4E2CAB"/>
<path d="M134.707 91.3145C133.009 91.3145 131.632 92.6483 131.632 94.2928C131.632 95.9373 133.009 97.2712 134.707 97.2712C136.405 97.2712 137.782 95.9373 137.782 94.2928C137.782 92.6301 136.405 91.3145 134.707 91.3145Z" fill="#4E2CAB"/>
<path d="M131.631 98.0576C131.046 98.0576 130.574 98.5144 130.574 99.0809C130.574 99.6473 131.046 100.104 131.631 100.104C132.215 100.104 132.687 99.6473 132.687 99.0809C132.687 98.5144 132.215 98.0576 131.631 98.0576Z" fill="#4E2CAB"/>
<path d="M140.553 84.0771C138.309 84.0771 136.479 85.8496 136.479 88.024C136.479 90.1984 138.309 91.9708 140.553 91.9708C142.817 91.9708 144.628 90.1984 144.628 88.024C144.628 85.8496 142.817 84.0771 140.553 84.0771Z" fill="#4E2CAB"/>
<path d="M143.383 79.2168C142.195 79.2168 141.251 80.1487 141.251 81.2998C141.251 82.451 142.213 83.3646 143.383 83.3646C144.571 83.3646 145.514 82.4327 145.514 81.2998C145.533 80.1304 144.571 79.2168 143.383 79.2168Z" fill="#4E2CAB"/>
<path d="M135.196 84.1872C137.365 84.1872 139.119 82.4879 139.119 80.3866C139.119 78.2853 137.365 76.5859 135.196 76.5859C133.027 76.5859 131.272 78.2853 131.272 80.3866C131.291 82.4879 133.046 84.1872 135.196 84.1872Z" fill="#4E2CAB"/>
<path d="M135.348 87.5309C135.348 88.7734 134.31 89.7784 133.009 89.7784C131.726 89.7784 130.688 88.7734 130.688 87.5309C130.688 86.2884 131.726 85.2834 133.009 85.2834C134.31 85.2652 135.348 86.2884 135.348 87.5309Z" fill="#4E2CAB"/>
</svg>
