<svg width="177" height="177" viewBox="0 0 177 177" fill="none" xmlns="http://www.w3.org/2000/svg">
<rect width="177" height="177" fill="white"/>
<path d="M124.519 108C126.732 108 128.29 106.644 129.744 103.358L140.501 77.4689L129.437 100.193H129.376L123.412 87.5584H121.568L128.577 102.16C127.347 104.957 126.395 106.463 124.458 106.463C124.12 106.463 123.874 106.432 123.535 106.371V107.908C123.812 107.969 124.211 108 124.519 108ZM139.642 107.693H141.271V100.008H142.808C144.652 100.008 145.913 99.7006 146.897 99.2086C149.048 98.1331 150.063 96.1043 150.063 93.7374C150.063 91.2785 149.017 89.4343 147.296 88.3889C146.282 87.7742 144.991 87.4361 142.962 87.4361H139.642L139.642 107.693ZM141.271 98.5944V88.8502H143.023C144.53 88.8502 145.544 89.1269 146.312 89.5882C147.634 90.3875 148.372 91.863 148.372 93.7379C148.372 95.7053 147.634 97.1501 146.159 97.9183C145.422 98.3177 144.407 98.5949 142.962 98.5949L141.271 98.5944ZM111.639 107.693H113.268V88.8502H119.108L119.723 87.4361H105.83V88.8502H111.639V107.693H111.639ZM79.9782 107.693H81.8531L85.3881 100.991C86.372 99.1161 87.3555 98.2865 87.9702 98.2865H91.1667V107.693H92.796V98.2865H95.993C96.6077 98.2865 97.5912 99.1161 98.5746 100.991L102.11 107.693H103.985L100.45 101.023C99.466 99.1784 98.6365 97.8564 97.5298 97.4877V97.4258C100.019 96.1043 100.265 92.0778 101.28 89.9871C101.618 89.2803 102.048 88.8497 102.848 88.8497C103.124 88.8497 103.37 88.8804 103.709 89.0032V87.4356C103.371 87.3129 103.032 87.2822 102.694 87.2822C101.188 87.2822 100.328 88.2043 99.8046 89.4338C98.5444 92.4154 98.391 96.8724 94.9481 96.8724H92.796V87.4361H91.1667V96.8724H89.0151C85.5727 96.8724 85.4187 92.4159 84.1586 89.4338C83.6364 88.2043 82.7757 87.2822 81.2695 87.2822C80.9315 87.2822 80.5929 87.3129 80.2549 87.4356V89.0032C80.5929 88.8804 80.8389 88.8497 81.1161 88.8497C81.9154 88.8497 82.3456 89.2803 82.6836 89.9871C83.6983 92.0773 83.9438 96.1043 86.4339 97.4258V97.4877C85.3277 97.8564 84.4971 99.1784 83.5137 101.023L79.9782 107.693ZM63.471 107.693H65.3459L68.6042 101.483C69.5881 99.6081 70.5716 98.7785 71.1863 98.7785H74.4446V107.693H76.074V87.4361H71.617C67.9899 87.4361 65.2538 89.3724 65.2538 93.2454C65.2538 95.7662 66.5447 97.6718 69.0655 98.3791V98.4405C68.1741 98.9013 67.5286 100.008 66.7293 101.515L63.471 107.693ZM66.9446 93.2766C66.9446 90.2638 68.9427 88.8502 71.8323 88.8502H74.4451V97.3644H71.5556C68.9734 97.3644 66.9446 96.1043 66.9446 93.2766ZM50.8982 108C56.2773 108 60.6117 104.066 60.6117 97.6718C60.6117 91.6472 56.554 87.2822 50.8982 87.2822C45.3349 87.2822 41.1852 91.524 41.1852 97.6718C41.1852 104.004 45.3963 108 50.8982 108ZM50.8982 106.525C46.0417 106.525 42.9062 102.867 42.9062 97.6718C42.9062 92.4772 46.0417 88.7577 50.8982 88.7577C56.0932 88.7577 58.8902 92.8153 58.8902 97.6718C58.8902 102.867 55.7547 106.525 50.8982 106.525ZM26 107.693H30.7644C35.1601 107.693 37.5577 105.572 37.5577 102.067C37.5577 99.4239 35.7749 97.549 33.5614 97.1184V97.0571C35.2522 96.4116 36.3277 94.7822 36.3277 92.5693C36.3277 89.7411 34.4221 87.4356 30.1492 87.4356H26V107.693ZM27.6289 106.279V98.0098H31.1639C33.9613 98.0098 35.8362 99.6392 35.8362 102.16C35.8362 105.141 33.7767 106.279 30.9179 106.279H27.6289ZM27.6289 96.5962V88.8502H30.2111C33.3773 88.8502 34.6374 90.4182 34.6374 92.6312C34.6374 95.1822 33.0392 96.5967 30.0576 96.5967L27.6289 96.5962ZM139.671 74.3601C139.799 74.3601 139.926 74.3582 140.054 74.3601C140.816 74.3757 141.58 74.3933 142.343 74.4074C142.433 74.4088 142.493 74.442 142.545 74.5141C143.017 75.1731 143.492 75.8307 143.966 76.4883C143.981 76.5102 143.997 76.5312 144.026 76.5706C144.233 74.3679 144.439 72.1876 144.644 70.0073C144.638 70.0049 144.633 70.0024 144.627 70C142.973 71.4443 141.321 72.8891 139.667 74.3333C139.669 74.3426 139.67 74.3514 139.671 74.3601Z" fill="#347CAD"/>
</svg>
