<svg width="177" height="177" viewBox="0 0 177 177" fill="none" xmlns="http://www.w3.org/2000/svg">
<rect width="177" height="177" fill="white"/>
<circle cx="24.0608" cy="86.0608" r="12.0608" fill="#005D9A"/>
<path d="M30.0393 87.7695L16.8008 99.4788L27.5902 94.848L33.018 102.125L30.0393 87.7695Z" fill="#151616"/>
<path d="M35.3214 80.8115L12 88.1078H22.2772L24.3956 90.8554L35.3214 80.8115Z" fill="white"/>
<circle cx="23.2191" cy="79.6361" r="2.98867" fill="white"/>
<path d="M42.7507 83.2799C42.3651 83.4558 42.1892 83.92 42.3277 84.3804C42.3913 84.5863 42.6346 84.8371 42.8255 84.8895C42.9229 84.9157 43.5517 84.9307 44.656 84.9307C46.288 84.9307 46.3442 84.9344 46.5014 85.0093C46.711 85.1103 46.8757 85.3125 46.9431 85.5483C46.973 85.6531 47.0067 86.0199 47.0217 86.383L47.0479 87.0269L46.8645 86.9445C46.681 86.8584 46.6773 86.8584 44.6784 86.8584H42.6758L42.4025 86.9595C41.9908 87.1092 41.7362 87.2739 41.3956 87.6146C41.1486 87.8616 41.0587 87.9814 40.9202 88.2696C40.6844 88.7488 40.6357 89.0332 40.6357 89.8904C40.6357 90.7476 40.6844 91.0321 40.924 91.5187C41.07 91.8219 41.1486 91.9267 41.4368 92.2112C41.8223 92.593 42.0844 92.7428 42.5747 92.87C42.8517 92.9412 42.9753 92.9449 44.3266 92.9337L45.7827 92.9224L45.9885 92.8251C46.1008 92.7727 46.4228 92.5818 46.6998 92.4059L47.2051 92.084L47.2276 92.2449C47.3136 92.8027 47.8826 93.0946 48.4104 92.8513C48.6425 92.7428 48.8184 92.5182 48.8521 92.2936C48.8933 92.0166 48.6537 85.6606 48.5863 85.3237C48.5489 85.1291 48.4628 84.8858 48.3393 84.6312C48.1783 84.2981 48.1072 84.197 47.8452 83.9387C47.6094 83.7066 47.4671 83.5981 47.2201 83.4783C46.696 83.22 46.6137 83.2088 44.641 83.2088C43.0277 83.2088 42.8892 83.2163 42.7507 83.2799ZM46.2019 88.5691C46.3142 88.6439 46.3891 88.7375 46.4789 88.9209C46.6024 89.1717 46.6062 89.1792 46.6062 89.7182V90.261L45.764 90.8524L44.9217 91.4439H43.8437C42.6571 91.4439 42.6196 91.4364 42.4025 91.2118C42.1817 90.976 42.133 90.7551 42.133 89.9503C42.133 89.1605 42.1705 88.9696 42.3689 88.7263C42.6009 88.4456 42.586 88.4493 44.4201 88.4605L46.0484 88.468L46.2019 88.5691Z" fill="black"/>
<path d="M53.0595 83.309C52.9285 83.3801 52.82 83.47 52.7451 83.5748L52.6328 83.7395V88.0741V92.4088L52.7451 92.5735C53.1082 93.0975 53.928 93.0376 54.19 92.4724C54.2536 92.3339 54.2611 92.2066 54.2611 90.9564V89.5864L54.6916 89.2008L55.1221 88.819L56.7953 90.3275C57.7124 91.1585 58.6968 92.0419 58.9738 92.2965C59.2546 92.5473 59.5653 92.7943 59.6663 92.8467C59.9171 92.974 60.1417 92.9703 60.4037 92.8355C60.823 92.6259 60.9615 92.1467 60.7369 91.6863C60.6695 91.5441 60.2727 91.1735 58.5209 89.6014C56.7803 88.0404 56.3985 87.6811 56.4397 87.6437C56.4659 87.6174 57.1546 87.0036 57.9669 86.2774C59.7749 84.664 59.8685 84.5742 59.9546 84.387C60.0406 84.1999 60.0481 83.8443 59.9658 83.6721C59.8797 83.4924 59.6439 83.294 59.4567 83.2416C59.2396 83.1855 58.9663 83.2229 58.7754 83.3352C58.6931 83.3876 57.645 84.3159 56.4509 85.3977L54.2798 87.3629L54.2611 85.5549C54.2461 83.9678 54.2349 83.7357 54.1788 83.6384C53.9617 83.2416 53.475 83.0994 53.0595 83.309Z" fill="black"/>
<path d="M62.8325 83.2687C62.6603 83.3435 62.5443 83.4558 62.447 83.6393C62.3309 83.8526 62.3347 84.2906 62.447 84.5039C62.5518 84.6986 62.7165 84.8408 62.8999 84.8932C62.9822 84.9157 63.5587 84.9307 64.3373 84.9307H65.6399L65.6474 88.6439L65.6586 92.361L65.7373 92.5107C65.8383 92.6979 65.9169 92.769 66.1265 92.8626C66.3399 92.9599 66.587 92.9599 66.8003 92.8626C67.0099 92.769 67.0886 92.6979 67.1896 92.5107L67.2682 92.361L67.2795 88.6477L67.2869 84.9344L68.6682 84.9232L70.0494 84.912L70.2141 84.7997C70.4612 84.6237 70.5623 84.4104 70.5623 84.0697C70.5585 83.6617 70.405 83.3997 70.0869 83.2649C69.9633 83.2163 69.5254 83.2088 66.4559 83.2088C63.4202 83.2125 62.9448 83.22 62.8325 83.2687Z" fill="black"/>
<path d="M74.0741 83.2684C73.8869 83.3358 73.666 83.5754 73.6136 83.7663C73.565 83.9497 73.565 92.1998 73.6136 92.3832C73.6324 92.4543 73.711 92.5853 73.7821 92.6677C74.1302 93.0719 74.8527 92.9971 75.0997 92.5329C75.1821 92.3757 75.1858 92.327 75.1858 91.6682V90.972L75.2906 90.8747C75.4291 90.7474 80.1531 87.1015 80.1793 87.1015C80.1905 87.1015 80.2017 88.2881 80.2017 89.733V92.3682L80.2878 92.5329C80.5349 92.9971 81.2573 93.0719 81.6054 92.6677C81.6765 92.5853 81.7551 92.4543 81.7739 92.3832C81.8225 92.1998 81.8225 83.9497 81.7739 83.7663C81.7551 83.6952 81.6765 83.5641 81.6054 83.4818C81.2573 83.0775 80.5349 83.1524 80.2878 83.6166C80.2055 83.77 80.2017 83.8224 80.2017 84.4438V85.1064L77.7462 87.0042C76.3986 88.0485 75.2681 88.9132 75.2382 88.9244C75.1933 88.9394 75.1858 88.5988 75.1858 86.3641V83.7813L75.0997 83.6166C74.9238 83.2871 74.4521 83.1262 74.0741 83.2684Z" fill="black"/>
<path d="M86.1901 83.2429C85.9056 83.329 85.6997 83.5161 85.6099 83.7669C85.5612 83.9092 85.5537 84.4407 85.5537 88.0754C85.5537 92.6122 85.5463 92.4175 85.7708 92.6533C85.827 92.7132 85.9393 92.7993 86.0216 92.8405C86.1714 92.9229 86.1751 92.9229 88.9414 92.9229H91.7113L91.9921 92.8368C92.7183 92.6084 93.2124 92.2191 93.4856 91.6651C93.7065 91.2085 93.7551 90.9876 93.7776 90.3213C93.8001 89.6363 93.7477 89.3219 93.5455 88.9139C93.3958 88.6107 93.0327 88.2401 92.7557 88.1016C92.6659 88.0604 92.591 88.0155 92.5947 88.0043C92.5947 87.9893 92.6995 87.9331 92.8268 87.8732C93.1038 87.7422 93.407 87.4503 93.538 87.192C93.7364 86.8027 93.7701 86.6118 93.7701 85.8856C93.7701 85.2829 93.7589 85.1819 93.684 84.9311C93.6354 84.7776 93.5418 84.5568 93.4781 84.4445C93.2461 84.029 92.752 83.606 92.2728 83.4076C91.8161 83.2167 91.7039 83.2092 88.8964 83.2129C87.459 83.2129 86.2425 83.2279 86.1901 83.2429ZM91.7563 84.815C91.9921 84.9198 92.1942 85.1332 92.2578 85.3353C92.2841 85.4252 92.2953 85.6348 92.2841 85.8706C92.2653 86.3198 92.2017 86.4808 91.9584 86.7016C91.6814 86.9524 91.6739 86.9524 89.2333 86.9524H87.051V85.8294V84.7027L89.3082 84.714L91.5616 84.7252L91.7563 84.815ZM91.7113 89.3032C91.9359 89.408 92.0857 89.5427 92.1905 89.7411C92.2653 89.8721 92.2728 89.9507 92.2728 90.3999C92.2728 90.8903 92.2691 90.9127 92.1718 91.0625C92.1156 91.1448 91.9883 91.2646 91.891 91.3208L91.7113 91.4256L89.3831 91.4368L87.051 91.448V90.3213V89.1946L89.2895 89.2058L91.5242 89.2171L91.7113 89.3032Z" fill="black"/>
<path d="M101.331 83.2646C100.867 83.3507 100.579 83.5004 100.276 83.8148C100.152 83.9459 99.048 85.4544 98.101 86.7944C97.9288 87.0415 97.7304 87.472 97.6219 87.8425C97.5657 88.0297 97.5545 88.3142 97.5395 90.096C97.5245 92.428 97.5245 92.4505 97.7716 92.6975C98.1197 93.0419 98.7186 92.9932 98.9807 92.5964L99.0855 92.443L99.1042 90.3617C99.1266 88.0372 99.1079 88.2094 99.4074 87.7153C99.5646 87.4533 101.122 85.3046 101.272 85.1399C101.451 84.9416 101.53 84.9303 102.529 84.9303H103.446L103.454 88.6848L103.465 92.4392L103.57 92.5964C103.742 92.8622 104.098 92.9857 104.438 92.8996C104.682 92.836 104.914 92.6077 104.974 92.3718C105.037 92.1248 105.037 84.0282 104.974 83.7812C104.91 83.5266 104.682 83.3058 104.427 83.2496C104.139 83.1897 101.676 83.201 101.331 83.2646Z" fill="#005D9A"/>
<path d="M110.127 83.2427C109.832 83.3138 109.626 83.5122 109.551 83.7892C109.495 83.9988 109.495 92.1515 109.551 92.3612C109.746 93.0686 110.779 93.1285 111.059 92.4473C111.108 92.3387 111.119 92.1553 111.119 91.6237V90.9387L113.59 89.0297C114.949 87.9816 116.075 87.1169 116.098 87.1094C116.124 87.0982 116.135 87.9254 116.135 89.6997C116.135 92.5745 116.128 92.4547 116.371 92.7093C116.521 92.8627 116.82 92.9601 117.045 92.9226C117.385 92.8627 117.621 92.6644 117.704 92.3612C117.76 92.1515 117.76 83.9988 117.704 83.7892C117.509 83.0817 116.476 83.0218 116.195 83.7031C116.15 83.8116 116.135 83.9876 116.135 84.4779V85.1143L113.638 87.0458L111.138 88.9773L111.119 86.3645C111.104 84.2496 111.089 83.733 111.048 83.6582C110.865 83.3213 110.494 83.1566 110.127 83.2427Z" fill="#005D9A"/>
<path d="M122.499 83.2878C121.597 83.5199 120.957 84.1637 120.961 84.8262C120.961 85.253 121.234 85.5824 121.623 85.6273C121.9 85.661 122.05 85.5974 122.364 85.3016C122.518 85.1594 122.701 85.0172 122.776 84.9872C122.888 84.9385 123.207 84.9311 124.768 84.9311C126.051 84.9311 126.669 84.946 126.77 84.9722C126.976 85.0359 127.174 85.2155 127.275 85.4326C127.35 85.5899 127.365 85.6834 127.365 85.9829C127.365 86.4508 127.298 86.6829 127.092 86.8925C126.834 87.162 126.733 87.177 125.34 87.177C124.592 87.177 124.112 87.192 124.045 87.2182C123.543 87.4053 123.401 88.2288 123.802 88.6481C123.858 88.708 123.937 88.7753 123.978 88.7978C124.03 88.8278 124.472 88.8502 125.381 88.8614C126.665 88.8802 126.714 88.8839 126.867 88.9625C127.231 89.1572 127.365 89.4716 127.365 90.1117C127.365 90.471 127.354 90.5534 127.275 90.7181C127.174 90.9352 126.976 91.1149 126.77 91.1785C126.669 91.2047 126.048 91.2197 124.749 91.2197C123.158 91.2197 122.851 91.2122 122.735 91.1635C122.66 91.1336 122.454 90.9988 122.278 90.8678C121.844 90.5459 121.747 90.501 121.485 90.5047C120.856 90.5047 120.568 91.1111 120.882 91.7549C121.114 92.2229 121.694 92.6346 122.413 92.8405C122.698 92.9228 122.75 92.9228 124.839 92.9228C127.238 92.9228 127.178 92.9303 127.77 92.6383C128.189 92.4325 128.458 92.163 128.664 91.7437C128.926 91.2122 128.956 91.0475 128.956 90.1716C128.956 89.2919 128.908 89.0598 128.645 88.6556C128.507 88.4422 128.11 88.0379 128.035 88.0379C127.96 88.0379 128.009 87.9706 128.118 87.9219C128.294 87.8508 128.616 87.5176 128.732 87.2893C128.915 86.9299 128.945 86.7577 128.964 85.9717C128.986 85.1332 128.945 84.845 128.743 84.437C128.514 83.9878 127.946 83.5236 127.403 83.3552C126.987 83.2279 126.695 83.2129 124.708 83.2129C122.918 83.2129 122.761 83.2204 122.499 83.2878Z" fill="#005D9A"/>
<path d="M133.336 83.2427C133.041 83.3138 132.835 83.5122 132.76 83.7892C132.704 83.9988 132.704 92.1515 132.76 92.3612C132.955 93.0686 133.988 93.1285 134.268 92.4473C134.317 92.3387 134.328 92.1553 134.328 91.6237V90.9387L136.799 89.0297C138.158 87.9816 139.284 87.1169 139.307 87.1094C139.333 87.0982 139.344 87.9254 139.344 89.6997C139.344 92.5745 139.337 92.4547 139.58 92.7093C139.73 92.8627 140.029 92.9601 140.254 92.9226C140.594 92.8627 140.83 92.6644 140.913 92.3612C140.969 92.1515 140.969 83.9988 140.913 83.7892C140.718 83.0817 139.685 83.0218 139.404 83.7031C139.359 83.8116 139.344 83.9876 139.344 84.4779V85.1143L136.847 87.0458L134.347 88.9773L134.328 86.3645C134.313 84.2496 134.298 83.733 134.257 83.6582C134.074 83.3213 133.703 83.1566 133.336 83.2427Z" fill="#005D9A"/>
<path d="M145.277 83.2583C145.049 83.3331 144.929 83.4267 144.817 83.6176L144.716 83.7898V88.0795V92.3693L144.828 92.549C145.131 93.0393 145.917 93.0543 146.251 92.5752L146.363 92.4105L146.374 90.6362L146.385 88.8619H148.815H151.244L151.255 90.6362L151.266 92.4105L151.379 92.5752C151.712 93.0543 152.498 93.0393 152.801 92.549L152.913 92.3693V88.0758V83.7823L152.801 83.6027C152.498 83.1123 151.712 83.0973 151.379 83.5765L151.266 83.7412L151.255 85.4593L151.244 87.1774H148.815H146.385L146.374 85.4593L146.363 83.7412L146.251 83.5765C146.052 83.2957 145.61 83.1497 145.277 83.2583Z" fill="#005D9A"/>
<path d="M158.024 83.2792C157.743 83.3765 157.522 83.6198 157.462 83.8931C157.432 84.0316 157.425 85.2593 157.432 88.2277L157.444 92.3677L157.556 92.5474C157.713 92.7982 157.945 92.918 158.282 92.918C158.589 92.918 158.81 92.8094 158.978 92.5736L159.091 92.4089L159.102 88.6694L159.109 84.9337L161.722 84.9224L164.331 84.9112L164.488 84.8214C164.799 84.6417 164.956 84.2562 164.878 83.8743C164.818 83.6086 164.713 83.4514 164.507 83.3278L164.331 83.2268L161.28 83.2193C158.368 83.2118 158.222 83.2118 158.024 83.2792Z" fill="#005D9A"/>
</svg>
