<svg width="177" height="177" viewBox="0 0 177 177" fill="none" xmlns="http://www.w3.org/2000/svg">
<rect width="177" height="177" fill="white"/>
<path d="M90.0863 115.141C89.7189 110.563 86.2144 109.15 83.2752 109.15C82.5687 109.15 81.8904 109.234 81.2969 109.376V109.291C81.2969 107.426 79.799 105.928 77.9338 105.899H76.8315V119.211C76.8315 120.059 77.2272 120.765 77.9903 121.302C79.3186 122.263 81.1556 122.743 82.9643 122.743C84.9427 122.743 86.8927 122.178 88.1645 121.019C88.5036 120.709 88.7862 120.369 89.0123 120.03C88.8428 119.55 88.7862 119.013 88.7862 118.448C88.7862 117.035 89.2384 115.932 90.0863 115.141ZM82.9361 118.815C82.06 118.815 81.2969 118.532 81.2969 118.532V113.191C81.2969 113.191 82.06 112.937 82.9361 112.937C84.1513 112.937 85.5927 113.445 85.5927 115.791C85.6209 118.278 84.1796 118.815 82.9361 118.815Z" fill="#334351"/>
<path d="M47.6938 118.871H43.5393L47.3546 114.293C47.4394 113.784 47.5807 113.304 47.7503 112.852C48.0046 112.202 48.3438 111.608 48.7677 111.071C48.7394 110.845 48.6547 110.619 48.5699 110.449L48.4286 110.167C48.259 109.799 47.8916 109.573 47.4677 109.573H39.6109C39.1587 109.573 38.7913 109.715 38.5087 109.969C38.2261 110.252 38.113 110.675 38.113 111.297C38.113 111.636 38.1696 111.975 38.2544 112.258C38.3957 112.71 38.7913 112.993 39.2718 112.993H43.398L38.8761 118.306C38.6218 118.617 38.4239 118.928 38.2544 119.267C38.0848 119.606 38 119.945 38 120.313C38 120.737 38.0848 121.104 38.2544 121.443C38.5087 121.98 39.0739 122.319 39.6674 122.319H47.6372C48.0894 122.319 48.4568 122.178 48.7394 121.924C48.909 121.754 49.0221 121.5 49.1068 121.189C48.5416 120.595 48.0894 119.86 47.7785 119.041C47.722 118.984 47.722 118.928 47.6938 118.871Z" fill="#FA5A65"/>
<path d="M61.1464 113.05C60.8073 112.258 60.3551 111.58 59.7898 111.015C59.1963 110.421 58.4615 109.969 57.6137 109.658C56.7658 109.347 55.8332 109.178 54.8158 109.178C53.7701 109.178 52.8375 109.347 52.0179 109.658C51.17 109.969 50.4635 110.421 49.8417 111.015C49.7287 111.128 49.6439 111.241 49.5308 111.354C49.3895 111.495 49.2765 111.637 49.1634 111.806C48.8808 112.23 48.6265 112.654 48.4286 113.163C48.3438 113.389 48.2591 113.643 48.2025 113.897C48.146 114.152 48.0895 114.406 48.033 114.661C47.9764 115.084 47.9199 115.537 47.9199 115.989C47.9199 116.808 48.033 117.543 48.2025 118.221C48.2308 118.363 48.2873 118.476 48.3438 118.617C48.3721 118.674 48.4004 118.758 48.4286 118.815C48.4569 118.9 48.5134 119.013 48.5417 119.098C48.683 119.437 48.8808 119.776 49.0787 120.058C49.1917 120.256 49.333 120.426 49.4743 120.595C49.5874 120.709 49.7004 120.85 49.8135 120.963C50.407 121.556 51.1418 121.98 51.9613 122.291C52.8092 122.602 53.7418 122.772 54.7593 122.772C55.8049 122.772 56.7376 122.63 57.5572 122.319C58.405 122.009 59.1116 121.585 59.7333 121.019C60.3268 120.454 60.779 119.748 61.1181 118.928C60.779 118.052 60.6094 117.034 60.6094 115.961C60.6659 114.887 60.8355 113.926 61.1464 113.05ZM56.5397 118.391C56.1441 118.956 55.5788 119.267 54.844 119.267C54.1092 119.267 53.544 118.985 53.1201 118.419C52.6961 117.854 52.4983 117.034 52.4983 115.961C52.4983 114.915 52.6961 114.095 53.0918 113.53C53.4875 112.965 54.0527 112.682 54.7875 112.682C55.5223 112.682 56.0876 112.965 56.4832 113.53C56.8789 114.095 57.0767 114.915 57.0767 115.961C57.0767 117.006 56.9071 117.798 56.5397 118.391Z" fill="#FA5A65"/>
<path d="M73.2425 111.015C72.649 110.421 71.9142 109.969 71.0663 109.658C70.2185 109.347 69.2858 109.178 68.2684 109.178C67.2227 109.178 66.2901 109.347 65.4705 109.658C64.6227 109.969 63.9161 110.421 63.2944 111.015C62.7009 111.58 62.2487 112.287 61.9095 113.078C61.9095 113.106 61.8813 113.134 61.8813 113.163C61.8247 113.304 61.7682 113.474 61.7117 113.643C61.6269 113.897 61.5704 114.124 61.5139 114.406C61.4291 114.915 61.3726 115.424 61.3726 115.989C61.3726 116.554 61.4291 117.119 61.5139 117.628C61.5704 117.882 61.6269 118.137 61.7117 118.391C61.7682 118.532 61.7965 118.674 61.853 118.815C61.8813 118.843 61.8813 118.9 61.9095 118.928C62.2487 119.719 62.7009 120.398 63.2661 120.963C63.8596 121.556 64.5944 122.009 65.4422 122.319C66.2901 122.63 67.2227 122.8 68.2402 122.8C69.2858 122.8 70.2185 122.659 71.0381 122.348C71.8859 122.037 72.5925 121.613 73.2142 121.048C73.8077 120.482 74.2882 119.748 74.6273 118.9C74.9664 118.052 75.136 117.091 75.136 115.989C75.136 114.971 74.9664 114.039 74.6273 113.191C74.3164 112.315 73.8642 111.608 73.2425 111.015ZM69.9924 118.391C69.5967 118.956 69.0315 119.267 68.2967 119.267C67.5619 119.267 66.9966 118.985 66.5727 118.419C66.1488 117.854 65.951 117.034 65.951 115.961C65.951 114.915 66.1488 114.095 66.5444 113.53C66.9401 112.965 67.5053 112.682 68.2402 112.682C68.975 112.682 69.5402 112.965 69.9359 113.53C70.3315 114.095 70.5293 114.915 70.5293 115.961C70.5293 117.006 70.388 117.798 69.9924 118.391Z" fill="#FA5A65"/>
<path d="M101.334 112.513C101.249 112.258 101.193 112.004 101.165 111.721C100.882 111.156 100.458 110.704 99.9493 110.336C99.3841 109.941 98.7341 109.658 97.9427 109.46C97.1514 109.263 96.3036 109.178 95.3427 109.178C94.7209 109.178 94.0709 109.234 93.3926 109.319C92.7143 109.404 92.0926 109.545 91.5839 109.743C91.1317 109.941 90.7925 110.167 90.5664 110.45C90.3404 110.732 90.2273 111.071 90.2273 111.552C90.2273 111.891 90.3121 112.23 90.4534 112.569C90.623 112.908 90.9621 113.106 91.3295 113.106C91.4426 113.106 91.5273 113.078 91.6404 113.05C91.9795 112.937 92.3469 112.823 92.7426 112.739C93.3644 112.597 94.0144 112.541 94.6927 112.541C95.5405 112.541 96.1905 112.654 96.6144 112.88C97.0666 113.106 97.2927 113.474 97.2927 113.982V114.18L93.8448 114.547C92.5165 114.689 91.4708 115.028 90.7643 115.537C90.6795 115.593 90.5947 115.678 90.5099 115.734C90.4817 115.763 90.4534 115.791 90.3969 115.847C90.2556 115.989 90.1425 116.13 90.0295 116.271C89.6338 116.865 89.4077 117.628 89.4077 118.532C89.4077 118.73 89.436 118.928 89.436 119.126C89.4642 119.324 89.4925 119.522 89.549 119.719C89.6055 119.861 89.6338 120.03 89.7186 120.172C89.7469 120.256 89.7751 120.341 89.8316 120.426C90.1143 120.963 90.5382 121.415 91.0752 121.754C91.6121 122.093 92.2621 122.376 92.997 122.546C93.7318 122.715 94.5796 122.8 95.5122 122.8C97.5753 122.8 99.1863 122.461 100.317 121.782C100.599 121.613 100.854 121.415 101.052 121.189C100.995 120.935 100.967 120.652 100.967 120.369C100.967 119.917 101.08 119.465 101.278 119.013C101.362 118.815 101.475 118.645 101.589 118.448V114.01C101.589 113.671 101.56 113.36 101.504 113.078C101.504 112.88 101.419 112.71 101.334 112.513ZM97.3775 119.126C97.2079 119.239 96.9253 119.324 96.5862 119.38C96.2188 119.437 95.9079 119.465 95.597 119.465C94.947 119.465 94.4948 119.352 94.2122 119.126C93.9296 118.9 93.8165 118.617 93.8165 118.278C93.8165 117.939 93.9861 117.656 94.297 117.487C94.6079 117.317 95.0035 117.204 95.5122 117.176L97.4058 117.006V119.126H97.3775Z" fill="#334351"/>
<path d="M111.395 118.871H107.298L111.706 113.558C111.961 113.247 112.159 112.936 112.328 112.597C112.328 112.569 112.356 112.541 112.356 112.541C112.102 111.778 112.102 111.071 112.356 110.478C112.356 110.478 112.356 110.449 112.328 110.449C112.074 109.912 111.509 109.573 110.915 109.573H103.369C102.917 109.573 102.55 109.715 102.267 109.969C101.984 110.252 101.871 110.675 101.871 111.297C101.871 111.354 101.871 111.439 101.871 111.495C101.9 111.778 101.928 112.032 102.013 112.286C102.069 112.456 102.154 112.597 102.267 112.71C102.465 112.908 102.719 113.021 103.002 113.021H107.128L102.606 118.334C102.521 118.447 102.437 118.532 102.38 118.645C102.239 118.843 102.126 119.041 102.013 119.239L101.984 119.267C101.815 119.606 101.73 119.945 101.73 120.313C101.73 120.482 101.758 120.652 101.787 120.821C101.815 120.991 101.871 121.132 101.928 121.274C101.956 121.33 101.956 121.387 101.984 121.415C102.239 121.952 102.804 122.291 103.397 122.291H111.367C111.819 122.291 112.187 122.15 112.469 121.895C112.526 121.839 112.582 121.754 112.639 121.698C112.328 121.387 112.074 121.047 111.876 120.68C111.593 120.143 111.452 119.55 111.395 118.871Z" fill="#334351"/>
<path d="M124.113 112.597C124.029 112.315 123.944 112.06 123.831 111.806C122.785 109.715 120.27 109.149 118.037 109.149C116.37 109.149 114.844 109.46 114.222 109.715C113.685 109.941 113.346 110.223 113.148 110.534C113.035 110.732 112.95 110.93 112.922 111.128C112.865 111.382 112.893 111.636 112.95 111.891C112.978 112.089 113.035 112.286 113.12 112.456C113.12 112.484 113.148 112.513 113.176 112.569C113.346 112.88 113.685 113.078 114.024 113.078C114.137 113.078 114.222 113.05 114.335 113.021C115.324 112.71 116.454 112.484 117.444 112.484C118.857 112.484 119.987 112.88 119.987 113.926V114.123L116.539 114.491C115.041 114.66 113.911 115.056 113.204 115.706C112.526 116.3 112.187 117.147 112.13 118.221C112.13 118.306 112.13 118.391 112.13 118.476C112.13 118.504 112.13 118.561 112.13 118.589C112.13 118.73 112.13 118.843 112.159 118.984C112.215 119.493 112.356 119.974 112.554 120.369C112.667 120.567 112.78 120.737 112.922 120.906C113.006 121.019 113.12 121.132 113.233 121.245C113.317 121.33 113.43 121.443 113.543 121.528C113.628 121.585 113.713 121.669 113.798 121.726C114.335 122.065 114.985 122.348 115.72 122.517C116.454 122.687 117.302 122.772 118.235 122.772C120.298 122.772 121.909 122.432 123.039 121.754C123.379 121.556 123.689 121.302 123.944 121.019C124.029 120.906 124.113 120.793 124.17 120.652C124.17 120.567 124.17 120.511 124.17 120.482V112.597H124.113ZM119.987 119.126C119.818 119.239 119.535 119.324 119.196 119.38C118.828 119.437 118.518 119.465 118.207 119.465C117.557 119.465 117.104 119.352 116.822 119.126C116.539 118.9 116.426 118.617 116.426 118.278C116.426 117.939 116.596 117.656 116.907 117.487C117.217 117.317 117.613 117.204 118.122 117.176L120.015 117.006V119.126H119.987Z" fill="#334351"/>
<path d="M131.066 109.178C129.031 109.178 125.837 109.997 125.074 111.495C124.933 111.778 124.848 112.117 124.848 112.513C124.848 112.513 124.848 112.513 124.848 112.541V120.426C124.848 120.539 124.848 120.624 124.848 120.737C124.876 121.274 125.046 121.782 125.498 122.122C125.894 122.432 126.572 122.517 127.25 122.517C127.674 122.517 128.098 122.489 128.437 122.432C128.918 122.376 129.285 121.952 129.285 121.472V113.304C129.879 113.021 131.348 112.71 132.761 112.626C133.214 112.597 133.581 112.287 133.666 111.834C133.948 110.506 133.666 109.178 131.066 109.178Z" fill="#334351"/>
<path d="M78.4422 59.4929C79.2053 60.0016 79.4313 60.1712 80.1096 60.7081C80.6466 61.1321 81.4944 61.7821 83.1336 63.0256L87.0055 62.4038C84.4054 58.4472 80.0248 55.7906 75.0508 55.5928C76.0399 56.5819 76.8878 57.6841 77.5661 58.9277C77.8487 59.1255 78.1596 59.2951 78.4422 59.4929Z" fill="white"/>
<path d="M106.93 64.1559C106.93 64.0146 106.902 63.845 106.902 63.7037C106.252 64.0994 105.517 64.2972 104.754 64.2972C102.747 64.2972 101.023 62.8559 100.656 60.9058C100.656 60.9058 100.656 60.9058 100.656 60.8776L88.0512 62.9124L87.7121 62.9689L87.3729 63.0254L82.9924 63.7037C79.0357 60.708 79.4879 60.9341 78.1031 60.0297C77.9335 59.9167 77.764 59.8319 77.5944 59.7188C77.4248 59.6058 77.2553 59.4927 77.0574 59.4079C74.9943 58.1644 72.7051 57.2318 70.3029 56.6383C68.805 56.2709 67.2506 56.0448 65.668 55.9883C66.2615 56.5818 66.7984 57.1753 67.3071 57.8253C70.529 61.7819 72.5638 66.7842 72.7617 72.2953C72.903 76.3932 72.0551 80.2933 70.3877 83.7413C74.5421 87.1892 81.551 91.5415 91.2448 92.5307C90.9622 91.7111 90.7926 90.8067 90.7644 89.8741C90.5948 85.6913 93.2231 82.0738 96.9819 80.7455C96.2471 80.9151 95.0601 81.1412 93.5905 81.1412C92.997 81.1412 92.3753 81.1129 91.697 81.0281C87.5425 80.4912 84.7446 78.4281 83.3881 77.1563C83.812 77.4389 87.0338 79.7846 91.8948 79.7846C92.0927 79.7846 92.2622 79.7846 92.4601 79.7846C96.3884 79.6433 99.469 78.0041 101.391 76.4215C104.923 73.5105 107.1 69.0734 106.93 64.1559ZM82.5967 67.8865C83.275 66.0494 85.3098 65.0885 87.1469 65.7668C87.2882 65.8234 87.4012 65.8799 87.5143 65.9081L87.2882 66.5582C87.2316 66.5299 87.1751 66.5299 87.0903 66.5016C85.2533 65.8234 83.2185 66.7842 82.5402 68.6213C82.4554 68.8474 82.3989 69.0734 82.3706 69.2995C82.3706 68.8191 82.4272 68.3386 82.5967 67.8865ZM75.0791 65.569C74.1747 62.7428 72.4508 60.3123 70.2181 58.5036C72.9312 59.634 75.4183 61.2167 77.5379 63.2233C76.6335 63.9016 75.8139 64.6929 75.0791 65.569Z" fill="white"/>
<path d="M94.2689 93.3231C94.2689 92.9839 94.0146 92.7013 93.6754 92.7013C93.1102 92.673 92.5167 92.6448 91.9797 92.5883C91.8667 92.5883 91.7536 92.56 91.6406 92.56C91.5275 92.56 91.4145 92.5317 91.3014 92.5317C81.6077 91.5426 74.5988 87.1903 70.4443 83.7423C70.3595 83.6858 70.2747 83.601 70.19 83.5445C70.1052 83.4597 70.0204 83.4032 69.9356 83.3467C69.4269 82.9228 68.9747 82.4988 68.5508 82.1032C68.4377 81.9901 68.2682 81.9336 68.1269 81.9336C67.9573 81.9336 67.816 81.9901 67.7029 82.1032C66.2616 83.488 65.1311 85.1272 64.3115 86.9359C64.1985 87.1903 64.255 87.4729 64.4528 87.6425C69.0312 91.9665 74.4292 95.0753 80.4772 96.884C85.3947 98.3536 89.5492 98.5797 91.5841 98.5797C92.2906 98.5797 92.771 98.5515 92.9406 98.5515C92.9689 98.5515 92.9971 98.5515 92.9971 98.5515C93.2515 98.5515 93.5059 98.3536 93.5906 98.0993C94.0711 96.5731 94.3254 94.9905 94.3254 93.3796L94.2689 93.3231Z" fill="#FA5A65"/>
<path d="M107.552 64.1285C107.523 63.7329 107.495 63.3089 107.467 62.9133C107.354 61.8393 107.1 60.7936 106.789 59.8045C106.704 59.5501 106.45 59.3806 106.195 59.3806C106.167 59.3806 106.139 59.3806 106.082 59.3806L101.193 60.1719H101.165L87.712 62.3198C87.0903 61.3306 86.3555 60.398 85.5076 59.5784C82.7097 56.7805 79.0074 55.1696 75.079 55H75.0508C74.7964 55 74.5703 55.1413 74.4855 55.3674C74.3725 55.5935 74.429 55.8761 74.6268 56.0739C75.3051 56.7522 75.9269 57.5153 76.4639 58.3066C74.5703 57.2892 72.592 56.5261 70.5289 56.0457C68.9745 55.6783 67.3636 55.4522 65.7527 55.3674H65.7244C65.4701 55.3674 65.244 55.5087 65.1592 55.7348C65.0461 55.9609 65.1027 56.2435 65.3005 56.4413C65.8375 56.9783 66.3744 57.6001 66.9114 58.2218C70.1898 62.235 72.0268 67.1243 72.2246 72.3244C72.3659 76.1115 71.6028 79.8986 69.9919 83.3182C70.0767 83.3747 70.1615 83.4595 70.2463 83.516C70.3311 83.5726 70.4159 83.6574 70.5006 83.7139C72.1681 80.266 73.0159 76.3658 72.8746 72.2679C72.6768 66.7569 70.6419 61.7545 67.4201 57.7979C66.9114 57.1479 66.3462 56.5544 65.7809 55.9609C67.3636 56.0174 68.918 56.2435 70.4159 56.6109C72.8181 57.1761 75.079 58.137 77.1704 59.3806C77.34 59.4936 77.5095 59.6067 77.7074 59.6914C77.8769 59.8045 78.0465 59.8893 78.2161 60.0023C79.6009 60.9067 79.1205 60.6806 83.1054 63.6763L87.4859 62.9698L87.8251 62.9133L88.1642 62.8568L100.769 60.8219C100.769 60.8219 100.769 60.8219 100.769 60.8502C101.136 62.8285 102.86 64.2416 104.867 64.2416C105.63 64.2416 106.365 64.0437 107.015 63.6481C107.015 63.7894 107.043 63.959 107.043 64.1003C107.241 69.0178 105.036 73.4831 101.475 76.3658C99.5537 77.9202 96.5014 79.5877 92.5448 79.729C92.3469 79.729 92.1491 79.729 91.9795 79.729C87.1185 79.729 83.8967 77.3833 83.4728 77.1006C84.8576 78.3724 87.6272 80.4355 91.7817 80.9725C92.46 81.0573 93.11 81.0855 93.6752 81.0855C95.1448 81.0855 96.3318 80.8594 97.0666 80.6899C93.3078 82.0182 90.7078 85.6357 90.8491 89.8184C90.8773 90.751 91.0469 91.6272 91.3295 92.475C91.4426 92.475 91.5556 92.5033 91.6686 92.5033C91.7817 92.5033 91.8947 92.5315 92.0078 92.5315C91.6686 91.6554 91.4991 90.751 91.4708 89.8184C91.386 87.9249 91.923 86.1161 92.997 84.5617C94.0426 83.0639 95.5405 81.9051 97.2645 81.3116C97.5753 81.1986 97.7449 80.8594 97.6601 80.5486C97.5753 80.266 97.321 80.0964 97.0666 80.0964C97.0101 80.0964 96.9818 80.0964 96.9253 80.1246C95.8231 80.379 94.7774 80.492 93.6752 80.492C93.11 80.492 92.5448 80.4638 91.9795 80.4073C92.1774 80.4073 92.3469 80.4073 92.5448 80.4073C97.0949 80.2377 100.317 78.1463 101.843 76.9028C103.68 75.4049 105.206 73.4549 106.195 71.307C107.156 69.0461 107.637 66.6156 107.552 64.1285ZM83.1336 63.0546C81.4662 61.8111 80.6466 61.161 80.1096 60.7371C79.4313 60.2002 79.2052 60.0306 78.4422 59.5219C78.1596 59.324 77.8487 59.1262 77.5378 58.9566C76.8595 57.7414 76.0117 56.6109 75.0225 55.6218C79.9966 55.8196 84.4054 58.4762 86.9772 62.4328L83.1336 63.0546Z" fill="#334351"/>
<path d="M75.0793 65.5693C75.8141 64.6932 76.6337 63.9019 77.538 63.2236C75.4184 61.2453 72.9314 59.6344 70.2183 58.5039C72.4509 60.3127 74.1749 62.7432 75.0793 65.5693Z" fill="#334351"/>
<path d="M87.1186 66.4741C87.1752 66.5023 87.2599 66.5306 87.3165 66.5306L87.5426 65.8806C87.4295 65.8241 87.3165 65.7675 87.1751 65.7393C85.3381 65.061 83.3033 66.0219 82.625 67.8589C82.4554 68.3111 82.3989 68.7915 82.3989 69.2437C82.4272 69.0176 82.4837 68.7915 82.5685 68.5655C83.2185 66.7567 85.2816 65.7958 87.1186 66.4741Z" fill="#334351"/>
<path d="M136.972 109.234C136.096 109.234 135.39 109.941 135.39 110.817C135.39 111.693 136.096 112.4 136.972 112.4C137.848 112.4 138.555 111.693 138.555 110.817C138.555 109.941 137.848 109.234 136.972 109.234ZM136.972 112.202C136.209 112.202 135.587 111.58 135.587 110.817C135.587 110.054 136.209 109.432 136.972 109.432C137.735 109.432 138.357 110.054 138.357 110.817C138.357 111.58 137.735 112.202 136.972 112.202Z" fill="#334351"/>
<path d="M137.764 111.581H137.396L136.944 111.044H136.661V111.581H136.351V109.998C136.605 109.998 136.859 109.998 137.114 109.998C137.481 109.998 137.679 110.252 137.679 110.507C137.679 110.733 137.566 110.931 137.283 111.015L137.764 111.581ZM136.661 110.281V110.789H137.114C137.311 110.789 137.396 110.676 137.396 110.535C137.396 110.422 137.311 110.281 137.114 110.281H136.661Z" fill="#334351"/>
</svg>
