<svg width="177" height="177" viewBox="0 0 177 177" fill="none" xmlns="http://www.w3.org/2000/svg">
<rect width="177" height="177" fill="white"/>
<path fill-rule="evenodd" clip-rule="evenodd" d="M88.4553 112.998C87.4322 111.481 86.1167 110.453 84.4114 109.963C82.7062 109.474 80.9523 109.082 79.1008 108.838C77.2981 108.593 75.5442 108.251 73.8388 107.859C72.1822 107.467 70.8668 106.587 69.9898 105.265C68.6744 103.405 68.2359 101.594 68.6256 99.7837C69.0154 98.0219 69.6 96.2111 70.3308 94.4492C71.0129 92.6384 71.5975 90.8275 71.9874 88.9678C72.3772 87.1082 71.8899 85.1505 70.5257 83.1439C70.1359 82.4098 69.4539 81.6757 68.4306 80.8926C67.4562 80.1096 66.6767 79.4734 66.1895 79.0818L69.0154 73.8452C73.2541 75.2645 76.6159 75.607 79.1494 74.8729C81.6829 74.1388 84.7524 72.1323 88.4552 68.9512C92.158 72.1323 95.2762 74.1388 97.8097 74.8729C100.392 75.607 103.705 75.2645 107.846 73.8452L110.867 79.0818C110.234 79.4734 109.454 80.1096 108.431 80.8926C107.408 81.6757 106.726 82.4098 106.385 83.1439C105.069 85.1504 104.582 87.1081 104.972 88.9678C105.361 90.8276 105.897 92.6384 106.628 94.4492C107.31 96.211 107.846 98.0218 108.236 99.7837C108.626 101.594 108.187 103.405 106.872 105.265C105.995 106.586 104.728 107.467 103.023 107.859C101.366 108.251 99.5636 108.593 97.7122 108.838C95.8608 109.082 94.0581 109.474 92.3528 109.963C90.6476 110.453 89.3322 111.481 88.4551 112.998H88.4553Z" fill="#9D6A06"/>
<path fill-rule="evenodd" clip-rule="evenodd" d="M88.3517 111.187C89.7646 109.914 91.3237 109.082 92.9315 108.642C94.5393 108.251 96.0984 107.957 97.6574 107.761C99.2165 107.565 100.727 107.272 102.091 106.978C103.504 106.684 104.673 105.95 105.648 104.874C106.963 103.356 107.499 101.79 107.158 100.224C106.866 98.6091 106.33 96.9452 105.599 95.2322C104.868 93.4704 104.284 91.6107 103.796 89.702C103.358 87.7444 103.65 85.6889 104.722 83.4377C105.404 82.1653 106.915 80.5991 109.156 78.7393L106.963 75.4115C103.017 76.6349 99.7525 76.8307 97.2677 76.0966C94.7829 75.3136 91.7622 73.5027 88.3517 70.5664C84.8925 73.5028 81.8717 75.3136 79.3869 76.0966C76.9021 76.8307 73.6377 76.6349 69.6913 75.4115L67.8887 78.6905C69.8862 80.5992 71.2504 82.2141 71.9326 83.4377C73.0044 85.6889 73.2967 87.7934 72.8096 89.751C72.3224 91.7576 71.7378 93.6174 71.0069 95.3792C70.2761 97.1411 69.7402 98.8051 69.4478 100.371C69.1555 101.937 69.7402 103.454 71.2018 104.874C72.2736 105.95 73.4917 106.684 74.9047 107.027C76.3176 107.37 77.8279 107.614 79.3383 107.859C80.8974 108.055 82.4565 108.348 83.9668 108.74C85.5259 109.18 86.9875 109.963 88.3518 111.187L88.3517 111.187Z" fill="#F02C2D"/>
<path fill-rule="evenodd" clip-rule="evenodd" d="M80.0673 99.8967V98.4285H81.2367V83.5016H78.9468V85.3613H78.8006H77.8262V81.9844H78.0211H87.0833V85.3613H86.9371H85.9627V83.5016H83.6239V98.4285H84.842V99.8967H84.6471H80.0673H80.0673ZM95.9506 84.1868V83.5016H94.7325V81.9845H94.8787H99.5073V83.5016H98.2892V98.4285H99.5073V99.8967H99.3611H94.7325V98.4285H95.9506V87.0254L91.4682 97.4497V98.4285H92.6863V99.8967H92.5401H87.9115V98.4285H89.0809V83.5016H87.9115V81.9845H88.0577H92.6863V83.5016H91.4682V94.6111L95.9506 84.1868Z" fill="#FEFEFE"/>
<path fill-rule="evenodd" clip-rule="evenodd" d="M56.5088 110.157C56.4314 110.266 56.3693 110.344 56.3384 110.36L55.9818 110.749L58.5085 114.984C58.4465 115.28 58.1364 115.327 57.9195 115.498C57.6715 115.591 57.3924 115.716 57.0979 115.763C56.8499 115.981 56.4934 115.934 56.2453 116.058C55.7027 116.09 55.2067 116.308 54.6953 116.136C54.1062 116.167 53.5947 115.669 53.0367 115.607C52.7887 115.498 52.9592 115.155 52.8816 114.937C53.0367 114.33 53.0367 113.801 53.1451 113.24C53.1451 112.555 53.3776 111.855 53.2071 111.263H53.1916C53.1296 110.5 52.8816 109.394 52.8506 108.631C53.0521 105.657 52.5716 102.73 53.5171 99.7719C53.5171 99.2112 53.5637 98.7286 53.4862 98.2148L52.8351 98.7287C52.3856 98.8843 52.0601 99.5383 51.4556 99.4916C50.4481 99.1646 49.9055 98.4173 49.1615 97.8101C48.9755 97.561 48.8206 97.2494 48.929 96.9848C49.4095 95.5523 50.6186 93.8395 49.6885 92.4382C49.2235 91.7531 49.4871 90.8345 49.8126 90.2117C50.138 89.7601 50.2465 89.1062 50.1226 88.5456L49.611 88.2965C49.4405 88.3589 49.3165 88.4678 49.208 88.6079L48.6035 88.8726C48.6344 91.1148 48.1539 93.5905 47.1619 95.6145C47.0534 96.2218 46.7588 96.72 46.6193 97.2807C46.3868 97.6699 46.2628 98.2305 46.4798 98.6197C47.5804 99.9432 48.6344 101.111 49.4714 102.481C50.2465 104.287 51.7191 106.047 51.8896 108.118C51.8276 108.32 51.7811 108.445 51.7191 108.6C51.9051 109.099 52.4011 109.504 52.6026 110.095C52.7576 110.329 52.9126 110.874 52.9901 111.201C52.5406 111.107 52.0446 111.17 51.595 110.998C50.448 111.092 49.301 110.578 48.1849 110.593C48.1849 110.593 48.1694 110.593 48.1539 110.593C48.4019 110.126 48.681 109.177 48.4795 108.725L47.8129 108.398C47.255 107.09 47.999 105.284 46.945 104.054C46.6194 103.556 46.2319 103.104 45.9529 102.652C44.6663 101.095 43.0698 100.037 41.9072 98.5419L41.8762 98.573C41.5817 98.9155 41.1788 99.1023 40.7447 99.1958C40.4811 99.3049 40.3106 99.4294 40.0316 99.5228C39.6906 99.5384 39.5976 99.7564 39.3031 99.8186C38.5745 100.208 37.815 99.8809 37.1019 99.8653C36.8693 102.263 38.4195 104.365 39.1636 106.498C39.3495 106.872 39.365 107.308 39.241 107.651C39.148 107.806 39.0705 107.884 38.931 107.993L39.6131 109.721H39.5975C39.768 110.92 40.8375 112.555 39.706 113.598C39.334 113.832 39.0086 114.034 38.7295 114.206C38.2645 114.299 37.9855 114.719 37.6134 114.579C37.4585 114.47 37.443 114.424 37.3964 114.315C36.2339 113.521 35.3813 112.213 35.7844 110.687C35.8309 110.469 36.0014 109.893 36.0324 109.628L36.1563 108.787C36.0789 108.709 35.9703 108.678 35.8153 108.569C35.2728 108.024 35.4588 107.043 35.3039 106.265C35.4588 105.517 35.1799 104.77 35.0248 104.038C34.7613 103.275 34.4978 102.512 34.1878 101.781C34.0327 101.485 33.9243 101.095 33.8003 100.737C33.5523 100.395 33.4748 99.8809 33.2423 99.445C32.9478 98.5886 32.3588 97.4986 32.8858 96.5956C33.9398 96.0351 35.3814 95.9884 36.4044 95.2566C36.203 93.3881 34.8544 91.9868 34.2035 90.2118C33.9399 89.7602 33.6609 89.3242 33.4284 88.8104C33.1339 88.281 32.9788 87.5959 32.8703 86.9886C32.8703 86.8641 32.7153 86.833 32.6688 86.724C32.5913 84.7465 32.8239 82.4266 33.8314 80.8228C33.7228 80.7138 33.6609 80.6516 33.5214 80.527C33.2114 80.4959 32.8549 80.4959 32.5913 80.7605C32.2658 81.072 32.2658 81.5391 32.2813 82.0218C32.2813 82.9871 32.5293 83.9214 32.3588 84.9178C32.1108 86.0389 31.3202 86.7552 30.8397 87.6893C30.2352 88.468 29.5997 89.589 29.6461 90.8035L29.9562 91.8155C29.8941 91.8155 29.8322 91.7844 29.7236 91.7532C29.0727 91.1927 28.6541 90.274 28.7316 89.2775C28.7161 89.2464 28.6696 89.2464 28.6541 89.2464C28.4526 89.6356 28.3906 90.0871 28.3906 90.5386C28.2666 90.8345 28.3906 91.1615 28.3441 91.504C28.4371 92.8275 29.1501 93.8707 29.8322 94.727C29.8167 94.7738 29.7857 94.7894 29.7702 94.8205C29.7546 94.8205 29.7082 94.8205 29.6151 94.7738L28.5456 94.1666C28.096 93.6528 27.724 93.2012 27.3985 92.6096C27.135 92.2671 27.073 91.6442 26.8406 91.3172C26.4066 91.6753 26.1275 92.1113 25.9571 92.7653C25.461 95.3189 28.5146 96.0974 28.6231 98.4952C28.5611 98.5108 28.5457 98.5108 28.4992 98.4952C28.3906 98.0437 28.2356 97.5922 27.7705 97.3898C26.8406 96.331 25.554 95.8794 24.686 94.7271C23.8644 93.4816 23.4769 91.5508 24.2829 90.165C24.2519 90.1183 24.2364 90.1028 24.1899 90.1028C23.8334 90.3051 23.5233 90.7099 23.2908 91.0525C22.7483 92.7497 23.5078 94.7116 24.1744 96.2842C25.5074 98.8378 26.0034 102.263 24.4223 104.848C23.5544 106.047 22.2367 106.841 20.7952 107.324C20.7487 107.324 20.7331 107.277 20.7331 107.23C20.8106 107.012 21.0432 106.966 21.3067 106.888C22.1902 106.436 22.6862 105.549 22.9653 104.521C22.9033 100.348 19.8496 98.0905 18.6561 94.4315C18.4391 93.9176 18.2221 93.3882 18.3616 92.8121C18.2996 91.9713 18.8267 91.2551 19.0746 90.5388C19.0281 90.4922 18.9971 90.4454 18.9817 90.4454C18.9196 90.4298 18.8112 90.4922 18.6561 90.4298C18.0206 90.5544 17.5556 91.146 17.0595 91.582C16.2845 92.8744 16.0521 94.6026 16.331 96.0663C16.3154 96.113 16.2689 96.113 16.2535 96.113C15.6025 94.6649 15.7575 93.0457 15.897 91.4731C16.3621 89.4801 17.3695 87.8762 19.0746 87.2067C19.0746 87.1133 18.9971 87.0509 18.9817 87.0044C18.3152 86.7085 17.7726 86.2103 17.2146 85.6341C15.8815 84.0771 14.874 81.7571 15.0289 79.3748C15.1064 78.7677 14.874 78.1292 15.1064 77.5686C15.122 77.6932 15.1685 77.4596 15.1995 77.5686C15.37 79.5462 15.9435 81.8038 17.137 83.2675C17.7106 83.8591 18.2066 84.4196 18.9196 84.5442C18.9351 84.4975 18.9351 84.4664 18.9351 84.4664C17.7726 81.8661 16.9666 78.5185 17.4316 75.6535C17.4936 75.6379 17.5246 75.7002 17.54 75.747C17.3231 76.9614 17.6486 78.207 18.1445 79.4216C18.6561 80.2936 19.0746 81.1655 19.6481 82.0219L20.8416 83.0184C20.9036 82.9873 20.9036 82.9716 20.9191 82.9405C20.2991 81.8506 19.9736 80.3714 20.144 79.048C20.2061 79.0323 20.1595 78.9234 20.268 78.9234C20.5935 80.2157 21.1206 81.2745 22.0041 82.2088C22.7016 82.9251 23.8332 83.4388 25.0267 83.0963C25.2438 82.8627 25.6623 82.8316 25.7862 82.5824C25.7708 82.5513 25.7242 82.5357 25.6933 82.5357C25.1663 82.8315 24.6393 82.5981 24.1432 82.4268C24.1432 82.4268 24.0812 82.4112 24.0347 82.3644C23.7402 82.1464 23.6472 81.6638 23.6781 81.3524C23.7247 81.3213 23.7402 81.3213 23.7867 81.3213L23.9418 81.4926C24.3603 81.7572 25.0268 81.7106 25.5538 81.5393C27.0419 80.4182 27.1814 78.3785 28.3904 77.1329C28.8245 76.4167 29.677 76.0274 30.5451 75.7938C31.6921 75.7938 32.8237 75.9807 33.9087 76.479C34.7457 77.0394 35.2727 77.7557 35.5207 78.69C35.5363 78.7367 35.5828 78.7367 35.6293 78.7367L37.1174 77.5689C37.1949 77.4598 37.288 77.4287 37.4275 77.3821C38.9 76.0119 41.3026 76.588 43.0077 75.9028L43.1628 76.0274C45.0073 75.0309 46.5575 73.4115 48.9911 73.3182C49.3166 73.3649 49.5801 73.1936 49.9211 73.178C50.355 73.0846 50.5876 72.7109 50.7425 72.306C51.3007 70.2975 50.9905 68.1332 50.0916 66.3114C49.5956 66.4048 49.2545 66.9809 48.929 67.2612C48.3865 67.8684 48.216 68.7405 47.5495 69.1763C46.4799 69.5969 45.5654 68.8027 44.6663 68.7405C44.4493 68.5691 44.4493 68.1954 44.2943 67.9619C44.1703 67.7283 44.0463 67.5881 43.7827 67.5727C43.5192 67.3547 43.0231 67.3702 42.9302 66.9655C42.7131 66.4672 43.0077 65.9066 43.4418 65.642C44.1547 64.8167 45.1778 64.1472 45.3793 62.8548C45.3793 61.469 45.1778 59.9742 45.7048 58.6975C44.4027 58.2771 43.0231 57.919 41.8296 57.3274C39.9231 57.016 38.4815 55.9416 36.5904 55.6302C35.6294 55.2409 34.4978 55.023 33.7538 54.4624C33.7228 54.4157 33.7073 54.3846 33.7073 54.3533C33.7228 54.291 33.7228 54.291 33.7538 54.2756C33.8623 54.2288 33.9864 54.2132 34.1103 54.2288C37.9546 55.0696 41.8916 55.6302 45.7049 56.5177C45.8754 56.58 46.1544 56.6422 46.2319 56.471C46.2319 56.3619 46.1699 56.2841 46.1079 56.1751C45.5965 55.0541 46.9295 54.0265 46.263 52.9521C46.2785 52.9053 46.3095 52.8587 46.3405 52.8587C46.8984 53.6372 47.6735 54.1821 48.3245 54.6649C48.6345 54.1199 48.1695 53.5282 48.092 53.0611C48.1075 53.0455 48.1695 53.0455 48.1695 53.0455C48.8669 53.4971 49.053 54.2911 49.5181 54.7427C49.7505 54.4624 49.9985 54.2133 50.3086 53.8863C50.603 53.5593 50.9131 53.2167 51.3161 52.9521L52.7112 52.6562L53.3312 52.7341C53.3932 52.7808 53.4087 52.8275 53.4087 52.8899C52.9592 52.9989 52.6336 53.1702 52.4166 53.5126C52.5252 53.7774 52.8041 53.7929 53.1141 53.7774C53.5481 53.5126 54.1682 53.4659 54.5557 53.1234C55.1602 52.6251 56.1058 52.594 56.8653 52.9989C56.8653 53.0612 56.8653 53.0767 56.8188 53.1079C56.4313 53.0768 55.9972 53.2168 55.5942 53.3882C55.2067 53.6373 55.0052 54.0733 55.0672 54.5093C55.1137 54.6339 55.2223 54.7273 55.3307 54.7273C55.8112 54.556 56.0127 54.2913 56.4933 54.12C57.0358 54.0266 57.8108 54.12 58.2448 54.4625C58.2448 54.4937 58.2448 54.5249 58.2139 54.556C58.1364 54.6027 58.0278 54.556 57.9039 54.5093C57.2064 54.4937 56.2763 54.5093 55.9043 55.1321C55.9043 55.241 55.9353 55.4124 56.0128 55.4746C56.3693 55.3812 56.5709 55.1165 56.9738 54.992C57.8264 54.5248 58.7874 55.1321 59.5159 55.5057C59.702 55.7704 60.0741 56.0196 60.0741 56.3621C59.5315 56.331 58.896 55.8949 58.4 56.222C58.369 56.2531 58.369 56.2843 58.369 56.331C58.679 56.8915 59.1906 57.1407 59.8725 57.3275C61.3142 57.8102 62.9108 58.0594 63.6858 59.3985C63.5772 59.414 63.7787 59.4608 63.6702 59.4762C63.3602 59.4607 63.0192 59.3361 62.7711 59.4762C62.7246 59.523 62.7246 59.5697 62.7246 59.5853C62.7401 59.6787 62.7711 59.741 62.8021 59.85C63.7477 60.753 65.3443 60.8932 66.2278 61.7807C66.2122 61.8431 66.1658 61.8585 66.1192 61.8897C65.6076 61.9054 65.0031 61.4071 64.6002 61.7807C64.6002 61.7807 64.6156 61.8119 64.6156 61.8897C65.2822 62.6371 66.7857 62.4192 67.5143 63.2288C68.1498 63.8516 68.8938 64.5679 69.0489 65.4554C69.0024 65.471 68.9714 65.471 68.9714 65.471C68.491 65.0038 67.9329 64.4745 67.2663 64.3655C67.2199 64.4122 67.2043 64.4278 67.2043 64.4745L67.7623 65.2842L66.8478 65.0351C66.7392 65.0818 66.6618 65.1752 66.6463 65.2531C67.1579 66.4831 68.2273 67.1993 68.6459 68.4762C69.0489 69.8619 69.173 71.5902 68.1498 72.6335L67.7159 72.7113C67.2819 71.2632 67.8398 69.3014 66.5998 68.2426C66.5378 68.2426 66.5378 68.3049 66.5378 68.3049L66.9253 69.5973L66.7858 69.7996C66.7702 69.8152 66.7237 69.8152 66.6772 69.7996C66.3516 69.3481 66.1192 68.7409 65.6542 68.4294C65.6232 68.4606 65.6076 68.4762 65.6076 68.5229C65.7317 68.8966 65.9021 69.2392 66.0572 69.5973C66.1658 70.3446 66.6152 71.2321 66.1192 71.8082C66.0727 71.8238 66.0572 71.8238 66.0107 71.8238C65.7627 70.5782 65.3442 69.4104 64.6156 68.5229C64.1041 68.0246 63.4686 67.6821 62.6935 67.6198C61.8564 67.5107 61.5154 68.2426 60.9109 68.5073L60.1358 68.4139C60.3063 69.3014 60.7403 70.1267 60.9109 71.0142C61.4225 72.3688 61.8874 73.848 62.12 75.3116C62.1975 75.5451 62.2439 75.8565 62.4455 76.0901C62.9725 77.5849 63.05 79.2042 62.5851 80.7146C62.3834 81.3841 61.7015 81.8824 62.0269 82.7543C61.9649 84.6072 61.81 86.5534 61.0814 88.3908L60.5234 89.543C60.4614 89.6364 60.3374 89.652 60.3683 89.7766C60.0893 90.0257 60.0274 90.415 59.7328 90.6952C58.8028 92.7505 57.4232 95.0548 57.7487 97.5462C57.6867 98.3403 57.9193 99.3212 57.4078 100.069C56.5708 100.925 56.3692 102.217 56.3382 103.494C56.2762 105.736 56.0126 108.01 56.4777 110.158C56.4933 110.158 56.5087 110.158 56.5087 110.158L56.5088 110.157ZM54.6798 87.5489C54.2767 87.8293 53.7188 88.1407 53.1142 88.1718C53.1142 88.3898 53.1297 88.639 53.2072 88.8881C53.3777 89.5731 53.6258 90.1648 53.9823 90.6942C54.4783 91.7219 54.2767 92.9208 53.6102 93.637C53.4242 93.7461 53.3158 93.9173 53.2382 94.073L53.7652 95.2251C53.7807 95.2251 53.8117 95.2251 53.8272 95.2251C54.2923 92.7027 54.6488 90.2426 54.7728 87.7357C54.7573 87.6267 54.7418 87.6112 54.7418 87.5489H54.6798V87.5489ZM52.3547 54.6331L51.3936 55.0846C50.9441 55.4738 50.7426 55.941 50.3861 56.377C50.1692 56.9841 49.9366 57.498 49.8281 58.1052C49.9676 58.2765 50.2776 58.1363 50.5102 58.043C51.1147 57.6537 50.9597 56.7817 51.1612 56.19C51.1922 55.427 51.9982 54.9911 52.3548 54.633L52.3547 54.6331ZM36.1564 54.8822H35.9549C36.5285 55.0845 37.164 55.2714 37.784 55.4738C38.5591 55.5672 39.2257 55.8631 39.9541 55.8475C40.6051 55.9721 41.1788 56.05 41.7677 56.2524C43.4108 56.5794 45.1003 57.3891 46.7589 57.5291C47.2084 57.6693 47.565 57.8562 47.968 57.9184C48.0145 57.9184 47.9835 57.9028 48.03 57.8873L47.8596 57.3111C44.0929 56.1123 40.0627 55.6607 36.1565 54.8822H36.1564ZM49.2081 60.1138C48.7275 60.3163 48.5416 60.9235 48.3555 61.4062C48.2624 61.7332 48.2935 61.9823 48.247 62.2937L49.239 61.811L49.4095 61.6241L49.2235 60.1138H49.208H49.2081ZM46.418 65.7192C46.2319 66.0306 45.8598 66.2797 45.8289 66.7001L45.9064 66.9025C45.9529 66.9181 45.9684 66.9181 46.0149 66.9181C46.2474 66.7935 46.3405 66.4977 46.418 66.233C46.4489 66.0306 46.48 65.8593 46.48 65.7036L46.418 65.7192Z" fill="#9D6A06"/>
<path fill-rule="evenodd" clip-rule="evenodd" d="M120.617 110.157C120.695 110.266 120.757 110.344 120.788 110.36L121.144 110.749L118.618 114.984C118.68 115.28 118.99 115.327 119.207 115.498C119.455 115.591 119.734 115.716 120.028 115.763C120.276 115.981 120.633 115.934 120.881 116.058C121.423 116.09 121.919 116.308 122.431 116.136C123.02 116.167 123.531 115.669 124.089 115.607C124.337 115.498 124.167 115.155 124.244 114.937C124.089 114.33 124.089 113.801 123.981 113.24C123.981 112.555 123.748 111.855 123.919 111.263H123.934C123.996 110.5 124.244 109.394 124.275 108.631C124.074 105.657 124.554 102.73 123.609 99.7719C123.609 99.2112 123.562 98.7286 123.64 98.2148L124.291 98.7287C124.74 98.8843 125.066 99.5383 125.67 99.4916C126.678 99.1646 127.22 98.4173 127.964 97.8101C128.15 97.561 128.305 97.2494 128.197 96.9848C127.716 95.5523 126.507 93.8395 127.437 92.4382C127.902 91.7531 127.639 90.8345 127.313 90.2117C126.988 89.7601 126.879 89.1062 127.003 88.5456L127.515 88.2965C127.685 88.3589 127.809 88.4678 127.918 88.6079L128.523 88.8726C128.491 91.1148 128.972 93.5905 129.964 95.6145C130.073 96.2218 130.367 96.72 130.507 97.2807C130.739 97.6699 130.863 98.2305 130.646 98.6197C129.546 99.9432 128.491 101.111 127.654 102.481C126.879 104.287 125.407 106.047 125.236 108.118C125.298 108.32 125.345 108.445 125.407 108.6C125.221 109.099 124.725 109.504 124.523 110.095C124.368 110.329 124.213 110.874 124.136 111.201C124.585 111.107 125.081 111.17 125.531 110.998C126.678 111.092 127.825 110.578 128.941 110.593C128.941 110.593 128.957 110.593 128.972 110.593C128.724 110.126 128.445 109.177 128.646 108.725L129.313 108.398C129.871 107.09 129.127 105.284 130.181 104.054C130.507 103.556 130.894 103.104 131.173 102.652C132.46 101.095 134.056 100.037 135.219 98.5419L135.25 98.573C135.544 98.9155 135.947 99.1023 136.381 99.1958C136.645 99.3049 136.815 99.4294 137.094 99.5228C137.435 99.5384 137.528 99.7564 137.823 99.8186C138.552 100.208 139.311 99.8809 140.024 99.8653C140.257 102.263 138.707 104.365 137.963 106.498C137.776 106.872 137.761 107.308 137.885 107.651C137.978 107.806 138.055 107.884 138.195 107.993L137.513 109.721H137.528C137.358 110.92 136.288 112.555 137.42 113.598C137.792 113.832 138.117 114.034 138.397 114.206C138.861 114.299 139.141 114.719 139.513 114.579C139.668 114.47 139.683 114.424 139.73 114.315C140.892 113.521 141.745 112.213 141.342 110.687C141.295 110.469 141.125 109.893 141.094 109.628L140.97 108.787C141.047 108.709 141.156 108.678 141.311 108.569C141.853 108.024 141.667 107.043 141.822 106.265C141.667 105.517 141.946 104.77 142.101 104.038C142.365 103.275 142.628 102.512 142.938 101.781C143.093 101.485 143.202 101.095 143.326 100.737C143.574 100.395 143.651 99.8809 143.884 99.445C144.178 98.5886 144.767 97.4986 144.24 96.5956C143.186 96.0351 141.745 95.9884 140.722 95.2566C140.923 93.3881 142.272 91.9868 142.923 90.2118C143.186 89.7602 143.465 89.3242 143.698 88.8104C143.992 88.281 144.147 87.5959 144.256 86.9886C144.256 86.8641 144.411 86.833 144.457 86.724C144.535 84.7465 144.302 82.4266 143.295 80.8228C143.403 80.7138 143.465 80.6516 143.605 80.527C143.915 80.4959 144.271 80.4959 144.535 80.7605C144.86 81.072 144.86 81.5391 144.845 82.0218C144.845 82.9871 144.597 83.9214 144.767 84.9178C145.015 86.0389 145.806 86.7552 146.286 87.6893C146.891 88.468 147.527 89.589 147.48 90.8035L147.17 91.8155C147.232 91.8155 147.294 91.7844 147.403 91.7532C148.054 91.1927 148.472 90.274 148.395 89.2775C148.41 89.2464 148.457 89.2464 148.472 89.2464C148.674 89.6356 148.736 90.0871 148.736 90.5386C148.86 90.8345 148.736 91.1615 148.782 91.504C148.689 92.8275 147.976 93.8707 147.294 94.727C147.31 94.7738 147.34 94.7894 147.356 94.8205C147.372 94.8205 147.418 94.8205 147.511 94.7738L148.581 94.1666C149.03 93.6528 149.402 93.2012 149.728 92.6096C149.991 92.2671 150.053 91.6442 150.286 91.3172C150.72 91.6753 150.999 92.1113 151.169 92.7653C151.665 95.3189 148.612 96.0974 148.503 98.4952C148.565 98.5108 148.581 98.5108 148.627 98.4952C148.736 98.0437 148.891 97.5922 149.356 97.3898C150.286 96.331 151.572 95.8794 152.44 94.7271C153.262 93.4816 153.649 91.5508 152.843 90.165C152.874 90.1183 152.89 90.1028 152.936 90.1028C153.293 90.3051 153.603 90.7099 153.835 91.0525C154.378 92.7497 153.618 94.7116 152.952 96.2842C151.619 98.8378 151.123 102.263 152.704 104.848C153.572 106.047 154.89 106.841 156.331 107.324C156.378 107.324 156.393 107.277 156.393 107.23C156.316 107.012 156.083 106.966 155.82 106.888C154.936 106.436 154.44 105.549 154.161 104.521C154.223 100.348 157.277 98.0905 158.47 94.4315C158.687 93.9176 158.904 93.3882 158.765 92.8121C158.827 91.9713 158.3 91.2551 158.052 90.5388C158.098 90.4922 158.129 90.4454 158.145 90.4454C158.207 90.4298 158.315 90.4922 158.47 90.4298C159.106 90.5544 159.571 91.146 160.067 91.582C160.842 92.8744 161.074 94.6026 160.795 96.0663C160.811 96.113 160.857 96.113 160.873 96.113C161.524 94.6649 161.369 93.0457 161.229 91.4731C160.764 89.4801 159.757 87.8762 158.052 87.2067C158.052 87.1133 158.129 87.0509 158.145 87.0044C158.811 86.7085 159.354 86.2103 159.912 85.6341C161.245 84.0771 162.252 81.7571 162.097 79.3748C162.02 78.7677 162.252 78.1292 162.02 77.5686C162.004 77.6932 161.958 77.4596 161.927 77.5686C161.756 79.5462 161.183 81.8038 159.989 83.2675C159.416 83.8591 158.92 84.4196 158.207 84.5442C158.191 84.4975 158.191 84.4664 158.191 84.4664C159.354 81.8661 160.16 78.5185 159.695 75.6535C159.633 75.6379 159.602 75.7002 159.586 75.747C159.803 76.9614 159.478 78.207 158.982 79.4216C158.47 80.2936 158.052 81.1655 157.478 82.0219L156.285 83.0184C156.223 82.9873 156.223 82.9716 156.207 82.9405C156.827 81.8506 157.153 80.3714 156.982 79.048C156.92 79.0323 156.967 78.9234 156.858 78.9234C156.533 80.2157 156.006 81.2745 155.122 82.2088C154.425 82.9251 153.293 83.4388 152.099 83.0963C151.882 82.8627 151.464 82.8316 151.34 82.5824C151.355 82.5513 151.402 82.5357 151.433 82.5357C151.96 82.8315 152.487 82.5981 152.983 82.4268C152.983 82.4268 153.045 82.4112 153.091 82.3644C153.386 82.1464 153.479 81.6638 153.448 81.3524C153.402 81.3213 153.386 81.3213 153.339 81.3213L153.185 81.4926C152.766 81.7572 152.099 81.7106 151.572 81.5393C150.084 80.4182 149.945 78.3785 148.736 77.1329C148.302 76.4167 147.449 76.0274 146.581 75.7938C145.434 75.7938 144.303 75.9807 143.218 76.479C142.381 77.0394 141.854 77.7557 141.605 78.69C141.59 78.7367 141.543 78.7367 141.497 78.7367L140.009 77.5689C139.931 77.4598 139.838 77.4287 139.699 77.3821C138.226 76.0119 135.824 76.588 134.118 75.9028L133.964 76.0274C132.119 75.0309 130.569 73.4115 128.135 73.3182C127.81 73.3649 127.546 73.1936 127.205 73.178C126.771 73.0846 126.539 72.7109 126.384 72.306C125.826 70.2975 126.136 68.1332 127.035 66.3114C127.531 66.4048 127.872 66.9809 128.197 67.2612C128.74 67.8684 128.91 68.7405 129.577 69.1763C130.646 69.5969 131.561 68.8027 132.46 68.7405C132.677 68.5691 132.677 68.1954 132.832 67.9619C132.956 67.7283 133.08 67.5881 133.343 67.5727C133.607 67.3547 134.103 67.3702 134.196 66.9655C134.413 66.4672 134.118 65.9066 133.685 65.642C132.972 64.8167 131.948 64.1472 131.747 62.8548C131.747 61.469 131.948 59.9742 131.421 58.6975C132.723 58.2771 134.103 57.919 135.297 57.3274C137.203 57.016 138.645 55.9416 140.536 55.6302C141.497 55.2409 142.628 55.023 143.372 54.4624C143.403 54.4157 143.419 54.3846 143.419 54.3533C143.403 54.291 143.403 54.291 143.372 54.2756C143.264 54.2288 143.14 54.2132 143.016 54.2288C139.172 55.0696 135.235 55.6302 131.421 56.5177C131.251 56.58 130.972 56.6422 130.894 56.471C130.894 56.3619 130.956 56.2841 131.018 56.1751C131.53 55.0541 130.197 54.0265 130.863 52.9521C130.848 52.9053 130.817 52.8587 130.786 52.8587C130.228 53.6372 129.453 54.1821 128.802 54.6649C128.492 54.1199 128.957 53.5282 129.034 53.0611C129.019 53.0455 128.957 53.0455 128.957 53.0455C128.259 53.4971 128.073 54.2911 127.608 54.7427C127.376 54.4624 127.128 54.2133 126.818 53.8863C126.523 53.5593 126.213 53.2167 125.81 52.9521L124.415 52.6562L123.795 52.7341C123.733 52.7808 123.717 52.8275 123.717 52.8899C124.167 52.9989 124.493 53.1702 124.71 53.5126C124.601 53.7774 124.322 53.7929 124.012 53.7774C123.578 53.5126 122.958 53.4659 122.57 53.1234C121.966 52.6251 121.02 52.594 120.261 52.9989C120.261 53.0612 120.261 53.0767 120.307 53.1079C120.695 53.0768 121.129 53.2168 121.532 53.3882C121.919 53.6373 122.121 54.0733 122.059 54.5093C122.012 54.6339 121.904 54.7273 121.795 54.7273C121.315 54.556 121.113 54.2913 120.633 54.12C120.09 54.0266 119.315 54.12 118.881 54.4625C118.881 54.4937 118.881 54.5249 118.912 54.556C118.99 54.6027 119.098 54.556 119.222 54.5093C119.92 54.4937 120.85 54.5093 121.222 55.1321C121.222 55.241 121.191 55.4124 121.113 55.4746C120.757 55.3812 120.555 55.1165 120.152 54.992C119.3 54.5248 118.339 55.1321 117.61 55.5057C117.424 55.7704 117.052 56.0196 117.052 56.3621C117.595 56.331 118.23 55.8949 118.726 56.222C118.757 56.2531 118.757 56.2843 118.757 56.331C118.447 56.8915 117.936 57.1407 117.254 57.3275C115.812 57.8102 114.215 58.0594 113.44 59.3985C113.549 59.414 113.347 59.4608 113.456 59.4762C113.766 59.4607 114.107 59.3361 114.355 59.4762C114.402 59.523 114.402 59.5697 114.402 59.5853C114.386 59.6787 114.355 59.741 114.324 59.85C113.378 60.753 111.782 60.8932 110.898 61.7807C110.914 61.8431 110.96 61.8585 111.007 61.8897C111.518 61.9054 112.123 61.4071 112.526 61.7807C112.526 61.7807 112.51 61.8119 112.51 61.8897C111.844 62.6371 110.34 62.4192 109.612 63.2288C108.976 63.8516 108.232 64.5679 108.077 65.4554C108.124 65.471 108.155 65.471 108.155 65.471C108.635 65.0038 109.193 64.4745 109.86 64.3655C109.906 64.4122 109.922 64.4278 109.922 64.4745L109.364 65.2842L110.278 65.0351C110.387 65.0818 110.464 65.1752 110.48 65.2531C109.968 66.4831 108.899 67.1993 108.48 68.4762C108.077 69.8619 107.953 71.5902 108.976 72.6335L109.41 72.7113C109.844 71.2632 109.286 69.3014 110.526 68.2426C110.588 68.2426 110.588 68.3049 110.588 68.3049L110.201 69.5973L110.34 69.7996C110.356 69.8152 110.402 69.8152 110.449 69.7996C110.774 69.3481 111.007 68.7409 111.472 68.4294C111.503 68.4606 111.518 68.4762 111.518 68.5229C111.394 68.8966 111.224 69.2392 111.069 69.5973C110.96 70.3446 110.511 71.2321 111.007 71.8082C111.053 71.8238 111.069 71.8238 111.115 71.8238C111.363 70.5782 111.782 69.4104 112.511 68.5229C113.022 68.0246 113.658 67.6821 114.433 67.6198C115.27 67.5107 115.611 68.2426 116.215 68.5073L116.99 68.4139C116.82 69.3014 116.386 70.1267 116.215 71.0142C115.704 72.3688 115.239 73.848 115.006 75.3116C114.929 75.5451 114.882 75.8565 114.681 76.0901C114.154 77.5849 114.076 79.2042 114.541 80.7146C114.743 81.3841 115.425 81.8824 115.099 82.7543C115.161 84.6072 115.316 86.5534 116.045 88.3908L116.603 89.543C116.665 89.6364 116.789 89.652 116.758 89.7766C117.037 90.0257 117.099 90.415 117.393 90.6952C118.323 92.7505 119.703 95.0548 119.377 97.5462C119.439 98.3403 119.207 99.3212 119.718 100.069C120.555 100.925 120.757 102.217 120.788 103.494C120.85 105.736 121.113 108.01 120.648 110.158C120.633 110.158 120.617 110.158 120.617 110.158L120.617 110.157ZM122.446 87.5489C122.849 87.8293 123.407 88.1407 124.012 88.1718C124.012 88.3898 123.996 88.639 123.919 88.8881C123.748 89.5731 123.5 90.1648 123.144 90.6942C122.648 91.7219 122.849 92.9208 123.516 93.637C123.702 93.7461 123.81 93.9173 123.888 94.073L123.361 95.2251C123.345 95.2251 123.314 95.2251 123.299 95.2251C122.834 92.7027 122.477 90.2426 122.353 87.7357C122.369 87.6267 122.384 87.6112 122.384 87.5489H122.446V87.5489ZM124.771 54.6331L125.732 55.0846C126.182 55.4738 126.383 55.941 126.74 56.377C126.957 56.9841 127.189 57.498 127.298 58.1052C127.158 58.2765 126.848 58.1363 126.616 58.043C126.011 57.6537 126.166 56.7817 125.965 56.19C125.934 55.427 125.128 54.9911 124.771 54.633L124.771 54.6331ZM140.97 54.8822H141.171C140.598 55.0845 139.962 55.2714 139.342 55.4738C138.567 55.5672 137.9 55.8631 137.172 55.8475C136.521 55.9721 135.947 56.05 135.358 56.2524C133.715 56.5794 132.026 57.3891 130.367 57.5291C129.918 57.6693 129.561 57.8562 129.158 57.9184C129.112 57.9184 129.142 57.9028 129.096 57.8873L129.267 57.3111C133.033 56.1123 137.063 55.6607 140.97 54.8822H140.97ZM127.918 60.1138C128.398 60.3163 128.585 60.9235 128.771 61.4062C128.864 61.7332 128.833 61.9823 128.879 62.2937L127.887 61.811L127.716 61.6241L127.902 60.1138H127.918ZM130.708 65.7192C130.894 66.0306 131.266 66.2797 131.297 66.7001L131.22 66.9025C131.173 66.9181 131.158 66.9181 131.111 66.9181C130.879 66.7935 130.786 66.4977 130.708 66.233C130.677 66.0306 130.646 65.8593 130.646 65.7036L130.708 65.7192Z" fill="#9D6A06"/>
<path fill-rule="evenodd" clip-rule="evenodd" d="M88.5112 67.4411C86.1636 67.4411 83.9479 67.7326 82.4181 68.2891C79.6485 69.3223 77.1427 69.9848 75.2171 71.8924C75.3754 71.1506 75.6128 70.4617 75.481 69.6933C75.4018 69.1899 75.2436 68.713 75.0853 68.2095C74.7424 67.2557 74.2676 66.3812 73.7401 65.5069C73.2125 65.4804 72.5268 65.295 72.2366 64.818C71.6563 63.9173 71.7091 62.513 71.6299 61.4796C72.5531 61.8505 73.5554 62.248 74.2676 62.9898C74.6633 63.4403 74.9798 64.2616 74.8216 64.8445C75.2172 65.1889 75.692 65.56 76.1932 65.7189C76.7735 65.9043 77.0109 65.7189 77.4329 65.3479C77.6966 65.083 77.9077 64.8179 78.0924 64.4735C78.3825 63.9172 78.4617 63.2812 78.3825 62.6453C77.855 62.4864 77.3011 62.1684 77.1428 61.6385C76.8262 60.6581 77.0373 59.3068 77.1163 58.3265C77.9868 58.8828 79.0154 59.4924 79.5167 60.3932C79.8068 60.8701 79.9387 61.6386 79.7541 62.1684C80.2025 62.7514 80.7564 63.2812 81.4422 63.5462C81.9962 63.7317 82.4181 63.7052 82.9457 63.4932C83.4468 63.2812 83.737 62.9633 84.0008 62.4864C84.4756 61.6386 84.6075 60.7111 84.6338 59.7308C85.5043 59.3333 86.3483 58.8035 87.0078 58.0881C86.7704 57.6111 86.6122 57.0812 86.4538 56.5778L88.5113 49L90.5687 56.5778C90.4105 57.0812 90.2521 57.6111 90.0147 58.0881C90.6742 58.8035 91.5182 59.3333 92.3887 59.7308C92.4151 60.7111 92.5469 61.6385 93.0217 62.4864C93.2854 62.9633 93.5757 63.2812 94.0768 63.4932C94.6043 63.7052 95.0264 63.7317 95.5803 63.5462C96.266 63.2812 96.82 62.7514 97.2684 62.1684C97.0837 61.6386 97.2156 60.8701 97.5058 60.3932C98.0069 59.4924 99.0357 58.8829 99.9061 58.3265C99.9853 59.3068 100.196 60.6581 99.8798 61.6385C99.7215 62.1684 99.1675 62.4863 98.64 62.6453C98.5609 63.2812 98.64 63.9171 98.9301 64.4735C99.1148 64.8179 99.3258 65.083 99.5896 65.3479C100.012 65.7189 100.249 65.9042 100.829 65.7189C101.33 65.56 101.805 65.1889 102.201 64.8445C102.043 64.2616 102.359 63.4403 102.755 62.9898C103.467 62.248 104.469 61.8504 105.392 61.4796C105.313 62.5129 105.366 63.9172 104.786 64.818C104.496 65.295 103.81 65.4805 103.282 65.5069C102.755 66.3812 102.28 67.2557 101.937 68.2095C101.779 68.7129 101.621 69.1898 101.541 69.6933C101.41 70.4617 101.647 71.1506 101.805 71.8924C99.8797 69.9848 97.3739 69.3223 94.6042 68.2891C93.0743 67.7326 90.8588 67.4411 88.5112 67.4411Z" fill="#9D6A06"/>
<path fill-rule="evenodd" clip-rule="evenodd" d="M64.5308 110.494C64.6813 107.974 64.3803 105.253 60.9689 105.102C56.0523 105.102 47.5237 112.207 40.9014 96.333L42.6572 105.102L40.9014 107.268C47.5236 123.143 56.0523 115.987 60.9689 115.987C64.3803 116.138 64.6813 118.859 64.5308 121.379C64.5308 127.527 112.492 127.527 112.492 121.379C112.341 118.859 112.642 116.138 116.054 115.987C120.97 115.987 129.499 123.143 136.121 107.268L134.365 105.102L136.121 96.333C129.499 112.207 120.97 105.102 116.054 105.102C112.642 105.253 112.341 107.974 112.492 110.494C112.492 116.592 64.5308 116.592 64.5308 110.494Z" fill="#F02C2D"/>
<path fill-rule="evenodd" clip-rule="evenodd" d="M51.3881 117.552C55.091 117.894 58.5988 115.986 61.1324 115.986C64.4942 116.182 64.7865 118.873 64.6404 121.418C64.6404 127.536 112.631 127.536 112.631 121.418C112.485 118.873 112.777 116.182 116.188 115.986C118.965 115.986 122.862 118.237 126.906 117.405C131.827 116.377 134.41 111.483 136.261 107.274L136.845 107.96C134.897 112.364 132.509 117.846 127.442 119.265C123.204 120.439 119.062 117.992 116.188 117.992C112.777 118.139 112.485 120.88 112.631 123.376C112.631 129.542 64.6404 129.542 64.6404 123.376C64.7865 120.88 64.4942 118.139 61.1324 117.992C58.4527 117.992 54.7499 120.048 50.9009 119.461C45.1517 118.629 42.4233 112.511 40.4258 107.764L41.0592 107.421C43.2029 111.924 45.8339 117.014 51.3881 117.552V117.552Z" fill="#9D6A06"/>
<path fill-rule="evenodd" clip-rule="evenodd" d="M66.8271 120.525L66.8759 120.28L67.3144 120.378L68.1914 117.491L67.4119 117.246L67.2657 117.589H67.217L66.9247 117.491L67.1195 116.854H67.1683L70.189 117.784L69.9941 118.47L69.9453 118.421L69.653 118.323L69.7505 117.98L68.9709 117.736L68.0939 120.574L68.4837 120.721L68.3863 121.015L68.3376 120.966L66.8272 120.525L66.8271 120.525ZM70.3351 120.427L69.8966 121.014L70.2864 121.112L70.2376 121.406H70.189L69.1171 121.21L69.1659 120.916L69.5556 120.965L71.4558 117.98H71.5045L71.943 118.078L72.8688 121.553L73.2585 121.602L73.2099 121.944L73.1612 121.895L71.5533 121.651L71.602 121.308L71.9918 121.406L71.8456 120.672L70.3353 120.427L70.3351 120.427ZM70.4813 120.182L71.748 120.378L71.3582 118.763L70.4812 120.182H70.4813ZM73.9892 118.812L73.5507 118.763L73.5994 118.421L73.6481 118.47L76.2791 118.714L76.2303 119.448H76.1817L75.8407 119.399L75.8894 119.057L74.8175 118.959L74.6713 120.036L75.0611 120.085C75.1098 120.085 75.2073 120.134 75.3534 120.134C75.4509 120.134 75.5971 120.182 75.6945 120.231C75.8894 120.28 76.0842 120.427 76.2303 120.525C76.4253 120.672 76.474 120.917 76.4253 121.21C76.4253 121.553 76.2791 121.798 76.133 121.895C75.938 122.042 75.7432 122.14 75.5484 122.189C75.4022 122.189 75.3047 122.189 75.1585 122.189C75.0123 122.189 74.9149 122.189 74.8662 122.189H74.8175L73.2097 121.993L73.2584 121.7L73.6969 121.749L73.9892 118.812ZM74.7687 121.846C74.9637 121.895 75.1585 121.846 75.3046 121.699C75.4021 121.553 75.4995 121.406 75.5483 121.161C75.5483 120.965 75.4995 120.819 75.4509 120.721C75.3534 120.574 75.256 120.525 75.1585 120.525C75.1098 120.476 75.0611 120.476 75.0123 120.476C74.9149 120.476 74.8661 120.427 74.8661 120.427H74.6713L74.4763 121.846H74.7686H74.7687ZM77.4971 121.504L77.1561 122.14L77.5459 122.189V122.483H77.4972L76.3765 122.434L76.4253 122.091L76.815 122.14L78.3741 118.959H78.4229L78.8614 119.008L80.1281 122.385H80.5179V122.678H80.4692L78.8126 122.58L78.8614 122.287H79.2511L79.0076 121.602L77.4972 121.504H77.4971ZM77.6433 121.21L78.91 121.308L78.3741 119.742V119.693L78.3254 119.742L77.6433 121.21ZM83.3437 119.546H82.9052L82.9539 119.253H83.0026L84.318 119.301L84.2693 119.595H83.8308L82.759 120.525L83.5385 122.042C83.6359 122.189 83.7334 122.336 83.8308 122.434C83.9283 122.532 84.0257 122.581 84.1718 122.581H84.2692L84.2206 122.874C84.1718 122.923 84.1231 122.923 84.0256 122.923C83.9769 122.923 83.8794 122.972 83.7821 122.923L83.7333 122.972C83.6846 122.923 83.5871 122.923 83.5384 122.923C83.441 122.923 83.3436 122.874 83.2948 122.825C83.1974 122.825 83.0999 122.776 83.0025 122.678C82.9051 122.581 82.8563 122.483 82.7589 122.336L82.1255 121.015L81.8818 121.259L81.7845 122.483H82.223V122.776H82.1742L80.5664 122.727V122.385L80.9563 122.434L81.1511 119.448L80.7126 119.4V119.106H80.8101L82.4179 119.204L82.3692 119.497H81.9794L81.8819 120.819L83.3436 119.546L83.3437 119.546ZM84.8054 120.672H84.8541L87.8261 120.721V121.161H87.7773L84.8054 121.112V120.672ZM91.2366 119.84V119.693H90.7981V119.399H90.8954H92.5033V119.693H92.0648V122.678H92.5033V122.972H92.4546H90.7981V122.678H91.2366V120.378L89.6775 122.483V122.679H90.116V122.972H90.0673H88.4108V122.679H88.8493V119.693H88.4108V119.4H88.4594H90.116V119.693H89.6775V121.895L91.2366 119.84V119.84ZM94.1598 122.629L94.5983 122.581V122.923H94.5497L92.9418 122.972V122.678L93.3316 122.629L93.2342 119.644L92.7957 119.693V119.351H92.8444L94.4522 119.302L94.5009 119.595L94.0624 119.644L94.1112 120.819L95.6702 120.77L95.6214 119.595H95.1829V119.302H95.2317L96.8882 119.253V119.546H96.4497L96.5471 122.532H96.9856V122.825H96.937L95.3291 122.874V122.581L95.7189 122.532L95.6702 121.063L94.1112 121.161L94.1598 122.629ZM99.4218 120.623C99.4705 120.623 99.5192 120.623 99.6167 120.623C99.6654 120.623 99.7629 120.672 99.8116 120.672C99.9578 120.721 100.104 120.819 100.201 120.917C100.348 121.014 100.396 121.21 100.445 121.455C100.445 121.797 100.348 122.042 100.104 122.238C99.8604 122.434 99.6168 122.532 99.3245 122.58H99.2758C99.2758 122.58 99.227 122.58 99.227 122.629H99.1784L97.3757 122.727V122.434L97.8142 122.385L97.5706 119.448H97.1808L97.1321 119.155H97.1808L98.8861 119.008C99.227 119.008 99.4707 119.057 99.6655 119.155C99.8117 119.204 99.9579 119.35 100.007 119.448C100.055 119.497 100.104 119.546 100.104 119.595C100.104 119.644 100.104 119.693 100.104 119.742C100.153 119.987 100.104 120.182 99.9578 120.329C99.8116 120.476 99.6655 120.525 99.5193 120.574H99.4706H99.4219V120.623L99.4218 120.623ZM98.8859 122.336C99.1295 122.287 99.2757 122.238 99.4218 122.042C99.568 121.895 99.6167 121.7 99.6167 121.504V121.455C99.568 121.455 99.568 121.406 99.568 121.406C99.568 121.259 99.4706 121.112 99.3244 121.015C99.227 120.868 98.9834 120.819 98.691 120.868H98.4961L98.6423 122.336H98.8859ZM98.691 120.525C98.8859 120.525 99.032 120.525 99.1295 120.427C99.2757 120.28 99.3244 120.183 99.3244 120.036C99.3244 119.987 99.3244 119.987 99.3244 119.938V119.889V119.84V119.791C99.3244 119.693 99.227 119.595 99.1295 119.497C98.9833 119.4 98.8372 119.351 98.5936 119.351H98.3987L98.4961 120.574L98.691 120.525V120.525ZM101.322 122.091L100.981 119.155L100.591 119.204L100.542 118.91L100.591 118.861L103.417 118.567L103.466 119.302H103.417L103.125 119.351L103.076 118.959L101.809 119.106L101.955 120.28L103.027 120.183L102.979 119.791H103.027L103.32 119.742L103.417 120.77H103.368L103.076 120.819L103.027 120.476L101.955 120.574L102.102 121.944L103.515 121.798L103.466 121.406H103.515L103.807 121.357L103.856 122.14H103.807L100.932 122.434L100.884 122.14L101.322 122.091H101.322ZM107.071 118.959H107.022L106.681 119.008C106.633 118.812 106.535 118.616 106.34 118.518C106.145 118.421 105.902 118.372 105.658 118.421C105.366 118.47 105.122 118.665 104.927 118.959C104.781 119.253 104.733 119.693 104.83 120.231C104.879 120.574 105.025 120.917 105.317 121.161C105.561 121.406 105.902 121.504 106.292 121.455C106.487 121.406 106.681 121.308 106.828 121.21C106.974 121.063 107.071 120.917 107.169 120.77L107.217 120.721L107.51 120.917C107.363 121.112 107.169 121.308 106.974 121.455C106.779 121.602 106.535 121.7 106.243 121.749L106.194 121.797C105.658 121.895 105.171 121.797 104.684 121.504C104.245 121.259 103.953 120.868 103.856 120.329C103.758 119.791 103.856 119.301 104.197 118.91C104.489 118.518 104.927 118.225 105.512 118.127H105.561C105.658 118.127 105.756 118.127 105.853 118.127C105.95 118.127 106.048 118.127 106.145 118.176C106.194 118.176 106.243 118.176 106.292 118.225C106.34 118.225 106.389 118.225 106.438 118.274L106.584 117.98H106.633L106.876 117.931L107.071 118.959L107.071 118.959ZM108.825 121.014L108.728 120.721L109.166 120.574L108.192 117.784L107.412 118.029L107.558 118.372H107.51L107.169 118.518L106.974 117.833H107.022L110.043 116.854L110.287 117.491H110.238L109.897 117.589L109.8 117.246L109.02 117.491L109.946 120.378L110.336 120.231L110.433 120.525H110.384L108.825 121.014L108.825 121.014Z" fill="#FEFEFE"/>
</svg>
