<svg width="177" height="177" viewBox="0 0 177 177" fill="none" xmlns="http://www.w3.org/2000/svg">
<rect width="177" height="177" fill="white"/>
<path d="M116.943 121.878C111.263 125.083 101.518 126 88.0385 126C74.5593 126 64.8143 125.083 59.1351 121.878C55.725 119.958 54 117.34 54 115.463C54 114.395 54.5685 113.783 55.8342 113.783H120.242C121.508 113.783 122.077 114.395 122.077 115.463C122.078 117.34 120.352 119.957 116.943 121.878H116.943ZM120.242 72.1383H55.8343C54.5676 72.1383 54.0001 71.4842 54.0001 70.3067C54.0001 63.325 64.5085 51 88.0385 51C111.351 51 122.078 63.325 122.078 70.3067C122.078 71.4842 121.509 72.1383 120.242 72.1383Z" fill="#FF8732"/>
<path d="M67.7192 100.935C67.5225 100.63 67.5017 100.433 67.5017 100.346C67.5017 100.106 67.6325 99.9325 67.8942 99.6923C68.506 99.124 70.0143 97.7065 70.8442 96.4197C71.4775 95.4382 71.7392 94.5438 71.7392 93.803C71.7392 91.905 70.0142 90.4205 68.134 90.4205C66.9324 90.4205 65.7965 91.0972 65.0324 92.3405C64.0056 93.998 62.7815 95.918 61.9958 96.6822C61.799 96.879 61.69 96.9223 61.5375 96.9223C61.2749 96.9223 61.1658 96.7473 61.1658 96.4641V94.2832C61.1658 92.1455 59.8992 90.4213 57.6049 90.4213C55.289 90.4213 54.0431 92.1447 54.0431 94.2832V107.721C54.0431 109.859 55.2881 111.584 57.6049 111.584C59.8992 111.584 61.1658 109.861 61.1658 107.721V104.625C61.1658 104.362 61.2749 104.166 61.5375 104.166C61.8875 104.166 61.9749 104.516 62.0625 104.69C62.5649 105.89 64.0274 108.442 65.3832 109.948C66.3006 110.951 67.4365 111.584 68.6383 111.584C70.67 111.584 72.375 109.817 72.375 107.918C72.375 106.741 71.8717 105.868 70.9108 104.822C69.6868 103.488 68.2442 101.743 67.7192 100.936V100.935ZM94.965 89.1765C98.3949 89.1765 100.558 86.9948 100.558 83.8098C100.558 81.7815 99.3332 80.3848 96.8874 80.3848H96.189C94.899 80.3848 93.894 80.9965 93.894 82.3706C93.894 83.5923 94.9649 84.1815 95.7732 84.1815C96.1882 84.1815 96.4515 84.3123 96.4515 84.6182C96.4515 85.0098 95.9932 85.2723 95.4681 85.2723C93.8289 85.2723 92.7149 84.1155 92.7149 81.9556C92.7149 79.5565 94.245 78.6848 95.4242 78.6848C96.8658 78.6848 97.1065 79.4265 98.1117 79.4265C99.2699 79.4265 100.057 78.4665 100.057 77.4632C100.057 76.7215 99.7283 76.1548 99.226 75.7615C98.3085 75.0848 97.02 74.584 95.0975 74.584C91.71 74.584 88.4117 76.809 88.4117 81.9573C88.41 86.8857 91.7093 89.1765 94.965 89.1765ZM56.555 89.0456H59.6367C62.5425 89.0456 64.3117 87.1041 64.3117 84.6823C64.3117 82.7407 63.1533 81.8465 62.8917 81.6281C62.7833 81.5406 62.6742 81.454 62.6742 81.3665C62.6742 81.2582 62.7392 81.214 62.8492 81.0832C63.2633 80.6032 63.6785 79.8398 63.6785 78.7265C63.6785 76.1098 61.9085 74.7123 59.1558 74.7123H56.5558C54.83 74.7123 54 75.7173 54 77.069V86.689C54 88.0423 54.83 89.0456 56.555 89.0456ZM57.845 78.4657C57.845 78.1823 58.0201 77.9632 58.3908 77.9632H58.675C59.6142 77.9632 59.8992 78.6173 59.8992 79.1857C59.8992 79.709 59.6157 80.4507 58.675 80.4507H58.3917C58.02 80.4507 57.8449 80.2332 57.8449 79.949L57.845 78.4657ZM57.845 83.5707C57.845 83.2873 58.0201 83.0682 58.3908 83.0682H58.7843C59.8335 83.0682 60.1385 83.7657 60.1385 84.399C60.1385 84.9673 59.8326 85.774 58.7843 85.774H58.3918C58.0201 85.774 57.845 85.5557 57.845 85.2715V83.5707ZM113.601 89.154C114.999 89.154 115.763 88.1065 115.763 86.7981V84.4856C115.763 84.2022 115.895 84.0715 116.113 84.0715C116.375 84.0715 116.462 84.224 116.505 84.4856C116.702 85.5981 117.227 87.1032 117.816 87.8673C118.559 88.8498 119.257 89.1558 119.957 89.1558C121.092 89.1558 122.077 88.2606 122.077 87.1473C122.077 86.4056 121.771 85.8598 121.377 85.359C120.634 84.4215 120.176 83.8109 119.893 83.0473C119.827 82.8723 119.87 82.719 120.068 82.5672C120.745 82.0438 121.532 80.8872 121.532 79.0555C121.532 76.2847 119.237 74.7138 116.462 74.7138H113.994C112.268 74.7138 111.438 75.7163 111.438 77.0697V86.7997C111.438 88.108 112.203 89.1538 113.602 89.1538L113.601 89.154ZM115.523 78.8373C115.523 78.554 115.698 78.334 116.069 78.334H116.375C117.293 78.334 117.577 78.989 117.577 79.5565C117.577 80.1023 117.293 80.8215 116.375 80.8215H116.069C115.697 80.8215 115.523 80.6048 115.523 80.3198V78.8365V78.8373ZM77.6825 90.4198C75.2358 90.4198 73.9024 92.2515 73.9024 94.5423V107.458C73.9024 109.75 75.2358 111.581 77.6825 111.581C80.129 111.581 81.4617 109.749 81.4617 107.458V94.5423C81.4617 92.253 80.13 90.4198 77.6825 90.4198ZM116.527 98.819H115.457C113.535 98.819 112.049 99.7132 112.049 101.676C112.049 103.465 113.666 104.316 114.867 104.316C115.457 104.316 115.872 104.491 115.872 104.948C115.872 105.515 115.173 105.886 114.431 105.886C111.962 105.886 110.279 104.206 110.279 101.086C110.279 97.6173 112.573 96.3523 114.342 96.3523C116.506 96.3523 116.855 97.444 118.362 97.444C120.11 97.444 121.29 96.0255 121.29 94.5856C121.29 93.5173 120.809 92.6879 120.045 92.1207C118.711 91.1382 116.702 90.4179 113.861 90.4179C108.771 90.4179 103.811 93.6245 103.811 101.086C103.811 108.219 108.77 111.557 113.665 111.557C118.798 111.557 122.053 108.394 122.053 103.769C122.055 100.847 120.221 98.819 116.527 98.819ZM108.269 89.0456C109.494 89.0456 110.455 88.3257 110.455 87.0166C110.455 85.729 109.493 85.0091 108.27 85.0091H106.303C105.933 85.0091 105.757 84.7916 105.757 84.5075V84.0925C105.757 83.8091 105.933 83.5908 106.304 83.5908H107.812C108.861 83.5908 109.691 82.9583 109.691 81.845C109.691 80.7333 108.861 80.1 107.812 80.1H106.304C105.933 80.1 105.758 79.8816 105.758 79.5975V79.2483C105.758 78.965 105.933 78.7466 106.305 78.7466H108.27C109.494 78.7466 110.455 78.0266 110.455 76.7183C110.455 75.43 109.494 74.71 108.27 74.71H104.141C102.416 74.71 101.585 75.7133 101.585 77.0666V86.6868C101.585 88.0391 102.416 89.0433 104.141 89.0433H108.27V89.0459H108.269M70.735 89.154C74.2742 89.154 76.1533 87.0373 76.1533 84.3773V77.0248C76.1533 75.7165 75.3892 74.6682 73.9901 74.6682C72.5918 74.6682 71.8276 75.7165 71.8276 77.0248V84.1365C71.8276 84.659 71.5218 85.2698 70.7351 85.2698C69.9485 85.2698 69.6851 84.659 69.6851 84.1365V77.0248C69.6851 75.7165 68.8993 74.6682 67.5003 74.6682C66.1021 74.6682 65.3378 75.7165 65.3378 77.0248V84.3765C65.3387 87.0383 67.1962 89.1533 70.7353 89.1533L70.735 89.154ZM86.0725 89.154C87.2086 89.154 88.1926 88.2598 88.1926 87.1465C88.1926 86.4048 87.8868 85.859 87.4935 85.3582C86.8601 84.529 86.2918 83.809 86.0085 83.0465C85.9426 82.8715 85.9861 82.7181 86.1836 82.5656C86.8611 82.0431 87.6478 80.8865 87.6478 79.054C87.6478 76.2832 85.3528 74.7123 82.5778 74.7123H80.1078C78.3828 74.7123 77.5519 75.7157 77.5519 77.069V86.799C77.5519 88.1073 78.3171 89.1558 79.7153 89.1558C81.1136 89.1558 81.8786 88.1073 81.8786 86.799V84.4873C81.8786 84.204 82.0093 84.0723 82.2278 84.0723C82.4903 84.0723 82.5769 84.2248 82.6203 84.4873C82.8171 85.599 83.341 87.104 83.9311 87.869C84.6742 88.849 85.3725 89.154 86.0725 89.154ZM82.4892 80.8207H82.1825C81.8108 80.8207 81.6367 80.6032 81.6367 80.319V78.8365C81.6367 78.5532 81.8117 78.334 82.1825 78.334H82.4883C83.4067 78.334 83.69 78.989 83.69 79.5565C83.69 80.1007 83.4067 80.8207 82.4883 80.8207H82.4892ZM98.6342 90.4198C96.3843 90.4198 95.1608 92.099 95.1608 94.2156V98.9273C95.1608 99.319 95.0292 99.4948 94.7892 99.4948C94.6142 99.4948 94.4833 99.3865 94.3308 99.0807L91.2942 93.1915C90.1358 90.944 88.9342 90.4208 87.5583 90.4208C85.2642 90.4208 83.9967 92.1433 83.9967 94.3041V107.787C83.9967 109.903 85.22 111.583 87.47 111.583C89.7208 111.583 90.9433 109.902 90.9433 107.787V103.075C90.9433 102.683 91.075 102.506 91.3151 102.506C91.4901 102.506 91.6218 102.616 91.7735 102.921L94.81 108.811C95.9683 111.059 97.2135 111.582 98.5467 111.582C100.841 111.582 102.108 109.859 102.108 107.699V94.2165C102.108 92.0998 100.885 90.4206 98.6342 90.4206V90.4198Z" fill="#D62300"/>
</svg>
