<svg width="177" height="177" viewBox="0 0 177 177" fill="none" xmlns="http://www.w3.org/2000/svg">
<rect width="177" height="177" fill="white"/>
<path d="M34.8329 95.8071C34.8329 94.7098 36.2196 93.3515 39.1156 93.3515C39.2887 93.3515 39.4619 93.3515 39.6325 93.3684C39.4102 95.4785 37.7445 96.9226 36.1162 96.9226C35.3356 96.9226 34.8329 96.5564 34.8329 95.8071ZM29.2153 84.2745H29.2502L28.3455 92.6022C27.3687 92.3089 26.3719 92.0876 25.363 91.9399L29.2153 84.2745ZM22.9399 91.7659C20.7908 91.7659 18.537 92.3062 17.3752 93.5943C16.7263 92.3611 16.3982 90.983 16.4215 89.5883C16.4215 85.8769 18.8317 82.4279 23.4607 80.2385L22.8714 78.9841C17.445 81.454 15 85.5289 15 89.5883C15 91.505 15.451 93.3541 16.6464 95.1098C16.6118 95.3057 16.5945 95.5043 16.5947 95.7033C16.5947 97.1836 17.5135 98.2459 19.421 98.2459C21.415 98.2459 23.113 96.8694 24.1365 94.1527H22.6452C21.8996 95.9642 20.6861 96.907 19.421 96.907C18.4323 96.907 17.9994 96.4538 17.9994 95.7059C17.9994 94.4163 19.5592 93.1086 22.958 93.1086C24.741 93.1146 26.5124 93.3967 28.2099 93.9449L27.9682 96.2266H29.3549L30.6549 83.9447C31.4529 83.7748 32.2661 83.6877 33.0818 83.6849C36.133 83.6849 36.9652 84.7654 36.9652 85.9328C36.9652 87.4833 35.7 88.5624 32.6657 88.9117L33.1167 84.7134L31.7301 84.7654L30.5166 96.2279H31.9032L32.5094 90.4271C33.5428 90.1464 34.6065 89.9933 35.6768 89.9714C37.7225 89.9714 39.1105 90.8076 39.5265 92.049C39.3883 92.035 39.2494 92.0295 39.1105 92.0322C35.174 92.0322 33.4243 94.0528 33.4243 95.8305C33.4243 97.3979 34.5874 98.2692 36.0942 98.2692C38.2911 98.2692 40.6715 96.4914 41.0049 93.5826C42.0084 93.8178 42.9682 94.2125 43.848 94.7514C41.4727 98.2874 36.6705 100.604 30.9147 100.604C28.0884 100.604 24.5527 99.995 22.2123 98.3744L21.4835 99.5431C23.7902 101.216 27.4823 102 30.9173 102C40.2619 102 46.85 96.459 46.85 89.613C46.85 82.4188 39.6893 77.2271 30.9353 77.2271C30.3977 77.2271 30.0165 77.244 29.4957 77.2791L29.634 78.6556C30.0501 78.6387 30.5011 78.6205 30.9173 78.6205C38.7357 78.6205 45.4285 83.359 45.4285 89.613C45.4317 90.989 45.1223 92.3476 44.5238 93.5852C43.6399 93.01 42.3567 92.488 40.9869 92.2269C40.6922 90.5544 39.3237 89.126 36.6705 88.8507C37.1906 88.5625 37.6244 88.1397 37.9268 87.6261C38.2293 87.1125 38.3895 86.5269 38.3906 85.9302C38.3906 83.7875 36.8825 82.3409 33.0857 82.3409C32.325 82.3428 31.5656 82.4071 30.8152 82.5331L30.9663 81.0644L29.5629 80.6814L28.3494 83.0902C26.3903 83.6615 24.4829 84.5017 23.356 85.1458L23.9802 86.3483C25.1188 85.761 26.2943 85.2487 27.4991 84.8147L23.9983 91.801C23.6338 91.7828 23.2862 91.7659 22.9399 91.7659ZM28.3675 79.3101C28.3675 77.7946 26.6514 76.435 24.7491 76C24.5583 76.7818 24.4525 77.582 24.4338 78.3868C24.4338 80.5125 25.5258 81.1384 26.5493 81.1384C27.6387 81.1384 28.3663 80.4074 28.3663 79.3101H28.3675Z" fill="#63C634"/>
<path d="M57.4848 86.0604C56.2043 86.0604 55.4727 86.7032 55.3265 87.6583H53.4962C53.7896 85.5284 55.2161 84.4075 57.4848 84.4075C59.9553 84.4075 61.2904 85.6561 61.2904 88.2071V93.7737H59.4612V91.572C59.0039 92.9124 58.0346 93.9594 56.1496 93.9594C54.4297 93.9594 53.3501 93.0412 53.3501 91.3873C53.3501 89.2932 55.2718 88.1734 59.4612 88.1734V88.0256C59.4612 86.7032 58.7295 86.0604 57.4848 86.0604ZM56.5702 92.3794C58.4551 92.3794 59.4612 91.0759 59.4612 89.4959C56.442 89.4959 55.2718 90.1935 55.2718 91.2901C55.2718 91.9942 55.766 92.3794 56.5702 92.3794ZM62.8642 90.7634H64.767C64.9868 91.7134 65.6081 92.3065 67 92.3065C68.6463 92.3065 69.0668 91.7187 69.0668 91.0569C69.0668 90.4321 68.5916 89.955 67.329 89.955H65.7921V88.3939H67.0536C68.3519 88.3939 68.7735 87.9528 68.7735 87.291C68.7735 86.6113 68.2058 86.0604 66.98 86.0604C65.6081 86.0604 65.114 86.7591 64.9489 87.5116H63.0461C63.23 85.6202 64.6945 84.4075 67.0147 84.4075C69.5766 84.4075 70.6942 85.6012 70.6942 86.9976C70.6942 87.9338 70.1275 88.7243 69.0846 89.003C70.2547 89.2605 70.9875 90.0869 70.9875 91.1139C70.9875 92.6021 69.8164 93.9636 66.9989 93.9636C64.3287 93.9594 63.0471 92.6549 62.8642 90.7634ZM73.2572 91.8833C72.6527 90.9471 72.4519 89.6974 72.4519 88.1174C72.4519 83.6729 74.0625 81.7625 77.9039 81.3034C79.1486 81.1556 79.8067 81.0089 79.935 80.5498H81.655C81.3625 82.2945 80.0781 82.6808 78.1972 82.9193C75.0864 83.3235 74.2811 84.4804 74.2086 87.2182C74.8121 85.7849 76.2208 84.7907 77.9407 84.7907C80.5396 84.7907 82.1308 86.8488 82.1308 89.365C82.1308 91.9182 80.1912 93.9573 77.2826 93.9573C75.4155 93.9594 73.971 93.0221 73.2572 91.8833ZM80.2094 89.3671C80.2094 87.6784 79.0025 86.4467 77.2826 86.4467C75.5806 86.4467 74.3737 87.6773 74.3737 89.3671C74.3737 91.0938 75.5816 92.3065 77.2836 92.3065C78.9993 92.3065 80.2094 91.097 80.2094 89.3671ZM83.5198 97.4498V95.7959C85.4406 95.7959 85.8065 95.4476 86.3922 93.8127L82.6976 84.5912H84.6561L87.3822 91.4432L90.0712 84.5912H91.8457L87.9678 94.2528C86.9798 96.7332 86.2661 97.4498 83.5198 97.4498ZM92.926 84.5912H94.7557V88.7243L98.7637 84.5912H100.959L96.7135 88.9629L101.305 93.7757H98.8358L94.7557 89.4589V93.7757H92.926V84.5912ZM105.844 86.0604C104.562 86.0604 103.83 86.7032 103.685 87.6583H101.855C102.148 85.5284 103.575 84.4075 105.844 84.4075C108.313 84.4075 109.649 85.6561 109.649 88.2071V93.7737H107.819V91.572C107.362 92.9124 106.393 93.9594 104.508 93.9594C102.788 93.9594 101.708 93.0412 101.708 91.3873C101.708 89.2932 103.63 88.1734 107.819 88.1734V88.0256C107.819 86.7032 107.088 86.0604 105.844 86.0604ZM104.928 92.3794C106.813 92.3794 107.819 91.0759 107.819 89.4959C104.801 89.4959 103.63 90.1935 103.63 91.2901C103.63 91.9942 104.125 92.3794 104.928 92.3794ZM116.73 84.5912H120.864C122.896 84.5912 124.012 85.4545 124.012 86.9786C124.012 87.9285 123.427 88.7423 122.255 89.0547C123.592 89.2753 124.415 89.9729 124.415 91.2025C124.415 92.4522 123.609 93.7747 121.103 93.7747H116.73V84.5912ZM122.127 87.291C122.127 86.6482 121.724 86.1522 120.773 86.1522H118.528V88.4119H120.777C121.724 88.4119 122.127 87.9159 122.127 87.291ZM118.528 89.8811V92.2147H120.997C122.095 92.2147 122.497 91.687 122.497 91.0199C122.497 90.4321 122.095 89.8811 120.906 89.8811H118.528ZM126.211 84.5912H128.042V88.7243L132.048 84.5912H134.245L129.999 88.9629L134.592 93.7757H132.122L128.042 89.4589V93.7757H126.211V84.5912ZM135.396 97.4498V95.7959C137.318 95.7959 137.684 95.4476 138.269 93.8127L134.573 84.5912H136.531L139.258 91.4432L141.947 84.5912H143.722L139.844 94.2528C138.851 96.7332 138.137 97.4498 135.392 97.4498H135.396ZM151.481 90.3783H153.31C152.871 92.7118 151.279 93.9605 148.956 93.9605C146.117 93.9605 144.199 91.8495 144.199 89.1845C144.199 86.5396 146.119 84.4085 148.919 84.4085C151.337 84.4085 152.89 85.749 153.237 87.899H151.408C151.059 86.7232 150.273 86.0614 148.919 86.0614C147.237 86.0614 146.119 87.311 146.119 89.1845C146.119 91.0769 147.276 92.3076 148.919 92.3076C150.268 92.3065 151.146 91.6638 151.476 90.3772L151.481 90.3783ZM158.744 86.0614C157.464 86.0614 156.733 86.7042 156.585 87.6594H154.756C155.048 85.5295 156.476 84.4085 158.744 84.4085C161.215 84.4085 162.55 85.6572 162.55 88.2082V93.7747H160.721V91.572C160.263 92.9124 159.293 93.9594 157.409 93.9594C155.689 93.9594 154.61 93.0412 154.61 91.3873C154.61 89.2932 156.53 88.1734 160.721 88.1734V88.0256C160.716 86.7032 159.984 86.0604 158.739 86.0604L158.744 86.0614ZM157.83 92.3805C159.715 92.3805 160.721 91.0769 160.721 89.4969C157.702 89.4969 156.53 90.1946 156.53 91.2912C156.525 91.9942 157.019 92.3794 157.825 92.3794L157.83 92.3805Z" fill="#124F2E"/>
</svg>
