<svg width="177" height="177" viewBox="0 0 177 177" fill="none" xmlns="http://www.w3.org/2000/svg">
<rect width="177" height="177" fill="white"/>
<path d="M70.0403 79.9118H76.4184V81.9989H73.3843V96.6635H70.0403V79.9118ZM80.1997 90.3748L80.7729 81.9989H80.9648L81.5379 90.3748H80.1997ZM76.4965 96.6635H79.7707L80.0804 92.2146H81.6571L81.9683 96.6635H85.241L83.4971 79.9118H78.2404L76.4965 96.6635ZM90.0301 90.8005V93.9585C90.0301 94.3842 90.3591 94.5077 90.5511 94.5077C90.8664 94.5077 91.0858 94.2469 91.0858 93.9585V90.0591C91.0858 89.5373 90.9897 88.9606 89.7421 88.9606H88.3848V87.1207H89.797C90.743 87.1207 91.0858 86.901 91.0858 85.8711V82.5482C91.0858 82.2598 90.8664 81.9989 90.5509 81.9989C90.3591 81.9989 90.0301 82.1087 90.0301 82.5482V85.2806H86.6846V82.9052C86.6846 81.738 86.8217 79.9118 89.1661 79.9118H91.9356C94.2801 79.9118 94.431 81.738 94.431 82.9052V85.5826C94.431 87.4088 93.1559 87.9032 92.155 87.8619V88.0268C94.4035 87.9719 94.431 89.7018 94.431 90.2924V93.6702C94.431 94.851 94.2801 96.6635 91.9356 96.6635H89.1661C86.8217 96.6635 86.6846 94.8509 86.6846 93.6701V90.8005H90.0301ZM96.6248 79.9118H104.371V96.6635H101.026V81.9989H99.9701V96.6635H96.6248V79.9118ZM109.91 89.1253V81.999H110.349C110.705 81.999 110.966 82.3009 110.966 82.8365V88.2876C110.966 88.8233 110.705 89.1252 110.349 89.1252L109.91 89.1253ZM106.565 96.6635H109.91V90.9652H111.829C114.16 90.9652 114.311 89.1527 114.311 87.9717V82.9052C114.311 81.738 114.16 79.9118 111.83 79.9118H106.565V96.6635ZM120.906 93.9585C120.906 94.2469 120.686 94.5077 120.371 94.5077C120.179 94.5077 119.85 94.3842 119.85 93.9585V82.5482C119.85 82.1087 120.179 81.9989 120.371 81.9989C120.686 81.9989 120.906 82.2598 120.906 82.5482V93.9585ZM116.505 93.6702C116.505 94.851 116.655 96.6635 118.986 96.6635H121.77C124.1 96.6635 124.251 94.8509 124.251 93.6701V82.9052C124.251 81.738 124.1 79.9118 121.77 79.9118H118.986C116.656 79.9118 116.505 81.738 116.505 82.9052V93.6702ZM135.137 79.9118H139.497V96.6635H136.152V86.1594H136.028L134.301 96.6635H131.627L129.913 86.1594H129.79V96.6635H126.445V79.9118H130.791L132.971 91.6929L135.137 79.9118ZM65.7051 73.7329C64.681 69.2429 62.1143 65.5906 61.7606 65C61.2012 65.8375 59.1543 69.0645 58.1137 72.6344C56.9771 76.6301 56.8098 80.1726 57.2021 83.6465C57.5914 87.1342 59.0624 90.7181 59.0624 90.7181C59.844 92.5855 61.0148 94.6038 61.7771 95.5925C62.8944 94.1371 65.4625 89.798 66.2631 84.1409C66.7087 80.9828 66.7279 78.223 65.7051 73.7329ZM61.7606 94.4666C61.2575 93.5191 60.4759 91.7203 60.4019 88.9192C60.3827 86.228 61.4617 83.9074 61.7771 83.427C62.0582 83.9076 62.9877 85.9259 63.0988 88.6858C63.1741 91.3771 62.2802 93.5052 61.7606 94.4666ZM65.4076 81.3534C65.3692 83.0699 65.1649 84.8824 64.9044 85.9672C64.9976 84.0998 64.7742 81.4771 64.3464 79.4175C63.9186 77.3715 62.708 73.9389 61.7415 72.3598C60.849 73.8703 59.7493 76.836 59.1735 79.4038C58.5949 81.9714 58.5785 85.0884 58.5785 86.0221C58.4248 85.2393 58.041 82.4246 58.1493 79.6097C58.2399 77.2893 58.7827 74.8864 59.0803 73.7878C60.2154 70.1217 61.5001 67.7737 61.7414 67.4029C61.9828 67.7737 63.6005 70.671 64.4396 73.7054C65.2747 76.74 65.4433 79.6507 65.4076 81.3534Z" fill="#0079C2"/>
<path d="M63.4976 96.6364H55.7115V101.868C55.7185 101.868 55.7239 101.854 55.7307 101.854C57.5652 100.014 60.5404 100.014 62.3762 101.854C64.2107 103.68 64.2107 106.66 62.3762 108.5C62.3679 108.514 62.3596 108.514 62.3515 108.527C62.3419 108.527 62.3323 108.541 62.324 108.555C60.4937 110.367 58.1027 111.273 55.7115 111.273C53.3095 111.273 50.9074 110.367 49.0758 108.527C45.8455 105.3 45.463 100.289 47.9254 96.6364C48.2635 96.1339 48.6487 95.6649 49.0758 95.2358C50.9074 93.3959 53.3095 92.4896 55.7115 92.4896V79.9121C46.4817 79.9121 39 87.3954 39 96.6364C39 105.877 46.4817 113.374 55.7115 113.374C60.5239 113.374 64.8591 111.328 67.9082 108.074V96.6364H63.4976ZM139.497 101.558H70.0403V113.374H139.497V101.558ZM133.491 109.807H134.372V108.023H133.491V109.807ZM133.491 106.686H134.824L135.717 107.132L135.937 107.578L136.158 108.469V108.915C136.135 112.11 134.082 110.94 131.926 111.145V103.787H133.491V106.686ZM121.908 103.787V105.125H120.795V111.145H119.021V105.125H117.908V103.787H121.908ZM105.664 109.138H105.884L106.325 108.915V105.794H105.664V109.138ZM103.878 105.794H103.206V108.915L103.658 109.138H103.878V105.794ZM105.664 103.787V104.456H106.777L107.438 104.902L107.89 105.348L108.11 106.24V108.692L107.89 109.584L107.438 110.03L106.777 110.476H105.664V111.145H103.878V110.476H102.765L102.093 110.03L101.652 109.584L101.432 108.692V106.24L101.652 105.348L102.093 104.902L102.765 104.456H103.878V103.787H105.664ZM91.189 103.787V105.125H89.8533V106.686H91.189V108.023H89.8533V109.807H91.4116V111.145H88.0724V103.787H91.189ZM75.1605 106.686H76.051V103.787H77.6093V111.145H76.051V108.023H75.1605V111.145H73.3796V103.787H75.1605V106.686Z" fill="#0079C2"/>
</svg>
