<svg width="177" height="177" viewBox="0 0 177 177" fill="none" xmlns="http://www.w3.org/2000/svg">
<rect width="177" height="177" fill="white"/>
<path fill-rule="evenodd" clip-rule="evenodd" d="M32.994 106.626C27.9732 106.733 24.0207 107.213 21.5638 103.207C20.4955 101.124 20.7626 98.8811 19 99.5754C19.5875 98.9345 20.1217 98.7743 20.6558 99.0947C19.6944 96.9583 19 93.6467 21.457 90.9761C20.3887 94.1274 21.724 93.3262 22.5252 96.5844C22.5252 93.8069 19.8546 92.8989 23.8605 87.5043C22.2581 90.0681 24.1276 90.1215 23.4866 94.1274C24.7685 90.709 21.8843 88.0384 26.5311 84.4598C25.6765 86.1156 26.0504 88.893 25.4094 90.9227C27.0118 86.9702 24.8219 85.261 29.8961 81.4153C28.1869 83.7655 29.5756 84.6201 27.9732 87.2907C30.6972 84.0325 27.9732 81.5756 32.994 78.8516C30.6438 81.4688 32.2996 82.3768 30.8575 84.4064C33.2076 82.3768 30.3768 79.4391 36.5726 76.0741C34.5429 77.9436 35.1838 79.0652 34.1156 80.8278C35.8782 77.7299 38.3886 76.2878 36.9999 74.3115C37.801 74.8457 38.5488 76.2878 37.6408 77.5163C39.2966 76.9287 42.1274 71.4273 39.2966 71.2671C39.35 71.2671 39.7773 71.3739 39.8841 71.6409C39.9909 71.908 39.9909 72.1751 39.9375 72.2285C39.8307 72.4421 39.6705 72.6024 39.4568 72.6558C38.709 72.816 38.3886 72.1751 38.6556 71.5875C38.7625 71.3739 38.9227 71.2136 39.1363 71.1068C39.2432 71.0534 39.4034 71 39.5102 71C40.5785 71 41.0058 72.0682 41.0058 73.2967C41.0058 75.273 39.4034 78.2106 36.8396 79.7596C38.9227 78.7982 39.9909 77.4629 40.6853 75.9673C40.258 81.2551 34.3827 80.9346 32.0325 84.5667C34.3293 81.7892 39.6705 81.0949 39.9375 78.5311C40.1512 81.629 36.7862 83.8189 34.3293 84.5667C31.9257 85.3678 29.9495 86.3827 28.2937 88.2521L27.4925 89.1067C29.5756 87.3441 31.0177 86.0088 33.8485 85.3678C35.8248 84.8871 37.0533 84.5132 38.0681 82.7506C37.9079 83.5518 37.9079 84.2996 37.4806 84.994C34.8634 89.3203 27.8664 87.5577 24.7151 93.9672C25.7299 92.6853 26.4243 91.6705 27.7596 90.7625C30.0029 89.2135 33.3144 89.1601 35.4509 87.5577C34.4361 90.442 31.4984 92.0443 28.6676 92.8989C26.2106 93.7535 24.9821 93.8069 24.2344 96.9583C25.8367 92.4716 29.0949 94.982 31.4984 92.2046C29.3619 97.8663 24.5549 94.1808 24.5014 100.59C25.3026 95.4627 28.4005 97.1185 29.4688 95.3025C29.7892 97.7594 28.1335 98.8277 26.5311 99.6823C23.9673 101.765 25.6231 104.276 27.2255 104.863C26.8516 103.848 26.6379 102.834 27.3323 101.926C28.1335 100.857 29.5756 100.751 30.8041 100.804C32.1394 100.857 33.2076 101.071 34.5429 100.43C35.6111 99.8959 36.1453 99.1481 36.4123 97.8663C36.7862 95.8366 34.5963 94.5547 33.6883 95.7298C34.2224 95.8366 34.5429 97.1185 33.5281 97.1719C32.9405 97.2253 32.6201 96.6912 32.7269 96.1037C32.994 95.0888 34.169 94.7684 34.8634 94.8752C35.6646 94.982 36.5191 95.3559 36.9464 96.1037C37.5874 97.2787 37.4806 98.5606 36.7862 99.7357C35.7714 101.498 33.261 101.605 31.3382 101.285C25.3026 100.216 27.2789 106.626 32.994 106.626Z" fill="#0B3369"/>
<path d="M85.4978 84.7807L85.0171 85.208C86.6194 86.0092 87.5274 85.0478 88.115 83.7125L90.7322 77.3564H89.8242L87.474 83.392L84.8568 77.3564H84.0557L86.9933 84.1398C86.7797 84.5671 86.4592 85.0478 85.4978 84.7807Z" fill="#0B3369"/>
<path d="M48.6437 85.5285C50.1927 85.5285 53.1304 86.0092 53.8247 84.0329C54.3054 82.6976 53.5042 81.3089 52.3826 80.8816C51.2609 80.4543 49.6586 80.668 49.3915 80.668V78.1576H53.1838V77.3564H48.5903L48.6437 85.5285ZM49.4449 84.6739V81.3623C50.7802 81.3623 53.1838 80.9351 53.1838 83.0181C53.1838 85.1546 50.8336 84.6205 49.4449 84.6739Z" fill="#0B3369"/>
<path d="M55.5874 85.5285H60.4479V84.7273H56.442V82.6976H60.074V81.9499H56.442V78.211L60.4479 78.1576V77.3564H55.5874V85.5285Z" fill="#0B3369"/>
<path d="M61.5161 85.5285H62.3173C63.1719 83.3386 64.1333 81.2021 64.7742 78.9588C64.7742 78.9054 64.8277 78.852 64.8277 78.852C64.8277 79.119 65.0413 79.5997 65.1481 79.8134C65.8959 81.7362 66.6437 83.6057 67.338 85.5285H68.1926L64.8811 77.3564H64.7208L61.5161 85.5285Z" fill="#0B3369"/>
<path d="M82.9877 79.1719C82.24 77.0888 79.9433 77.3558 78.1807 77.3558V85.4745H78.9818V83.338C79.5694 83.338 80.3171 83.338 80.7444 83.2846C82.6139 82.9641 83.6821 81.0413 82.9877 79.1719ZM79.0353 82.5902V78.1036C80.6376 78.1036 82.3468 78.2104 82.3468 80.3469C82.3468 82.4834 80.6376 82.5902 79.0353 82.5902Z" fill="#0B3369"/>
<path d="M95.0587 85.5283C95.5394 85.5283 95.9667 85.4749 96.3406 85.3146C96.7145 85.2078 97.0884 84.9941 97.4088 84.7271C97.7293 84.46 97.9964 84.193 98.21 83.8191L97.5691 83.3384C97.3554 83.6054 97.1418 83.8725 96.9281 84.0327C96.6611 84.2464 96.394 84.4066 96.0735 84.5134C95.7531 84.6203 95.4326 84.6737 95.0053 84.6737C94.5246 84.6737 94.1507 84.5669 93.7234 84.4066C93.3495 84.2464 93.0291 84.0327 92.7086 83.7123C92.4415 83.3918 92.2279 83.0713 92.0676 82.644C91.9074 82.2167 91.854 81.7894 91.854 81.3087C91.854 80.828 91.9608 80.4007 92.0676 79.9734C92.2279 79.5995 92.4415 79.2256 92.7086 78.9052C92.9756 78.5847 93.3495 78.3711 93.7234 78.2108C94.0973 78.0506 94.5246 77.9438 95.0053 77.9438C95.3792 77.9438 95.6997 77.9972 96.0201 78.104C96.3406 78.2108 96.6077 78.3711 96.8213 78.5313C97.035 78.6915 97.2486 78.9586 97.4088 79.1722L98.0498 78.6915C97.7293 78.1574 97.302 77.7835 96.7679 77.5165C96.2338 77.2494 95.6463 77.1426 94.9519 77.1426C94.5246 77.1426 94.0973 77.196 93.67 77.3562C93.2961 77.4631 92.9222 77.6767 92.5484 77.8903C92.2279 78.104 91.9074 78.4245 91.6938 78.7449C91.4267 79.0654 91.2665 79.4393 91.1062 79.8666C90.9994 80.2939 90.8926 80.7212 90.8926 81.2019C90.8926 81.6826 90.946 82.1099 91.1062 82.5372C91.213 82.9645 91.4267 83.3384 91.6938 83.6588C91.9608 83.9793 92.2279 84.2998 92.5484 84.5134C92.8688 84.7271 93.2427 84.9407 93.67 85.0476C94.2041 85.4214 94.6314 85.5283 95.0587 85.5283Z" fill="#0B3369"/>
<path d="M108.786 82.0033V77.3564H107.984V85.5285H108.786V83.1249L109.747 81.9499L112.364 85.5285H113.379L110.228 81.3089L113.059 77.3564H112.151L108.786 82.0033Z" fill="#0B3369"/>
<path fill-rule="evenodd" clip-rule="evenodd" d="M124.702 77.3027H126.999C126.625 78.371 125.29 78.4244 124.702 77.3027Z" fill="#0B3369"/>
<path d="M72.6258 85.5278C73.0531 85.5278 73.4804 85.4744 73.9077 85.3142C74.2816 85.2073 74.6555 84.9937 74.976 84.78C75.2964 84.5664 75.6169 84.2459 75.8306 83.9254C76.0976 83.605 76.2578 83.2311 76.4181 82.8038C76.5783 82.3765 76.6317 81.9492 76.6317 81.4685C76.6317 80.9878 76.5783 80.5605 76.4181 80.1332C76.3113 79.7059 76.0976 79.332 75.8306 79.0115C75.5635 78.6911 75.2964 78.3706 74.976 78.1569C74.6555 77.8899 74.2816 77.7297 73.9077 77.6228C73.5338 77.516 73.1065 77.4092 72.6258 77.4092C72.1985 77.4092 71.7712 77.4626 71.3974 77.6228C71.0235 77.7297 70.6496 77.9433 70.3291 78.1569C70.0086 78.3706 69.6882 78.6911 69.4745 79.0115C69.2075 79.332 69.0472 79.7059 68.887 80.1332C68.7268 80.5605 68.6733 80.9878 68.6733 81.4685C68.6733 81.9492 68.7268 82.3765 68.887 82.8038C68.9938 83.2311 69.2075 83.605 69.4745 83.9254C69.7416 84.2459 70.0086 84.5664 70.3291 84.78C70.6496 85.0471 71.0235 85.2073 71.3974 85.3142C71.7712 85.4744 72.1451 85.5278 72.6258 85.5278ZM72.6258 84.78C72.1985 84.78 71.7712 84.6732 71.3974 84.513C71.0235 84.3527 70.703 84.1391 70.4359 83.8186C70.1689 83.4982 69.9552 83.1777 69.795 82.7504C69.6348 82.3231 69.5813 81.8958 69.5813 81.4151C69.5813 80.9344 69.6348 80.5071 69.795 80.0798C69.9552 79.6525 70.1689 79.332 70.4359 79.0115C70.703 78.6911 71.0235 78.4774 71.3974 78.3172C71.7712 78.1569 72.1985 78.0501 72.6258 78.0501C73.1065 78.0501 73.4804 78.1569 73.8543 78.3172C74.2282 78.4774 74.5487 78.6911 74.8691 79.0115C75.1362 79.332 75.3498 79.6525 75.5101 80.0798C75.6703 80.5071 75.7237 80.9344 75.7237 81.4151C75.7237 81.8958 75.6703 82.3231 75.5101 82.7504C75.3498 83.1777 75.1362 83.4982 74.8691 83.8186C74.6021 84.1391 74.2816 84.3527 73.8543 84.513C73.4804 84.6732 73.0531 84.78 72.6258 84.78Z" fill="#0B3369"/>
<path d="M115.035 85.5285H114.875V77.3564H115.622V82.8045C115.622 82.9113 115.622 82.9647 115.622 83.0715C115.622 83.1784 115.622 83.2852 115.622 83.392C115.622 83.4988 115.622 83.5522 115.622 83.6057C115.622 83.6591 115.622 83.7125 115.622 83.7125C115.622 83.7125 115.622 83.6591 115.676 83.6591C115.729 83.6057 115.729 83.5522 115.783 83.4454C115.836 83.392 115.889 83.2852 115.943 83.1784C115.996 83.0715 116.05 83.0181 116.103 82.9647L120.696 77.3564H120.857V85.5285H120.109V80.027C120.109 79.9202 120.109 79.8668 120.109 79.76C120.109 79.6532 120.109 79.5463 120.109 79.4395C120.109 79.3327 120.109 79.2793 120.109 79.2259C120.109 79.1725 120.109 79.119 120.109 79.119C120.109 79.119 120.109 79.1725 120.055 79.1725C120.002 79.2259 120.002 79.2793 119.949 79.3861C119.895 79.4395 119.842 79.5463 119.788 79.6532C119.735 79.76 119.682 79.8134 119.628 79.8668L115.035 85.5285Z" fill="#0B3369"/>
<path d="M103.284 85.5283C103.765 85.5283 104.192 85.4749 104.566 85.3146C104.94 85.2078 105.314 84.9941 105.634 84.7271C105.955 84.46 106.222 84.193 106.489 83.8191L105.848 83.3384C105.634 83.6054 105.421 83.8725 105.207 84.0327C104.94 84.2464 104.673 84.4066 104.352 84.5134C104.032 84.6203 103.658 84.6737 103.284 84.6737C102.804 84.6737 102.376 84.5669 102.002 84.4066C101.628 84.2464 101.308 84.0327 100.988 83.7123C100.72 83.3918 100.507 83.0713 100.347 82.644C100.186 82.2167 100.133 81.7894 100.133 81.3087C100.133 80.828 100.24 80.4007 100.347 79.9734C100.507 79.5461 100.72 79.2256 100.988 78.9052C101.255 78.5847 101.628 78.3711 102.002 78.2108C102.376 78.0506 102.804 77.9438 103.284 77.9438C103.658 77.9438 103.979 77.9972 104.299 78.104C104.62 78.2108 104.887 78.3711 105.154 78.5313C105.367 78.6915 105.581 78.9586 105.795 79.1722L106.436 78.6915C106.115 78.1574 105.688 77.7835 105.154 77.5165C104.62 77.2494 104.032 77.1426 103.338 77.1426C102.91 77.1426 102.483 77.196 102.056 77.3562C101.628 77.4631 101.308 77.6767 100.934 77.8903C100.614 78.104 100.293 78.4245 100.08 78.7449C99.8124 79.0654 99.6522 79.4393 99.492 79.8666C99.3317 80.2939 99.2783 80.7212 99.2783 81.2019C99.2783 81.6826 99.3317 82.1099 99.492 82.5372C99.5988 82.9645 99.8124 83.3384 100.08 83.6588C100.347 83.9793 100.614 84.2998 100.934 84.5134C101.255 84.7271 101.628 84.9407 102.056 85.0476C102.43 85.4749 102.857 85.5283 103.284 85.5283Z" fill="#0B3369"/>
<path d="M123.1 85.5282H122.94V77.3561H123.688V82.8042C123.688 82.911 123.688 82.9644 123.688 83.0712C123.688 83.1781 123.688 83.2849 123.688 83.3917C123.688 83.4985 123.688 83.5519 123.688 83.6054C123.688 83.6588 123.688 83.7122 123.688 83.7122C123.688 83.7122 123.688 83.6588 123.741 83.6588C123.795 83.6054 123.795 83.5519 123.848 83.4451C123.901 83.3917 123.955 83.2849 124.008 83.1781C124.062 83.0712 124.115 83.0178 124.168 82.9644L128.762 77.3027H128.922V85.5282H128.174V80.0267C128.174 79.9199 128.174 79.8665 128.174 79.7597C128.174 79.6529 128.174 79.546 128.174 79.4392C128.174 79.3324 128.174 79.279 128.174 79.2256C128.174 79.1722 128.174 79.1187 128.174 79.1187C128.174 79.1187 128.174 79.1722 128.121 79.1722C128.067 79.2256 128.067 79.279 128.014 79.3858C127.961 79.4392 127.907 79.546 127.854 79.6529C127.8 79.7597 127.747 79.8131 127.694 79.8665L123.1 85.5282Z" fill="#0B3369"/>
<path d="M50.0857 104.863L49.605 105.29C51.1539 106.038 52.0619 105.13 52.6495 103.848L55.2132 97.8125H54.3586L52.0085 103.528L49.4447 97.8125H48.6436L51.5278 104.275C51.3142 104.649 51.0471 105.077 50.0857 104.863Z" fill="#0B3369"/>
<path d="M56.709 105.557H57.5102V102.94H61.6763V105.557H62.5309V97.8125H61.6763V102.192H57.5102V97.8125H56.709V105.557Z" fill="#0B3369"/>
<path d="M72.7324 105.557H75.6701C76.0974 105.557 76.4713 105.504 76.7383 105.397C77.0588 105.29 77.3259 105.13 77.4861 104.916C77.6997 104.702 77.86 104.489 77.9668 104.168C78.0736 103.901 78.127 103.581 78.127 103.26C78.127 102.94 78.0736 102.619 77.9134 102.352C77.8066 102.085 77.5929 101.818 77.3793 101.658C77.1656 101.498 76.8451 101.337 76.5247 101.231C76.8451 101.124 77.1122 100.91 77.2724 100.643C77.4327 100.376 77.5395 100.056 77.5395 99.6816C77.5395 99.4146 77.4861 99.1475 77.4327 98.9339C77.3259 98.7202 77.219 98.5066 77.0588 98.3463C76.8986 98.1861 76.6849 98.0258 76.4179 97.919C76.1508 97.8122 75.8303 97.7588 75.4564 97.7588H72.7324V105.557ZM73.5336 100.964V98.5066H75.2962C75.6167 98.5066 75.8837 98.56 76.0974 98.6668C76.311 98.7736 76.4179 98.9339 76.5247 99.0941C76.6315 99.2543 76.6849 99.468 76.6849 99.735C76.6849 99.9487 76.6315 100.162 76.5781 100.376C76.4713 100.536 76.3644 100.696 76.1508 100.803C75.9906 100.91 75.7235 100.964 75.403 100.964H73.5336ZM73.5336 104.809V101.658H75.5098C75.8837 101.658 76.2576 101.711 76.4713 101.872C76.7383 102.032 76.8986 102.192 77.0588 102.406C77.1656 102.619 77.219 102.94 77.219 103.207C77.219 103.527 77.1656 103.794 77.0588 104.008C76.952 104.222 76.7383 104.435 76.5247 104.542C76.2576 104.702 75.9371 104.756 75.5633 104.756H73.5336V104.809Z" fill="#0B3369"/>
<path d="M79.6226 105.557H84.5365V104.809H80.4772V102.887H83.9489V102.192H80.4772V98.5069H84.3762V97.8125H79.6226V105.557Z" fill="#0B3369"/>
<path d="M86.2456 105.558H87.0468V103.635H88.0082C88.5423 103.635 89.023 103.581 89.3969 103.421C89.7708 103.261 90.1447 103.101 90.4117 102.834C90.6788 102.566 90.8924 102.246 90.9993 101.926C91.1061 101.552 91.2129 101.178 91.2129 100.75C91.2129 100.323 91.1595 99.8959 90.9993 99.5754C90.8924 99.2015 90.6788 98.881 90.4117 98.6674C90.1447 98.4003 89.8242 98.1867 89.3969 98.0799C89.023 97.9196 88.5423 97.8662 88.0082 97.8662H86.2456V105.558ZM87.0468 102.887V98.5072H87.9548C88.3821 98.5072 88.756 98.5606 89.0764 98.6674C89.3969 98.7742 89.6106 98.9345 89.8242 99.1481C90.0379 99.3617 90.1447 99.5754 90.2515 99.8425C90.3583 100.11 90.3583 100.43 90.3583 100.75C90.3583 101.071 90.3049 101.391 90.2515 101.658C90.1447 101.926 90.0379 102.139 89.8242 102.353C89.6106 102.566 89.3969 102.727 89.0764 102.78C88.756 102.887 88.3821 102.94 87.9548 102.94H87.0468V102.887Z" fill="#0B3369"/>
<path d="M96.3942 105.611C96.8749 105.611 97.3022 105.557 97.6761 105.45C98.0499 105.344 98.4238 105.13 98.7443 104.916C99.0648 104.703 99.3318 104.382 99.5455 104.062L98.9045 103.634C98.7443 103.901 98.4772 104.115 98.2636 104.329C97.9965 104.542 97.7295 104.649 97.409 104.756C97.0885 104.863 96.768 104.916 96.3408 104.916C95.86 104.916 95.4862 104.809 95.0589 104.649C94.685 104.489 94.3645 104.275 94.044 104.008C93.777 103.741 93.5633 103.367 93.4031 102.993C93.2429 102.62 93.1894 102.192 93.1894 101.712C93.1894 101.231 93.2963 100.857 93.4031 100.43C93.5633 100.056 93.777 99.6819 94.044 99.4149C94.3111 99.1478 94.6316 98.9342 95.0589 98.7739C95.4328 98.6137 95.86 98.5069 96.3408 98.5069C96.7146 98.5069 97.0351 98.5603 97.3556 98.6671C97.6761 98.7739 97.9431 98.8807 98.1568 99.0944C98.3704 99.2546 98.5841 99.4683 98.7443 99.7353L99.3852 99.308C99.0648 98.8273 98.6375 98.4534 98.1034 98.1864C97.5692 97.9193 96.9817 97.8125 96.2873 97.8125C95.86 97.8125 95.4327 97.8659 95.0055 97.9727C94.6316 98.0796 94.2577 98.2932 93.8838 98.5069C93.5633 98.7205 93.2429 98.9876 93.0292 99.308C92.7621 99.6285 92.6019 100.002 92.4417 100.376C92.3348 100.75 92.228 101.177 92.228 101.658C92.228 102.139 92.2814 102.566 92.4417 102.94C92.5485 103.314 92.7621 103.688 93.0292 104.008C93.2963 104.329 93.5633 104.596 93.8838 104.809C94.2043 105.023 94.5782 105.237 95.0055 105.344C95.5396 105.504 95.9669 105.611 96.3942 105.611Z" fill="#0B3369"/>
<path d="M123.794 105.557H124.649V98.5069H126.999V97.8125H121.444V98.5069H123.794V105.557Z" fill="#0B3369"/>
<path d="M110.922 105.557H111.724V98.5069H114.074V97.8125H108.572V98.5069H110.922V105.557Z" fill="#0B3369"/>
<path d="M70.4893 97.8125H70.6495V105.557H69.9018V100.323C69.9018 100.216 69.9018 100.163 69.9018 100.056C69.9018 99.949 69.9018 99.8422 69.9018 99.7887C69.9018 99.6819 69.9018 99.6285 69.9018 99.5751C69.9018 99.5217 69.9018 99.4683 69.9018 99.4683C69.9018 99.4683 69.9018 99.4683 69.8483 99.5217C69.7949 99.5751 69.7415 99.6285 69.6881 99.6819C69.6347 99.7353 69.5813 99.8422 69.5279 99.8956C69.4745 100.002 69.421 100.056 69.3676 100.109L64.7208 105.557H64.5605V97.8125H65.3617V103.047C65.3617 103.154 65.3617 103.207 65.3617 103.314C65.3617 103.421 65.3617 103.528 65.3617 103.581C65.3617 103.688 65.3617 103.741 65.3617 103.795C65.3617 103.848 65.3617 103.901 65.3617 103.901C65.3617 103.901 65.3617 103.901 65.4151 103.848C65.4686 103.795 65.522 103.741 65.5754 103.688C65.6288 103.634 65.6822 103.528 65.7356 103.474C65.789 103.367 65.8424 103.314 65.8958 103.261L70.4893 97.8125Z" fill="#0B3369"/>
<path d="M115.516 105.557H120.43V104.863H116.37V102.887H119.842V102.192H116.37V98.5069H120.269V97.8125H115.516V105.557Z" fill="#0B3369"/>
<path d="M106.97 97.8125H107.13V105.557H106.382V100.323C106.382 100.216 106.382 100.163 106.382 100.056C106.382 99.949 106.382 99.8422 106.382 99.7887C106.382 99.6819 106.382 99.6285 106.382 99.5751C106.382 99.5217 106.382 99.4683 106.382 99.4683C106.382 99.4683 106.382 99.4683 106.329 99.5217C106.275 99.5751 106.275 99.6285 106.222 99.6819C106.168 99.7353 106.115 99.8422 106.062 99.8956C106.008 100.002 105.955 100.056 105.901 100.109L101.254 105.557H101.094V97.8125H101.842V103.047C101.842 103.154 101.842 103.207 101.842 103.314C101.842 103.421 101.842 103.528 101.842 103.581C101.842 103.688 101.842 103.741 101.842 103.795C101.842 103.848 101.842 103.901 101.842 103.901C101.842 103.901 101.842 103.901 101.895 103.848C101.949 103.795 101.949 103.741 102.002 103.688C102.056 103.634 102.109 103.528 102.162 103.474C102.216 103.367 102.269 103.314 102.323 103.261L106.97 97.8125Z" fill="#0B3369"/>
<path d="M78.7147 96.5307H78.0737V94.7147H78.6079L81.225 87.8779H81.4387L84.2161 94.7147H84.7502V96.5307H84.1093V95.409H78.7681V96.5307H78.7147ZM79.3556 94.7147H83.4149L81.3319 89.4269L79.3556 94.7147Z" fill="#0B3369"/>
<path d="M73.2663 94.8218L72.7856 95.2491C74.388 95.9969 75.296 95.0889 75.8835 93.8604L78.5007 87.9851H77.6461L75.296 93.5399L72.6254 87.9316H71.8242L74.7619 94.1808C74.5482 94.6081 74.2278 95.0354 73.2663 94.8218Z" fill="#0B3369"/>
<path d="M86.0322 95.4627H86.78L87.2607 94.2343H90.9461L91.4268 95.4627H92.228L89.1301 87.9316H89.0233L86.0322 95.4627ZM87.5278 93.5399L88.8097 90.2284C88.8631 90.1215 88.8631 90.0681 88.9165 89.9613C88.9699 89.8545 88.9699 89.7476 89.0233 89.6942C89.0233 89.5874 89.0767 89.534 89.0767 89.4806C89.0767 89.534 89.1301 89.5874 89.1301 89.6942C89.1835 89.8011 89.1835 89.9079 89.2369 89.9613C89.2904 90.0681 89.2904 90.1749 89.3438 90.2284L90.6257 93.5399H87.5278Z" fill="#0B3369"/>
<path d="M147.777 90.2818C148.151 90.442 148.525 90.6022 148.792 90.8693C149.059 91.083 149.272 91.4034 149.379 91.6705C149.539 91.991 149.593 92.3114 149.593 92.6853C149.593 93.1126 149.539 93.4865 149.379 93.807C149.219 94.1274 149.005 94.4479 148.685 94.6616C148.364 94.9286 147.99 95.0889 147.563 95.2491C147.136 95.4093 146.602 95.4627 146.014 95.4627H144.091V87.9316H144.999V89.9079H146.014C146.174 89.9079 146.335 89.9079 146.495 89.9079C146.655 89.9079 146.815 89.9613 146.922 89.9613C147.296 90.0681 147.563 90.1749 147.777 90.2818ZM144.999 90.6557V94.7684H145.961C146.441 94.7684 146.869 94.715 147.189 94.6081C147.51 94.5013 147.83 94.3411 148.044 94.1808C148.257 94.0206 148.418 93.7536 148.525 93.5399C148.631 93.2728 148.685 93.0058 148.685 92.7387C148.685 92.4183 148.631 92.1512 148.525 91.9375C148.418 91.6705 148.257 91.4568 148.044 91.2966C147.83 91.1364 147.563 90.9761 147.189 90.8693C146.869 90.7625 146.441 90.7091 145.961 90.7091H144.999V90.6557Z" fill="#0B3369"/>
<path d="M150.607 95.4627H151.515V87.9316H150.607V95.4627Z" fill="#0B3369"/>
<path d="M58.525 95.463C58.9523 95.463 59.3262 95.4096 59.7 95.3028C60.0739 95.196 60.4478 95.0357 60.7149 94.7687C61.0353 94.555 61.3024 94.288 61.516 93.9675C61.7297 93.647 61.9433 93.3266 62.0502 92.9527C62.157 92.5788 62.2638 92.1515 62.2638 91.7242C62.2638 91.2969 62.2104 90.8696 62.0502 90.4957C61.9433 90.1218 61.7297 89.748 61.516 89.4809C61.3024 89.1604 61.0353 88.8934 60.7149 88.6797C60.3944 88.4661 60.0739 88.3058 59.7 88.1456C59.3262 88.0388 58.8989 87.9854 58.525 87.9854C58.0977 87.9854 57.7238 88.0388 57.3499 88.1456C56.976 88.2524 56.6021 88.4126 56.3351 88.6797C56.0146 88.8934 55.7476 89.1604 55.5339 89.4809C55.3203 89.8014 55.1066 90.1218 54.9998 90.4957C54.893 90.8696 54.7861 91.2969 54.7861 91.7242C54.7861 92.1515 54.8395 92.5788 54.9998 92.9527C55.1066 93.3266 55.3203 93.7004 55.5339 93.9675C55.7476 94.288 56.0146 94.555 56.3351 94.7687C56.6556 94.9823 56.976 95.1426 57.3499 95.3028C57.6704 95.4096 58.0977 95.463 58.525 95.463ZM58.525 94.7687C58.0977 94.7687 57.7238 94.7153 57.3499 94.555C56.976 94.3948 56.6556 94.1811 56.3885 93.9141C56.1214 93.647 55.9078 93.3266 55.7475 92.9527C55.5873 92.5788 55.5339 92.1515 55.5339 91.7242C55.5339 91.2969 55.5873 90.8696 55.7475 90.4957C55.9078 90.1218 56.1214 89.8014 56.3885 89.5343C56.6556 89.2672 56.976 89.0536 57.3499 88.8934C57.7238 88.7331 58.0977 88.6797 58.525 88.6797C58.9523 88.6797 59.3796 88.7331 59.7 88.8934C60.0739 89.0536 60.3944 89.2672 60.6615 89.5343C60.9285 89.8014 61.1422 90.1218 61.3024 90.4957C61.4626 90.8696 61.516 91.2969 61.516 91.7242C61.516 92.1515 61.4626 92.5788 61.3024 92.9527C61.1422 93.3266 60.9285 93.647 60.6615 93.9141C60.3944 94.1811 60.0739 94.3948 59.7 94.555C59.3262 94.7153 58.9523 94.7687 58.525 94.7687Z" fill="#0B3369"/>
<path d="M67.8721 95.4627C68.3528 95.4627 68.7801 95.4093 69.154 95.3025C69.5279 95.1957 69.9018 95.0354 70.2222 94.7684C70.5427 94.5547 70.8098 94.2877 71.0234 93.9672L70.3825 93.5399C70.2222 93.807 69.9552 94.0206 69.7415 94.1808C69.4745 94.3411 69.2074 94.5013 68.8869 94.6081C68.5665 94.715 68.246 94.7684 67.8721 94.7684C67.4448 94.7684 67.0175 94.715 66.6436 94.5547C66.2698 94.3945 65.9493 94.1808 65.6822 93.9138C65.4152 93.6467 65.2015 93.3263 65.0413 92.9524C64.881 92.5785 64.8276 92.1512 64.8276 91.7239C64.8276 91.2966 64.881 90.8693 65.0413 90.4954C65.2015 90.1215 65.4152 89.8011 65.6822 89.534C65.9493 89.2669 66.2698 89.0533 66.6436 88.8931C67.0175 88.7328 67.4448 88.6794 67.8721 88.6794C68.246 88.6794 68.5665 88.7328 68.8869 88.8396C69.2074 88.9465 69.4745 89.0533 69.6881 89.2135C69.9018 89.3738 70.1154 89.5874 70.2757 89.8011L70.9166 89.3738C70.5961 88.8931 70.1688 88.5726 69.6347 88.3055C69.1006 88.0919 68.5131 87.9316 67.8187 87.9316C67.3914 87.9316 66.9641 87.9851 66.5902 88.0919C66.2163 88.1987 65.8425 88.3589 65.522 88.626C65.2015 88.8396 64.881 89.1067 64.6674 89.4272C64.4003 89.7476 64.2401 90.0681 64.0799 90.442C63.9196 90.8159 63.8662 91.2432 63.8662 91.6705C63.8662 92.0978 63.9196 92.5251 64.0799 92.899C64.1867 93.2728 64.4003 93.6467 64.6674 93.9138C64.881 94.2343 65.2015 94.5013 65.522 94.715C65.8425 94.9286 66.2163 95.0889 66.5902 95.2491C67.0175 95.4093 67.4448 95.4627 67.8721 95.4627Z" fill="#0B3369"/>
<path d="M93.6699 95.4624H94.4711V93.593H95.3791C95.9132 93.593 96.3405 93.5396 96.7144 93.3794C97.0883 93.2191 97.4088 93.0589 97.6758 92.7918C97.9429 92.5248 98.1565 92.2577 98.2634 91.8838C98.3702 91.5634 98.477 91.1361 98.477 90.7622C98.477 90.3349 98.4236 89.961 98.2634 89.5871C98.1565 89.2666 97.9429 88.9462 97.6758 88.6791C97.4088 88.4121 97.0883 88.2518 96.7144 88.0916C96.3405 87.9313 95.8598 87.8779 95.3791 87.8779H93.6699V95.4624ZM94.4711 92.8987V88.6257H95.3257C95.753 88.6257 96.1269 88.6791 96.3939 88.7859C96.7144 88.8928 96.9281 89.053 97.0883 89.2132C97.2485 89.4269 97.4088 89.6405 97.5156 89.9076C97.6224 90.1746 97.6224 90.4417 97.6224 90.7622C97.6224 91.0827 97.569 91.3497 97.5156 91.6168C97.4088 91.8838 97.3019 92.0975 97.0883 92.3111C96.9281 92.5248 96.661 92.6316 96.3939 92.7384C96.0735 92.8452 95.753 92.8987 95.3257 92.8987H94.4711Z" fill="#0B3369"/>
<path d="M103.765 95.4627C104.246 95.4627 104.673 95.4093 105.047 95.3025C105.421 95.1957 105.795 95.0354 106.115 94.7684C106.436 94.5547 106.703 94.2877 106.916 93.9672L106.276 93.5399C106.115 93.807 105.848 94.0206 105.635 94.1808C105.368 94.3411 105.1 94.5013 104.78 94.6081C104.46 94.715 104.139 94.7684 103.765 94.7684C103.338 94.7684 102.911 94.715 102.537 94.5547C102.163 94.3945 101.842 94.1808 101.575 93.9138C101.308 93.6467 101.095 93.3263 100.934 92.9524C100.774 92.5785 100.721 92.1512 100.721 91.7239C100.721 91.2966 100.774 90.8693 100.934 90.4954C101.095 90.1215 101.308 89.8011 101.575 89.534C101.842 89.2669 102.163 89.0533 102.537 88.8931C102.911 88.7328 103.338 88.6794 103.765 88.6794C104.139 88.6794 104.46 88.7328 104.78 88.8396C105.1 88.9465 105.368 89.0533 105.581 89.2135C105.795 89.3738 106.008 89.5874 106.169 89.8011L106.81 89.3738C106.489 88.8931 106.062 88.5726 105.528 88.3055C104.994 88.0919 104.406 87.9316 103.712 87.9316C103.284 87.9316 102.857 87.9851 102.483 88.0919C102.109 88.1987 101.736 88.3589 101.415 88.5726C101.095 88.7862 100.774 89.0533 100.56 89.3738C100.293 89.6942 100.133 90.0147 99.9729 90.3886C99.8127 90.7625 99.7593 91.1898 99.7593 91.6171C99.7593 92.0444 99.8127 92.4717 99.9729 92.8455C100.08 93.2194 100.293 93.5933 100.56 93.8604C100.774 94.1808 101.095 94.4479 101.415 94.6616C101.736 94.8752 102.109 95.0354 102.483 95.1423C102.911 95.4093 103.338 95.4627 103.765 95.4627Z" fill="#0B3369"/>
<path d="M110.068 95.4627H110.869V88.6794H113.166V87.9316H107.771V88.6794H110.068V95.4627Z" fill="#0B3369"/>
<path d="M114.821 95.463H117.652C118.026 95.463 118.4 95.4096 118.72 95.3028C119.041 95.196 119.254 95.0357 119.468 94.8221C119.682 94.6084 119.789 94.3948 119.895 94.1277C120.002 93.8607 120.056 93.5936 120.056 93.2731C120.056 92.9527 120.002 92.6322 119.895 92.3651C119.789 92.0981 119.575 91.8844 119.361 91.6708C119.148 91.5105 118.881 91.3503 118.507 91.2969C118.827 91.1901 119.094 91.0298 119.254 90.7628C119.415 90.4957 119.522 90.1752 119.522 89.8014C119.522 89.5343 119.468 89.3207 119.415 89.107C119.308 88.8934 119.201 88.6797 119.041 88.5195C118.881 88.3592 118.667 88.199 118.4 88.1456C118.133 88.0388 117.812 87.9854 117.492 87.9854H114.928V95.463H114.821ZM115.622 91.0298V88.6797H117.332C117.652 88.6797 117.919 88.7331 118.079 88.8399C118.293 88.9468 118.4 89.0536 118.507 89.2672C118.614 89.4275 118.614 89.6411 118.614 89.8548C118.614 90.0684 118.56 90.2821 118.507 90.4423C118.4 90.6025 118.293 90.7628 118.133 90.8696C117.973 90.9764 117.706 91.0298 117.438 91.0298H115.622ZM115.622 94.7687V91.7242H117.545C117.919 91.7242 118.24 91.7776 118.507 91.9378C118.774 92.0447 118.934 92.2583 119.041 92.472C119.148 92.6856 119.201 92.9527 119.201 93.2731C119.201 93.5402 119.148 93.8073 119.041 94.0743C118.934 94.288 118.774 94.5016 118.507 94.6084C118.293 94.7153 117.973 94.8221 117.599 94.8221H115.622V94.7687Z" fill="#0B3369"/>
<path d="M121.711 95.4627H126.572V94.7684H122.513V92.899H125.984V92.2046H122.513V88.6794H126.412V87.9316H121.711V95.4627Z" fill="#0B3369"/>
<path d="M128.281 95.4627H129.136V92.9524H133.249V95.4627H134.103V87.9316H133.249V92.2046H129.136V87.9316H128.281V95.4627Z" fill="#0B3369"/>
<path d="M136.186 95.4627H137.041V92.9524H141.1V95.4627H141.955V87.9316H141.1V92.2046H137.041V87.9316H136.186V95.4627Z" fill="#0B3369"/>
<path fill-rule="evenodd" clip-rule="evenodd" d="M155.254 87.9316H157.498C157.124 88.8931 155.789 88.9999 155.254 87.9316Z" fill="#0B3369"/>
<path d="M153.705 95.4627H153.598V87.9316H154.346V93.0058C154.346 93.1126 154.346 93.166 154.346 93.2728C154.346 93.3797 154.346 93.4331 154.346 93.5399C154.346 93.6467 154.346 93.7001 154.346 93.7536C154.346 93.807 154.346 93.8604 154.346 93.8604C154.346 93.8604 154.346 93.8604 154.399 93.807C154.453 93.7536 154.453 93.7001 154.506 93.6467C154.56 93.5933 154.613 93.4865 154.666 93.4331C154.72 93.3797 154.773 93.2728 154.827 93.2194L159.26 87.9851H159.367V95.5161H158.619V90.4954C158.619 90.3886 158.619 90.3352 158.619 90.2284C158.619 90.1215 158.619 90.0681 158.619 89.9613C158.619 89.8545 158.619 89.8011 158.619 89.7477C158.619 89.6942 158.619 89.6408 158.619 89.6408C158.619 89.6408 158.619 89.6408 158.565 89.6942C158.512 89.7476 158.512 89.8011 158.459 89.8545C158.405 89.9079 158.352 90.0147 158.298 90.0681C158.245 90.1215 158.192 90.2284 158.138 90.2818L153.705 95.4627Z" fill="#0B3369"/>
<path d="M48.6436 95.4627H49.4447C49.4447 93.2194 49.4447 90.9227 49.4447 88.6794H53.3438V87.9316H48.6436V95.4627Z" fill="#0B3369"/>
<path fill-rule="evenodd" clip-rule="evenodd" d="M43.7294 106.145H43.1953V77.0889H43.7294V106.145Z" fill="#0B3369"/>
</svg>
