<svg width="177" height="177" viewBox="0 0 177 177" fill="none" xmlns="http://www.w3.org/2000/svg">
<rect width="177" height="177" fill="white"/>
<path fill-rule="evenodd" clip-rule="evenodd" d="M152.084 93.6564L153.081 96.287L152.084 93.6564ZM31.0946 88.193L30.4966 89.6095H30.8953C31.4932 89.6095 31.6926 89.6095 32.0912 89.4071C32.1947 89.4001 32.2922 89.3553 32.3655 89.2808C32.4388 89.2064 32.483 89.1075 32.4899 89.0024V88.3954C32.2905 88.193 32.0912 88.193 31.6926 88.193H31.0946ZM145.507 82.932H149.095L146.304 92.24H142.716L145.507 82.932ZM96.2736 76.0521C95.0777 74.838 92.6858 75.4451 90.6926 76.2545V76.8615C90.6926 79.6944 89.4966 81.9202 87.5034 83.1343C89.0649 83.0768 90.5813 82.587 91.8885 81.7179C95.0777 79.8967 97.2703 77.4685 96.2736 76.0521ZM152.882 93.6564H118.797L119.196 96.287H153.679L152.882 93.6564ZM23.9189 101.346L23.7196 102.56H25.9122C25.5135 103.369 24.9155 103.572 24.1182 103.572C23.6443 103.604 23.169 103.535 22.723 103.369L22.125 104.988C22.7789 105.137 23.4482 105.205 24.1182 105.19C27.1081 105.19 28.5034 103.369 28.5034 101.346C28.5034 100.132 27.9054 99.3222 26.7095 98.9175C25.79 98.7145 24.8384 98.7145 23.9189 98.9175L23.5203 100.536C24.3176 100.334 25.9122 100.132 26.1115 101.346H23.9189ZM29.5 100.536H31.6926L31.2939 102.155H32.0912L32.4899 100.536H34.6824L33.6858 105.19H31.4932L31.8919 103.369H31.0946L30.6959 105.19H28.5034L29.5 100.536ZM40.0642 103.369V103.167C40.2252 102.856 40.2944 102.505 40.2635 102.155C40.2768 102.045 40.2658 101.934 40.2314 101.829C40.1969 101.724 40.1398 101.628 40.0642 101.548C40.0642 101.143 39.4662 100.334 38.0709 100.334C37.6647 100.318 37.2594 100.385 36.8787 100.529C36.4979 100.674 36.1491 100.894 35.8525 101.176C35.5559 101.458 35.3174 101.797 35.1508 102.174C34.9842 102.55 34.8927 102.957 34.8818 103.369C34.8745 103.635 34.9241 103.9 35.0274 104.144C35.1306 104.389 35.285 104.608 35.4797 104.786C36.0777 105.19 36.6757 105.19 37.2736 105.19C38.0099 105.215 38.7464 105.147 39.4662 104.988L39.6655 103.774C39.0925 104.004 38.4869 104.141 37.8716 104.179C36.875 104.179 36.875 103.572 36.875 103.369H40.0642ZM37.0743 102.357C37.2736 101.548 37.6723 101.548 37.8716 101.548C38.0709 101.548 38.2703 101.548 38.2703 101.953V102.357H37.0743ZM43.4527 100.536L43.2534 101.346C43.4417 101.035 43.7057 100.779 44.0199 100.601C44.3341 100.424 44.6879 100.332 45.0473 100.334C45.4459 100.334 46.6419 100.536 46.6419 102.155C46.6419 103.976 45.4459 105.19 44.0507 105.19C43.652 105.19 43.0541 105.19 42.6554 104.583L42.2568 107.011H39.8649L41.2601 100.536H43.4527ZM43.652 101.953C43.4527 101.953 43.2534 101.953 43.0541 102.357C43.0541 102.762 42.8547 102.964 42.8547 103.369C42.8536 103.423 42.8632 103.476 42.8829 103.525C42.9025 103.575 42.9318 103.62 42.9691 103.658C43.0063 103.696 43.0507 103.725 43.0995 103.745C43.1484 103.765 43.2007 103.775 43.2534 103.774C43.4109 103.795 43.5709 103.767 43.7129 103.695C43.855 103.623 43.9726 103.51 44.0507 103.369C44.0507 103.167 44.25 102.56 44.25 102.357C44.25 101.953 43.8514 101.953 43.652 101.953ZM51.2264 101.75L51.4257 100.536H47.6385L46.6419 105.19H48.8345L49.6318 101.75H51.2264ZM55.2128 100.536H57.4054L56.6081 105.19H54.4155L55.0135 102.964H54.8142L53.4189 105.19H51.2264L52.223 100.536H54.2162L53.8176 102.56L55.2128 100.536V100.536ZM63.3851 100.536H59.9966C58.6014 100.536 57.8041 101.346 57.8041 102.357C57.8041 102.964 58.2027 103.167 58.6014 103.369L57.2061 105.19H59.3986L60.3953 103.572H60.5946L60.1959 105.19H62.5878L63.3851 100.536V100.536ZM60.9932 101.548L60.7939 102.56H60.5946C60.3953 102.56 60.1959 102.56 60.1959 102.155C60.1959 101.953 60.1959 101.548 60.7939 101.548H60.9932ZM66.5743 100.536L66.375 101.75H67.5709L66.973 105.19H69.1655L69.7635 101.75H71.1588L71.3581 100.536H66.5743ZM71.9561 100.536H75.3446C75.5439 100.536 76.5405 100.536 76.5405 101.346C76.5405 101.953 76.3412 102.56 75.5439 102.762C75.7507 102.777 75.9453 102.867 76.0918 103.015C76.2384 103.164 76.3269 103.362 76.3412 103.572C76.3412 104.381 75.7432 105.19 74.348 105.19H70.9595L71.9561 100.536V100.536ZM73.75 101.548L73.5507 102.357H73.75C74.5473 102.357 74.5473 101.953 74.5473 101.75C74.5473 101.548 74.1486 101.548 73.9493 101.548H73.75ZM73.3513 103.167L73.152 104.179H73.5507C74.1486 104.179 74.348 103.774 74.348 103.572C74.348 103.167 73.9493 103.167 73.75 103.167H73.3513ZM80.527 100.334C78.1351 100.334 76.9392 101.953 76.9392 103.369C76.9392 103.976 77.3378 105.19 79.5304 105.19C81.723 105.19 82.9189 103.774 82.9189 102.357C82.9189 101.346 82.3209 100.334 80.527 100.334ZM80.1284 101.75C80.527 101.75 80.527 101.953 80.527 102.155C80.5586 102.57 80.4902 102.987 80.3277 103.369C80.3188 103.527 80.253 103.676 80.1427 103.788C80.0324 103.9 79.8854 103.967 79.7297 103.976C79.5304 103.976 79.3311 103.774 79.3311 103.369C79.3311 103.167 79.5304 102.357 79.7297 102.155C79.7366 102.05 79.7808 101.951 79.8541 101.877C79.9274 101.802 80.0249 101.757 80.1284 101.75V101.75ZM88.5 103.369V103.167C88.661 102.856 88.7302 102.505 88.6993 102.155C88.7126 102.045 88.7016 101.934 88.6672 101.829C88.6327 101.724 88.5756 101.628 88.5 101.548C88.5 101.143 87.902 100.334 86.5068 100.334C86.1005 100.318 85.6953 100.385 85.3145 100.529C84.9337 100.674 84.5849 100.894 84.2883 101.176C83.9917 101.458 83.7532 101.797 83.5866 102.174C83.42 102.55 83.3285 102.957 83.3176 103.369C83.3103 103.635 83.36 103.9 83.4632 104.144C83.5664 104.389 83.7208 104.608 83.9155 104.786C84.3142 105.19 85.1115 105.19 85.7095 105.19C86.4457 105.215 87.1822 105.147 87.902 104.988L88.1013 103.774C87.5283 104.004 86.9227 104.141 86.3074 104.179C85.3108 104.179 85.3108 103.572 85.3108 103.369H88.5ZM85.5101 102.357C85.7095 101.548 86.1081 101.548 86.3074 101.548C86.5068 101.548 86.7061 101.548 86.7061 101.953V102.357H85.5101ZM93.2838 101.75H91.6892L91.0912 105.19H88.6993L89.6959 100.536H93.6824L93.2838 101.75ZM96.8716 100.334C94.6791 100.334 93.4831 101.953 93.4831 103.369C93.4831 103.976 93.8818 105.19 96.0743 105.19C98.0676 105.19 99.4628 103.774 99.4628 102.357C99.4628 101.346 98.8649 100.334 96.8716 100.334ZM96.6723 101.75C97.0709 101.75 97.0709 101.953 97.0709 102.155C97.0709 102.56 96.8716 102.964 96.8716 103.369C96.6723 103.572 96.473 103.976 96.2736 103.976C96.0743 103.976 95.875 103.774 95.875 103.369C95.875 103.167 96.0743 102.357 96.2736 102.155C96.2805 102.05 96.3247 101.951 96.398 101.877C96.4714 101.802 96.5688 101.757 96.6723 101.75V101.75ZM108.632 98.1081C108.208 98.3616 107.728 98.501 107.236 98.5128C106.24 98.5128 105.243 98.5128 104.247 99.1198C103.051 99.9292 102.453 101.75 102.453 103.167C102.453 103.976 102.652 105.19 104.845 105.19C107.436 105.19 108.233 103.572 108.233 102.56C108.233 101.346 107.236 100.739 106.041 100.739C105.298 100.735 104.583 101.025 104.047 101.548V101.346C104.134 101.08 104.291 100.845 104.503 100.666C104.714 100.487 104.971 100.372 105.243 100.334C105.841 100.132 106.24 100.132 107.037 100.132C107.472 100.159 107.901 100.014 108.233 99.7269L108.632 98.1081ZM105.044 103.976C104.845 103.976 104.645 103.572 104.645 103.572C104.645 103.167 104.845 102.762 104.845 102.56C105.044 102.155 105.243 102.155 105.443 102.155C105.841 102.155 105.841 102.357 105.841 102.56V102.964C105.642 103.369 105.443 103.976 105.044 103.976ZM108.831 100.536H111.024V103.369H111.223L112.22 100.536H114.412L112.02 105.393C111.223 106.607 110.426 107.214 109.03 107.214C108.621 107.246 108.211 107.176 107.834 107.011L108.034 105.595C108.112 105.672 108.207 105.73 108.31 105.765C108.414 105.8 108.524 105.811 108.632 105.797C108.789 105.818 108.949 105.791 109.091 105.719C109.233 105.647 109.351 105.533 109.429 105.393V105.19L108.831 100.536ZM120.193 100.536H115.608L115.409 101.346C115.209 102.357 115.01 103.167 114.213 103.774H113.814L113.216 106.404H115.409L115.608 105.19H117.801L117.601 106.404H119.595L120.193 103.774H119.595L120.193 100.536ZM117.402 103.774H116.206C116.804 103.167 117.003 102.762 117.003 102.155L117.203 101.75H117.801L117.402 103.774ZM120.791 100.536H123.182V103.369L124.378 100.536H126.571L123.98 105.393C123.382 106.607 122.385 107.214 121.189 107.214C120.715 107.246 120.24 107.177 119.794 107.011L119.993 105.595C120.235 105.736 120.511 105.806 120.791 105.797C120.948 105.818 121.108 105.791 121.25 105.719C121.392 105.647 121.51 105.533 121.588 105.393V105.19L120.791 100.536ZM126.97 100.536L125.973 105.19H132.152L131.953 106.404H133.946L134.345 103.774H133.747L134.544 100.536H132.351L131.753 103.774H130.956L131.753 100.536H129.76L128.963 103.774H128.365L128.963 100.536H126.97ZM140.125 103.369L140.324 103.167V101.548C140.125 101.143 139.726 100.334 138.132 100.334C137.725 100.318 137.32 100.385 136.939 100.529C136.559 100.674 136.21 100.894 135.913 101.176C135.617 101.458 135.378 101.797 135.212 102.174C135.045 102.55 134.954 102.957 134.943 103.369C134.935 103.635 134.985 103.9 135.088 104.144C135.191 104.389 135.346 104.608 135.541 104.786C136.139 105.19 136.936 105.19 137.334 105.19C138.071 105.215 138.807 105.147 139.527 104.988L139.726 103.774C139.16 104.026 138.551 104.163 137.932 104.179C137.135 104.179 136.936 103.572 137.135 103.369H140.125ZM137.334 102.357C137.334 101.548 137.932 101.548 137.932 101.548C138.132 101.548 138.53 101.548 138.53 101.953C138.53 102.155 138.53 102.155 138.331 102.357H137.334ZM144.909 101.75L145.307 100.536H141.321L140.524 105.19H142.716L143.314 101.75H144.909ZM148.696 100.334C150.49 100.334 151.088 101.346 151.088 102.357C151.088 103.774 149.892 105.19 147.699 105.19C145.507 105.19 145.108 103.976 145.108 103.369C145.108 101.953 146.304 100.334 148.696 100.334ZM148.297 101.75C148.194 101.757 148.096 101.802 148.023 101.877C147.95 101.951 147.906 102.05 147.899 102.155C147.699 102.357 147.5 103.167 147.5 103.369C147.5 103.774 147.699 103.976 147.899 103.976C148.297 103.976 148.297 103.572 148.497 103.369C148.497 102.964 148.696 102.56 148.696 102.155C148.696 101.953 148.696 101.75 148.297 101.75ZM152.483 98.9175L152.084 102.762H153.679L154.875 98.9175H152.483ZM151.686 103.369L151.486 105.19H153.28L153.679 103.369H151.686ZM150.291 85.1578L147.699 88.3954L148.497 92.24H152.483L151.287 88.3954L154.078 85.1578H150.291ZM134.743 85.1578L132.551 92.24H136.139L136.936 89.6095H138.929L138.132 92.24H141.72L143.912 85.1578H140.324L139.726 87.3836H137.534L138.331 85.1578H134.743ZM117.801 85.5625C118.9 85.2137 120.039 85.0097 121.189 84.9554C122.385 84.9554 122.983 85.1578 123.581 85.5625C124.013 86.2188 124.223 87.0001 124.179 87.7883C124.179 87.9907 123.98 88.193 123.98 88.5977L123.382 89.8118C123.11 90.2642 122.775 90.6734 122.385 91.0259C121.986 91.2282 121.588 91.6329 120.99 91.8353C120.417 92.0658 119.811 92.2024 119.196 92.24C118.797 92.4423 118.399 92.4423 117.801 92.4423C117.18 92.4511 116.566 92.3125 116.007 92.0376L116.605 96.4893H113.416V92.847L111.622 96.4893H108.432L107.834 92.847L106.639 96.4893H103.449L106.439 89.8118H109.828L110.625 93.0494L112.02 89.8118H114.213V88.8001L115.209 85.5625C115.608 84.5507 116.007 83.9437 116.804 83.3366C117.601 82.7296 118.399 82.5273 119.395 82.3249C120.193 82.1226 121.189 82.1226 122.385 81.9202H124.777L123.98 84.5507C123.205 84.3014 122.4 84.1651 121.588 84.146C120.99 84.146 120.392 84.3484 119.794 84.3484C119.196 84.5507 118.797 84.5507 118.399 84.7531C118 84.9554 117.801 85.1578 117.801 85.3601V85.5625ZM128.166 92.24C127.83 92.2875 127.497 92.3551 127.169 92.4423H126.172C125.176 92.4423 124.578 92.24 124.179 91.8353C123.78 91.4306 123.581 91.0259 123.78 90.4188C123.98 89.8118 124.179 89.4071 124.578 89.2048C124.777 88.8001 125.176 88.5977 125.574 88.3954C125.973 88.3954 126.571 88.193 127.169 88.193C127.767 87.9907 128.166 87.9907 128.764 87.7883H129.162L129.561 87.3836L129.361 87.1813H128.764C127.966 87.1813 126.97 87.3836 125.375 87.7883L126.372 85.5625C127.966 85.3601 129.162 85.1578 130.159 85.1578C130.973 85.159 131.781 85.2957 132.551 85.5625C132.673 85.5948 132.788 85.6534 132.886 85.7343C132.984 85.8153 133.065 85.9166 133.121 86.0316C133.178 86.1466 133.21 86.2726 133.214 86.4011C133.219 86.5296 133.197 86.6576 133.149 86.7766L131.554 92.24H128.166ZM128.764 90.4188L128.963 89.6095C128.651 89.7562 128.31 89.8256 127.966 89.8118C127.863 89.9274 127.721 89.9995 127.568 90.0142L127.368 90.2165V90.6212H128.166C128.353 90.5222 128.555 90.4539 128.764 90.4188V90.4188ZM50.8277 93.2517C50.6618 91.6387 50.5953 90.0168 50.6284 88.3954L48.2365 92.24H44.6486L49.6318 85.1578H53.6182L54.0169 89.8118C55.0135 89.8118 56.0101 89.6095 56.8074 89.6095C57.4123 89.5765 58.0184 89.6448 58.6014 89.8118C59.0813 89.9769 59.5478 90.1799 59.9966 90.4188C60.5946 91.0259 60.3953 92.0376 59.7973 92.6447C59.598 93.0494 59.1993 93.2517 59 93.4541C58.6363 93.6784 58.2276 93.8168 57.8041 93.8588C57.4054 94.0611 56.8074 94.0611 56.2095 94.0611C56.1061 94.1767 55.9639 94.2488 55.8108 94.2635L55.6115 94.4658C55.6115 94.6682 55.6115 94.6682 55.8108 94.6682C55.8108 94.8705 56.0101 94.8705 56.4088 94.8705C57.0076 94.8705 58.0043 94.6682 59.3986 94.2635L58.8007 96.287C57.6786 96.4494 56.5452 96.5171 55.4122 96.4893C54.4155 96.4893 53.6182 96.4893 53.0203 96.0846C52.4223 95.8823 52.0236 95.4776 52.0236 94.8705C52.1669 94.3374 52.4413 93.85 52.8209 93.4541C53.211 93.0687 53.6911 92.7902 54.2162 92.6447C54.8911 92.5699 55.5581 92.4345 56.2095 92.24H56.8074V91.8353C57.0068 91.8353 56.8074 91.6329 56.6081 91.6329C56.4406 91.4921 56.2273 91.42 56.0101 91.4306C54.0169 91.4306 52.6216 92.6447 50.8277 93.2517V93.2517ZM25.5135 93.6564L24.7162 96.287H50.6284L51.2264 93.6564H25.5135ZM31.6926 85.9672H33.4865C34.2838 85.9672 34.8818 85.9672 35.4797 86.3719C35.7121 86.477 35.9104 86.6468 36.0516 86.8617C36.1927 87.0766 36.2709 87.3278 36.277 87.586C36.4779 88.1063 36.4779 88.6844 36.277 89.2048C36.0777 89.6095 35.8784 90.2165 35.4797 90.6212C35.0583 91.0749 34.5906 91.4819 34.0845 91.8353C33.4865 92.0376 33.0878 92.24 32.4899 92.24H25.9122L28.7027 82.7296H36.875L36.277 85.3601H31.8919L31.6926 85.9672ZM44.848 89.8118C43.8016 90.0586 42.7328 90.1942 41.6588 90.2165C40.6622 90.2165 40.2635 89.8118 40.2635 89.2048H45.4459V88.8001C45.6453 88.5977 45.6453 88.5977 45.6453 88.3954C45.8462 87.875 45.8462 87.2969 45.6453 86.7766C45.4459 86.1695 45.2466 85.7648 44.6486 85.5625C43.4527 84.7531 41.8581 84.9554 40.4628 85.3601C39.8307 85.5441 39.227 85.8165 38.6689 86.1695L37.473 87.3836C37.2736 87.9907 37.0743 88.3954 37.0743 88.8001C36.6757 90.0142 36.875 91.0259 37.473 91.4306C39.0676 92.847 41.4595 92.24 43.4527 92.0376L44.848 89.8118ZM40.6622 87.9907C40.8615 87.586 40.8615 87.3836 41.2601 87.1813C41.425 87.0328 41.6377 86.9508 41.8581 86.9508C42.0785 86.9508 42.2912 87.0328 42.4561 87.1813V87.9907H40.6622ZM64.1824 96.4893H67.5709L68.1689 91.4306C68.1628 91.1724 68.0846 90.9212 67.9435 90.7063C67.8023 90.4914 67.604 90.3216 67.3716 90.2165C66.6015 89.9497 65.7935 89.813 64.9797 89.8118C63.8368 89.7783 62.6952 89.9146 61.5912 90.2165L60.9932 92.24C62.3894 91.8353 63.386 91.6329 63.9831 91.6329H64.5811L64.7804 91.8353C64.7804 92.0376 64.5811 92.0376 64.5811 92.24H64.1824C63.7838 92.4423 63.1858 92.4423 62.5878 92.4423C62.1892 92.6447 61.7905 92.6447 61.3919 92.847C61.0345 93.0033 60.6993 93.2074 60.3953 93.4541C60.1743 93.8232 60.038 94.2382 59.9966 94.6682C59.7973 95.2752 59.9966 95.6799 60.5946 96.0846C60.9932 96.4893 61.5912 96.6917 62.3885 96.6917C62.7872 96.6917 62.9865 96.4893 63.3851 96.4893H64.1824ZM69.3649 90.2165C70.5347 89.9032 71.7437 89.7668 72.9527 89.8118C74.1486 89.8118 74.9459 90.0142 75.3446 90.2165C75.5393 90.3946 75.6937 90.6134 75.7969 90.858C75.9002 91.1026 75.9499 91.367 75.9426 91.6329C75.8928 91.9373 75.7539 92.2193 75.5439 92.4423C75.1453 92.6447 74.9459 92.847 74.5473 93.0494C74.9047 93.2056 75.2399 93.4098 75.5439 93.6564C75.7432 93.8588 75.7432 94.2635 75.7432 94.6682V94.8705C75.5439 95.2752 75.3446 95.6799 74.9459 95.8823C74.5473 96.287 74.1486 96.287 73.5507 96.4893C72.9527 96.6917 72.3547 96.6917 71.5574 96.6917C70.6229 96.7181 69.6882 96.6504 68.7669 96.4893V94.4658C69.5642 94.6682 70.5608 95.0729 71.5574 95.0729C71.7568 95.0729 72.1554 95.0729 72.3547 94.8705C72.5541 94.6682 72.7534 94.4658 72.7534 94.2635C72.7534 93.8588 72.3547 93.4541 71.7568 93.0494C71.9561 93.0494 72.1554 92.847 72.3547 92.6447C72.4582 92.6377 72.5557 92.5928 72.629 92.5184C72.7023 92.444 72.7465 92.345 72.7534 92.24C72.7534 91.8353 72.7534 91.8353 72.3547 91.6329H71.9561C70.9303 91.6388 69.9153 91.8448 68.9662 92.24L69.3649 90.2165ZM90.8919 91.8353C91.2905 92.0376 91.4899 92.6447 91.4899 93.2517C91.4899 93.8588 90.8919 94.4658 90.2939 94.2635C89.8953 94.2635 89.6959 93.6564 89.6959 93.0494C89.8962 92.24 90.2948 91.8353 90.8919 91.8353ZM77.1385 89.8118H80.3277V90.4188C80.6317 90.1722 80.9669 89.968 81.3243 89.8118C81.8391 89.6453 82.3796 89.5767 82.9189 89.6095C83.3278 89.5774 83.7383 89.6468 84.1149 89.8118C84.5135 90.0142 84.9122 90.2165 85.1115 90.6212C85.3108 91.0259 85.5101 91.4306 85.3108 91.8353L84.9122 96.4893H81.5236L81.9223 93.0494C81.9356 92.9395 81.9246 92.828 81.8901 92.723C81.8557 92.618 81.7986 92.5221 81.723 92.4423C81.5236 92.24 81.5236 92.24 81.3243 92.24C80.9257 92.24 80.7263 92.24 80.527 92.6447C80.1284 92.847 80.1284 93.0494 79.9291 93.6564L79.7297 96.4893H76.3412L77.1385 89.8118V89.8118ZM99.0642 92.24C98.8542 92.463 98.7153 92.745 98.6655 93.0494C98.6347 93.3991 98.7039 93.7504 98.8649 94.0611C99.0642 94.2635 99.2635 94.4658 99.4628 94.4658C99.7648 94.4222 100.045 94.2802 100.26 94.0613C100.476 93.8423 100.616 93.5583 100.659 93.2517C100.69 92.902 100.62 92.5507 100.459 92.24C100.26 92.0376 100.061 91.8353 99.8615 91.8353C99.6622 91.8353 99.4628 92.0376 99.0642 92.24ZM98.6655 89.8118C97.7664 89.964 96.933 90.387 96.2736 91.0259C95.8628 91.6574 95.5282 92.3368 95.277 93.0494C95.3141 93.674 95.4486 94.2887 95.6757 94.8705C95.9666 95.3715 96.3781 95.7892 96.8716 96.0846C97.5773 96.3346 98.317 96.4711 99.0642 96.4893H100.459C100.858 96.287 101.456 96.287 101.855 96.0846C102.224 95.866 102.56 95.5933 102.851 95.2752C103.25 94.8705 103.449 94.4658 103.649 94.2635C103.87 93.8943 104.006 93.4793 104.047 93.0494V92.24C104.047 91.8353 103.848 91.6329 103.649 91.2282C103.492 90.8668 103.207 90.5781 102.851 90.4188C102.652 90.0142 102.253 90.0142 101.855 89.8118C101.34 89.6453 100.799 89.5767 100.26 89.6095C99.7213 89.5884 99.1827 89.6567 98.6655 89.8118V89.8118ZM86.7061 90.0142L85.5101 99.3222H88.8986L89.2973 96.0846C90.0367 96.4745 90.856 96.6824 91.6892 96.6917C92.1807 96.6798 92.661 96.5405 93.0845 96.287C93.5779 95.9916 93.9894 95.5738 94.2804 95.0729C94.5294 94.5698 94.6656 94.0169 94.6791 93.4541C94.8784 92.6447 94.6791 92.0376 94.4797 91.2282C93.8818 90.2165 92.6858 89.8118 90.4932 89.8118H89.098C88.6246 89.7925 88.1518 89.861 87.7027 90.0142H86.7061ZM64.3818 94.6682C64.3032 94.7449 64.2087 94.8029 64.1053 94.8379C64.0018 94.8729 63.892 94.884 63.7838 94.8705H63.3851C63.1858 94.8705 63.1858 94.6682 63.1858 94.4658L63.3851 94.2635H63.5845C63.9831 94.0611 64.3818 94.0611 64.5811 93.8588L64.3818 94.6682ZM118.598 87.586C118.399 87.9907 118 88.3954 118 88.8001C117.904 88.9121 117.85 89.0559 117.85 89.2048C117.85 89.3536 117.904 89.4974 118 89.6095C118 90.0142 118.199 90.0142 118.598 90.0142C118.783 90.0234 118.968 89.992 119.14 89.9221C119.312 89.8523 119.467 89.7456 119.595 89.6095C119.841 89.3789 120.043 89.1046 120.193 88.8001V87.9907C120.206 87.8808 120.195 87.7693 120.16 87.6643C120.126 87.5593 120.069 87.4634 119.993 87.3836C119.886 87.2737 119.746 87.2026 119.595 87.1813C119.243 87.2612 118.907 87.3978 118.598 87.586V87.586ZM72.5541 76.0521C73.5507 74.838 75.9426 75.4451 78.1351 76.2545V76.8615C78.1351 79.6944 79.3311 81.9202 81.3243 83.1343C79.9291 83.1343 78.5338 82.7296 76.7399 81.7179C73.75 79.8967 71.5574 77.4685 72.5541 76.0521ZM99.4628 81.1108C100.659 82.3249 97.6689 83.3366 93.6824 83.7413C92.8282 83.9018 91.9596 83.9696 91.0912 83.9437C91.7233 83.7598 92.3271 83.4874 92.8851 83.1343C94.0711 82.335 95.0877 81.3031 95.875 80.0991C97.4696 80.3014 98.8649 80.5038 99.4628 81.1108ZM72.5541 79.8967C71.5574 78.2779 71.3581 76.8615 72.1554 75.6474C72.7534 74.6357 75.5439 74.4333 78.1351 75.4451C78.7331 72.2075 81.3243 69.7793 84.3142 69.7793C87.5034 69.7793 89.8953 72.2075 90.4932 75.4451C93.2838 74.4333 95.875 74.6357 96.6723 75.6474C97.4696 76.8615 97.0709 78.2779 96.0743 79.8967C98.0676 80.0991 99.6622 80.5038 100.26 81.1108C101.655 82.5273 98.8649 84.146 94.6791 84.7531C92.0878 85.1578 86.7061 85.5625 84.3142 84.146C82.1216 85.5625 76.7399 85.1578 74.1486 84.7531C69.9628 84.146 67.1723 82.5273 68.5676 81.1108C69.1655 80.5038 70.5608 80.0991 72.5541 79.8967ZM69.1655 81.1108C68.1689 82.3249 71.1588 83.3366 75.1453 83.7413C75.9985 83.9092 76.868 83.9771 77.7365 83.9437C77.1385 83.7413 76.5405 83.3366 75.9426 83.1343C74.7466 82.3249 73.5507 81.3132 72.9527 80.0991C71.3581 80.3014 69.9628 80.5038 69.1655 81.1108ZM84.3142 70.5887C86.9054 70.5887 88.8986 73.0169 89.098 76.0521C88.8986 76.2545 88.5 76.4568 88.3007 76.6591C88.1013 76.8615 87.7027 76.8615 87.5034 77.0638V78.2779C88.0355 77.781 88.6408 77.3714 89.2973 77.0638C89.098 80.5038 87.1047 83.3366 84.3142 83.3366C81.723 83.3366 79.5304 80.5038 79.5304 77.0638C80.1869 77.3714 80.7921 77.781 81.3243 78.2779L81.125 77.0638C80.9257 76.8615 80.7263 76.8615 80.527 76.6591C80.223 76.4125 79.8878 76.2083 79.5304 76.0521C79.9291 73.0169 81.9223 70.5887 84.3142 70.5887V70.5887Z" fill="#26528E"/>
</svg>
