<svg width="177" height="177" viewBox="0 0 177 177" fill="none" xmlns="http://www.w3.org/2000/svg">
<rect width="177" height="177" fill="white"/>
<path fill-rule="evenodd" clip-rule="evenodd" d="M64.2422 85.5153V76.3492C64.2422 76.3092 64.2416 76.2745 64.2411 76.2443C64.2394 76.1437 64.2385 76.0937 64.2631 76.0693C64.2873 76.0452 64.3362 76.046 64.4333 76.0475C64.4608 76.0479 64.4923 76.0484 64.5281 76.0484H76.4888C76.5217 76.0484 76.5507 76.048 76.5763 76.0476C76.669 76.0462 76.7165 76.0455 76.7407 76.0689C76.7661 76.0935 76.7657 76.1448 76.7649 76.25C76.7648 76.2706 76.7646 76.2933 76.7646 76.3183V79.2995C76.7646 79.3166 76.7644 79.3337 76.7641 79.3509C76.7637 79.3854 76.7632 79.4203 76.7646 79.4561C76.7686 79.5406 76.7319 79.5797 76.6481 79.5756C76.6085 79.5742 76.5689 79.5747 76.5298 79.5751C76.5106 79.5754 76.4914 79.5756 76.4725 79.5756H68.2414C68.2202 79.5756 68.2006 79.5755 68.1825 79.5754C68.0586 79.5749 68.0005 79.5746 67.9737 79.6035C67.95 79.629 67.9509 79.6772 67.9524 79.7682C67.9528 79.7944 67.9534 79.8241 67.9534 79.8578C67.952 80.6543 67.9524 81.4499 67.9529 82.2458V82.246C67.9531 82.6441 67.9534 83.0422 67.9534 83.4406C67.9534 83.4577 67.9536 83.4748 67.9538 83.4919C67.9543 83.5265 67.9547 83.5614 67.9534 83.5972C67.9493 83.6693 67.9758 83.7105 68.0534 83.7085C68.0931 83.7071 68.1327 83.7075 68.1717 83.708C68.191 83.7082 68.2102 83.7085 68.2291 83.7085H76.4378H76.5481C76.7646 83.7105 76.7646 83.7105 76.7646 83.9268V87.0193C76.7646 87.2315 76.7625 87.2335 76.542 87.2335H68.2455C68.2228 87.2335 68.2018 87.2334 68.1825 87.2333C68.0575 87.2327 67.999 87.2325 67.9723 87.2615C67.9488 87.287 67.9499 87.3352 67.9519 87.4259C67.9526 87.4563 67.9534 87.4915 67.9534 87.5322C67.952 88.3481 67.9524 89.164 67.9529 89.9798C67.9531 90.3878 67.9534 90.7957 67.9534 91.2037C67.9534 91.2188 67.9538 91.2338 67.9543 91.2486C67.9552 91.2782 67.9561 91.3074 67.9534 91.3376C67.9391 91.4591 68.0003 91.4942 68.1086 91.4838C68.1425 91.4811 68.1764 91.482 68.2109 91.4829L68.2109 91.4829C68.2284 91.4834 68.246 91.4838 68.2638 91.4838H76.4949C76.5222 91.4838 76.5467 91.4836 76.5689 91.4834C76.6718 91.4825 76.7221 91.482 76.7463 91.5069C76.7695 91.5307 76.7688 91.5777 76.7674 91.6697C76.767 91.6949 76.7666 91.7234 76.7666 91.7558C76.768 92.4179 76.7675 93.0809 76.7671 93.7437C76.7668 94.0749 76.7666 94.4061 76.7666 94.737C76.7666 94.7541 76.7664 94.7712 76.7662 94.7883C76.7657 94.8229 76.7653 94.8578 76.7666 94.8936C76.7707 94.9801 76.7278 95.0131 76.6461 95.0089C76.6122 95.0076 76.5783 95.008 76.5438 95.0085C76.5264 95.0087 76.5088 95.0089 76.4909 95.0089H64.5302C64.4951 95.0089 64.4642 95.0094 64.4371 95.0098C64.3366 95.0112 64.2866 95.0119 64.2623 94.9873C64.2383 94.963 64.2392 94.914 64.241 94.8167C64.2415 94.7862 64.2422 94.7509 64.2422 94.7102V85.5153ZM131.112 86.8148C127.166 83.2341 123.232 79.6637 119.282 76.0768C119.249 76.1656 119.25 76.2304 119.251 76.287V76.287V76.287C119.252 76.3026 119.252 76.3176 119.252 76.3322V94.687L119.252 94.7118L119.252 94.7404V94.7409C119.253 94.7755 119.253 94.8096 119.252 94.8436C119.248 94.9302 119.286 94.9652 119.37 94.961C119.406 94.9596 119.44 94.9601 119.474 94.9606C119.492 94.9608 119.509 94.961 119.526 94.961C119.876 94.961 120.227 94.9613 120.577 94.9615C121.279 94.9619 121.98 94.9624 122.681 94.961C122.727 94.961 122.767 94.9619 122.8 94.9627C122.898 94.9648 122.947 94.9659 122.971 94.9419C122.996 94.9173 122.995 94.8665 122.993 94.7638V94.7637C122.992 94.7292 122.991 94.6889 122.991 94.6417C122.993 92.9659 122.993 91.2895 122.993 89.6129V89.5815C122.993 87.8944 122.993 86.207 122.994 84.5197C122.994 84.5034 122.993 84.4869 122.992 84.47C122.988 84.4077 122.985 84.3408 123.026 84.2663C126.97 87.8367 130.9 91.3968 134.871 94.994V94.6788V76.3693V76.2807C134.871 76.0582 134.871 76.0582 134.66 76.0562H134.572C134.224 76.0562 133.876 76.0559 133.528 76.0557C132.832 76.0552 132.135 76.0548 131.439 76.0562C131.4 76.0564 131.367 76.056 131.338 76.0556C131.244 76.0545 131.196 76.0539 131.172 76.0776C131.146 76.1026 131.147 76.1547 131.148 76.2617V76.2621C131.149 76.2893 131.149 76.3201 131.149 76.3549C131.148 78.0577 131.148 79.76 131.148 81.462C131.148 83.164 131.148 84.8658 131.147 86.5676C131.147 86.5841 131.148 86.6008 131.149 86.6178C131.153 86.6791 131.157 86.7438 131.112 86.8148ZM40.8462 76.0918C40.9135 76.0902 40.9508 76.1334 40.9876 76.1759C40.9988 76.1889 41.0099 76.2018 41.0218 76.2133C41.2028 76.3928 41.3826 76.5746 41.5621 76.756L41.5622 76.756L41.5622 76.756L41.7408 76.9365C43.1344 78.3402 44.5275 79.7438 45.9206 81.1475L45.9208 81.1477L45.9268 81.1538L45.9309 81.1579C47.307 82.5445 48.6831 83.931 50.0597 85.3176C50.0864 85.3445 50.1091 85.3682 50.1288 85.3888C50.1934 85.4562 50.2255 85.4898 50.2575 85.4896C50.2892 85.4895 50.3207 85.4564 50.3834 85.3906C50.4039 85.3691 50.4278 85.3441 50.456 85.3156L50.6365 85.1342L50.6393 85.1314L50.6421 85.1286C53.2475 82.5105 55.8529 79.8925 58.4564 77.2744L59.4735 76.2546C59.4857 76.2428 59.4972 76.2302 59.5089 76.2174L59.5089 76.2174L59.5089 76.2174L59.5089 76.2173C59.5421 76.181 59.5764 76.1435 59.6308 76.1206C59.6639 76.1588 59.6605 76.2044 59.6572 76.2479C59.6562 76.2607 59.6553 76.2733 59.6553 76.2855C59.6566 80.3936 59.6562 84.5017 59.6557 88.6099C59.6555 90.664 59.6553 92.718 59.6553 94.7721C59.6553 94.7845 59.655 94.7968 59.6548 94.8092C59.6544 94.8339 59.6539 94.8586 59.6553 94.8833C59.6573 94.9575 59.6206 94.9905 59.5491 94.9884C59.5192 94.987 59.4903 94.9875 59.461 94.988H59.461H59.461H59.4609H59.4608H59.4606C59.446 94.9882 59.4313 94.9884 59.4163 94.9884H56.1729C56.1606 94.9884 56.1484 94.9882 56.1361 94.988C56.1116 94.9875 56.0871 94.987 56.0626 94.9884C55.9727 94.9946 55.9237 94.9616 55.9278 94.8628C55.9305 94.8228 55.9296 94.7828 55.9287 94.7434C55.9282 94.7239 55.9278 94.7046 55.9278 94.6856V85.4763C55.9278 85.4571 55.9286 85.4379 55.9294 85.4186C55.9322 85.3504 55.9351 85.2806 55.9033 85.2084C55.8298 85.2374 55.7826 85.289 55.7362 85.3397L55.7362 85.3397C55.7233 85.3539 55.7104 85.368 55.697 85.3815C54.8122 86.2729 53.9279 87.1644 53.0437 88.0558L53.0434 88.0561L53.0431 88.0564L53.0428 88.0566C52.18 88.9264 51.3172 89.7962 50.454 90.666C50.4293 90.6909 50.4082 90.7129 50.3899 90.732C50.3276 90.797 50.2964 90.8295 50.2651 90.8296C50.2337 90.8296 50.2023 90.7968 50.1393 90.7311L50.1393 90.7311C50.1206 90.7116 50.0991 90.6892 50.074 90.664L49.9504 90.5394L49.9488 90.5378L49.9447 90.5336C48.2293 88.8052 46.5139 87.0769 44.8004 85.3485C44.7617 85.3094 44.721 85.2714 44.6684 85.2223L44.6682 85.2221C44.6459 85.2013 44.6214 85.1785 44.5941 85.1528V85.4289V94.7062C44.5941 94.7447 44.5949 94.7781 44.5956 94.807C44.5977 94.8907 44.5988 94.9367 44.5765 94.962C44.5492 94.9929 44.4868 94.9928 44.3483 94.9926L44.3102 94.9926H41.0892C41.0702 94.9926 41.0511 94.9918 41.0319 94.9911H41.0318H41.0318H41.0318C40.9706 94.9889 40.9088 94.9866 40.8482 95.007C40.8462 88.6985 40.8462 82.3941 40.8462 76.0918ZM107.973 99.6963C109.064 99.6963 109.734 100.321 109.734 101.213C109.734 101.866 109.36 102.319 108.772 102.525C108.976 102.624 109.164 102.83 109.413 103.226L109.791 103.813H109.086L108.784 103.343C108.458 102.832 108.313 102.743 107.892 102.731H107.25V103.813H106.621V99.6943H107.973V99.6963ZM107.25 102.138H108.027C108.639 102.138 109.139 101.862 109.139 101.215C109.139 100.593 108.637 100.298 108.027 100.298H107.25V102.138ZM43.5933 102.04V101.439H41.5712V100.299H43.5933V99.6976H40.9401V103.816H41.5712V102.04H43.5933ZM51.384 103.814H50.7202L50.3363 103.041H48.351L47.967 103.814H47.3032L49.3436 99.7076L51.384 103.814ZM49.3416 101.047L48.6471 102.444H50.0381L49.3416 101.047ZM56.7045 99.703C57.2702 99.703 57.8238 99.9688 58.1955 100.37L57.7952 100.745C57.5092 100.463 57.0578 100.284 56.7045 100.284H56.6534C56.3062 100.284 55.8425 100.451 55.8425 100.867C55.8425 101.178 56.1346 101.3 56.6024 101.362L56.9802 101.407C57.785 101.506 58.3283 101.815 58.3283 102.6C58.3283 103.35 57.6603 103.809 56.8147 103.815H56.7862C55.9855 103.815 55.4096 103.44 55.1297 102.968L55.5301 102.594C55.7118 102.927 56.1469 103.234 56.7862 103.234H56.8147C57.3335 103.228 57.7114 102.991 57.7114 102.6C57.7114 102.196 57.3928 102.048 56.9006 101.984L56.5227 101.938C55.7404 101.846 55.2257 101.541 55.2257 100.884C55.2257 100.158 55.8711 99.7071 56.6534 99.7009H56.7045V99.703ZM65.3269 102.04V103.816H65.958V99.6976H65.3269V101.441H63.4498V99.6976H62.8208V103.816H63.4498V102.04H65.3269ZM71.8463 103.217V103.816H71.2178V103.217H71.2157V100.299V99.6976H71.8463V100.299V103.217ZM78.7818 103.819C79.9031 103.819 80.816 102.902 80.816 101.765C80.816 100.631 79.9031 99.7105 78.7818 99.7126C77.6605 99.7126 76.7536 100.631 76.7536 101.765C76.7536 102.904 77.6584 103.819 78.7818 103.819ZM78.7818 103.231C77.9893 103.231 77.3684 102.622 77.3684 101.765C77.3684 100.914 77.9893 100.298 78.7818 100.298C79.5742 100.298 80.2013 100.914 80.2013 101.765C80.2013 102.622 79.5742 103.231 78.7818 103.231ZM88.0881 99.7014H87.9598V102.411L84.9449 99.6993V101.16V103.816H85.4392H85.5761V101.117L88.589 103.818V103.812V103.805V102.363V99.7014H88.0881ZM99.8309 102.07V101.438H101.839L101.843 101.465C101.858 101.561 101.873 101.655 101.873 101.755C101.873 102.894 100.96 103.809 99.8372 103.809C98.7135 103.809 97.8066 102.894 97.8066 101.755C97.8066 100.622 98.7135 99.7009 99.8372 99.7009C100.533 99.7009 101.146 100.055 101.514 100.593L101.016 100.912C100.76 100.525 100.331 100.286 99.8372 100.286C99.0445 100.286 98.4216 100.902 98.4216 101.753C98.4216 102.61 99.0445 103.22 99.8372 103.22C100.527 103.22 101.091 102.756 101.226 102.07H100.111H99.8309ZM116.573 103.811C117.697 103.811 118.61 102.896 118.61 101.757C118.61 100.624 117.697 99.7026 116.573 99.7026C115.45 99.7026 114.543 100.624 114.543 101.757C114.543 102.896 115.45 103.811 116.573 103.811ZM116.573 103.224C115.781 103.224 115.16 102.614 115.16 101.757C115.16 100.906 115.781 100.29 116.573 100.29C117.368 100.29 117.995 100.906 117.995 101.757C117.995 102.614 117.366 103.224 116.573 103.224ZM126.585 102.042C126.585 103.181 125.854 103.81 124.943 103.81C124.038 103.81 123.307 103.181 123.307 102.042V99.6993H123.93V102.025C123.93 102.851 124.373 103.218 124.945 103.218C125.521 103.218 125.967 102.851 125.967 102.025V99.6993H126.589V102.042H126.585ZM134.871 101.247C134.871 100.324 134.166 99.6993 133.075 99.6993V99.7014H131.758V103.818H132.387V102.794H133.075C134.164 102.794 134.871 102.176 134.871 101.247ZM134.276 101.244C134.276 101.922 133.729 102.198 133.116 102.198V102.196H132.387V100.297H133.116C133.729 100.297 134.276 100.591 134.276 101.244ZM81.0044 76.3284V85.5171V85.5341C81.0044 88.59 81.0044 91.6479 81.0064 94.7038C81.0064 94.8783 80.996 94.9528 81.0279 94.9837C81.0592 95.0142 81.1314 95.0025 81.2944 95.0025H92.1951C92.2837 95.0025 92.372 95.0028 92.4603 95.003C92.6367 95.0034 92.8128 95.0039 92.9897 95.0025C93.163 95.0025 93.1674 95.0005 93.1674 94.8357C93.1694 93.7746 93.1694 92.7157 93.1674 91.6546C93.1655 91.4837 93.163 91.4836 92.9977 91.4795L92.9976 91.4795C92.9624 91.4781 92.9278 91.4786 92.8935 91.479C92.8764 91.4793 92.8594 91.4795 92.8423 91.4795C91.9724 91.4795 91.1022 91.4797 90.232 91.4799C88.4911 91.4804 86.7499 91.4809 85.0097 91.4795C84.8442 91.4785 84.7716 91.4886 84.7404 91.4574C84.7088 91.4258 84.7196 91.3518 84.7196 91.1807V76.3655C84.7196 76.3436 84.7192 76.3215 84.7187 76.2993C84.7178 76.2546 84.7169 76.2097 84.7196 76.1656C84.7237 76.0791 84.6849 76.0441 84.6011 76.0482C84.5657 76.0496 84.5311 76.0491 84.4969 76.0487C84.4799 76.0484 84.4629 76.0482 84.446 76.0482C84.0953 76.0482 83.7447 76.048 83.3941 76.0477C82.6928 76.0473 81.9916 76.0468 81.2903 76.0482C81.1296 76.0492 81.0583 76.0377 81.027 76.0678C80.9963 76.0973 81.0044 76.1671 81.0044 76.3284Z" fill="#696B6A"/>
<ellipse cx="105.261" cy="85.3066" rx="11.6182" ry="10.4219" fill="#FFD405"/>
</svg>
