<svg width="177" height="177" viewBox="0 0 177 177" fill="none" xmlns="http://www.w3.org/2000/svg">
<rect width="177" height="177" fill="white"/>
<g clip-path="url(#clip0_6911_1596)">
<path fill-rule="evenodd" clip-rule="evenodd" d="M66.4916 56.2101C71.8102 56.1598 77.1282 56.1499 82.4455 56.1803C83.6094 57.4165 84.8972 58.5422 86.0301 59.81C86.8407 60.6499 87.704 61.4442 88.5 62.3016C83.2057 62.2526 77.912 62.2672 72.6189 62.3455C72.6189 67.2552 72.6189 72.1842 72.6189 77.1062C72.6189 77.499 72.6007 77.8953 72.5661 78.2881C70.5916 76.2207 68.588 74.1762 66.4879 72.2246C66.3859 69.9345 66.5699 67.6357 66.375 65.3492C66.4371 65.1298 66.4678 64.9033 66.4661 64.6759C66.4788 61.8545 66.4551 59.0314 66.4916 56.2101Z" fill="black"/>
<path fill-rule="evenodd" clip-rule="evenodd" d="M95.9859 56.1631C100.861 56.2113 105.737 56.27 110.613 56.3393C110.613 61.6058 110.613 66.8687 110.625 72.1333C108.668 74.1338 106.895 76.3211 104.901 78.2881C104.891 73.0093 104.901 67.7323 104.901 62.4535C101.192 62.4183 97.4818 62.3819 93.7711 62.3443C92.5815 62.3337 91.3884 62.3584 90.2021 62.2632C91.1758 61.4313 91.9438 60.3879 92.8523 59.4855C93.862 58.3486 94.9385 57.27 95.9859 56.1631Z" fill="black"/>
<path fill-rule="evenodd" clip-rule="evenodd" d="M66.4152 88.0206C68.3864 85.8286 70.5793 83.8264 72.6232 81.6924C72.7031 86.9923 72.6232 92.294 72.6577 97.5939C77.9372 97.5575 83.218 97.5323 88.5 97.5183C86.5015 99.6593 84.3886 101.69 82.332 103.774C77.0125 103.817 71.693 103.85 66.3753 103.762C66.3716 98.5202 66.4062 93.2696 66.4152 88.0206Z" fill="black"/>
<path fill-rule="evenodd" clip-rule="evenodd" d="M104.905 81.6924C106.896 83.6576 108.64 85.8666 110.612 87.853C110.625 93.1071 110.598 98.3576 110.625 103.61C110.328 103.696 110.019 103.734 109.71 103.721C105.088 103.734 100.467 103.834 95.8454 103.815C94.69 102.491 93.4765 101.221 92.2698 99.9446C91.5629 99.1971 90.8115 98.4831 90.2021 97.6472C95.0923 97.6012 99.9841 97.5818 104.874 97.5517C104.91 92.2606 104.881 86.9729 104.905 81.6924Z" fill="black"/>
<path fill-rule="evenodd" clip-rule="evenodd" d="M66.375 120.612L66.3891 110.625L71.5951 110.646C73.1161 110.646 74.1312 112.271 74.251 113.66C74.2984 114.429 74.0784 115.191 73.6285 115.816C73.1786 116.44 72.5266 116.889 71.7837 117.086C70.7016 117.163 69.6178 117.121 68.5357 117.149L68.511 120.633C67.806 120.647 67.0888 120.633 66.3785 120.612H66.375ZM68.5321 112.538L68.5004 115.168L70.5659 115.184C70.7312 115.182 70.8962 115.168 71.0594 115.141C71.3512 115.081 71.6129 114.92 71.7992 114.687C71.9855 114.453 72.0847 114.162 72.0798 113.863C72.0798 113.31 71.6832 112.695 71.0664 112.612C70.224 112.548 69.3763 112.578 68.5321 112.538ZM105.307 113.103H107.355L108.695 115.048L110.034 113.103H112.082L109.713 116.522L112.327 120.301H110.276L108.689 118.003L107.103 120.301H105.048L107.662 116.522L105.307 113.103ZM75.7384 114.507C76.1336 114.019 76.6505 113.645 77.2365 113.423C78.1771 113.048 79.2249 113.048 80.1655 113.423C80.7514 113.645 81.2678 114.019 81.6618 114.507C82.1691 115.181 82.4444 116.002 82.446 116.847C82.4724 117.731 82.2944 118.753 81.7234 119.461C81.2096 120.11 80.4848 120.558 79.6756 120.725C79.0343 120.874 78.3677 120.874 77.7264 120.725C76.9172 120.558 76.1924 120.11 75.6785 119.461C75.1075 118.754 74.9295 117.736 74.956 116.847C74.9579 116.003 75.2324 115.182 75.7384 114.507V114.507ZM78.6957 114.897C78.3899 114.897 78.0897 114.979 77.8261 115.135C77.5624 115.29 77.3449 115.513 77.1959 115.781C76.6496 116.767 76.8628 118.327 77.8321 118.869C78.1028 118.995 78.3975 119.06 78.6957 119.06C78.9939 119.06 79.2886 118.995 79.5593 118.869C80.5268 118.327 80.7418 116.767 80.1937 115.781C80.045 115.513 79.8278 115.29 79.5645 115.135C79.3011 114.98 79.0012 114.898 78.6957 114.897V114.897ZM91.2649 113.268L97.0243 113.245L97.0102 114.959L95.1139 114.995L95.0857 120.492L93.1471 120.541L93.1841 115.021L91.2561 115.003V113.273L91.2649 113.268ZM84.4269 114.505C85.7945 112.773 88.8593 112.61 90.1863 114.471L88.8963 115.631C88.2389 114.57 86.4378 114.682 85.8897 115.788C85.2182 116.997 85.6923 119.067 87.2996 119.069C87.9252 119.069 88.5332 118.867 88.9086 118.312L90.1423 119.484C89.3051 120.66 87.6943 121.05 86.4096 120.722C85.6004 120.554 84.8755 120.107 84.3617 119.458C83.7907 118.751 83.6127 117.733 83.6391 116.843C83.6408 115.999 83.916 115.177 84.4234 114.503L84.4269 114.505ZM101.568 113.002C102.018 113.029 102.458 113.145 102.863 113.344C104.313 114.04 104.879 115.845 104.714 117.358L99.6326 117.443C99.7101 118.254 100.211 118.745 100.944 118.954C101.376 119.061 101.827 119.058 102.258 118.947C102.688 118.836 103.085 118.619 103.411 118.316C103.679 118.719 103.94 119.125 104.222 119.518C103.297 120.333 102.029 120.667 100.817 120.594C100.252 120.504 99.71 120.307 99.2184 120.015C98.0465 119.293 97.7028 118.171 97.7081 116.845C97.7081 114.516 99.1955 112.856 101.559 113.002H101.568ZM99.6555 116.184L102.988 116.092C102.852 115.198 102.329 114.501 101.302 114.549C100.357 114.583 99.6115 115.166 99.652 116.182L99.6555 116.184Z" fill="black"/>
</g>
<defs>
<clipPath id="clip0_6911_1596">
<rect width="45.9519" height="64.6731" fill="white" transform="translate(66.375 56.1631)"/>
</clipPath>
</defs>
</svg>
