<svg width="177" height="177" viewBox="0 0 177 177" fill="none" xmlns="http://www.w3.org/2000/svg">
<rect width="177" height="177" fill="white"/>
<path d="M25.8779 70.2643C25.8976 70.5067 25.996 70.6181 27.4395 72.0204C28.2859 72.8461 29.6507 74.1763 30.4708 74.9758L31.9602 76.424L31.9734 80.4016C31.993 84.3136 31.993 84.3726 31.8553 84.5561C31.6519 84.8313 31.3632 84.9689 30.9039 85.0017C30.5889 85.0214 30.4315 85.0017 30.2543 84.9165C29.9328 84.7592 23.8505 78.7568 23.798 78.5471C23.7783 78.4619 23.7849 78.3702 23.8111 78.3374C23.8373 78.3112 25.1758 79.5825 26.7834 81.1617L29.7031 84.0319L29.7228 80.2181L29.7425 76.4109L28.5418 75.2379C27.8791 74.5957 26.5603 73.2983 25.5958 72.3546C24.6378 71.4176 23.752 70.5526 23.6274 70.4346L23.4043 70.225L23.424 74.4319C23.4305 77.3152 23.4633 78.6978 23.5093 78.8158C23.5749 78.973 29.4145 84.7789 29.8147 85.0869C30.2281 85.4014 30.9104 85.4997 31.4485 85.3228C31.7896 85.2048 32.1964 84.8641 32.2949 84.6085C32.3211 84.5299 32.367 82.6623 32.3933 80.4671L32.4392 76.4764L32.1833 76.2143C32.0455 76.0701 31.3369 75.3755 30.6152 74.6744C29.9 73.9732 28.5287 72.6364 27.5838 71.6994C25.8582 70.0087 25.8582 70.0087 25.8779 70.2643Z" fill="#444444"/>
<path d="M14.2574 79.1765C14.3099 79.242 15.1629 80.1201 16.1536 81.1293C17.151 82.1384 18.5092 83.5145 19.1718 84.196L20.3857 85.4214L24.1978 85.4083L28.0099 85.3886L25.1361 82.4726C23.5548 80.8672 22.2622 79.5369 22.2557 79.5042C22.2557 79.4779 22.341 79.4583 22.4394 79.4583C22.5968 79.4583 22.8462 79.6811 23.9419 80.8147C24.6702 81.5683 26.0612 82.9706 27.0388 83.9405C28.666 85.5656 28.817 85.7359 28.9154 86.057C29.0925 86.614 28.8891 87.3021 28.4889 87.5445C28.3249 87.6363 27.8918 87.6494 24.3422 87.6494H20.3857L19.7296 86.9679C19.0603 86.2667 17.479 84.6547 15.4713 82.6168C14.5396 81.6732 14.3296 81.4897 14.1656 81.4897C14.0606 81.4897 13.9884 81.5159 14.0015 81.5552C14.0147 81.588 14.7298 82.335 15.5959 83.2065C16.462 84.0846 17.8924 85.5328 18.7716 86.4306L20.3791 88.0557L24.2503 88.0491C26.3827 88.0426 28.233 88.0229 28.3577 87.9967C29.0335 87.8787 29.519 87.0007 29.3419 86.1946C29.2238 85.6245 29.3944 85.8277 26.6583 83.0296C23.2727 79.5631 23.0168 79.3141 22.7281 79.1896C22.4591 79.0717 22.2163 79.0651 18.3058 79.0651C14.3755 79.0651 14.1721 79.0717 14.2574 79.1765Z" fill="#444444"/>
<path d="M19.9398 89.4191C19.6839 89.6878 18.2601 91.1425 16.7773 92.6497C15.301 94.1568 14.0806 95.415 14.0675 95.4477C14.0543 95.4871 14.1265 95.5133 14.2315 95.5133C14.448 95.5133 14.4546 95.5067 19.5986 90.2185L20.4385 89.3536H24.4015C28.4958 89.3536 28.5154 89.3536 28.732 89.6157C29.0338 89.9826 29.1191 90.7231 28.9091 91.1425C28.8501 91.2539 27.4131 92.7479 25.7138 94.4451C23.3779 96.7845 22.584 97.5447 22.4659 97.5447C22.3806 97.5447 22.3216 97.5184 22.3347 97.4857C22.3478 97.4529 23.6273 96.1358 25.1757 94.5631C26.7308 92.9839 28.0102 91.6733 28.0168 91.6405C28.0299 91.6077 26.4027 91.5815 24.244 91.5815H20.445L19.428 92.6103C18.8703 93.1804 17.4728 94.6024 16.318 95.7754L14.2184 97.9051L18.3454 97.9247C22.0722 97.9378 22.5053 97.9313 22.7677 97.8264C23.0302 97.7281 24.5459 96.2275 28.7713 91.8764C29.2634 91.3784 29.4209 91.0245 29.4209 90.4675C29.4275 89.9433 29.2897 89.6026 28.9419 89.2749C28.732 89.0783 28.6204 89.0259 28.3383 88.9997C28.1546 88.98 26.2912 88.9538 24.2047 88.9473L20.4122 88.9276L19.9398 89.4191Z" fill="#444444"/>
<path d="M30.5823 91.6138C30.4248 91.6532 30.1886 91.7449 30.0508 91.817C29.8278 91.9349 28.4499 93.2586 25.0643 96.6137C23.8635 97.8063 23.6208 98.075 23.5355 98.3305C23.4502 98.5861 23.437 99.1955 23.4502 102.708L23.4699 106.79L24.3294 105.952C27.7675 102.61 29.7884 100.565 29.8212 100.388C29.8409 100.283 29.8409 98.5664 29.8146 96.5744L29.7687 92.9506L26.8883 95.788C25.307 97.3476 23.9751 98.632 23.9291 98.6451C23.8832 98.6582 23.8438 98.5992 23.8504 98.5009C23.8504 98.3764 24.5131 97.6818 26.967 95.2703C28.6795 93.5863 30.1493 92.1643 30.2411 92.1184C30.6939 91.8694 31.455 91.9743 31.8158 92.3347L32.0324 92.5509V96.5809V100.604L31.6584 100.958C31.4484 101.148 30.4117 102.144 29.3488 103.173C25.6548 106.764 25.95 106.463 25.9107 106.744L25.8713 107L26.5734 106.319C27.282 105.637 28.6402 104.313 31.1269 101.889L32.4785 100.572L32.4457 96.5482L32.4129 92.5312L32.2554 92.256C32.0652 91.9218 31.7437 91.7187 31.2516 91.6138C30.9629 91.5549 30.8054 91.5549 30.5823 91.6138Z" fill="#444444"/>
<path d="M45.6686 87.5809C45.9245 87.3122 47.3483 85.8575 48.8311 84.3503C50.3074 82.8432 51.5278 81.585 51.5409 81.5523C51.5541 81.5129 51.4819 81.4867 51.3769 81.4867C51.1604 81.4867 51.1538 81.4933 46.0098 86.7815L45.1699 87.6464H41.2069C37.1126 87.6464 37.093 87.6464 36.8764 87.3843C36.5746 87.0174 36.4893 86.2769 36.6993 85.8575C36.7583 85.7461 38.1953 84.2521 39.8946 82.5549C42.2305 80.2155 43.0244 79.4553 43.1425 79.4553C43.2278 79.4553 43.2868 79.4816 43.2737 79.5143C43.2606 79.5471 41.9811 80.8642 40.4327 82.4369C38.8776 84.0161 37.5982 85.3267 37.5916 85.3595C37.5785 85.3923 39.2057 85.4185 41.3644 85.4185H45.1634L46.1804 84.3897C46.7381 83.8196 48.1356 82.3976 49.2904 81.2246L51.39 79.0949L47.263 79.0753C43.5362 79.0622 43.1031 79.0687 42.8407 79.1736C42.5782 79.2719 41.0625 80.7725 36.8371 85.1236C36.345 85.6216 36.1875 85.9755 36.1875 86.5325C36.1809 87.0567 36.3187 87.3974 36.6665 87.7251C36.8764 87.9217 36.988 87.9741 37.2701 88.0003C37.4538 88.02 39.3172 88.0462 41.4037 88.0527L45.1962 88.0724L45.6686 87.5809Z" fill="#9DC305"/>
<path d="M35.0261 85.3862C35.1836 85.3468 35.4198 85.2551 35.5576 85.183C35.7806 85.0651 37.1585 83.7414 40.5441 80.3863C41.7449 79.1937 41.9876 78.925 42.0729 78.6695C42.1582 78.4139 42.1714 77.8045 42.1582 74.2921L42.1385 70.2097L41.279 71.0485C37.8409 74.3904 35.82 76.4349 35.7872 76.6119C35.7675 76.7167 35.7675 78.4336 35.7938 80.4256L35.8397 84.0494L38.7201 81.212C40.3014 79.6524 41.6333 78.368 41.6793 78.3549C41.7252 78.3418 41.7645 78.4008 41.758 78.4991C41.758 78.6236 41.0953 79.3182 38.6414 81.7297C36.9289 83.4137 35.4591 84.8357 35.3673 84.8816C34.9145 85.1306 34.1534 85.0257 33.7926 84.6653L33.576 84.4491V80.4191V76.3956L33.95 76.0418C34.16 75.8517 35.1967 74.8557 36.2596 73.8269C39.9536 70.2359 39.6584 70.5373 39.6977 70.2556L39.7371 70L39.035 70.6815C38.3264 71.363 36.9682 72.6867 34.4815 75.1112L33.1299 76.4284L33.1627 80.4518L33.1955 84.4688L33.353 84.744C33.5432 85.0782 33.8647 85.2813 34.3568 85.3862C34.6455 85.4451 34.803 85.4451 35.0261 85.3862Z" fill="#9DC305"/>
<path d="M39.8402 88.893C37.4125 88.9192 37.0254 88.9388 36.8548 89.0371C36.2249 89.3779 35.9428 90.2429 36.2052 91.003C36.3102 91.2979 36.4939 91.5207 37.5109 92.5626C41.264 96.4091 42.4582 97.6017 42.6616 97.7131C42.8781 97.8311 43.1143 97.8376 47.1232 97.8573L51.3553 97.877L50.2399 96.7433C49.6231 96.1208 48.2124 94.6857 47.0904 93.5521L45.063 91.501L41.2771 91.5207L37.4847 91.5469L38.0227 92.1039C38.8101 92.9164 38.8298 92.9361 41.1525 95.2886C43.1865 97.3396 43.2783 97.4445 43.088 97.4641C42.9043 97.4903 42.6616 97.2544 39.7943 94.3515C37.3666 91.9007 36.6711 91.1603 36.5858 90.9375C36.4546 90.5967 36.4939 90.1315 36.6908 89.7514C36.9335 89.2665 36.7433 89.2861 41.1393 89.2861H45.063L46.2768 90.5115C47.9368 92.1891 50.089 94.3908 50.6401 94.974C51.0535 95.4131 51.1125 95.4524 51.3159 95.4327C51.5587 95.4131 51.7424 95.6031 46.3031 90.0856C45.6929 89.4631 45.1811 88.9257 45.168 88.893C45.1549 88.8536 44.6431 88.834 43.8885 88.8405C43.193 88.8471 41.3755 88.8733 39.8402 88.893Z" fill="#444444"/>
<path d="M34.1383 91.5729C33.8103 91.6581 33.4035 91.9726 33.2526 92.2675C33.1213 92.5165 33.1213 92.6476 33.0951 96.5269L33.0688 100.524L34.6304 102.038C35.4965 102.877 36.9663 104.312 37.9045 105.229C39.5645 106.848 39.6105 106.894 39.6302 106.69C39.6564 106.468 39.4596 106.271 35.1947 102.13L33.5413 100.524L33.4953 96.6252C33.456 93.0604 33.4625 92.7065 33.5675 92.4903C33.7643 92.0709 34.427 91.8481 35.07 91.9792C35.4047 92.0513 35.4572 92.0971 38.5803 95.2032C40.9227 97.5426 41.7429 98.3944 41.7429 98.5058C41.7429 98.591 41.7232 98.6566 41.6904 98.6566C41.6642 98.6566 40.3256 97.3656 38.7247 95.7798C37.1172 94.2006 35.7852 92.9162 35.759 92.9293C35.7327 92.949 35.7262 94.6593 35.7459 96.7431L35.7787 100.524L38.9084 103.617C40.8177 105.498 42.0578 106.677 42.0841 106.631C42.1103 106.592 42.1169 104.725 42.0972 102.49C42.071 99.1808 42.0447 98.3748 41.966 98.1585C41.9004 97.962 41.6379 97.6671 41.0015 97.0446C40.529 96.5793 39.1315 95.2163 37.9045 94.0106C36.3823 92.5165 35.5884 91.7826 35.3981 91.704C35.0832 91.5598 34.4533 91.4943 34.1383 91.5729Z" fill="#444444"/>
<path d="M61.5059 88.4823V96.8867L64.6872 96.8538C68.1056 96.8209 68.5403 96.7879 69.5283 96.452C70.2726 96.1951 70.7073 95.9119 71.3198 95.2994C72.1497 94.4563 72.5647 93.5671 72.7096 92.2959C72.9599 90.0433 71.9192 87.8565 70.2001 87.0135C69.2253 86.5326 68.5337 86.4207 66.2021 86.3548L64.6674 86.3153V84.6752V83.0418H68.1583H71.6492V81.5598V80.0778H66.5775H61.5059V88.4823ZM67.8553 89.5559C68.5205 89.7337 68.9684 90.0169 69.2451 90.4451C69.9235 91.4726 69.5876 92.8557 68.5074 93.4881C68.1056 93.7252 67.3877 93.8371 65.9386 93.8898L64.6674 93.9294V91.6372V89.3517L66.0045 89.3846C67.0847 89.4044 67.4338 89.4373 67.8553 89.5559Z" fill="#444444"/>
<path d="M75.0078 88.4752V96.873H79.5525H84.0973V95.3911V93.9091H81.1333H78.1694V91.9331V89.9572H81.0016H83.8338V88.4752V86.9932H81.0016H78.1694V85.0172V83.0413H81.1333H84.0973V81.5593V80.0773H79.5525H75.0078V88.4752Z" fill="#444444"/>
<path d="M92.3374 80.2222C92.3044 80.3078 90.7434 84.0358 88.8728 88.5081C86.9957 92.9804 85.4478 96.6952 85.4346 96.7545C85.4017 96.8665 85.5137 96.873 87.0681 96.873H88.7411L91.1781 90.6487C92.5152 87.2237 93.6217 84.4244 93.6481 84.4244C93.6744 84.4244 95.5121 89.0943 98.2982 96.2605L98.5353 96.873H100.215C101.789 96.873 101.894 96.8665 101.855 96.7545C101.829 96.6952 100.248 92.9145 98.3443 88.3566L94.8798 80.0773H93.6349C92.4098 80.0773 92.39 80.0773 92.3374 80.2222Z" fill="#444444"/>
<path d="M103.527 88.4752V96.873H105.108H106.689V93.178V89.4829L109.277 93.1582L111.873 96.8401L113.769 96.8599C115.291 96.873 115.653 96.8599 115.601 96.794C114.988 96.0102 109.389 88.3632 109.389 88.3105C109.389 88.271 110.799 86.4004 112.511 84.161L115.64 80.0773H113.75L111.859 80.0839L109.291 83.667L106.722 87.2567L106.702 83.667L106.689 80.0773H105.108H103.527V88.4752Z" fill="#444444"/>
<path d="M117.426 88.4752V96.873H119.007H120.587V93.3492V89.8254H123.584H126.581V93.3492V96.873H128.162H129.743V88.4752V80.0773H128.162H126.581V83.4694V86.8615H123.584H120.587V83.4694V80.0773H119.007H117.426V88.4752Z" fill="#444444"/>
<path d="M132.772 88.4752V96.873H134.353H135.934V88.4752V80.0773H134.353H132.772V88.4752Z" fill="#444444"/>
<path d="M139.029 88.4752V96.873H140.61H142.191V89.9572V83.0413H145.056H147.921V81.5593V80.0773H143.475H139.029V88.4752Z" fill="#444444"/>
<path d="M153.394 80.1893C153.309 80.354 146.531 96.6162 146.492 96.7545C146.459 96.8665 146.571 96.873 148.165 96.873H149.877L150.806 94.7127L151.735 92.5589L154.738 92.5391L157.735 92.5259L157.801 92.6906C157.834 92.7762 158.236 93.7576 158.697 94.8641L159.533 96.873H161.239C162.846 96.873 162.952 96.8665 162.912 96.7545C162.886 96.6952 161.305 92.9145 159.395 88.3632L155.924 80.0773H154.692C153.585 80.0773 153.454 80.0905 153.394 80.1893ZM155.588 87.0196C156.069 88.383 156.451 89.5093 156.431 89.529C156.411 89.5488 155.614 89.562 154.659 89.562C153.388 89.562 152.927 89.5422 152.927 89.4829C152.927 89.3644 154.659 84.4837 154.685 84.5167C154.705 84.5298 155.107 85.6561 155.588 87.0196Z" fill="#444444"/>
</svg>
