<svg width="177" height="177" viewBox="0 0 177 177" fill="none" xmlns="http://www.w3.org/2000/svg">
<rect width="177" height="177" fill="white"/>
<g clip-path="url(#clip0_6912_1580)">
<path fill-rule="evenodd" clip-rule="evenodd" d="M15 70H162.022V107.839H15V70Z" fill="#50F000"/>
<path d="M86.2783 78.9105H68.4578V83.3658H75.14V98.9293H79.5958V83.3658H86.2783V78.9105ZM136.627 80.1733C137.552 79.3233 138.881 78.9102 140.349 78.9102C143.38 78.9102 145.023 78.9102 148.054 78.9102C149.522 78.9102 150.851 79.3233 151.776 80.1733C152.603 80.9342 153.112 82.051 153.112 83.543V98.9293H148.657C148.657 96.3309 148.657 94.8744 148.657 92.2761C145.224 92.2761 143.179 92.2761 139.746 92.2761C139.746 94.8744 139.746 96.3309 139.746 98.9293H135.291V83.543C135.291 82.051 135.8 80.9342 136.627 80.1733ZM139.746 83.3573V87.8207C143.179 87.8207 145.224 87.8207 148.657 87.8207V83.3573C145.224 83.3573 143.179 83.3573 139.746 83.3573ZM90.7339 98.9293H86.2783V94.4742H90.7339H95.1838V91.1339H108.555V86.6791H95.1838V83.3658H108.555V78.9105H95.7923C94.324 78.9105 92.9952 79.3236 92.0699 80.1738C91.2428 80.9342 90.7339 82.0515 90.7339 83.5435V94.4742V98.9293ZM130.835 83.3658V88.1367C130.835 89.3111 130.348 90.3486 129.572 91.0912C128.801 91.8293 127.742 92.2761 126.591 92.2761H126.488L130.835 97.4536V98.9293H126.443L120.86 92.2761H117.466C117.466 94.4908 117.466 96.7147 117.466 98.9293H113.01V78.9105H126.36C128.873 78.9105 130.835 80.939 130.835 83.3658ZM117.466 83.3658V87.8207H126.38V83.3658H117.466ZM64.0026 83.3658H50.6312V86.6791H64.0026V91.1342H50.6312V94.4821H64.0026V98.9293H51.2397C49.7719 98.9293 48.4428 98.5159 47.5178 97.6662C46.69 96.9057 46.1811 95.7883 46.1811 94.2962V78.9105H64.0026V83.3658ZM28.3652 86.4937V83.3658H37.2699V86.6791H28.3652V86.4937ZM40.2254 88.92C40.983 88.3039 41.7252 87.5392 41.7219 86.4955L41.7252 83.3613C41.6846 81.9276 41.1598 80.8534 40.3315 80.1222C39.4096 79.3075 38.5227 78.9112 37.0843 78.9112L23.9102 78.9105V98.9293H37.1052C38.3542 98.9257 39.2006 98.5327 40.1506 97.7795C41.0913 97.0344 41.724 95.9312 41.724 94.4992L41.7223 91.325C41.7252 90.2986 41.0157 89.5067 40.2254 88.92ZM28.3652 94.2962V91.1339H37.2699V94.4821H28.3652V94.2962ZM108.555 94.4742H95.1838V98.9293H108.555V94.4742Z" fill="black"/>
</g>
<defs>
<clipPath id="clip0_6912_1580">
<rect width="147.19" height="38" fill="white" transform="translate(15 70)"/>
</clipPath>
</defs>
</svg>
