<svg width="177" height="177" viewBox="0 0 177 177" fill="none" xmlns="http://www.w3.org/2000/svg">
<rect width="177" height="177" fill="white"/>
<g clip-path="url(#clip0_6911_1573)">
<path fill-rule="evenodd" clip-rule="evenodd" d="M115.532 88.5018C115.532 93.5516 113.966 98.4879 111.033 102.687C108.099 106.885 103.93 110.158 99.0524 112.09C94.1745 114.022 88.8071 114.527 83.629 113.542C78.4509 112.557 73.6946 110.124 69.9617 106.553C66.2287 102.982 63.6868 98.4328 62.6574 93.4799C61.6279 88.5271 62.1572 83.3935 64.1783 78.7283C66.1994 74.0632 69.6215 70.0761 74.0118 67.2713C78.4021 64.4664 83.5635 62.9698 88.8431 62.9707C95.9218 62.9719 102.71 65.6623 107.715 70.4502C112.72 75.2381 115.532 81.7313 115.532 88.5018V88.5018Z" fill="#FB9C00"/>
<path fill-rule="evenodd" clip-rule="evenodd" d="M77.2204 69.6305C77.2204 69.2672 77.1078 68.912 76.8968 68.61C76.6857 68.3079 76.3858 68.0724 76.0349 67.9334C75.6839 67.7944 75.2978 67.758 74.9252 67.8289C74.5527 67.8998 74.2105 68.0747 73.9419 68.3316C73.6733 68.5885 73.4904 68.9158 73.4163 69.2721C73.3422 69.6284 73.3802 69.9978 73.5256 70.3334C73.6709 70.6691 73.9171 70.956 74.2329 71.1578C74.5488 71.3597 74.9201 71.4674 75.2999 71.4674C75.8093 71.4674 76.2978 71.2739 76.6579 70.9294C77.0181 70.5849 77.2204 70.1177 77.2204 69.6305ZM89.226 72.422C88.8549 72.3489 88.4693 72.3826 88.1182 72.5191C87.7671 72.6555 87.4662 72.8885 87.2535 73.1886C87.0409 73.4886 86.9261 73.8423 86.9236 74.2048C86.9211 74.5673 87.0311 74.9223 87.2397 75.225C87.4482 75.5276 87.7459 75.7644 88.0952 75.9052C88.4444 76.046 88.8295 76.0845 89.2016 76.016C89.5738 75.9475 89.9163 75.7749 90.1859 75.5201C90.4555 75.2653 90.64 74.9398 90.7161 74.5847C90.8181 74.1089 90.7184 73.6139 90.439 73.2084C90.1596 72.8029 89.7234 72.52 89.226 72.422V72.422ZM89.226 68.1736C88.8551 68.1007 88.4698 68.1345 88.1189 68.271C87.768 68.4074 87.4673 68.6402 87.2547 68.94C87.0421 69.2398 86.9272 69.5932 86.9245 69.9555C86.9218 70.3177 87.0315 70.6726 87.2396 70.9753C87.4477 71.278 87.745 71.5148 88.0938 71.656C88.4426 71.7972 88.8273 71.8363 89.1994 71.7684C89.5714 71.7005 89.9141 71.5286 90.184 71.2745C90.454 71.0204 90.6391 70.6955 90.7161 70.3408C90.7673 70.1049 90.7693 69.8617 90.7221 69.625C90.6749 69.3884 90.5794 69.163 90.441 68.9617C90.3026 68.7604 90.124 68.5872 89.9155 68.4519C89.7071 68.3167 89.4728 68.2221 89.226 68.1736V68.1736ZM89.226 63.9252C88.8551 63.8523 88.4698 63.8862 88.1189 64.0226C87.768 64.159 87.4673 64.3918 87.2547 64.6916C87.0421 64.9915 86.9272 65.3448 86.9245 65.7071C86.9218 66.0693 87.0315 66.4242 87.2396 66.7269C87.4477 67.0296 87.745 67.2665 88.0938 67.4076C88.4426 67.5488 88.8273 67.5879 89.1994 67.52C89.5714 67.4521 89.9141 67.2802 90.184 67.0261C90.454 66.772 90.6391 66.4471 90.7161 66.0924C90.8182 65.6161 90.7186 65.1205 90.4393 64.7143C90.16 64.3081 89.7237 64.0243 89.226 63.9252V63.9252ZM93.928 76.8424C94.2989 76.7687 94.6386 76.5916 94.9042 76.3334C95.1699 76.0752 95.3496 75.7475 95.4206 75.3916C95.4916 75.0358 95.4507 74.6678 95.3031 74.3342C95.1555 74.0006 94.9078 73.7163 94.5914 73.5172C94.2749 73.3182 93.9039 73.2133 93.5251 73.2159C93.1464 73.2184 92.7769 73.3283 92.4635 73.5317C92.15 73.735 91.9066 74.0226 91.7639 74.3582C91.6213 74.6938 91.5859 75.0623 91.6622 75.4172C91.7658 75.8932 92.0624 76.3105 92.4872 76.5776C92.9119 76.8448 93.43 76.94 93.928 76.8424V76.8424ZM95.3471 72.8247C95.7179 72.7513 96.0575 72.5745 96.3233 72.3165C96.589 72.0586 96.7689 71.7312 96.8402 71.3756C96.9116 71.0199 96.8711 70.6521 96.724 70.3184C96.5769 69.9847 96.3298 69.7003 96.0137 69.5008C95.6977 69.3014 95.327 69.1961 94.9484 69.198C94.5698 69.2 94.2003 69.3092 93.8866 69.5118C93.5728 69.7145 93.3289 70.0015 93.1855 70.3367C93.0422 70.6719 93.0059 71.0401 93.0813 71.395C93.1838 71.8718 93.48 72.2902 93.9049 72.5583C94.3297 72.8264 94.8485 72.9222 95.3471 72.8247ZM96.7662 68.8025C97.1375 68.7297 97.4778 68.5532 97.7442 68.2954C98.0106 68.0375 98.191 67.7099 98.2627 67.354C98.3344 66.998 98.294 66.6297 98.1468 66.2957C97.9996 65.9617 97.7521 65.6769 97.4357 65.4774C97.1192 65.278 96.748 65.1728 96.369 65.1751C95.99 65.1775 95.6203 65.2873 95.3066 65.4907C94.9928 65.6941 94.7493 65.9819 94.6066 66.3177C94.4639 66.6535 94.4286 67.0223 94.5051 67.3773C94.5529 67.6143 94.6498 67.8397 94.7901 68.0403C94.9303 68.2409 95.1111 68.4127 95.3218 68.5455C95.5325 68.6783 95.7688 68.7694 96.0169 68.8136C96.2649 68.8577 96.5197 68.8539 96.7662 68.8025ZM97.9677 75.1367C97.5879 75.1367 97.2166 75.2444 96.9007 75.4462C96.5849 75.6481 96.3388 75.935 96.1934 76.2706C96.048 76.6063 96.01 76.9756 96.0841 77.3319C96.1582 77.6882 96.3411 78.0155 96.6097 78.2724C96.8783 78.5293 97.2205 78.7043 97.593 78.7752C97.9656 78.846 98.3517 78.8097 98.7027 78.6706C99.0536 78.5316 99.3536 78.2962 99.5646 77.9941C99.7756 77.692 99.8882 77.3369 99.8882 76.9736C99.8889 76.7322 99.8396 76.493 99.7433 76.2699C99.647 76.0468 99.5056 75.844 99.3271 75.6733C99.1487 75.5027 98.9367 75.3674 98.7034 75.2753C98.4701 75.1832 98.2201 75.1361 97.9677 75.1367V75.1367ZM100.191 71.4719C100.571 71.4728 100.942 71.5817 101.256 71.7846C101.571 71.9875 101.816 72.2753 101.96 72.6115C102.103 72.9477 102.139 73.3172 102.063 73.6729C101.986 74.0287 101.801 74.3547 101.531 74.6096C101.26 74.8645 100.917 75.0367 100.544 75.1045C100.171 75.1722 99.7848 75.1324 99.4355 74.9901C99.0861 74.8479 98.7889 74.6095 98.5815 74.3053C98.374 74.0011 98.2658 73.6448 98.2705 73.2817C98.2767 72.7988 98.4819 72.3379 98.8416 71.999C99.2012 71.6601 99.6861 71.4707 100.191 71.4719V71.4719ZM102.41 67.8026C102.029 67.8017 101.657 67.9088 101.341 68.1103C101.024 68.3118 100.777 68.5987 100.631 68.9345C100.485 69.2703 100.447 69.64 100.521 69.9968C100.595 70.3535 100.778 70.6812 101.047 70.9384C101.316 71.1956 101.658 71.3706 102.031 71.4413C102.404 71.5121 102.791 71.4753 103.142 71.3357C103.493 71.1961 103.793 70.96 104.004 70.6572C104.214 70.3545 104.326 69.9987 104.325 69.635C104.325 69.3944 104.276 69.1561 104.179 68.9338C104.083 68.7115 103.942 68.5095 103.764 68.3393C103.586 68.1692 103.375 68.0342 103.143 67.9421C102.91 67.85 102.661 67.8026 102.41 67.8026V67.8026ZM82.2914 74.6842C82.2158 75.0393 82.252 75.4078 82.3953 75.7432C82.5387 76.0786 82.7828 76.3658 83.0968 76.5685C83.4108 76.7712 83.7806 76.8804 84.1594 76.8821C84.5383 76.8838 84.9091 76.7781 85.2252 76.5783C85.5412 76.3785 85.7882 76.0935 85.9349 75.7595C86.0816 75.4254 86.1215 75.0572 86.0495 74.7015C85.9775 74.3458 85.7969 74.0184 85.5304 73.7609C85.2639 73.5033 84.9236 73.3271 84.5525 73.2545C84.3056 73.2031 84.0505 73.1995 83.8022 73.244C83.5539 73.2884 83.3174 73.3799 83.1066 73.5132C82.8959 73.6464 82.7152 73.8187 82.5751 74.0198C82.4351 74.221 82.3386 74.4469 82.2914 74.6842ZM80.8723 70.662C80.796 71.0169 80.8314 71.3854 80.974 71.721C81.1167 72.0566 81.3601 72.3442 81.6736 72.5475C81.987 72.7509 82.3565 72.8608 82.7352 72.8633C83.114 72.8659 83.485 72.761 83.8015 72.562C84.1179 72.363 84.3656 72.0786 84.5132 71.745C84.6608 71.4114 84.7016 71.0434 84.6307 70.6876C84.5597 70.3317 84.38 70.004 84.1143 69.7458C83.8487 69.4876 83.509 69.3105 83.1381 69.2369C82.6401 69.1392 82.122 69.2344 81.6972 69.5016C81.2725 69.7687 80.9758 70.186 80.8723 70.662ZM80.9621 68.807C81.3333 68.8802 81.7189 68.8464 82.07 68.71C82.4211 68.5735 82.722 68.3405 82.9347 68.0405C83.1473 67.7404 83.2621 67.3868 83.2646 67.0243C83.2671 66.6618 83.1571 66.3068 82.9485 66.0041C82.74 65.7014 82.4422 65.4647 82.093 65.3239C81.7438 65.1831 81.3587 65.1445 80.9866 65.2131C80.6144 65.2816 80.2719 65.4542 80.0023 65.709C79.7327 65.9637 79.5482 66.2893 79.4721 66.6444C79.3714 67.12 79.4716 67.6144 79.7508 68.0196C80.03 68.4248 80.4655 68.7079 80.9621 68.807V68.807ZM81.6764 76.9736C81.6764 76.6111 81.5641 76.2569 81.3536 75.9555C81.143 75.6542 80.8438 75.4194 80.4938 75.2807C80.1437 75.142 79.7585 75.1057 79.3869 75.1764C79.0153 75.2471 78.6739 75.4216 78.406 75.6779C78.138 75.9341 77.9556 76.2606 77.8817 76.6161C77.8077 76.9715 77.8457 77.3399 77.9907 77.6748C78.1357 78.0096 78.3812 78.2958 78.6963 78.4971C79.0113 78.6985 79.3817 78.8059 79.7606 78.8059C80.2687 78.8059 80.756 78.6129 81.1153 78.2692C81.4746 77.9256 81.6764 77.4595 81.6764 76.9736V76.9736ZM79.4579 73.3043C79.4635 73.6689 79.3556 74.0268 79.1478 74.3326C78.94 74.6383 78.6418 74.878 78.2911 75.021C77.9404 75.1641 77.5532 75.2041 77.1787 75.136C76.8041 75.0678 76.4593 74.8946 76.188 74.6383C75.9168 74.3821 75.7314 74.0545 75.6555 73.6971C75.5796 73.3398 75.6166 72.9689 75.7618 72.6317C75.9071 72.2946 76.1539 72.0064 76.4709 71.8039C76.788 71.6014 77.1609 71.4937 77.5421 71.4945C77.7906 71.4939 78.0368 71.5402 78.2666 71.6306C78.4964 71.721 78.7053 71.8538 78.8814 72.0214C79.0576 72.189 79.1975 72.3882 79.2931 72.6075C79.3888 72.8269 79.4383 73.0621 79.439 73.2998L79.4579 73.3043Z" fill="#FEFEFE"/>
<path fill-rule="evenodd" clip-rule="evenodd" d="M81.1371 79.0366C80.4226 79.5163 79.7658 80.0701 79.1787 80.688L80.8438 83.6832V108.92C81.6741 109.215 82.5224 109.461 83.384 109.658V83.0724L83.2326 82.8055L81.1371 79.0321V79.0366ZM96.5438 79.0366L94.4435 82.81L94.2969 83.0769V109.848C95.154 109.687 96.0005 109.478 96.8324 109.223V83.6832L98.5022 80.688C97.9129 80.0722 97.2564 79.5186 96.5438 79.0366V79.0366ZM85.2714 77.1907L86.5439 83.3393L86.5675 83.4524V110.173C85.7146 110.09 84.8667 109.965 84.0273 109.798V83.6922L82.8589 78.0548C83.6318 77.6925 84.4398 77.4031 85.2714 77.1907ZM92.4095 77.1907C93.2393 77.404 94.0456 77.6934 94.8172 78.0548L93.6488 83.6922V109.961C92.8092 110.096 91.963 110.191 91.1134 110.246V83.4524L91.137 83.3393L92.4095 77.1907V77.1907ZM87.5703 76.8016V110.255C88.138 110.291 88.7104 110.309 89.2922 110.309C89.5665 110.309 89.8362 110.309 90.1058 110.309V76.8287C89.6895 76.7925 89.2685 76.7744 88.8381 76.7744C88.4076 76.7744 87.9866 76.7654 87.5703 76.8016V76.8016Z" fill="#FCD44D"/>
<path d="M132.75 81.5029H44.25V99.3562H132.75V81.5029Z" fill="#E31E24"/>
<path fill-rule="evenodd" clip-rule="evenodd" d="M57.0838 94.835V89.6094L55.3808 92.7764C55.2703 92.971 55.107 93.1334 54.908 93.2466C54.709 93.3598 54.4818 93.4196 54.2503 93.4196C54.0188 93.4196 53.7916 93.3598 53.5926 93.2466C53.3936 93.1334 53.2303 92.971 53.1197 92.7764L51.4215 89.6094V94.835C51.4215 95.4413 51.4215 96.0476 50.1491 96.0476C48.8766 96.0476 48.8813 95.4413 48.8813 94.835V84.5737C48.8813 83.4291 50.7356 83.0038 51.2796 84.0263L54.2503 89.5822L57.2257 84.0263C57.7697 83.0038 59.624 83.4291 59.624 84.5737V94.835C59.624 95.4413 59.624 96.0476 58.3562 96.0476C57.0885 96.0476 57.0838 95.4413 57.0838 94.835V94.835ZM68.7251 87.6413L64.061 97.8076C63.8056 98.3641 63.5501 98.9206 62.3912 98.4364C61.2323 97.9523 61.4877 97.3958 61.7432 96.8393L63.5501 92.9031L61.0525 87.4965C60.7971 86.9445 60.5416 86.388 61.7006 85.8994C62.8595 85.4107 63.1197 85.9672 63.3751 86.5192L64.9314 89.8899L66.4073 86.673C66.6627 86.1165 66.9181 85.56 68.0771 86.0442C69.236 86.5283 68.9806 87.0848 68.7251 87.6413V87.6413ZM85.0921 87.6413L80.428 97.8076C80.1726 98.3641 79.9171 98.9206 78.7582 98.4364C77.5993 97.9523 77.8547 97.3958 78.1054 96.8393L79.9124 92.9031L77.4195 87.4965C77.1641 86.9445 76.9086 86.388 78.0676 85.8994C79.2265 85.4107 79.4867 85.9672 79.7421 86.5192L81.2937 89.8899L82.7743 86.673C83.0297 86.1165 83.2804 85.56 84.4441 86.0442C85.6077 86.5283 85.3476 87.0848 85.0921 87.6413V87.6413ZM72.0506 84.524V94.8984C72.0506 95.5047 72.0506 96.1109 70.7781 96.1109C69.5056 96.1109 69.5104 95.5047 69.5104 94.8984V84.5149C69.5104 83.9086 69.5104 83.2979 70.7781 83.2979C72.0458 83.2979 72.0506 83.9086 72.0506 84.5149V84.524ZM76.3315 84.524V94.8984C76.3315 95.5047 76.3315 96.1109 75.0638 96.1109C73.7961 96.1109 73.7913 95.5047 73.7913 94.8984V84.5149C73.7913 83.9086 73.7913 83.2979 75.0638 83.2979C76.3363 83.2979 76.3315 83.9086 76.3315 84.5149V84.524ZM85.5699 94.93C85.5699 95.5408 85.5699 96.1471 86.8376 96.1471C88.1054 96.1471 88.1101 95.5408 88.1101 94.93V89.5008C88.1095 89.3723 88.1355 89.245 88.1867 89.1261C88.2378 89.0073 88.3131 88.8994 88.4081 88.8086V88.8086C88.6015 88.6239 88.8633 88.5198 89.1366 88.519C89.2712 88.5193 89.4045 88.545 89.5287 88.5947C89.6529 88.6444 89.7656 88.7171 89.8603 88.8086C89.9568 88.8986 90.0334 89.0062 90.0854 89.1252C90.1374 89.2441 90.1638 89.3719 90.1631 89.5008V94.93C90.1631 95.5408 90.1631 96.1471 91.4308 96.1471C92.6985 96.1471 92.7033 95.5408 92.7033 94.93V89.5008C92.7033 88.8272 92.4947 88.1687 92.1036 87.6085C91.7125 87.0483 91.1565 86.6115 90.506 86.3535C89.8555 86.0954 89.1396 86.0275 88.4487 86.1585C87.7579 86.2895 87.1232 86.6134 86.6248 87.0893C85.9575 87.7295 85.5832 88.5968 85.5841 89.5008V94.93H85.5699ZM110.873 94.93V89.5008C110.872 89.0524 110.965 88.6083 111.145 88.1944C111.325 87.7804 111.589 87.4048 111.923 87.0893V87.0893C112.592 86.4511 113.499 86.0931 114.444 86.0939C115.078 86.0939 115.716 86.0939 115.716 87.3065C115.716 88.519 115.068 88.5009 114.434 88.5009C114.3 88.5012 114.167 88.5269 114.042 88.5766C113.918 88.6263 113.805 88.699 113.711 88.7905V88.7905C113.615 88.8808 113.539 88.9887 113.488 89.1076C113.437 89.2265 113.411 89.3541 113.413 89.4827V94.912C113.413 95.5227 113.413 96.129 112.145 96.129C110.877 96.129 110.877 95.5227 110.877 94.912L110.873 94.93ZM106.752 93.1203V91.9439L105.224 92.419C105.125 92.472 105.037 92.5433 104.967 92.6287C104.896 92.7141 104.844 92.8119 104.813 92.9167C104.725 93.1893 104.725 93.4811 104.813 93.7537C104.897 93.8487 105.009 93.9179 105.135 93.9528V93.9528C105.187 93.9675 105.242 93.9719 105.297 93.9657C105.351 93.9594 105.404 93.9427 105.452 93.9166L106.762 93.1203H106.752ZM106.752 89.3967C106.737 89.1629 106.632 88.9425 106.459 88.7769C106.265 88.5927 106.004 88.4887 105.731 88.4873H105.116C104.482 88.4873 103.848 88.4873 103.848 87.2748C103.848 86.0623 104.482 86.0622 105.116 86.0622H105.726C106.194 86.0617 106.658 86.1493 107.09 86.3203C107.523 86.4912 107.916 86.7421 108.248 87.0585C108.579 87.3749 108.842 87.7507 109.021 88.1643C109.2 88.5779 109.293 89.0213 109.293 89.4691V94.8984C109.293 95.5092 109.293 96.1154 108.02 96.1154C107.839 96.1355 107.655 96.1211 107.48 96.073C107.305 96.0248 107.141 95.9439 106.998 95.8349L106.8 95.9526C106.457 96.1602 106.072 96.2969 105.67 96.3538C105.269 96.4106 104.859 96.3865 104.468 96.2828C103.684 96.081 103.009 95.6045 102.575 94.9481C102.575 94.9481 102.462 94.74 102.462 94.731C102.117 93.8903 102.099 92.9594 102.41 92.1068C102.561 91.67 102.808 91.2691 103.134 90.9312C103.46 90.5933 103.859 90.3262 104.302 90.1478L104.378 90.1206L106.743 89.3832L106.752 89.3967ZM98.3986 88.5009H99.6852C99.9568 88.5005 100.218 88.4001 100.414 88.2204V88.2204C100.602 88.0351 100.707 87.7867 100.707 87.5282V87.0757C100.707 86.8164 100.6 86.5675 100.409 86.3835V86.3835C100.213 86.1998 99.9499 86.0974 99.6758 86.0984H98.3986V88.5009ZM98.3986 90.9305H99.6852C100.153 90.9307 100.616 90.8425 101.048 90.6709C101.48 90.4993 101.872 90.2477 102.202 89.9306V89.9306C102.87 89.2922 103.246 88.4267 103.247 87.5236V87.0712C103.247 86.6239 103.155 86.181 102.976 85.7679C102.796 85.3548 102.533 84.9797 102.202 84.6642V84.6642C101.873 84.3463 101.481 84.0942 101.048 83.9226C100.616 83.7509 100.153 83.6631 99.6852 83.6643H97.1308C96.8011 83.6845 96.4902 83.8185 96.2561 84.0416C96.022 84.2647 95.8807 84.5615 95.8584 84.8769V94.9753C95.8584 95.5816 95.8584 96.1878 97.1308 96.1878C98.4033 96.1878 98.3986 95.5816 98.3986 94.9753V90.9033V90.9305ZM119.212 93.1565V91.9801L117.698 92.4371C117.599 92.4901 117.511 92.5614 117.441 92.6468C117.37 92.7322 117.318 92.83 117.287 92.9348C117.196 93.2071 117.196 93.4995 117.287 93.7718C117.37 93.8657 117.48 93.9348 117.604 93.9709C117.657 93.9857 117.713 93.9901 117.768 93.9839C117.824 93.9777 117.877 93.961 117.925 93.9347L119.236 93.1384L119.212 93.1565ZM119.212 89.4329L116.847 90.1704L116.776 90.1975C116.332 90.3752 115.933 90.642 115.607 90.9801C115.28 91.3181 115.034 91.7193 114.884 92.1566C114.573 93.0089 114.59 93.9392 114.931 94.7807L115.045 94.9979C115.478 95.6537 116.154 96.13 116.937 96.3326V96.3326C117.328 96.4363 117.738 96.4604 118.139 96.4035C118.541 96.3467 118.926 96.21 119.269 96.0023L119.463 95.8847C119.754 96.1024 120.122 96.2031 120.489 96.1652C121.757 96.1652 121.757 95.5589 121.757 94.9481V89.5189C121.758 89.0712 121.667 88.6276 121.488 88.2137C121.31 87.7998 121.048 87.4238 120.717 87.1072C120.386 86.7906 119.992 86.5397 119.56 86.3689C119.127 86.1981 118.663 86.1108 118.195 86.112H117.585C116.951 86.112 116.317 86.112 116.317 87.3246C116.317 88.5371 116.951 88.5371 117.585 88.5371H118.171C118.306 88.5374 118.439 88.5631 118.563 88.6128C118.688 88.6625 118.8 88.7352 118.895 88.8267C119.07 88.9918 119.176 89.2121 119.193 89.4465L119.212 89.4329ZM127.102 88.7135C127.102 88.7135 125.981 88.1073 125.806 88.5371C125.631 88.9669 125.65 89.2022 125.778 89.356C126.147 89.6916 126.605 89.9246 127.102 90.0301C127.723 90.2187 128.26 90.599 128.63 91.1115C128.97 91.5903 129.174 92.1453 129.221 92.7221C129.267 93.2397 129.206 93.7609 129.042 94.2559C128.87 94.8283 128.506 95.3306 128.006 95.6856C127.832 95.8016 127.646 95.9016 127.452 95.9842C126.728 96.2712 125.932 96.3483 125.163 96.2059C124.267 96.0491 123.472 95.5615 122.949 94.8486C122.815 94.6618 122.699 94.4634 122.604 94.2559C122.353 93.6994 122.102 93.1429 123.266 92.6633C124.43 92.1838 124.685 92.7402 124.936 93.2967C124.963 93.3585 124.996 93.4176 125.035 93.4732C125.183 93.6652 125.404 93.7936 125.65 93.8306C125.918 93.8806 126.196 93.8555 126.45 93.7582C126.491 93.7436 126.531 93.7238 126.568 93.6994C126.568 93.6994 126.568 93.6361 126.625 93.532C126.685 93.3386 126.705 93.1355 126.681 92.9348C126.68 92.7755 126.634 92.6194 126.549 92.4824C126.495 92.4158 126.42 92.3669 126.336 92.3421C125.346 92.0976 124.456 91.5742 123.782 90.84C123.1 90.012 122.902 88.976 123.446 87.6503C124.69 84.6099 128.318 86.5871 128.332 86.5916C128.886 86.8857 129.439 87.1798 128.805 88.2385C128.171 89.2972 127.632 88.9895 127.093 88.6954L127.102 88.7135Z" fill="#FEFEFE"/>
</g>
<defs>
<clipPath id="clip0_6911_1573">
<rect width="88.5" height="51.0577" fill="white" transform="translate(44.25 62.9707)"/>
</clipPath>
</defs>
</svg>
