<svg width="177" height="177" viewBox="0 0 177 177" fill="none" xmlns="http://www.w3.org/2000/svg">
<rect width="177" height="177" fill="white"/>
<path d="M138.4 84.6976C139.224 89.2522 136.211 94.0897 130.584 98.3704C130.531 98.4113 130.588 98.4923 130.645 98.4555C135.13 95.5234 139.881 92.237 143.099 87.8735C144.251 86.311 145.223 84.436 145.393 82.4722C145.712 78.8063 143.263 75.6349 140.193 73.9123C138.148 72.7647 135.903 72.0445 133.624 71.529C129.655 70.6253 125.57 70.3387 121.508 70.3924C119.443 70.4192 117.38 70.5307 115.324 70.7259C113.34 70.9143 111.355 71.1631 109.392 71.5058C107.444 71.8461 105.505 72.2219 103.582 72.6888C103.374 72.7397 103.166 72.7907 102.957 72.843C102.895 72.8589 102.911 72.9527 102.976 72.9463C121.611 71.1827 136.816 75.9498 138.4 84.6976Z" fill="#24336B"/>
<path d="M121.728 68.1718C121.664 68.1745 121.651 68.0813 121.714 68.0681C123.149 67.7782 124.591 67.5221 126.036 67.29C128.335 66.9196 130.646 66.6121 132.965 66.3887C136.953 66.0033 141.106 65.773 145.105 66.3432C146.003 66.4719 146.894 66.6498 147.768 66.8964C149.945 67.512 152.178 68.685 152.78 71.0256C153.174 72.5557 152.935 74.1865 152.459 75.6684C151.533 78.5495 149.729 81.1198 147.817 83.428C147.698 83.5718 147.578 83.7142 147.458 83.8561C147.42 83.9007 147.348 83.8593 147.369 83.8038C148.162 81.7163 148.508 79.3466 148.101 77.1385C147.5 73.8812 144.901 71.491 141.981 70.2029C138.438 68.6395 134.538 68.2573 130.707 68.1017C127.716 67.9793 124.718 68.0376 121.728 68.1718Z" fill="#24336B"/>
<path d="M77.8426 98.5204L81.9034 103.879H67.2519L62.6141 110.001H55.8906L76.4898 82.8133L97.0891 110.001H90.3651L76.4898 91.6872L71.3124 98.5204H77.8426ZM105.383 92.7637H110.742V110.001H105.383V92.7637ZM92.0199 84.3498H124.106V89.7088H92.0199V84.3498ZM54.137 102.248C54.137 106.523 50.659 110.001 46.3842 110.001L24 110.001V102.904H29.359V104.642H46.3842C47.706 104.642 48.7775 103.57 48.7775 102.248C48.7775 100.926 47.706 99.8554 46.3842 99.8554H24V94.4959L41.9921 94.4955C43.3134 94.4955 44.385 93.4244 44.385 92.1026C44.385 90.7804 43.3134 89.7093 41.9921 89.7093H29.359V91.4465H24V84.3498H41.9921C46.2668 84.3498 49.7444 87.8279 49.7444 92.1026C49.7444 93.1332 49.5406 94.1164 49.1738 95.0169C52.074 96.1398 54.137 98.9567 54.137 102.248Z" fill="#24336B"/>
</svg>
