<svg width="177" height="177" viewBox="0 0 177 177" fill="none" xmlns="http://www.w3.org/2000/svg">
<rect width="177" height="177" fill="white"/>
<path d="M34.6595 75.2231C33.9988 74.9218 33.3183 74.6472 32.6312 74.4062C31.9441 74.1651 31.2438 73.9508 30.5302 73.7701C29.8101 73.5826 29.0701 73.4285 28.3236 73.3147C27.0352 73.1071 25.7139 73 24.3661 73C23.0315 73 21.7234 73.1071 20.4416 73.308C19.7083 73.4219 18.9816 73.5759 18.268 73.7567C17.5545 73.9375 16.8541 74.145 16.167 74.3861C15.4733 74.6272 14.7994 74.9017 14.1387 75.203C14.0529 75.9597 14.0066 76.723 14 77.4998C14 77.5868 14 77.6739 14 77.7609C14 78.3435 14.0198 78.9261 14.0661 79.5019C14.5021 79.301 14.9382 79.1068 15.3874 78.9261C15.394 78.9261 15.4006 78.9261 15.4073 78.9194C15.579 78.839 15.7508 78.7586 15.9292 78.685C16.5568 78.4105 17.1977 78.1627 17.8518 77.9484C18.5058 77.7341 19.1797 77.5467 19.8603 77.3993C20.4747 77.2587 21.1023 77.1516 21.7366 77.0779H21.7432C23.5865 76.7431 25.4827 76.569 27.4184 76.569C27.9073 76.569 28.3963 76.5824 28.8851 76.6025C29.308 76.6226 29.7308 76.6494 30.1537 76.6895H30.1603C30.4113 76.636 30.669 76.5824 30.92 76.5356C31.2966 76.4686 31.6798 76.4083 32.063 76.3481C32.3207 76.3146 32.5849 76.2744 32.8492 76.2476C33.4769 76.174 34.1045 76.1137 34.7387 76.0802C34.7123 75.7856 34.6859 75.5043 34.6595 75.2231Z" fill="#1A95D3"/>
<path d="M32.8905 78.4482C32.7914 78.4884 32.6922 78.5352 32.5931 78.5754C32.0118 78.8299 31.4436 79.0977 30.882 79.3857C30.8687 79.5731 30.8489 79.754 30.8291 79.9347C30.7498 80.6043 30.6375 81.2605 30.4922 81.9101C30.3468 82.5395 30.1751 83.1622 29.9703 83.7649C29.7654 84.3876 29.521 84.9903 29.2501 85.5796C28.3978 87.4344 27.2483 89.1285 25.874 90.5882C25.405 91.0837 24.916 91.5458 24.4007 91.9877C23.8788 91.5458 23.3766 91.0704 22.901 90.5682C22.0553 89.6709 21.3021 88.6865 20.6481 87.6353C20.212 88.1643 19.7892 88.7133 19.3861 89.2758C18.9831 89.8316 18.6065 90.394 18.2432 90.9699C18.666 91.5592 19.1219 92.1283 19.6041 92.6774C20.0799 93.2198 20.5753 93.7354 21.0973 94.2242C21.6061 94.7063 22.1412 95.1616 22.6962 95.5902C23.2445 96.0188 23.8193 96.4206 24.4073 96.7955C24.9953 96.4206 25.5701 96.0188 26.1185 95.5902C26.6735 95.1616 27.202 94.7063 27.7107 94.2242C28.2261 93.7421 28.7216 93.2332 29.1841 92.6975C30.5582 91.144 31.7144 89.3897 32.6196 87.488C32.9037 86.8853 33.1679 86.2692 33.3992 85.6398C33.6304 85.0171 33.8352 84.381 34.0136 83.7314C34.1986 83.0618 34.3505 82.3788 34.4695 81.6891C34.5884 81.0128 34.6743 80.3231 34.7272 79.6267C34.78 79.0107 34.8064 78.3813 34.8064 77.7518V77.6982C34.1524 77.9326 33.5181 78.1804 32.8905 78.4482Z" fill="#1FA654"/>
<path d="M34.7981 77.5271V77.4267C34.7915 76.9713 34.7717 76.516 34.7386 76.0674C34.1044 76.1076 33.4701 76.1611 32.8491 76.2348C32.5848 76.2682 32.3205 76.3018 32.0629 76.3352C31.6796 76.3888 31.2965 76.4557 30.9199 76.5227C30.6622 76.5696 30.4111 76.6165 30.1601 76.6767C29.7438 76.7638 29.3276 76.8575 28.918 76.958C28.6009 77.0383 28.2904 77.1187 27.9798 77.2057C26.4537 77.6409 24.9803 78.1834 23.5599 78.8262H23.5533C22.364 79.3619 21.2277 79.9712 20.1177 80.6475C19.5033 81.0225 18.215 81.9198 18.1621 81.9399C17.6336 82.3148 17.1249 82.7099 16.6227 83.1184C16.081 83.5603 15.5524 84.0157 15.0371 84.4911C15.156 84.866 15.2816 85.2411 15.4137 85.6026C15.6449 86.2321 15.9092 86.8481 16.1867 87.4507C16.7747 88.6895 17.4684 89.8613 18.2546 90.9595C18.618 90.3836 19.0012 89.8145 19.3976 89.2654C19.8006 88.7029 20.2234 88.1538 20.6595 87.6249C21.1088 87.0758 21.5713 86.5534 22.0535 86.0379C22.4896 85.5758 22.9322 85.1272 23.3947 84.692C24.1082 84.009 24.8614 83.3594 25.641 82.7501C26.3678 82.1809 27.1143 81.6385 27.8873 81.1296C28.1516 80.9555 28.4225 80.7814 28.6934 80.614C29.2021 80.2993 29.7174 79.998 30.246 79.7167C30.464 79.5962 30.682 79.4824 30.9001 79.3686C31.4616 79.0806 32.0298 78.8128 32.6112 78.5583C32.7103 78.5114 32.8094 78.4713 32.9085 78.4311C33.5362 78.1633 34.1704 77.9155 34.8179 77.6878C34.7981 77.6477 34.7981 77.5874 34.7981 77.5271Z" fill="#E3322A"/>
<path d="M44.7959 80.0861V82.0146H45.6482C46.5071 82.0146 47.2735 82.0816 47.9474 82.2154C48.6213 82.3494 49.1895 82.5704 49.6519 82.8784C50.1144 83.1797 50.4646 83.5748 50.7156 84.0636C50.9601 84.5457 51.0856 85.1417 51.0856 85.8381C51.0856 87.1371 50.6231 88.1081 49.6916 88.7441C48.76 89.3803 47.4321 89.7017 45.7077 89.7017C45.2386 89.7017 44.71 89.6749 44.1154 89.6147C43.5208 89.5611 42.9196 89.454 42.3184 89.3067V77.8496H49.9889V80.0861H44.7959ZM45.8266 87.4518C46.1701 87.4518 46.5005 87.4318 46.811 87.3849C47.1215 87.338 47.399 87.2576 47.6369 87.1371C47.8747 87.0166 48.0663 86.8559 48.2117 86.655C48.357 86.4541 48.4297 86.1862 48.4297 85.8581C48.4297 85.5166 48.3636 85.2421 48.2315 85.0278C48.0994 84.8135 47.9077 84.6461 47.6633 84.5189C47.4188 84.3917 47.1149 84.3113 46.7581 84.2645C46.4014 84.2176 45.9984 84.1975 45.5557 84.1975H44.7893V87.4116C44.9148 87.425 45.0602 87.4318 45.232 87.4384C45.4104 87.4451 45.6086 87.4518 45.8266 87.4518Z" fill="#025553"/>
<path d="M52.7744 89.5812V77.8496H60.5903V80.066H55.3775V82.3695H60.0089V84.539H55.3775V87.3648H60.9735V89.5812H52.7744Z" fill="#025553"/>
<path d="M97.1067 83.7344C97.1067 84.6986 96.9613 85.5491 96.6773 86.2789C96.3864 87.0088 95.9964 87.6248 95.4946 88.1203C94.9921 88.6158 94.3976 88.9841 93.7108 89.2319C93.0171 89.4797 92.2771 89.6069 91.4843 89.6069C90.7113 89.6069 89.9846 89.4797 89.2973 89.2319C88.61 88.9841 88.0154 88.6092 87.5002 88.1203C86.9914 87.6248 86.5887 87.0155 86.2914 86.2789C86.0005 85.5491 85.8486 84.6986 85.8486 83.7344C85.8486 82.7701 86.0005 81.9197 86.3047 81.1899C86.6084 80.46 87.0181 79.844 87.5397 79.3417C88.0554 78.8462 88.6564 78.4713 89.3367 78.2168C90.0176 77.969 90.731 77.8418 91.4843 77.8418C92.2574 77.8418 92.9841 77.969 93.6709 78.2168C94.3581 78.4646 94.9527 78.8395 95.4679 79.3417C95.9767 79.844 96.38 80.4533 96.6773 81.1899C96.9613 81.9197 97.1067 82.7701 97.1067 83.7344ZM88.4779 83.7344C88.4779 84.2902 88.544 84.7857 88.683 85.2276C88.8215 85.6696 89.0133 86.0579 89.2707 86.3727C89.5285 86.694 89.8391 86.9418 90.2089 87.1159C90.5792 87.29 91.0017 87.3771 91.4843 87.3771C91.9532 87.3771 92.3762 87.29 92.746 87.1159C93.1226 86.9418 93.4332 86.694 93.6911 86.3727C93.9484 86.0512 94.1402 85.6696 94.2788 85.2276C94.4178 84.7857 94.4839 84.2834 94.4839 83.7344C94.4839 83.1786 94.4178 82.6764 94.2788 82.2278C94.1402 81.7791 93.9484 81.3907 93.6911 81.0694C93.4332 80.7479 93.1226 80.5002 92.746 80.3261C92.3693 80.152 91.9468 80.0649 91.4843 80.0649C91.0086 80.0649 90.5792 80.152 90.2089 80.3327C89.8391 80.5136 89.5285 80.7613 89.2707 81.0827C89.0133 81.4042 88.8215 81.7858 88.683 82.2411C88.544 82.6965 88.4779 83.192 88.4779 83.7344Z" fill="#025553"/>
<path d="M114.912 89.4941C113.082 89.4941 111.688 88.9919 110.73 87.9808C109.772 86.9697 109.296 85.5367 109.296 83.6819C109.296 82.7579 109.441 81.9342 109.732 81.2111C110.023 80.4879 110.426 79.8718 110.934 79.3763C111.443 78.8741 112.051 78.4991 112.751 78.238C113.452 77.9768 114.218 77.8496 115.037 77.8496C115.513 77.8496 115.949 77.8831 116.339 77.9568C116.729 78.0237 117.072 78.1041 117.363 78.1978C117.654 78.2915 117.898 78.3853 118.096 78.479C118.288 78.5728 118.433 78.6531 118.519 78.7067L117.786 80.7356C117.442 80.5548 117.039 80.3942 116.577 80.2669C116.114 80.1397 115.592 80.0727 115.011 80.0727C114.621 80.0727 114.238 80.1397 113.868 80.2669C113.491 80.3942 113.168 80.6017 112.877 80.8896C112.593 81.1776 112.361 81.5391 112.19 81.9945C112.018 82.4432 111.932 82.9922 111.932 83.635C111.932 84.1507 111.992 84.6328 112.104 85.0747C112.216 85.5234 112.401 85.905 112.652 86.2265C112.903 86.5478 113.24 86.8023 113.65 86.9898C114.059 87.1773 114.561 87.271 115.143 87.271C115.513 87.271 115.843 87.2509 116.134 87.204C116.424 87.1639 116.682 87.1103 116.914 87.0501C117.138 86.9898 117.343 86.9229 117.515 86.8492C117.687 86.7755 117.845 86.7019 117.984 86.6416L118.684 88.6571C118.328 88.8714 117.825 89.0656 117.178 89.2397C116.517 89.4071 115.764 89.4941 114.912 89.4941Z" fill="#025553"/>
<path d="M66.2128 77.8496C66.2128 79.4634 66.1533 80.6419 66.0344 81.9476C65.9154 83.2533 65.7701 84.3649 65.4926 85.1886C65.268 85.8581 65.0632 86.434 64.5479 86.809C64.1713 87.0835 63.4181 87.3782 62.7178 87.3782V89.541C63.6097 89.5075 64.5545 89.3468 65.1755 89.0656C65.7965 88.7843 66.3185 88.4027 66.7347 87.934C67.151 87.4585 67.4813 86.9161 67.7189 86.2934C67.957 85.6707 68.1419 85.0077 68.2677 84.298C68.3929 83.5881 68.4856 82.8516 68.5319 82.0882C68.5847 81.3249 68.6241 80.8427 68.6571 80.0861H71.4984V89.5879H74.1016V77.8496H66.2128Z" fill="#025553"/>
<path d="M104.117 89.4941C102.287 89.4941 100.893 88.9919 99.9347 87.9808C98.9768 86.9697 98.501 85.5367 98.501 83.6819C98.501 82.7579 98.6464 81.9342 98.9373 81.2111C99.2277 80.4879 99.631 79.8718 100.14 79.3763C100.648 78.8741 101.256 78.4991 101.957 78.238C102.657 77.9768 103.423 77.8496 104.242 77.8496C104.718 77.8496 105.154 77.8831 105.544 77.9568C105.934 78.0237 106.277 78.1041 106.568 78.1978C106.859 78.2915 107.103 78.3853 107.301 78.479C107.493 78.5728 107.638 78.6531 107.724 78.7067L106.991 80.7356C106.647 80.5548 106.244 80.3942 105.782 80.2669C105.319 80.1397 104.797 80.0727 104.216 80.0727C103.826 80.0727 103.443 80.1397 103.073 80.2669C102.697 80.3942 102.373 80.6017 102.082 80.8896C101.798 81.1776 101.567 81.5391 101.395 81.9945C101.223 82.4432 101.137 82.9922 101.137 83.635C101.137 84.1507 101.197 84.6328 101.309 85.0747C101.421 85.5234 101.607 85.905 101.857 86.2265C102.108 86.5478 102.445 86.8023 102.855 86.9898C103.265 87.1773 103.767 87.271 104.348 87.271C104.718 87.271 105.048 87.2509 105.339 87.204C105.63 87.1639 105.887 87.1103 106.119 87.0501C106.343 86.9898 106.548 86.9229 106.72 86.8492C106.892 86.7755 107.05 86.7019 107.189 86.6416L107.89 88.6571C107.533 88.8714 107.031 89.0656 106.383 89.2397C105.729 89.4071 104.976 89.4941 104.117 89.4941Z" fill="#025553"/>
<path d="M79.2814 77.8076C81.2564 77.8076 82.3337 78.1156 83.2586 78.7317C84.1835 79.3477 84.6459 80.3521 84.6459 81.7516C84.6459 83.1645 84.1771 84.1823 83.2453 84.805C82.307 85.4345 80.9724 85.7425 79.2351 85.7425H78.4156V89.5793H75.8125V77.8812C75.8125 77.8812 78.8056 77.8076 79.2814 77.8076ZM79.453 80.0575C79.2612 80.0575 79.0763 80.0642 78.8914 80.0776C78.7065 80.091 78.5478 80.0977 78.4156 80.1111V83.4993H79.2351C80.1402 83.4993 80.8142 83.3788 81.2767 83.1243C81.7322 82.8766 81.9634 82.4145 81.9634 81.7382C81.9634 81.4101 81.9043 81.1423 81.7919 80.928C81.673 80.7137 81.5079 80.5396 81.2894 80.4124C81.0715 80.2851 80.8073 80.1914 80.4967 80.1445C80.1733 80.0843 79.8296 80.0575 79.453 80.0575Z" fill="#025553"/>
<path d="M129.765 77.8945V80.1444H126.277V89.6261H123.667V80.1444H120.179V77.8945H129.765Z" fill="#025553"/>
<path d="M148.559 89.5811C148.434 89.1726 148.295 88.7976 148.143 88.369C147.998 87.9405 147.846 87.512 147.701 87.0834H143.181C143.036 87.512 142.891 87.9405 142.739 88.369C142.594 88.7976 142.455 89.1726 142.33 89.5743H139.488L144.16 77.8896H146.855L151.533 89.5743H148.559V89.5811ZM145.428 80.5547C145.369 80.7221 145.283 80.9565 145.17 81.2511C145.058 81.5457 144.932 81.8806 144.787 82.2689C144.642 82.6506 144.483 83.0792 144.305 83.5412C144.127 84.0032 143.948 84.4853 143.763 84.9942H147.073C146.894 84.4853 146.723 83.9965 146.558 83.5345C146.393 83.0724 146.234 82.6439 146.082 82.2623C145.93 81.8806 145.798 81.5391 145.686 81.2444C145.586 80.9498 145.494 80.7221 145.428 80.5547Z" fill="#025553"/>
<path d="M160.109 89.5812L157.704 85.8916L155.26 89.5812H152.286C152.775 88.6638 156.231 83.635 156.231 83.635L152.451 77.8496H155.61L157.816 81.2445L160.069 77.8496H163.042L159.283 83.5145C159.283 83.5145 162.857 88.8714 163.227 89.5879H160.109V89.5812Z" fill="#025553"/>
<path d="M134.957 77.7959C136.932 77.7959 138.009 78.1039 138.934 78.7199C139.859 79.336 140.322 80.3404 140.322 81.7399C140.322 83.1528 139.852 84.1706 138.921 84.7933C137.983 85.4228 136.648 85.7308 134.911 85.7308H134.091V89.5677H131.488V77.8695C131.482 77.8695 134.481 77.7959 134.957 77.7959ZM135.122 80.0525C134.931 80.0525 134.746 80.0592 134.56 80.0726C134.375 80.0859 134.217 80.0926 134.085 80.106V83.4943H134.904C135.809 83.4943 136.483 83.3738 136.946 83.1193C137.402 82.8716 137.633 82.4095 137.633 81.7332C137.633 81.4051 137.573 81.1373 137.454 80.923C137.336 80.7087 137.17 80.5346 136.952 80.4074C136.734 80.2801 136.47 80.1864 136.159 80.1395C135.849 80.0726 135.505 80.0525 135.122 80.0525Z" fill="#025553"/>
<path d="M45.3509 99.4413C44.9261 99.4413 44.5971 99.6015 44.364 99.922C44.1309 100.24 44.0143 100.684 44.0143 101.255C44.0143 102.442 44.4599 103.036 45.3509 103.036C45.7249 103.036 46.1777 102.942 46.7094 102.755V103.702C46.2724 103.885 45.7844 103.976 45.2453 103.976C44.4708 103.976 43.8783 103.741 43.4681 103.273C43.0577 102.802 42.8525 102.127 42.8525 101.248C42.8525 100.694 42.9533 100.21 43.1548 99.7945C43.3563 99.3769 43.6453 99.0576 44.0216 98.8367C44.4004 98.6133 44.8435 98.5016 45.3509 98.5016C45.8681 98.5016 46.3877 98.6266 46.9097 98.8767L46.5455 99.7945C46.3464 99.6998 46.1461 99.6173 45.9446 99.5468C45.7431 99.4764 45.5452 99.4413 45.3509 99.4413ZM51.6451 99.8309V103.903H50.5307V100.665H49.0556V103.903H47.9448V99.8309H51.6451ZM53.882 101.86C53.882 102.263 53.9476 102.567 54.0787 102.774C54.2122 102.98 54.4283 103.083 54.727 103.083C55.0232 103.083 55.2357 102.981 55.3644 102.777C55.4955 102.571 55.561 102.265 55.561 101.86C55.561 101.456 55.4955 101.154 55.3644 100.953C55.2333 100.751 55.0183 100.65 54.7197 100.65C54.4235 100.65 54.2098 100.751 54.0787 100.953C53.9476 101.152 53.882 101.454 53.882 101.86ZM56.6973 101.86C56.6973 102.522 56.5225 103.041 56.1729 103.415C55.8233 103.789 55.3364 103.976 54.7124 103.976C54.3215 103.976 53.9768 103.891 53.6781 103.721C53.3795 103.548 53.15 103.302 52.9897 102.981C52.8295 102.661 52.7494 102.287 52.7494 101.86C52.7494 101.194 52.923 100.677 53.2702 100.308C53.6174 99.939 54.1054 99.7545 54.7343 99.7545C55.1252 99.7545 55.47 99.8394 55.7686 100.009C56.0673 100.179 56.2967 100.423 56.4569 100.741C56.6172 101.06 56.6973 101.432 56.6973 101.86ZM60.4712 99.8309H61.6949L60.0815 101.783L61.837 103.903H60.5768L58.9124 101.838V103.903H57.8016V99.8309H58.9124V101.809L60.4712 99.8309ZM63.4912 101.86C63.4912 102.263 63.5567 102.567 63.6878 102.774C63.8214 102.98 64.0375 103.083 64.3361 103.083C64.6323 103.083 64.8448 102.981 64.9735 102.777C65.1046 102.571 65.1701 102.265 65.1701 101.86C65.1701 101.456 65.1046 101.154 64.9735 100.953C64.8424 100.751 64.6275 100.65 64.3288 100.65C64.0326 100.65 63.819 100.751 63.6878 100.953C63.5567 101.152 63.4912 101.454 63.4912 101.86ZM66.3064 101.86C66.3064 102.522 66.1316 103.041 65.782 103.415C65.4324 103.789 64.9456 103.976 64.3216 103.976C63.9306 103.976 63.5859 103.891 63.2872 103.721C62.9886 103.548 62.7591 103.302 62.5989 102.981C62.4386 102.661 62.3585 102.287 62.3585 101.86C62.3585 101.194 62.5321 100.677 62.8793 100.308C63.2265 99.939 63.7145 99.7545 64.3434 99.7545C64.7343 99.7545 65.0791 99.8394 65.3778 100.009C65.6764 100.179 65.9058 100.423 66.0661 100.741C66.2264 101.06 66.3064 101.432 66.3064 101.86ZM68.4852 99.8309V101.441C68.4852 101.611 68.457 102.026 68.4016 102.686L70.2807 99.8309H71.6174V103.903H70.5428V102.278C70.5428 101.989 70.5673 101.582 70.6158 101.055L68.7436 103.903H67.4106V99.8309H68.4852ZM71.2892 98.0791C71.2434 98.5331 71.0724 98.8646 70.7762 99.0734C70.4799 99.2798 70.0527 99.383 69.4938 99.383C68.9184 99.383 68.4922 99.2834 68.2156 99.0843C67.9413 98.8852 67.7873 98.5501 67.7532 98.0791H68.7474C68.7644 98.3292 68.8262 98.5052 68.9333 98.6072C69.0425 98.7068 69.2364 98.7565 69.5156 98.7565C69.7612 98.7565 69.9429 98.7019 70.0622 98.5926C70.1837 98.481 70.2578 98.3098 70.2844 98.0791H71.2892ZM74.6265 103.976C73.3591 103.976 72.7251 103.28 72.7251 101.889C72.7251 101.197 72.8977 100.669 73.2424 100.304C73.5871 99.9377 74.081 99.7545 74.7246 99.7545C75.1955 99.7545 75.618 99.8467 75.992 100.031L75.6644 100.891C75.4896 100.82 75.3266 100.763 75.1764 100.72C75.0256 100.673 74.8754 100.65 74.7246 100.65C74.1465 100.65 73.8577 101.061 73.8577 101.881C73.8577 102.678 74.1465 103.076 74.7246 103.076C74.9382 103.076 75.1364 103.048 75.3181 102.992C75.5003 102.934 75.6825 102.844 75.8647 102.723V103.673C75.6852 103.787 75.503 103.866 75.3181 103.91C75.1364 103.954 74.9057 103.976 74.6265 103.976ZM80.3667 99.8309V100.665H79.0337V103.903H77.9228V100.665H76.5866V99.8309H80.3667ZM85.0732 100.898C85.0732 101.117 85.004 101.304 84.8654 101.459C84.7296 101.612 84.5282 101.71 84.2607 101.754V101.783C84.55 101.817 84.7781 101.917 84.9459 102.082C85.1159 102.244 85.2006 102.446 85.2006 102.686C85.2006 103.082 85.045 103.384 84.7344 103.593C84.4238 103.8 83.9794 103.903 83.4014 103.903H81.3145V99.8309H83.4014C83.9597 99.8309 84.3774 99.922 84.6545 100.104C84.9336 100.284 85.0732 100.548 85.0732 100.898ZM84.0498 102.628C84.0498 102.468 83.988 102.352 83.8638 102.282C83.7402 102.209 83.5543 102.173 83.3065 102.173H82.4253V103.134H83.3284C83.5639 103.134 83.7423 103.091 83.8638 103.003C83.988 102.913 84.0498 102.788 84.0498 102.628ZM83.9475 100.985C83.9475 100.738 83.7509 100.614 83.3577 100.614H82.4253V101.419H83.2304C83.4658 101.419 83.6443 101.385 83.7658 101.317C83.8873 101.249 83.9475 101.138 83.9475 100.985ZM87.3466 99.8309V101.441C87.3466 101.611 87.3183 102.026 87.2629 102.686L89.142 99.8309H90.4788V103.903H89.4042V102.278C89.4042 101.989 89.4287 101.582 89.4772 101.055L87.605 103.903H86.272V99.8309H87.3466ZM93.5204 100.545C93.2849 100.545 93.1006 100.62 92.9669 100.771C92.8331 100.919 92.7569 101.13 92.7372 101.404H94.2961C94.2913 101.13 94.2199 100.919 94.0814 100.771C93.9429 100.62 93.7559 100.545 93.5204 100.545ZM93.677 103.976C93.0217 103.976 92.5092 103.795 92.14 103.433C91.7713 103.071 91.5864 102.559 91.5864 101.896C91.5864 101.214 91.7564 100.687 92.0963 100.315C92.4389 99.9414 92.9109 99.7545 93.5129 99.7545C94.0883 99.7545 94.5364 99.9184 94.8571 100.246C95.1773 100.574 95.3377 101.027 95.3377 101.605V102.144H92.7117C92.7239 102.459 92.8177 102.706 92.9924 102.883C93.1672 103.06 93.4122 103.149 93.7282 103.149C93.9733 103.149 94.205 103.123 94.4235 103.072C94.6424 103.021 94.8705 102.94 95.1086 102.828V103.688C94.9141 103.785 94.7064 103.857 94.4858 103.903C94.2647 103.951 93.9951 103.976 93.677 103.976ZM102.31 100.898C102.31 101.117 102.241 101.304 102.102 101.459C101.967 101.612 101.765 101.71 101.498 101.754V101.783C101.787 101.817 102.015 101.917 102.183 102.082C102.353 102.244 102.437 102.446 102.437 102.686C102.437 103.082 102.282 103.384 101.971 103.593C101.661 103.8 101.216 103.903 100.638 103.903H98.5514V99.8309H100.638C101.197 99.8309 101.614 99.922 101.891 100.104C102.171 100.284 102.31 100.548 102.31 100.898ZM101.287 102.628C101.287 102.468 101.225 102.352 101.101 102.282C100.977 102.209 100.791 102.173 100.543 102.173H99.6623V103.134H100.565C100.801 103.134 100.979 103.091 101.101 103.003C101.225 102.913 101.287 102.788 101.287 102.628ZM101.185 100.985C101.185 100.738 100.988 100.614 100.595 100.614H99.6623V101.419H100.467C100.703 101.419 100.881 101.385 101.003 101.317C101.124 101.249 101.185 101.138 101.185 100.985ZM106.179 99.8309H107.402L105.789 101.783L107.545 103.903H106.284L104.62 101.838V103.903H103.509V99.8309H104.62V101.809L106.179 99.8309ZM111.959 103.903H110.848V100.665H109.825C109.747 101.575 109.653 102.255 109.541 102.705C109.429 103.151 109.28 103.475 109.093 103.677C108.909 103.876 108.666 103.976 108.365 103.976C108.107 103.976 107.896 103.937 107.731 103.859V102.97C107.85 103.019 107.969 103.043 108.088 103.043C108.226 103.043 108.342 102.944 108.434 102.745C108.529 102.545 108.612 102.214 108.685 101.75C108.76 101.284 108.825 100.644 108.878 99.8309H111.959V103.903ZM118.938 101.86C118.938 102.527 118.769 103.047 118.432 103.418C118.094 103.79 117.627 103.976 117.03 103.976C116.493 103.976 116.063 103.825 115.74 103.524C115.42 103.223 115.226 102.789 115.158 102.224H114.426V103.903H113.315V99.8309H114.426V101.397H115.172C115.243 100.877 115.443 100.474 115.773 100.188C116.106 99.8989 116.532 99.7545 117.052 99.7545C117.627 99.7545 118.085 99.9438 118.425 100.323C118.767 100.699 118.938 101.211 118.938 101.86ZM116.276 101.86C116.276 102.265 116.335 102.571 116.454 102.777C116.573 102.981 116.77 103.083 117.044 103.083C117.314 103.083 117.508 102.981 117.627 102.777C117.746 102.571 117.805 102.265 117.805 101.86C117.805 101.454 117.745 101.152 117.623 100.953C117.504 100.751 117.309 100.65 117.037 100.65C116.768 100.65 116.573 100.751 116.454 100.953C116.335 101.154 116.276 101.456 116.276 101.86ZM121.019 99.8309V101.321C121.019 101.675 121.182 101.852 121.51 101.852C121.724 101.852 121.922 101.828 122.104 101.779C122.288 101.731 122.474 101.668 122.661 101.59V99.8309H123.772V103.903H122.661V102.286C122.404 102.422 122.165 102.518 121.944 102.573C121.722 102.629 121.509 102.657 121.303 102.657C120.858 102.657 120.515 102.544 120.272 102.318C120.029 102.09 119.908 101.766 119.908 101.346V99.8309H121.019ZM126.81 100.545C126.574 100.545 126.39 100.62 126.256 100.771C126.123 100.919 126.046 101.13 126.027 101.404H127.586C127.581 101.13 127.509 100.919 127.371 100.771C127.232 100.62 127.045 100.545 126.81 100.545ZM126.967 103.976C126.311 103.976 125.799 103.795 125.429 103.433C125.061 103.071 124.876 102.559 124.876 101.896C124.876 101.214 125.046 100.687 125.386 100.315C125.728 99.9414 126.2 99.7545 126.803 99.7545C127.378 99.7545 127.826 99.9184 128.147 100.246C128.467 100.574 128.627 101.027 128.627 101.605V102.144H126.002C126.013 102.459 126.107 102.706 126.282 102.883C126.457 103.06 126.702 103.149 127.018 103.149C127.263 103.149 127.495 103.123 127.713 103.072C127.932 103.021 128.16 102.94 128.398 102.828V103.688C128.204 103.785 127.996 103.857 127.775 103.903C127.554 103.951 127.285 103.976 126.967 103.976ZM130.828 99.8309V101.397H132.38V99.8309H133.49V103.903H132.38V102.224H130.828V103.903H129.717V99.8309H130.828ZM135.727 101.86C135.727 102.263 135.793 102.567 135.924 102.774C136.057 102.98 136.274 103.083 136.572 103.083C136.868 103.083 137.081 102.981 137.21 102.777C137.341 102.571 137.406 102.265 137.406 101.86C137.406 101.456 137.341 101.154 137.21 100.953C137.078 100.751 136.863 100.65 136.565 100.65C136.269 100.65 136.055 100.751 135.924 100.953C135.793 101.152 135.727 101.454 135.727 101.86ZM138.543 101.86C138.543 102.522 138.367 103.041 138.018 103.415C137.668 103.789 137.181 103.976 136.558 103.976C136.167 103.976 135.822 103.891 135.523 103.721C135.225 103.548 134.995 103.302 134.835 102.981C134.675 102.661 134.594 102.287 134.594 101.86C134.594 101.194 134.768 100.677 135.115 100.308C135.463 99.939 135.951 99.7545 136.579 99.7545C136.97 99.7545 137.315 99.8394 137.614 100.009C137.912 100.179 138.142 100.423 138.302 100.741C138.462 101.06 138.543 101.432 138.543 101.86ZM139.49 103.382C139.49 103.178 139.545 103.024 139.654 102.919C139.763 102.815 139.922 102.763 140.131 102.763C140.333 102.763 140.488 102.816 140.597 102.923C140.709 103.03 140.765 103.183 140.765 103.382C140.765 103.574 140.709 103.725 140.597 103.837C140.486 103.946 140.33 104.001 140.131 104.001C139.927 104.001 139.769 103.948 139.658 103.841C139.546 103.732 139.49 103.579 139.49 103.382Z" fill="#025553"/>
</svg>
