<svg width="177" height="177" viewBox="0 0 177 177" fill="none" xmlns="http://www.w3.org/2000/svg">
<rect width="177" height="177" fill="white"/>
<path d="M19.0014 91.0171C19.2383 90.8019 19.199 90.4918 19.264 90.221C20.7656 84.0346 27.0048 82.4139 31.2996 84.9554C31.7031 85.1937 32.0822 85.4875 32.4329 85.7989C33.4199 86.6776 33.5269 88.1453 32.701 89.1283C31.875 90.1127 30.4033 90.2792 29.3715 89.433C28.551 88.7601 27.652 88.4717 26.6148 88.6219C25.1755 88.8305 24.1952 89.8541 23.9028 91.4951C23.72 92.5241 23.7606 93.5518 24.1898 94.5321C25.1308 96.6809 27.7616 97.1764 29.4365 95.5232C30.5427 94.4319 31.982 94.3507 32.9785 95.3242C33.9751 96.2963 33.9426 97.76 32.8485 98.8581C30.6402 101.073 27.962 101.762 24.9724 100.97C21.8488 100.142 20.0845 97.9401 19.2749 94.9017C19.2031 94.6323 19.2437 94.3236 19 94.1124V91.0171H19.0014Z" fill="#0383C9"/>
<path d="M130.578 75.002C130.835 75.2362 131.189 75.2321 131.491 75.3608C133.546 76.2354 134.676 78.3707 134.228 80.5682C133.798 82.6777 131.832 84.2591 129.669 84.2361C127.514 84.2131 125.593 82.6452 125.176 80.5695C124.733 78.3639 125.861 76.2314 127.915 75.3581C128.173 75.2484 128.497 75.2646 128.685 75.002H130.578Z" fill="#E95F22"/>
<path d="M149.647 75.0014C149.756 75.2207 149.993 75.1801 150.17 75.241C152.307 75.9843 153.624 78.1304 153.272 80.313C152.912 82.5444 150.965 84.2206 148.717 84.2355C146.51 84.2504 144.498 82.581 144.128 80.4281C143.739 78.1534 145.034 75.9938 147.229 75.2356C147.406 75.1747 147.645 75.218 147.754 75H149.647V75.0014Z" fill="#E95F22"/>
<path d="M112.921 92.9003C112.561 93.0303 112.463 93.2686 112.319 93.4554C110.576 95.7125 108.84 97.9764 107.099 100.233C106.366 101.183 105.394 101.513 104.367 101.18C103.332 100.845 102.707 99.9505 102.704 98.7536C102.698 94.5833 102.696 90.4144 102.704 86.2441C102.707 84.7737 103.738 83.7298 105.127 83.7433C106.491 83.7568 107.466 84.7832 107.474 86.2455C107.485 88.2331 107.477 90.2208 107.477 92.4156C107.791 92.0134 107.991 91.7616 108.187 91.5057C109.857 89.3339 111.524 87.1594 113.195 84.9876C114.031 83.9004 115.029 83.5375 116.12 83.918C117.177 84.2849 117.72 85.1663 117.72 86.5311C117.721 90.6107 117.728 94.6916 117.715 98.7712C117.71 100.586 116.168 101.761 114.55 101.212C113.548 100.873 112.94 100.013 112.926 98.8213C112.906 97.118 112.92 95.4133 112.92 93.71C112.92 93.4649 112.92 93.2212 112.92 92.9003H112.921Z" fill="#0383C9"/>
<path d="M92.3084 83.7611C94.1918 83.7611 94.7672 84.1551 95.4131 85.9167C96.6777 89.368 97.9396 92.8193 99.1893 96.276C99.3274 96.6565 99.5224 96.8921 99.9096 97.0694C100.769 97.4634 101.201 98.1973 101.127 99.1329C101.067 99.8884 100.925 100.644 100.742 101.381C100.522 102.271 99.7472 102.886 98.8576 102.981C97.9802 103.074 97.0839 102.622 96.7007 101.78C96.5084 101.356 96.2796 101.248 95.8423 101.252C93.4552 101.272 91.0668 101.268 88.6783 101.255C88.3209 101.252 88.13 101.337 87.9716 101.691C87.5559 102.613 86.6758 103.091 85.7402 102.985C84.8344 102.883 84.0572 102.229 83.8378 101.31C83.6767 100.636 83.5589 99.948 83.4858 99.2588C83.3789 98.2542 83.8433 97.4323 84.7667 97.0342C85.1255 96.8785 85.2717 96.6429 85.3909 96.318C86.6555 92.8436 87.9255 89.3707 89.1969 85.8991C89.8374 84.1497 90.4087 83.7598 92.3111 83.7598L92.3084 83.7611ZM92.3747 90.3631C92.3233 90.3631 92.2718 90.3645 92.2204 90.3659C91.5 92.3657 90.7838 94.3669 90.0581 96.364C89.9484 96.6673 89.9741 96.8149 90.3532 96.8108C91.6585 96.7973 92.9637 96.8 94.2689 96.8108C94.5953 96.8135 94.6575 96.6984 94.5479 96.41C94.3272 95.8238 94.1241 95.2294 93.9128 94.6404C93.401 93.2146 92.8865 91.7902 92.3734 90.3645L92.3747 90.3631Z" fill="#0383C9"/>
<path d="M121.494 99.0621C121.484 98.0168 121.795 97.3967 122.331 96.8646C123.784 95.4253 125.23 93.9792 126.677 92.5332C126.987 92.2231 127.223 90.8217 127.026 90.4562C126.93 90.2788 126.734 90.2639 126.571 90.2043C125.177 89.6925 123.77 89.2146 122.389 88.6703C121.265 88.2275 120.69 87.1606 120.835 85.9636C120.969 84.8615 121.858 83.9895 123.025 83.804C123.511 83.7269 123.965 83.8487 124.412 84.0098C125.978 84.5758 127.548 85.1323 129.105 85.7199C129.489 85.8648 129.818 85.8594 130.2 85.7159C131.758 85.1309 133.325 84.5663 134.894 84.0098C136.427 83.4669 137.88 84.1019 138.367 85.5101C138.844 86.8871 138.117 88.2478 136.604 88.7989C135.378 89.2457 134.154 89.6993 132.919 90.119C132.496 90.2625 132.361 90.4684 132.322 90.9301C132.245 91.8372 132.551 92.475 133.221 93.0897C134.527 94.2907 135.755 95.5756 137.007 96.8361C138.129 97.9654 138.18 99.5116 137.149 100.558C136.11 101.612 134.563 101.585 133.414 100.465C132.32 99.3979 131.225 98.3296 130.176 97.2207C129.774 96.7955 129.553 96.8497 129.178 97.241C128.088 98.3756 126.972 99.4859 125.836 100.573C125.035 101.341 124.072 101.557 123.032 101.105C122.03 100.669 121.529 99.8664 121.491 99.0607L121.494 99.0621Z" fill="#E95F22"/>
<path d="M157.491 86.3249C157.493 87.404 156.847 88.3261 155.759 88.7323C154.473 89.2143 153.184 89.6882 151.884 90.1296C151.47 90.2704 151.381 90.4925 151.34 90.9054C151.249 91.8302 151.557 92.4964 152.247 93.13C153.588 94.3608 154.848 95.6796 156.129 96.974C156.885 97.7363 157.053 98.6611 156.707 99.6481C156.365 100.626 155.617 101.17 154.594 101.301C153.754 101.41 153.049 101.098 152.458 100.511C151.327 99.3841 150.184 98.2684 149.072 97.1243C148.762 96.8047 148.587 96.8088 148.279 97.127C147.2 98.2413 146.093 99.3286 144.987 100.417C143.821 101.565 142.317 101.634 141.253 100.603C140.171 99.552 140.202 97.9881 141.353 96.8278C142.777 95.3912 144.219 93.9695 145.652 92.5397C145.965 92.2283 146.192 90.8323 145.997 90.4573C145.902 90.2772 145.71 90.2582 145.546 90.1987C144.194 89.7045 142.834 89.2265 141.486 88.7174C140.334 88.2828 139.651 87.1617 139.8 86.0135C139.948 84.8721 140.84 83.9933 142.029 83.8038C142.541 83.7226 143.013 83.8647 143.48 84.0326C145.006 84.5796 146.535 85.1199 148.05 85.6967C148.48 85.8605 148.842 85.8483 149.27 85.6858C150.849 85.0874 152.435 84.5106 154.032 83.9609C155.776 83.3624 157.489 84.5458 157.491 86.3208V86.3249Z" fill="#E95F22"/>
<path d="M41.9352 101.26C39.4628 101.187 37.0216 99.8008 35.6094 96.9656C33.9697 93.674 34.0685 90.3297 36.1266 87.2385C39.2976 82.4779 46.4683 82.6499 49.4078 87.5527C51.3102 90.7264 51.3061 94.0531 49.5459 97.2973C48.1527 99.8671 45.5963 101.262 41.9338 101.259L41.9352 101.26ZM46.0039 92.5164C45.9755 91.8651 45.8942 91.2233 45.6424 90.6127C45.1021 89.3047 44.0542 88.5912 42.665 88.5898C41.2758 88.5898 40.2088 89.2939 39.697 90.6194C39.1744 91.9748 39.1866 93.3464 39.7945 94.6746C40.3551 95.9013 41.3719 96.4998 42.7042 96.4889C44.0095 96.4781 44.9749 95.8553 45.5476 94.6705C45.8766 93.9908 45.9822 93.2624 46.0039 92.5164Z" fill="#0383C9"/>
<path d="M68.7887 92.4933C68.7887 90.4759 68.7833 88.4585 68.79 86.441C68.7954 84.8393 69.7134 83.8522 71.3193 83.8319C74.1342 83.7953 76.9505 83.7953 79.7654 83.8197C81.2088 83.8319 82.1809 84.8054 82.1498 86.1025C82.1186 87.3821 81.0977 88.2865 79.6571 88.2919C77.8333 88.2987 76.0081 88.3041 74.1843 88.2865C73.7686 88.2825 73.6007 88.3664 73.5994 88.8322C73.5926 90.4705 73.5723 90.4705 75.2445 90.4705C76.348 90.4705 77.4515 90.4624 78.555 90.4732C79.8426 90.4854 80.7268 91.337 80.7281 92.5475C80.7281 93.7458 79.8345 94.6218 78.559 94.6353C77.0954 94.6502 75.6304 94.6557 74.1667 94.6299C73.7253 94.6218 73.6021 94.7504 73.6007 95.1905C73.598 96.8017 73.5804 96.8017 75.1984 96.8017C76.7081 96.8017 78.2165 96.7963 79.7262 96.8044C81.1587 96.8112 82.1566 97.7373 82.1566 99.0412C82.1566 100.346 81.1668 101.267 79.7262 101.271C76.9329 101.279 74.141 101.279 71.3477 101.269C69.7811 101.263 68.7995 100.267 68.7927 98.6824C68.7833 96.6203 68.79 94.5582 68.79 92.4961L68.7887 92.4933Z" fill="#0383C9"/>
<path d="M61.1358 101.263C56.099 101.247 52.7979 98.248 52.297 93.8868C51.8935 90.3814 52.8277 87.3268 55.8133 85.1699C58.6133 83.147 62.8919 83.4043 65.4902 85.6763C66.6167 86.6606 66.7792 88.0931 65.8828 89.1398C65.0095 90.1593 63.577 90.2473 62.4383 89.3496C60.5116 87.8318 57.9702 88.5982 57.235 90.9297C56.8653 92.1023 56.8843 93.283 57.3324 94.4271C58.2085 96.6625 60.9408 97.2136 62.6455 95.5143C63.7192 94.446 65.1354 94.3553 66.136 95.2936C67.1556 96.2495 67.1475 97.7064 66.0832 98.8235C64.5113 100.475 62.5561 101.25 61.1371 101.263H61.1358Z" fill="#0383C9"/>
</svg>
