<svg width="177" height="177" viewBox="0 0 177 177" fill="none" xmlns="http://www.w3.org/2000/svg">
<rect width="177" height="177" fill="white"/>
<path d="M110.015 87.1382H103.924V82.2021H102.272V93.523H103.924V88.6186H110.015V93.523H111.667V82.2021H110.015V87.1382Z" fill="#00A1E4"/>
<path d="M118.066 84.1768C115.054 84.1768 113.166 86.0712 113.166 88.9537V89.1443C113.166 91.9637 114.799 93.7623 118.015 93.7623C120.415 93.7623 122.066 92.6958 122.627 90.8166H120.841C120.466 91.8831 119.496 92.4537 118.084 92.4537C116.075 92.4537 114.918 91.3545 114.799 89.4917H122.763V88.7631C122.763 86.3109 121.266 84.1768 118.066 84.1768ZM114.817 88.2696C115.02 86.5015 116.211 85.435 118.084 85.435C119.956 85.435 120.976 86.5495 121.119 88.2696H114.817Z" fill="#00A1E4"/>
<path d="M128.855 84.1768C126.105 84.1768 124.448 85.58 124.294 87.5528H125.946C126.048 86.2782 127.034 85.3871 128.924 85.3871C130.674 85.3871 131.442 86.0712 131.442 87.0242C131.442 87.8674 130.489 88.0264 128.788 88.2498C126.83 88.5199 126.031 88.6953 125.248 89.1736C124.855 89.4014 124.532 89.7214 124.312 90.1019C124.091 90.4824 123.981 90.9102 123.992 91.3428C123.992 92.8069 125.082 93.7623 127.174 93.7623C129.336 93.7623 130.834 92.6642 131.514 91.2621L131.701 93.5237H133.029L133.046 87.2663C133.042 85.4502 131.749 84.1768 128.855 84.1768ZM131.46 89.225C131.46 90.7534 129.91 92.5368 127.682 92.5368C126.405 92.5368 125.758 91.9953 125.758 91.151C125.758 90.626 125.979 90.2436 126.473 89.9407C127 89.6063 127.664 89.4636 129.145 89.2391C130.2 89.08 131.02 88.9046 131.46 88.555V89.225Z" fill="#00A1E4"/>
<path d="M135.119 87.5698V93.5231H136.77V87.5183V81.6924H135.119V87.5698Z" fill="#00A1E4"/>
<path d="M141.534 82.2178H140.274C140.258 82.5522 140.207 83.3965 140.122 83.6678C139.997 84.2397 139.872 84.3695 139.322 84.4314C139.072 84.4958 138.42 84.4958 138.113 84.4958V85.8008H139.988V90.0048C139.988 92.7119 140.703 93.5235 143.307 93.5235H144.413V92.0746H143.68C141.944 92.0746 141.537 91.7401 141.537 89.7814V85.8055H144.411V84.4314H141.537L141.534 82.2178Z" fill="#00A1E4"/>
<path d="M151.164 84.1762C149.446 84.1762 148.237 85.0041 147.641 86.2624V81.6924H146.059V93.5231H147.641V88.7462C147.641 86.867 148.713 85.5292 150.568 85.5292C152.474 85.5292 153.24 86.6927 153.24 88.3486V93.5231H154.892V87.9662C154.892 85.6566 153.649 84.1762 151.164 84.1762Z" fill="#00A1E4"/>
<path d="M30.9992 87.5685C32.1241 87.158 32.7378 86.3991 32.7378 85.0741V85.0578C32.7378 83.0698 31.1854 82.0898 27.5907 82.0898H22.125V93.4107H27.9807C31.3741 93.4107 33.0615 92.3209 33.0615 90.1119C33.0615 88.7086 32.3353 87.9473 30.9992 87.5685ZM25.4834 84.5374H27.6082C28.8581 84.5374 29.3468 84.8052 29.3468 85.4998V85.5162C29.3468 86.2272 28.7894 86.5113 27.642 86.5113H25.4834V84.5374ZM29.5168 89.7611C29.5168 90.4721 29.0619 90.8135 27.4408 90.8135H25.4834V88.7086H27.4745C29.0106 88.7086 29.5168 88.9928 29.5168 89.7353V89.7611Z" fill="#494C4E"/>
<path d="M37.6686 82.0898L32.999 93.4107H36.5099L37.2349 91.4368H41.7745L42.5344 93.4107H46.0441L41.3145 82.0898H37.6686ZM38.141 88.9893L39.4747 85.3735L40.842 88.9893H38.141Z" fill="#494C4E"/>
<path d="M53.1239 88.0584C53.1239 89.9844 52.584 90.6311 51.2678 90.6311C49.9855 90.6311 49.3605 89.9365 49.3605 88.0584V82.0898H45.8184V88.1531C45.8184 91.9899 47.5682 93.6797 51.2691 93.6797C54.7125 93.6797 56.6861 92.0051 56.6861 88.1531V82.0898H53.1239V88.0584Z" fill="#494C4E"/>
<path d="M64.2426 86.416C62.3353 86.1634 61.4066 86.0044 61.4066 85.263C61.4066 84.7099 61.8628 84.2994 63.0314 84.2994C64.3301 84.2994 64.9713 84.6783 65.09 85.6255V85.6419H68.5797V85.6255C68.3097 83.0681 66.4699 81.8203 63.0952 81.8203C59.753 81.8203 57.9644 83.2891 57.9644 85.4209C57.9644 87.8368 59.888 88.4835 62.2678 88.8121C64.2763 89.0647 65.3225 89.2226 65.3225 90.0599C65.3225 90.7065 64.765 91.0854 63.5501 91.0854C62.1328 91.0854 61.3903 90.565 61.2891 89.5383V89.4915H57.627V89.5067C57.8294 92.2221 59.3143 93.6756 63.4152 93.6756C66.9761 93.6756 68.7647 92.1554 68.7647 89.8856C68.7647 87.4416 66.7423 86.747 64.2426 86.416Z" fill="#494C4E"/>
<path d="M77.9325 88.7407C77.7975 90.0364 77.1389 90.7777 75.654 90.7777C74.0504 90.7777 73.223 89.9101 73.223 88.1092V87.4625C73.223 85.5833 74.0679 84.6992 75.6702 84.6992C77.1226 84.6992 77.795 85.3939 77.92 86.6252V86.7352H81.5997V86.5013C81.3585 83.3568 79.1187 81.8564 75.6702 81.8564C72.0593 81.8564 69.6958 83.7357 69.6958 87.3362V88.2355C69.6958 91.9308 71.8906 93.6837 75.5703 93.6837C79.2499 93.6837 81.4097 92.0886 81.6459 88.7886V88.5957H77.9338L77.9325 88.7407Z" fill="#494C4E"/>
<path d="M93.934 86.2891V82.0898H90.5418V86.2891H90.5406H86.3722V82.0898H82.9463V93.4107H86.3722V89.2582H90.5406H90.5418V93.4107H93.934V89.2582H98.1024V86.2891H93.934Z" fill="#494C4E"/>
<path d="M93.9356 86.2949H90.5435V89.2628H93.9356V86.2949Z" fill="#00A1E4"/>
</svg>
