<svg width="177" height="177" viewBox="0 0 177 177" fill="none" xmlns="http://www.w3.org/2000/svg">
<rect width="177" height="177" fill="white"/>
<path fill-rule="evenodd" clip-rule="evenodd" d="M41.6931 108C51.9903 108 60.3887 99.4648 60.3887 89C60.3887 78.5352 51.9903 70 41.6931 70C33.8686 70 27.1412 74.9288 24.3615 81.8872H40.4881C40.1682 82.3635 39.4708 82.7514 38.9312 82.7514H24.0403C23.9421 83.0366 23.8505 83.3248 23.7655 83.6158C28.961 83.6158 34.1564 83.6158 39.3518 83.6158C39.0319 84.0921 38.3345 84.48 37.7949 84.48C33.0417 84.48 28.2884 84.48 23.5351 84.48C23.4661 84.7657 23.4033 85.0539 23.3472 85.3445C28.3033 85.3445 33.2594 85.3444 38.2155 85.3445C37.8956 85.8207 37.1982 86.2086 36.6586 86.2086C32.1725 86.2086 27.6865 86.2086 23.2004 86.2086C23.1586 86.4949 23.1224 86.7829 23.0934 87.0731C27.7553 87.0731 32.4172 87.0731 37.0791 87.0731C36.7592 87.5493 36.0618 87.9372 35.5223 87.9372C31.3573 87.9372 27.1924 87.9372 23.0274 87.9372C23.0118 88.2237 23.0029 88.512 23 88.8017C27.3143 88.8017 31.6285 88.8017 35.9428 88.8017C35.6229 89.2779 34.9255 89.6658 34.3859 89.6658C30.594 89.6658 26.8022 89.6658 23.0103 89.6658C23.0204 89.9556 23.0359 90.2439 23.0586 90.5303C26.9746 90.5303 30.8905 90.5303 34.8064 90.5303C34.4866 91.0066 33.7892 91.3945 33.2495 91.3945C29.8817 91.3945 26.5139 91.3945 23.146 91.3945C23.1823 91.6847 23.2255 91.9729 23.2746 92.259C26.7398 92.259 30.2049 92.259 33.6701 92.259C33.3502 92.7352 32.6528 93.1231 32.1132 93.1231C29.2233 93.1231 26.3334 93.1231 23.4435 93.1231C23.5073 93.4138 23.5776 93.702 23.6544 93.9876C26.6142 93.9876 29.574 93.9876 32.5338 93.9876C32.2139 94.4639 31.5165 94.8518 30.9769 94.8518C28.6208 94.8518 26.2647 94.8518 23.9085 94.8518C24.0018 95.143 24.1017 95.4313 24.2082 95.7162H31.3974C31.0775 96.1925 30.3801 96.5804 29.8405 96.5804H24.5556C27.4454 103.291 34.045 108 41.6931 108ZM47.5948 81.8872H43.3569C42.8377 81.8872 42.1653 82.2649 41.8617 82.7235L32.6857 96.5805H36.9772C37.4969 96.5805 38.1698 96.2042 38.4726 95.7443L47.5948 81.8872Z" fill="#004F91"/>
<path fill-rule="evenodd" clip-rule="evenodd" d="M154.507 96.6372L154.508 95.366C154.508 94.3808 153.702 93.995 152.722 93.9953L144.241 93.995C143.261 93.995 142.445 94.5637 142.445 95.5479V96.6379L154.507 96.6372ZM142.445 97.9951V99.1112C142.445 100.164 143.376 100.644 144.24 100.644H150.452C150.863 100.65 150.87 100.714 150.87 101.312V101.327C150.87 102.004 150.861 102.002 150.285 102.002H142.446L142.445 103.273C142.445 104.259 143.251 104.645 144.23 104.644H152.711C153.689 104.645 154.508 104.076 154.508 103.091V99.528C154.508 98.4748 153.577 97.9951 152.713 97.9951H142.445ZM137.525 93.995C139.638 93.995 141.37 95.3073 141.37 96.9399V98.3783C141.37 99.9384 139.797 101.227 137.814 101.338L137.698 101.34C137.76 101.365 137.816 101.404 137.869 101.453L141.409 104.644H136.936L133.588 101.365C133.434 101.214 133.28 101.094 133.28 100.852V99.5071C133.28 99.2313 133.502 99.0058 133.774 99.0058H136.205C136.245 99.0058 136.285 99.0043 136.324 99.0008C136.92 98.9499 137.386 98.4354 137.386 97.8263C137.386 97.212 136.919 96.6984 136.326 96.6446C136.288 96.6418 136.249 96.6401 136.209 96.6401H133.341C132.743 96.6401 132.577 96.8023 132.577 97.3152L132.624 104.644H128.644L128.645 95.3729C128.645 94.3871 129.46 93.9949 130.438 93.9949L137.525 93.995ZM123.267 100.65C123.267 101.385 122.677 101.991 121.955 101.991H119.065C118.343 101.991 117.754 101.391 117.754 100.655V97.9851C117.754 97.2495 118.343 96.6478 119.065 96.6478H121.955C122.677 96.6478 123.267 97.2541 123.267 97.9899V100.65ZM113.772 101.676C113.772 103.309 115.494 104.644 117.607 104.644H123.413C125.527 104.644 127.248 103.309 127.248 101.676V96.963C127.248 95.3302 125.527 93.995 123.413 93.995H117.607C115.494 93.995 113.772 95.3302 113.772 96.963V101.676ZM112.968 96.6379V93.995H100.121V96.6379C102.285 96.6379 103.629 96.6379 104.554 96.6379V104.644H108.534V96.6379C109.459 96.6379 110.802 96.6379 112.968 96.6379ZM85.8406 101.676C85.8406 103.309 87.5625 104.644 89.6756 104.644H95.4818C97.5951 104.644 99.3163 103.309 99.3163 101.676V96.963C99.3163 95.3302 97.5951 93.995 95.4818 93.995H89.6756C87.5625 93.995 85.8406 95.3302 85.8406 96.963V101.676ZM95.3354 100.65C95.3354 101.385 94.7453 101.991 94.0237 101.991H91.1335C90.4114 101.991 89.8221 101.39 89.8221 100.655V97.9849C89.8221 97.2492 90.4114 96.6478 91.1335 96.6478H94.0237C94.7453 96.6478 95.3354 97.2541 95.3354 97.9897V100.65ZM73.4333 95.6602C72.7928 94.0077 71.2444 93.9915 70.2018 93.9953H67.2197V104.644H71.2394L71.1106 98.0922C71.1109 97.999 71.1869 97.9226 71.2789 97.9226C71.3657 97.9226 71.4022 97.9665 71.4296 98.0387L73.9657 104.644H77.6511L80.1878 98.0387C80.2153 97.9665 80.2518 97.9226 80.3386 97.9226C80.4306 97.9226 80.5058 97.999 80.5063 98.0922L80.378 104.644H84.3973V93.9953H81.4103C80.368 93.9915 78.8246 94.0077 78.1844 95.6602L76.1723 100.854C76.1127 100.998 75.972 101.1 75.8089 101.1C75.644 101.1 75.502 100.996 75.4433 100.85L73.4333 95.6602ZM76.4013 78.0784C75.455 75.6315 73.1661 75.6085 71.6257 75.613H67.2197V91.3829H73.159L72.9689 81.6802H72.9695C72.9701 81.5419 73.0817 81.4291 73.2183 81.4291C73.3459 81.4291 73.3997 81.4945 73.4404 81.6011L77.1884 91.3829H82.6347L86.3821 81.6011C86.4231 81.4945 86.4774 81.4291 86.6051 81.4291C86.7416 81.4291 86.8527 81.5419 86.8534 81.6802H86.854L86.6633 91.3829H92.6031V75.613H88.1895C86.6489 75.6085 84.368 75.6315 83.422 78.0784L80.449 85.7702C80.3611 85.9834 80.1529 86.1339 79.9115 86.1339C79.668 86.1339 79.4586 85.9812 79.3715 85.7649L76.4013 78.0784ZM154.508 75.613V91.3829H148.627V77.651C148.627 76.1911 149.838 75.5896 151.286 75.613H154.508ZM100.588 91.3829C97.465 91.3829 94.9216 89.4056 94.9216 86.9875V75.613H100.806L100.804 84.5338H100.805V85.6489C100.805 86.7382 101.676 87.6289 102.743 87.6289H105.58C106.647 87.6289 107.518 86.7309 107.518 85.6415V77.651C107.518 76.1911 108.723 75.613 110.182 75.613H113.401V86.9875C113.401 89.4056 110.858 91.3829 107.735 91.3829H100.588ZM132.341 87.4695H122.728C121.845 87.4695 121.601 87.229 121.601 86.4699V75.6125H115.719V89.343C115.719 90.8025 116.923 91.3824 118.371 91.3784L118.752 91.3778V91.3797H129.322V91.3778L129.702 91.3826C131.15 91.3824 132.342 90.8118 132.342 89.3521L132.341 87.4695ZM146.947 79.5259V75.6127H127.963V79.5259C131.162 79.5259 133.148 79.5259 134.515 79.5259V91.3829H140.396V79.5259C141.762 79.5259 143.748 79.5259 146.947 79.5259Z" fill="#004F91"/>
<path fill-rule="evenodd" clip-rule="evenodd" d="M55.2128 81.8867H50.5347C50.0156 81.8867 49.3417 82.2636 49.0393 82.7229L39.917 96.5799H44.5951C45.1148 96.5799 45.7877 96.2037 46.0905 95.7437L55.2128 81.8867Z" fill="#E84C09"/>
</svg>
