<svg width="177" height="177" viewBox="0 0 177 177" fill="none" xmlns="http://www.w3.org/2000/svg">
<rect width="177" height="177" fill="white"/>
<path fill-rule="evenodd" clip-rule="evenodd" d="M109.547 99.7941L106.612 107.726L111.424 113.168L126.702 86.6484L109.547 99.7941ZM133.307 81.1492L128.6 84.164L131.17 79.1029L131.295 79.023L136 76.0096L133.429 81.0708L133.307 81.1492ZM112.927 76.8753L108.694 80.8471L109.444 75.2593L109.58 75.1305L113.811 71.1613L113.061 76.7499L112.927 76.8753ZM88.4731 41L90.5026 46.5104L88.4731 52.0201L86.4431 46.5104L88.4731 41ZM64.073 76.8753L68.306 80.8471L67.5561 75.2593L67.4196 75.1305L63.1891 71.1613L63.9393 76.7499L64.073 76.8753ZM43.6929 81.1492L48.3998 84.164L45.8296 79.1029L45.7046 79.023L41 76.0096L43.5707 81.0708L43.6929 81.1492ZM88.4731 55.1628L80.7246 91.5592L88.4149 117.615L96.2218 91.5592L88.4731 55.1628ZM86.1261 118.238L71.2759 109.199L66.9083 114.115L86.1261 118.238ZM90.8107 118.252L110.092 114.116L105.724 109.199L90.8107 118.252ZM68.953 98.9958L72.1405 107.764L86.3887 116.478L79.0747 91.9839L68.9922 82.6418L68.953 98.9958ZM67.4531 99.7941L50.2977 86.6484L65.5764 113.168L70.3887 107.726L67.4531 99.7941ZM108.047 98.9958L108.008 82.6418L97.9256 91.9839L90.6115 116.478L104.86 107.764L108.047 98.9958ZM132.077 135.327H124.469V133.717L125.068 133.711L125.167 133.707L125.261 133.702L125.35 133.694L125.435 133.684L125.516 133.673L125.591 133.66L125.662 133.645L125.73 133.629L125.791 133.611L125.848 133.592L125.901 133.571L125.95 133.55L125.993 133.528L126.033 133.505L126.069 133.483L126.101 133.459L126.13 133.436L126.155 133.412L126.177 133.387L126.198 133.362L126.217 133.336L126.233 133.308L126.248 133.28L126.263 133.248L126.275 133.215L126.285 133.179L126.296 133.14L126.303 133.096L126.308 133.049L126.312 133L126.315 132.924L126.316 132.894V132.878L126.316 132.857L126.314 132.832L126.312 132.802L126.308 132.768L126.302 132.732L126.296 132.691L126.288 132.648L126.278 132.601L126.268 132.551L126.255 132.498L126.242 132.442L126.226 132.384L126.21 132.323L126.192 132.26L125.383 129.558H121.367L120.7 132.067L120.692 132.1L120.684 132.133L120.677 132.167L120.67 132.2L120.664 132.234L120.659 132.268L120.654 132.302L120.65 132.336L120.645 132.371L120.642 132.405L120.639 132.441L120.637 132.476L120.635 132.512L120.633 132.548L120.633 132.584L120.632 132.619L120.633 132.702L120.637 132.779L120.644 132.852L120.652 132.922L120.663 132.986L120.676 133.047L120.691 133.103L120.707 133.156L120.725 133.204L120.745 133.25L120.765 133.291L120.787 133.329L120.81 133.365L120.834 133.397L120.86 133.428L120.888 133.457L120.917 133.484L120.949 133.509L120.983 133.534L121.019 133.557L121.059 133.579L121.102 133.6L121.149 133.619L121.199 133.637L121.254 133.653L121.312 133.668L121.375 133.681L121.443 133.691L121.514 133.7L121.589 133.707L121.669 133.711L122.25 133.719V135.327H117.109V133.729L117.652 133.71L117.694 133.705L117.735 133.698L117.774 133.687L117.812 133.673L117.85 133.656L117.889 133.635L117.928 133.61L117.969 133.579L118.01 133.544L118.052 133.503L118.095 133.454L118.139 133.401L118.184 133.34L118.228 133.272L118.275 133.195L118.286 133.173L118.3 133.149L118.313 133.123L118.327 133.095L118.342 133.064L118.357 133.033L118.372 133L118.388 132.964L118.404 132.928L118.42 132.89L118.436 132.85L118.454 132.808L118.47 132.765L118.487 132.721L118.505 132.674L118.522 132.626L118.541 132.577L118.558 132.526L118.576 132.474L118.595 132.421L118.613 132.365L118.632 132.309L118.651 132.251L118.67 132.191L118.689 132.129L118.708 132.067L118.728 132.003L118.747 131.938L118.767 131.871L118.787 131.803L118.807 131.733L118.828 131.659L123.846 114.286H125.235L130.481 132.302L130.515 132.416L130.549 132.525L130.583 132.628L130.617 132.726L130.649 132.818L130.681 132.906L130.713 132.986L130.743 133.062L130.773 133.131L130.801 133.194L130.828 133.252L130.855 133.302L130.879 133.346L130.901 133.382L130.92 133.412L130.939 133.437L130.968 133.474L130.996 133.504L131.024 133.532L131.053 133.558L131.083 133.581L131.115 133.602L131.149 133.621L131.184 133.638L131.223 133.654L131.263 133.669L131.307 133.68L131.354 133.691L131.405 133.7L131.459 133.706L131.518 133.71L132.077 133.722V135.327ZM124.753 127.413L123.326 122.512L121.971 127.413H124.753ZM116.258 135.327H108.919V133.925L109.496 133.915L109.571 133.911L109.642 133.904L109.71 133.895L109.773 133.884L109.832 133.87L109.888 133.855L109.94 133.838L109.989 133.818L110.035 133.798L110.077 133.775L110.116 133.752L110.154 133.726L110.189 133.698L110.223 133.669L110.256 133.637L110.288 133.6L110.319 133.563L110.347 133.525L110.374 133.485L110.397 133.444L110.419 133.402L110.439 133.358L110.458 133.312L110.474 133.264L110.489 133.214L110.5 133.162L110.511 133.106L110.519 133.049L110.526 132.989L110.529 132.926L110.53 132.855V128.908H106.81V132.854L106.813 132.922L106.816 132.981L106.822 133.038L106.83 133.093L106.841 133.145L106.854 133.196L106.868 133.245L106.885 133.291L106.904 133.337L106.925 133.381L106.948 133.423L106.973 133.464L107.001 133.505L107.032 133.545L107.066 133.584L107.101 133.622L107.137 133.658L107.174 133.69L107.212 133.72L107.252 133.747L107.294 133.773L107.337 133.796L107.383 133.818L107.431 133.837L107.482 133.855L107.536 133.871L107.592 133.884L107.652 133.896L107.715 133.904L107.782 133.911L107.851 133.915L108.421 133.926V135.327H101.083V133.926L101.654 133.915L101.723 133.911L101.789 133.904L101.852 133.896L101.913 133.884L101.969 133.871L102.022 133.855L102.073 133.837L102.122 133.818L102.167 133.796L102.21 133.773L102.252 133.747L102.292 133.72L102.33 133.69L102.367 133.659L102.403 133.622L102.439 133.584L102.472 133.545L102.503 133.505L102.53 133.464L102.556 133.423L102.579 133.381L102.6 133.337L102.619 133.291L102.636 133.244L102.65 133.196L102.663 133.145L102.674 133.093L102.682 133.038L102.688 132.981L102.692 132.922L102.693 132.854V123.373L102.692 123.307L102.689 123.247L102.684 123.19L102.676 123.136L102.666 123.085L102.656 123.035L102.642 122.988L102.628 122.943L102.611 122.9L102.594 122.859L102.574 122.819L102.553 122.781L102.53 122.745L102.505 122.709L102.478 122.674L102.45 122.642L102.415 122.606L102.379 122.572L102.34 122.541L102.3 122.512L102.258 122.485L102.213 122.461L102.165 122.437L102.115 122.417L102.061 122.398L102.004 122.381L101.943 122.366L101.878 122.354L101.81 122.345L101.737 122.337L101.66 122.333L101.083 122.321V120.92H108.421V122.321L107.851 122.333L107.782 122.337L107.716 122.343L107.654 122.353L107.594 122.365L107.538 122.378L107.485 122.394L107.435 122.411L107.387 122.431L107.341 122.453L107.298 122.477L107.257 122.503L107.217 122.531L107.178 122.561L107.141 122.595L107.104 122.631L107.068 122.671L107.033 122.713L107.002 122.754L106.973 122.796L106.947 122.838L106.923 122.88L106.902 122.924L106.884 122.968L106.867 123.013L106.853 123.058L106.84 123.107L106.829 123.156L106.821 123.206L106.816 123.258L106.813 123.312L106.81 123.374V126.946H110.53V123.374L110.529 123.308L110.526 123.25L110.519 123.195L110.511 123.142L110.502 123.09L110.489 123.04L110.475 122.993L110.459 122.947L110.441 122.902L110.421 122.858L110.399 122.817L110.375 122.775L110.347 122.734L110.318 122.694L110.287 122.655L110.252 122.617L110.219 122.584L110.186 122.553L110.15 122.525L110.112 122.499L110.073 122.474L110.031 122.452L109.985 122.43L109.937 122.411L109.885 122.394L109.83 122.378L109.771 122.365L109.708 122.353L109.641 122.343L109.57 122.337L109.496 122.333L108.919 122.322V120.92H116.258V122.322L115.682 122.333L115.608 122.337L115.537 122.343L115.47 122.353L115.407 122.365L115.348 122.378L115.292 122.394L115.241 122.411L115.193 122.43L115.147 122.452L115.105 122.474L115.065 122.499L115.028 122.525L114.992 122.553L114.958 122.584L114.925 122.617L114.892 122.655L114.86 122.694L114.83 122.734L114.804 122.775L114.779 122.817L114.757 122.858L114.737 122.902L114.718 122.947L114.703 122.992L114.688 123.04L114.676 123.09L114.666 123.142L114.658 123.195L114.652 123.251L114.649 123.309L114.647 123.374V132.854L114.649 132.922L114.652 132.983L114.658 133.04L114.667 133.095L114.677 133.148L114.69 133.199L114.705 133.248L114.721 133.295L114.739 133.34L114.76 133.385L114.783 133.427L114.808 133.469L114.835 133.509L114.864 133.549L114.897 133.588L114.932 133.627L114.967 133.661L115.002 133.692L115.038 133.721L115.077 133.748L115.118 133.773L115.161 133.796L115.206 133.817L115.254 133.837L115.306 133.854L115.36 133.87L115.418 133.884L115.479 133.895L115.545 133.904L115.612 133.911L115.685 133.915L116.258 133.925V135.327ZM101.378 128.531L101.376 128.714L101.371 128.895L101.362 129.075L101.349 129.254L101.332 129.431L101.313 129.607L101.289 129.782L101.262 129.955L101.231 130.127L101.196 130.297L101.158 130.465L101.116 130.634L101.07 130.799L101.021 130.963L100.967 131.126L100.911 131.287L100.85 131.447L100.786 131.605L100.718 131.762L100.647 131.917L100.572 132.069L100.493 132.222L100.41 132.371L100.325 132.519L100.235 132.666L100.141 132.811L100.045 132.954L99.944 133.096L99.8405 133.235L99.7329 133.373L99.6219 133.509L99.5056 133.645L99.3758 133.79L99.243 133.929L99.1085 134.064L98.9706 134.195L98.8298 134.321L98.6867 134.443L98.5409 134.561L98.3926 134.673L98.242 134.782L98.089 134.886L97.9333 134.985L97.7746 135.08L97.614 135.17L97.4501 135.255L97.2844 135.336L97.1162 135.412L96.9465 135.484L96.7733 135.551L96.5976 135.614L96.4204 135.671L96.241 135.724L96.0593 135.772L95.8746 135.816L95.6888 135.855L95.5001 135.888L95.3101 135.918L95.1174 135.943L94.9228 135.964L94.7261 135.98L94.5274 135.991L94.3267 135.998L94.1239 136L93.9192 135.998L93.7166 135.991L93.5158 135.98L93.3174 135.964L93.1213 135.944L92.9266 135.919L92.735 135.89L92.5455 135.856L92.3578 135.817L92.1724 135.774L91.9892 135.726L91.8085 135.674L91.6301 135.617L91.4542 135.555L91.2805 135.489L91.1088 135.419L90.9409 135.343L90.774 135.263L90.6105 135.178L90.4493 135.089L90.291 134.995L90.1344 134.896L89.9812 134.793L89.8305 134.685L89.6826 134.573L89.5372 134.457L89.3945 134.336L89.255 134.21L89.1176 134.081L88.9837 133.947L88.852 133.808L88.725 133.667L88.6103 133.537L88.4976 133.402L88.3887 133.267L88.2832 133.128L88.1818 132.988L88.0831 132.846L87.9883 132.702L87.8976 132.556L87.8111 132.409L87.7272 132.259L87.6473 132.107L87.5707 131.954L87.499 131.799L87.4301 131.642L87.3649 131.483L87.3036 131.323L87.2461 131.161L87.1921 130.997L87.1425 130.831L87.0957 130.664L87.0532 130.495L87.0148 130.324L86.9798 130.152L86.9477 129.978L86.9207 129.803L86.897 129.625L86.8772 129.447L86.8601 129.267L86.8475 129.086L86.8383 128.903L86.8325 128.717L86.8313 128.531L86.8329 128.335L86.8388 128.141L86.8487 127.948L86.862 127.757L86.8798 127.568L86.902 127.381L86.9277 127.196L86.9573 127.012L86.9912 126.83L87.0296 126.65L87.0707 126.473L87.1167 126.296L87.1664 126.122L87.2201 125.949L87.2784 125.78L87.3401 125.611L87.4063 125.444L87.4763 125.28L87.5503 125.118L87.6283 124.957L87.7107 124.8L87.7967 124.644L87.8868 124.49L87.9811 124.338L88.0788 124.188L88.181 124.041L88.2869 123.896L88.3969 123.754L88.5104 123.613L88.6284 123.474L88.7493 123.338L88.8749 123.204L89.0037 123.073L89.1343 122.946L89.2683 122.823L89.4042 122.703L89.5422 122.588L89.683 122.477L89.8261 122.371L89.9708 122.268L90.1185 122.17L90.2688 122.075L90.4216 121.985L90.5759 121.899L90.7325 121.817L90.8914 121.739L91.0529 121.666L91.2164 121.596L91.3817 121.531L91.5492 121.47L91.7189 121.414L91.8913 121.362L92.065 121.313L92.2404 121.27L92.4183 121.23L92.5982 121.195L92.7796 121.163L92.9634 121.136L93.1487 121.114L93.3364 121.095L93.5256 121.081L93.7168 121.071L93.9095 121.064L94.1038 121.062L94.2971 121.064L94.4877 121.071L94.6768 121.081L94.8644 121.095L95.0497 121.114L95.2337 121.136L95.4156 121.164L95.5961 121.195L95.7742 121.23L95.9506 121.27L96.125 121.313L96.2978 121.362L96.4685 121.414L96.6374 121.471L96.8041 121.531L96.9687 121.596L97.1317 121.666L97.2924 121.739L97.4513 121.817L97.6075 121.899L97.7616 121.985L97.9133 122.075L98.064 122.17L98.2113 122.268L98.3571 122.37L98.5002 122.477L98.6416 122.588L98.7806 122.703L98.9169 122.822L99.0513 122.944L99.1823 123.071L99.3128 123.202L99.4394 123.336L99.5618 123.472L99.6809 123.61L99.7958 123.751L99.9063 123.894L100.014 124.039L100.117 124.186L100.216 124.336L100.311 124.488L100.401 124.642L100.488 124.798L100.572 124.955L100.65 125.116L100.725 125.278L100.797 125.443L100.863 125.609L100.926 125.777L100.985 125.948L101.039 126.12L101.089 126.295L101.136 126.471L101.178 126.649L101.216 126.829L101.25 127.011L101.28 127.195L101.306 127.381L101.328 127.568L101.346 127.756L101.361 127.948L101.37 128.141L101.376 128.335L101.378 128.531ZM97.0837 128.571L97.0829 128.406L97.0809 128.244L97.0772 128.083L97.0727 127.924L97.0664 127.769L97.0587 127.614L97.0502 127.463L97.0392 127.313L97.028 127.165L97.0147 127.019L97.0008 126.876L96.9847 126.735L96.9682 126.595L96.9497 126.458L96.9295 126.323L96.909 126.19L96.886 126.06L96.8625 125.932L96.8378 125.805L96.8115 125.681L96.7836 125.559L96.7551 125.438L96.7246 125.321L96.6931 125.206L96.661 125.092L96.6264 124.981L96.5916 124.871L96.5554 124.764L96.5174 124.659L96.4787 124.556L96.4384 124.455L96.3982 124.358L96.3455 124.241L96.2915 124.128L96.2365 124.019L96.1796 123.915L96.122 123.815L96.0631 123.72L96.0028 123.628L95.9409 123.541L95.8784 123.459L95.8154 123.38L95.7502 123.306L95.6845 123.235L95.6178 123.169L95.5501 123.107L95.4811 123.048L95.4116 122.993L95.3401 122.942L95.2679 122.894L95.1944 122.849L95.12 122.809L95.044 122.772L94.9663 122.737L94.887 122.706L94.8061 122.678L94.7231 122.654L94.6382 122.632L94.5517 122.613L94.463 122.598L94.3715 122.587L94.2783 122.578L94.1826 122.573L94.0846 122.571L93.9919 122.573L93.901 122.578L93.8118 122.586L93.725 122.596L93.6396 122.611L93.5574 122.628L93.4758 122.649L93.3969 122.672L93.3192 122.699L93.2432 122.728L93.168 122.761L93.095 122.796L93.0231 122.836L92.952 122.877L92.8824 122.922L92.8131 122.971L92.746 123.023L92.6795 123.079L92.6134 123.138L92.5485 123.202L92.4843 123.268L92.421 123.339L92.3585 123.414L92.2976 123.492L92.2374 123.574L92.1783 123.661L92.1202 123.752L92.0631 123.847L92.0072 123.945L91.9529 124.049L91.8989 124.157L91.8465 124.268L91.8037 124.365L91.7616 124.466L91.7208 124.569L91.6816 124.674L91.6431 124.781L91.6062 124.891L91.5701 125.003L91.5364 125.118L91.5032 125.235L91.4711 125.354L91.4412 125.476L91.4124 125.6L91.385 125.726L91.3584 125.855L91.333 125.986L91.3095 126.119L91.2875 126.255L91.267 126.392L91.2472 126.533L91.2297 126.676L91.213 126.821L91.1974 126.969L91.1848 127.119L91.1712 127.271L91.1611 127.425L91.1518 127.582L91.1433 127.741L91.1366 127.902L91.132 128.066L91.128 128.232L91.1261 128.401L91.1248 128.571L91.1261 128.737L91.1283 128.901L91.1323 129.064L91.1373 129.225L91.1441 129.382L91.1528 129.538L91.1623 129.692L91.1744 129.844L91.1868 129.993L91.201 130.14L91.2173 130.285L91.2348 130.428L91.2533 130.569L91.274 130.708L91.2953 130.844L91.3192 130.978L91.3432 131.11L91.3698 131.24L91.3972 131.367L91.426 131.493L91.4567 131.616L91.4884 131.737L91.5216 131.856L91.5562 131.972L91.5921 132.087L91.6298 132.199L91.6688 132.309L91.7088 132.417L91.7503 132.523L91.7933 132.627L91.8377 132.729L91.8833 132.829L91.9363 132.94L91.9897 133.045L92.0447 133.145L92.1004 133.243L92.1566 133.335L92.2146 133.425L92.2731 133.509L92.3328 133.591L92.3933 133.667L92.4552 133.741L92.5172 133.809L92.5805 133.875L92.6447 133.937L92.7095 133.995L92.7752 134.05L92.8416 134.101L92.9094 134.148L92.9784 134.193L93.048 134.234L93.1185 134.271L93.19 134.306L93.2635 134.338L93.3374 134.367L93.4134 134.393L93.4914 134.415L93.5703 134.435L93.6507 134.452L93.7343 134.466L93.8187 134.477L93.9052 134.485L93.9939 134.49L94.0846 134.491L94.1801 134.489L94.2728 134.485L94.3636 134.476L94.452 134.464L94.5384 134.448L94.623 134.431L94.7057 134.409L94.7866 134.384L94.8663 134.356L94.9438 134.325L95.0197 134.291L95.0955 134.253L95.1692 134.212L95.2411 134.167L95.3129 134.119L95.3834 134.067L95.4536 134.011L95.5218 133.952L95.5895 133.889L95.6567 133.821L95.7227 133.75L95.7877 133.674L95.8512 133.595L95.9149 133.511L95.9766 133.423L96.0376 133.33L96.0976 133.233L96.1566 133.132L96.214 133.026L96.2702 132.916L96.3255 132.802L96.3795 132.682L96.4219 132.583L96.4626 132.482L96.5027 132.378L96.5411 132.272L96.5789 132.165L96.6152 132.056L96.6501 131.945L96.6834 131.832L96.7156 131.718L96.7468 131.601L96.7762 131.482L96.8051 131.363L96.8315 131.241L96.8575 131.117L96.8813 130.991L96.9045 130.863L96.926 130.733L96.9465 130.602L96.9649 130.469L96.9824 130.334L96.9987 130.198L97.0132 130.059L97.0267 129.918L97.0385 129.776L97.0492 129.632L97.058 129.486L97.0659 129.337L97.0727 129.187L97.0772 129.036L97.0809 128.882L97.0829 128.728L97.0837 128.571ZM86.3608 125.216L86.3593 125.333L86.3553 125.448L86.3477 125.563L86.3378 125.677L86.324 125.79L86.3076 125.901L86.2886 126.011L86.2656 126.121L86.2403 126.229L86.2116 126.336L86.1801 126.443L86.1455 126.548L86.1078 126.65L86.0666 126.753L86.0227 126.854L85.9761 126.952L85.9261 127.051L85.8731 127.147L85.8172 127.242L85.7587 127.335L85.6967 127.427L85.6318 127.516L85.5641 127.605L85.4938 127.692L85.4211 127.777L85.3451 127.86L85.2664 127.942L85.1852 128.023L85.1013 128.101L85.0143 128.178L84.9256 128.252L84.8356 128.325L84.7508 128.391L84.6624 128.456L84.5729 128.52L84.4828 128.58L84.3914 128.639L84.2975 128.696L84.2031 128.751L84.1081 128.803L84.0115 128.854L83.9138 128.903L83.814 128.949L83.7138 128.992L83.6126 129.033L83.5094 129.074L83.4057 129.111L83.3005 129.146L83.1955 129.179L83.0883 129.21L82.9799 129.238L82.8715 129.265L82.7607 129.289L82.6495 129.312L82.537 129.332L82.4239 129.349L82.3103 129.365L82.1951 129.379L82.0784 129.39L81.9619 129.4L81.8438 129.407L81.7247 129.412L81.6046 129.415L81.4854 129.416H79.8988V132.969L79.9001 133.03L79.9028 133.084L79.9076 133.137L79.9136 133.187L79.9211 133.235L79.9313 133.283L79.9423 133.328L79.9545 133.371L79.9691 133.413L79.9848 133.454L80.0018 133.494L80.0206 133.532L80.0406 133.569L80.0628 133.605L80.086 133.642L80.1113 133.675L80.1472 133.72L80.1817 133.758L80.2187 133.794L80.2567 133.826L80.2984 133.856L80.3424 133.884L80.3896 133.909L80.4407 133.933L80.496 133.954L80.5551 133.973L80.6191 133.99L80.6878 134.004L80.7617 134.015L80.8405 134.024L80.9236 134.029L81.5094 134.04V135.441H74.1709V134.039L74.7412 134.03L74.8109 134.026L74.8771 134.019L74.9406 134.01L75.0006 133.999L75.0565 133.985L75.1103 133.969L75.1612 133.952L75.2095 133.932L75.2553 133.911L75.2987 133.888L75.3405 133.861L75.38 133.834L75.4182 133.805L75.4551 133.773L75.4916 133.737L75.5271 133.699L75.5606 133.66L75.5908 133.619L75.6185 133.579L75.644 133.537L75.6675 133.494L75.6883 133.452L75.7071 133.406L75.724 133.359L75.739 133.311L75.7515 133.26L75.7622 133.207L75.7702 133.153L75.7763 133.096L75.78 133.036L75.7812 132.969V123.43L75.78 123.371L75.7763 123.32L75.7711 123.272L75.7628 123.225L75.7527 123.181L75.7407 123.137L75.7268 123.095L75.7105 123.053L75.6921 123.012L75.671 122.972L75.6478 122.932L75.6221 122.893L75.5931 122.854L75.5615 122.814L75.5269 122.776L75.4896 122.737L75.4513 122.702L75.4134 122.67L75.3734 122.64L75.3327 122.612L75.2905 122.587L75.2454 122.564L75.1992 122.543L75.1512 122.523L75.1008 122.505L75.0476 122.491L74.9913 122.477L74.9328 122.466L74.8714 122.457L74.8062 122.451L74.7387 122.447L74.1709 122.436V121.035H81.4272L81.536 121.036L81.6464 121.039L81.7559 121.042L81.8646 121.047L81.9727 121.055L82.0799 121.064L82.186 121.075L82.2919 121.087L82.3971 121.1L82.5011 121.116L82.6043 121.134L82.7067 121.153L82.8086 121.173L82.9094 121.194L83.0095 121.219L83.1089 121.243L83.2075 121.271L83.3052 121.3L83.4017 121.33L83.4974 121.363L83.5924 121.397L83.6863 121.432L83.7798 121.47L83.8718 121.508L83.9634 121.549L84.0539 121.591L84.1431 121.635L84.2321 121.681L84.3196 121.728L84.4066 121.777L84.492 121.827L84.58 121.882L84.6884 121.954L84.7924 122.028L84.8933 122.103L84.9915 122.181L85.086 122.262L85.178 122.345L85.2667 122.43L85.3516 122.517L85.4341 122.607L85.5128 122.699L85.5884 122.793L85.6603 122.89L85.7292 122.988L85.7948 123.089L85.857 123.193L85.9149 123.297L85.9691 123.405L86.0202 123.514L86.0678 123.625L86.1116 123.737L86.1521 123.851L86.1888 123.968L86.2221 124.085L86.2515 124.205L86.2773 124.326L86.2995 124.449L86.3182 124.573L86.3338 124.698L86.3458 124.826L86.3543 124.955L86.3593 125.085L86.3608 125.216ZM82.2546 124.903L82.2504 124.828L82.2445 124.755L82.2377 124.684L82.2299 124.612L82.2211 124.543L82.2114 124.475L82.2006 124.408L82.1892 124.342L82.1765 124.278L82.1627 124.217L82.1482 124.155L82.1329 124.094L82.1162 124.036L82.0993 123.978L82.0812 123.922L82.0625 123.868L82.042 123.814L82.0218 123.762L82.0005 123.711L81.978 123.661L81.9545 123.612L81.9305 123.565L81.906 123.519L81.8802 123.474L81.8541 123.43L81.8268 123.387L81.7985 123.346L81.7713 123.307L81.7091 123.225L81.6476 123.153L81.5854 123.086L81.5231 123.026L81.4604 122.972L81.397 122.924L81.3345 122.88L81.2699 122.842L81.2048 122.809L81.1388 122.781L81.0709 122.757L81.0016 122.738L80.9299 122.722L80.8555 122.711L80.7782 122.704L80.6925 122.702L80.6171 122.702L80.5401 122.703L80.4669 122.705L80.3987 122.709L80.335 122.713L80.2755 122.716L80.2204 122.722L80.1706 122.728L80.126 122.733L80.086 122.74L80.0515 122.747L80.0235 122.753L80.0018 122.759L79.9861 122.764L79.9781 122.767L79.9716 122.772L79.9661 122.774L79.9621 122.778L79.9589 122.781L79.9555 122.785L79.9508 122.791L79.9458 122.8L79.9393 122.811L79.9331 122.826L79.926 122.846L79.9191 122.871L79.9125 122.901L79.9076 122.935L79.9028 122.975L79.9001 123.021L79.8988 123.075V127.787L79.9423 127.786L80.1028 127.778L80.2559 127.765L80.4024 127.746L80.5423 127.723L80.6745 127.695L80.8003 127.661L80.9202 127.624L81.0329 127.582L81.1391 127.536L81.239 127.486L81.334 127.431L81.422 127.373L81.5054 127.31L81.5837 127.243L81.6576 127.172L81.7274 127.095L81.7926 127.015L81.8538 126.928L81.9115 126.835L81.9645 126.738L82.014 126.634L82.0594 126.523L82.1007 126.406L82.1377 126.281L82.1702 126.15L82.1979 126.012L82.2211 125.867L82.2397 125.715L82.2523 125.555L82.2601 125.389L82.2631 125.214L82.2624 125.136L82.2609 125.057L82.2584 124.979L82.2546 124.903ZM74.4096 128.327L74.4075 128.51L74.4023 128.691L74.393 128.872L74.3805 129.05L74.3643 129.227L74.3446 129.403L74.3206 129.578L74.2933 129.751L74.2626 129.922L74.2281 130.092L74.1897 130.261L74.1474 130.428L74.1015 130.594L74.0524 130.76L73.9992 130.922L73.9422 131.083L73.882 131.243L73.8181 131.4L73.7498 131.557L73.6784 131.712L73.6036 131.865L73.5241 132.017L73.442 132.167L73.3559 132.316L73.2662 132.462L73.1733 132.607L73.0761 132.75L72.9758 132.891L72.872 133.031L72.7644 133.169L72.6532 133.306L72.5378 133.441L72.4076 133.586L72.2749 133.726L72.1402 133.86L72.0021 133.991L71.8615 134.117L71.7187 134.239L71.5732 134.356L71.4245 134.469L71.2743 134.577L71.1209 134.681L70.9646 134.78L70.8065 134.875L70.6455 134.966L70.4818 135.052L70.3162 135.132L70.1487 135.208L69.9781 135.28L69.8049 135.346L69.6303 135.409L69.4523 135.467L69.2723 135.52L69.0907 135.568L68.907 135.611L68.7204 135.65L68.5322 135.685L68.3415 135.714L68.1494 135.74L67.9544 135.76L67.7579 135.776L67.5593 135.787L67.3586 135.794L67.156 135.796L66.9511 135.794L66.7479 135.787L66.5472 135.776L66.3493 135.76L66.1527 135.74L65.9584 135.715L65.7665 135.686L65.5768 135.652L65.3897 135.614L65.2037 135.57L65.0211 135.522L64.8405 135.47L64.662 135.413L64.4857 135.352L64.3121 135.285L64.1409 135.214L63.972 135.139L63.806 135.058L63.6422 134.974L63.481 134.884L63.3223 134.79L63.1663 134.692L63.0129 134.589L62.8625 134.481L62.7143 134.37L62.5686 134.253L62.4264 134.132L62.2864 134.007L62.1493 133.876L62.0151 133.743L61.8834 133.604L61.7566 133.464L61.6417 133.333L61.5295 133.199L61.42 133.062L61.3149 132.924L61.2129 132.784L61.1146 132.642L61.0205 132.498L60.9293 132.352L60.842 132.204L60.7586 132.054L60.6788 131.903L60.6026 131.75L60.5304 131.594L60.4614 131.438L60.3967 131.279L60.335 131.118L60.2778 130.956L60.224 130.793L60.1742 130.626L60.1276 130.459L60.0856 130.29L60.0466 130.12L60.0117 129.948L59.9801 129.774L59.9526 129.598L59.9289 129.422L59.9081 129.243L59.8914 129.063L59.8796 128.881L59.8696 128.698L59.8644 128.513L59.8625 128.327L59.8644 128.131L59.8699 127.936L59.8804 127.744L59.8941 127.553L59.9119 127.364L59.9336 127.177L59.9592 126.992L59.9893 126.807L60.0229 126.626L60.0609 126.446L60.1028 126.268L60.148 126.092L60.1974 125.917L60.252 125.745L60.3099 125.575L60.3717 125.406L60.4379 125.24L60.5079 125.076L60.5824 124.914L60.66 124.754L60.7423 124.595L60.8286 124.44L60.9183 124.286L61.0126 124.134L61.1106 123.984L61.2129 123.837L61.3183 123.692L61.4286 123.549L61.5422 123.408L61.6594 123.27L61.7809 123.134L61.906 123L62.0353 122.869L62.1662 122.742L62.2994 122.619L62.4359 122.5L62.5746 122.384L62.7145 122.274L62.8572 122.167L63.0029 122.064L63.1505 121.965L63.3005 121.871L63.4531 121.781L63.6074 121.695L63.7644 121.612L63.9231 121.535L64.0845 121.461L64.2481 121.392L64.4133 121.327L64.5811 121.266L64.7507 121.209L64.9229 121.157L65.0965 121.109L65.272 121.066L65.4499 121.026L65.6296 120.991L65.8115 120.959L65.9949 120.932L66.1801 120.909L66.3678 120.891L66.5569 120.876L66.7479 120.865L66.9416 120.86L67.1362 120.857L67.3289 120.86L67.5196 120.865L67.7087 120.876L67.8961 120.891L68.0816 120.91L68.2658 120.932L68.4472 120.959L68.6276 120.991L68.8063 121.026L68.9823 121.066L69.1571 121.11L69.3295 121.157L69.5 121.21L69.6689 121.266L69.8362 121.327L70.0004 121.392L70.1633 121.461L70.3239 121.535L70.4824 121.613L70.6391 121.695L70.7933 121.781L70.9457 121.871L71.0954 121.965L71.2436 122.064L71.3888 122.167L71.5322 122.273L71.6731 122.383L71.8118 122.499L71.9485 122.617L72.0827 122.74L72.2147 122.867L72.3444 122.998L72.4708 123.131L72.5933 123.268L72.7125 123.407L72.8275 123.547L72.9387 123.69L73.0453 123.834L73.1483 123.982L73.2473 124.132L73.3424 124.283L73.4334 124.437L73.5203 124.593L73.6036 124.752L73.6826 124.912L73.7571 125.074L73.8283 125.239L73.895 125.405L73.9576 125.573L74.016 125.744L74.0709 125.916L74.1209 126.091L74.1674 126.267L74.2096 126.445L74.2476 126.625L74.2818 126.807L74.3119 126.99L74.3379 127.176L74.36 127.364L74.378 127.552L74.3921 127.744L74.4014 127.936L74.4073 128.131L74.4096 128.327ZM70.115 128.366L70.1145 128.202L70.1125 128.039L70.1097 127.879L70.1045 127.721L70.0983 127.564L70.0901 127.41L70.082 127.258L70.0715 127.108L70.0595 126.961L70.0468 126.815L70.0325 126.672L70.0163 126.53L69.9995 126.391L69.9808 126.254L69.9613 126.119L69.9403 125.986L69.9183 125.855L69.8944 125.727L69.8699 125.601L69.8434 125.477L69.8157 125.354L69.7869 125.235L69.7564 125.116L69.7252 125.001L69.6925 124.887L69.6587 124.776L69.6235 124.666L69.5868 124.56L69.5492 124.455L69.5103 124.352L69.4703 124.252L69.4295 124.154L69.3766 124.037L69.3231 123.924L69.2681 123.815L69.2114 123.711L69.1535 123.611L69.0944 123.516L69.0342 123.424L68.973 123.338L68.91 123.255L68.8468 123.176L68.7821 123.102L68.7164 123.031L68.6493 122.965L68.5816 122.902L68.5129 122.844L68.4429 122.789L68.372 122.737L68.3003 122.69L68.2264 122.646L68.1515 122.604L68.0753 122.567L67.9978 122.533L67.9187 122.501L67.8377 122.473L67.7552 122.449L67.6697 122.428L67.5833 122.409L67.4946 122.394L67.4036 122.382L67.3105 122.374L67.214 122.368L67.1165 122.367L67.0232 122.368L66.9323 122.373L66.8431 122.381L66.7567 122.393L66.6712 122.406L66.5889 122.424L66.5077 122.445L66.4285 122.468L66.3511 122.495L66.2749 122.524L66.1998 122.556L66.1266 122.592L66.0546 122.631L65.9837 122.673L65.9136 122.718L65.8452 122.767L65.7777 122.819L65.7108 122.875L65.6443 122.934L65.5798 122.997L65.5162 123.063L65.4525 123.135L65.3907 123.209L65.3292 123.288L65.2695 123.37L65.2102 123.457L65.1515 123.548L65.0943 123.643L65.0391 123.742L64.9838 123.845L64.9301 123.952L64.8779 124.064L64.8352 124.161L64.7936 124.261L64.7527 124.364L64.713 124.469L64.6748 124.577L64.6381 124.687L64.6022 124.8L64.568 124.914L64.5351 125.03L64.5033 125.15L64.4726 125.271L64.4441 125.396L64.4161 125.521L64.3899 125.651L64.365 125.782L64.3413 125.915L64.3194 126.05L64.2983 126.189L64.2794 126.329L64.2606 126.472L64.2449 126.617L64.2291 126.765L64.2156 126.914L64.2034 127.066L64.1924 127.221L64.1831 127.378L64.1755 127.536L64.1687 127.698L64.1637 127.862L64.1602 128.027L64.1577 128.196L64.1565 128.366L64.1577 128.533L64.1602 128.698L64.1639 128.86L64.1692 129.02L64.1759 129.178L64.1842 129.334L64.1947 129.488L64.2054 129.64L64.2184 129.789L64.2331 129.936L64.2487 130.08L64.2659 130.223L64.2851 130.364L64.3054 130.503L64.3271 130.639L64.3504 130.774L64.3751 130.906L64.4013 131.035L64.4291 131.163L64.4576 131.288L64.4883 131.412L64.5203 131.533L64.5532 131.652L64.5877 131.769L64.6242 131.882L64.6615 131.995L64.7002 132.105L64.7402 132.213L64.7822 132.319L64.8247 132.423L64.8692 132.525L64.9151 132.625L64.9681 132.735L65.0216 132.84L65.0763 132.942L65.1317 133.039L65.1885 133.131L65.2465 133.22L65.3047 133.306L65.3642 133.386L65.4247 133.463L65.4865 133.536L65.5492 133.606L65.6121 133.671L65.6764 133.733L65.741 133.79L65.8072 133.845L65.8735 133.896L65.9415 133.944L66.0099 133.988L66.0797 134.029L66.1501 134.067L66.2219 134.102L66.2945 134.133L66.3693 134.163L66.4455 134.189L66.5229 134.212L66.6017 134.231L66.6827 134.248L66.7654 134.262L66.8506 134.273L66.9365 134.281L67.0256 134.285L67.1165 134.287L67.2119 134.285L67.3044 134.28L67.3949 134.271L67.4842 134.26L67.5698 134.245L67.6547 134.227L67.7374 134.205L67.8187 134.18L67.8974 134.152L67.9751 134.121L68.0516 134.086L68.1268 134.049L68.2006 134.007L68.2733 133.963L68.345 133.915L68.4155 133.863L68.4851 133.807L68.5535 133.747L68.6211 133.684L68.6886 133.617L68.7544 133.546L68.819 133.471L68.883 133.391L68.9463 133.307L69.0087 133.219L69.0697 133.126L69.1294 133.029L69.1879 132.928L69.2457 132.822L69.3021 132.712L69.3573 132.597L69.411 132.478L69.4533 132.379L69.4945 132.277L69.5348 132.174L69.5735 132.068L69.6105 131.961L69.6471 131.852L69.6817 131.74L69.7155 131.628L69.7479 131.513L69.7779 131.396L69.8082 131.278L69.8369 131.158L69.8636 131.036L69.8891 130.912L69.9126 130.786L69.9358 130.659L69.9578 130.53L69.9781 130.398L69.9968 130.265L70.0143 130.13L70.0301 129.993L70.0445 129.854L70.0586 129.714L70.0705 129.571L70.0812 129.427L70.0901 129.281L70.0975 129.133L70.104 128.984L70.1091 128.832L70.1125 128.678L70.1145 128.523L70.115 128.366ZM54.267 133.593L54.3033 133.574L54.3271 133.555L54.3436 133.54L54.3564 133.523L54.3691 133.5L54.3824 133.465L54.3951 133.417L54.4054 133.354L54.4126 133.277L54.4143 133.226L54.4081 133.207L54.3924 133.167L54.3704 133.114L54.3436 133.053L54.3117 132.983L54.2741 132.903L54.2315 132.816L54.1842 132.72L54.132 132.617L54.0745 132.505L54.0125 132.387L53.9455 132.259L53.8738 132.126L50.7243 126.313V131.857L50.7246 131.914L50.7258 131.968L50.7276 132.023L50.7303 132.076L50.7338 132.127L50.7376 132.178L50.7428 132.229L50.7478 132.278L50.7548 132.327L50.7616 132.375L50.7698 132.423L50.7778 132.469L50.7868 132.514L50.7973 132.558L50.8076 132.603L50.8188 132.646L50.8303 132.688L50.8428 132.73L50.8565 132.772L50.87 132.812L50.8843 132.852L50.8993 132.89L50.9147 132.928L50.9313 132.966L50.9482 133.004L50.9657 133.039L50.9845 133.074L51.003 133.11L51.022 133.144L51.0427 133.178L51.0637 133.211L51.0824 133.24L51.1267 133.302L51.1689 133.354L51.2124 133.402L51.2556 133.446L51.3006 133.485L51.3456 133.519L51.3928 133.55L51.4406 133.578L51.491 133.602L51.5437 133.623L51.5987 133.642L51.6575 133.657L51.7185 133.67L51.7839 133.679L51.8536 133.684L52.4242 133.698V135.301H44.7325V133.701L45.312 133.684L45.3897 133.676L45.4617 133.665L45.5294 133.649L45.5936 133.63L45.6534 133.607L45.7106 133.579L45.7656 133.548L45.8191 133.512L45.8703 133.471L45.9213 133.425L45.9707 133.373L46.02 133.313L46.0675 133.248L46.1147 133.176L46.1614 133.093L46.1924 133.033L46.2229 132.969L46.2506 132.903L46.2769 132.835L46.3014 132.765L46.3236 132.694L46.3438 132.62L46.3621 132.544L46.3786 132.466L46.3926 132.387L46.4051 132.305L46.4148 132.22L46.4226 132.133L46.4283 132.044L46.4318 131.953L46.4331 131.857V117.618L46.4313 117.513L46.4271 117.414L46.4193 117.319L46.4086 117.226L46.3951 117.137L46.3791 117.049L46.3598 116.966L46.3381 116.883L46.3136 116.804L46.2869 116.727L46.2571 116.653L46.2244 116.581L46.1897 116.511L46.1519 116.443L46.1114 116.376L46.0682 116.313L46.025 116.254L45.9815 116.202L45.938 116.155L45.8928 116.112L45.8475 116.074L45.8016 116.04L45.7546 116.009L45.7059 115.981L45.6561 115.958L45.6036 115.936L45.5489 115.918L45.4924 115.904L45.432 115.892L45.368 115.883L45.3013 115.877L44.7325 115.862V114.26H52.4242V115.862L51.8594 115.877L51.7949 115.883L51.7337 115.891L51.675 115.903L51.62 115.918L51.5668 115.936L51.515 115.957L51.4658 115.98L51.4175 116.008L51.3706 116.039L51.3234 116.074L51.2766 116.113L51.2312 116.156L51.1857 116.205L51.1409 116.258L51.0964 116.317L51.0524 116.381L51.011 116.447L50.9727 116.515L50.9365 116.584L50.9035 116.657L50.8728 116.731L50.8458 116.807L50.8205 116.887L50.7983 116.968L50.7791 117.052L50.7626 117.139L50.7488 117.228L50.7378 117.321L50.7303 117.415L50.7261 117.514L50.7243 117.618V122.913L54.2767 117.8L54.3599 117.68L54.4348 117.568L54.5046 117.461L54.5683 117.358L54.6268 117.26L54.6783 117.169L54.725 117.082L54.765 117.001L54.7992 116.926L54.8279 116.857L54.8507 116.796L54.8676 116.742L54.8804 116.696L54.8874 116.659L54.8908 116.631L54.8919 116.61L54.8908 116.578L54.8881 116.544L54.8834 116.513L54.8764 116.483L54.8682 116.455L54.8584 116.427L54.8459 116.4L54.8319 116.372L54.8152 116.345L54.7957 116.317L54.7729 116.289L54.7469 116.259L54.7175 116.23L54.684 116.199L54.6465 116.168L54.6038 116.136L54.557 116.104L54.5086 116.075L54.4609 116.046L54.4126 116.021L54.3641 115.997L54.3157 115.976L54.2662 115.957L54.2164 115.94L54.1662 115.925L54.1155 115.912L54.0642 115.901L54.0118 115.892L53.9593 115.885L53.9043 115.879L53.8495 115.877L53.2953 115.866V114.26H60.261V115.872L59.7027 115.875L59.6415 115.877L59.581 115.879L59.5215 115.882L59.4626 115.885L59.4048 115.89L59.3461 115.895L59.2899 115.901L59.2347 115.908L59.1797 115.915L59.1247 115.923L59.0711 115.932L59.0185 115.942L58.9658 115.952L58.9143 115.963L58.8639 115.976L58.8138 115.988L58.7644 116.001L58.7153 116.016L58.6674 116.03L58.6201 116.046L58.5737 116.062L58.5279 116.079L58.4825 116.096L58.4385 116.115L58.3945 116.134L58.3508 116.154L58.308 116.174L58.2666 116.195L58.225 116.217L58.1836 116.24L58.1433 116.263L58.1031 116.287L58.0626 116.313L58.0214 116.339L57.9802 116.368L57.9391 116.397L57.8967 116.428L57.8545 116.461L57.8115 116.495L57.769 116.531L57.7248 116.567L57.6808 116.606L57.6366 116.646L57.5921 116.688L57.5468 116.731L57.5009 116.776L57.4558 116.821L57.4102 116.868L57.3634 116.918L57.3171 116.968L57.2702 117.021L57.2237 117.074L57.176 117.129L57.1285 117.185L57.0805 117.243L57.033 117.302L56.9843 117.363L56.9364 117.426L56.8873 117.489L56.8387 117.555L56.7894 117.621L56.7404 117.69L56.6899 117.759L53.6062 122.156L59.5742 132.789L59.6493 132.92L59.722 133.037L59.7924 133.145L59.8617 133.242L59.9289 133.329L59.9934 133.405L60.0548 133.472L60.1138 133.527L60.1678 133.575L60.2175 133.611L60.262 133.639L60.3008 133.659L60.3344 133.673L60.3624 133.68L60.3854 133.684L60.9042 133.714V135.301H53.1274V133.697L53.7854 133.683L53.9243 133.673L54.0418 133.657L54.1374 133.638L54.2121 133.616L54.267 133.593Z" fill="#F9683A"/>
</svg>
