<svg width="177" height="177" viewBox="0 0 177 177" fill="none" xmlns="http://www.w3.org/2000/svg">
<rect width="177" height="177" fill="white"/>
<mask id="path-2-inside-1_6918_1502" fill="white">
<path d="M81.1679 44.4715L78.6048 46.7904L81.473 49.6586L84.3106 52.4962L81.1679 55.6085L78.0556 58.7512L75.34 56.0356C73.8449 54.5405 72.5024 53.3811 72.3193 53.4421C71.8006 53.6557 67.3764 57.9274 67.3764 58.2325C67.3764 58.4156 68.6274 59.6971 70.1225 61.1006L72.8685 63.6332L69.7563 66.7454L66.6136 69.8576L63.7149 67.1726L60.8162 64.457L58.2837 66.9285L55.7817 69.4305L58.5889 72.2376L61.4265 75.0752L58.5889 77.9128L55.7817 80.72L58.1617 83.0999C59.4432 84.3814 60.6637 85.4493 60.8162 85.4493C60.9993 85.4493 62.2808 84.2899 63.7149 82.8558C65.149 81.4217 66.4305 80.2623 66.6136 80.2623C66.7661 80.2623 68.2612 81.6048 69.8784 83.222L72.8685 86.2121L70.0614 89.0193L67.2238 91.8569L69.7563 94.3589L72.2583 96.8914L75.157 93.9927L78.0251 91.1246L81.1679 94.2368L84.3106 97.3186L81.473 100.156L78.6659 102.994L81.1679 105.496L83.7004 107.998L85.5311 106.289C86.538 105.343 87.8195 104.153 88.3382 103.635L89.3451 102.719L92.0912 105.435L94.8678 108.15L97.3088 105.709C98.6208 104.397 99.7192 103.146 99.7192 102.963C99.7192 102.75 98.4988 101.438 96.9732 100.034L94.2271 97.4711L97.3698 94.3894L100.482 91.2772L103.472 94.0538L106.493 96.8304L108.964 94.3589L111.466 91.8569L108.629 89.0193L105.822 86.2121L108.964 83.0694L112.077 79.9572L114.823 82.7033C116.318 84.1983 117.691 85.4493 117.813 85.4493C117.966 85.4493 119.186 84.3814 120.498 83.0999L122.939 80.7505L120.101 77.9128L117.264 75.0752L120.101 72.2376L122.908 69.4305L120.376 66.898L117.843 64.3654L114.945 67.1115L112.077 69.8576L108.934 66.7454L105.791 63.6332L108.568 60.9176L111.375 58.202L108.842 55.6695L106.279 53.1065L103.472 55.9136L100.635 58.7512L97.5224 55.6085L94.3796 52.4962L97.0647 49.8111C98.5293 48.3466 99.6887 47.004 99.6887 46.8515C99.6582 46.6684 98.5598 45.5089 97.2173 44.2579L94.8373 42L92.0912 44.7156L89.3451 47.4617L86.66 44.7766C85.1955 43.3121 83.9139 42.1221 83.8529 42.1221C83.7614 42.1221 82.5409 43.1595 81.1679 44.4715ZM100.024 66.8674C100.024 70.2543 100.024 70.2543 99.3531 70.0102C98.9564 69.8881 95.4475 69.7356 91.5725 69.6746L84.4632 69.5525V70.6204V71.6884L90.9623 71.7799C96.9732 71.8714 97.5224 71.9325 98.7123 72.5427C100.94 73.7632 101.367 74.7091 101.489 78.6756C101.611 82.6422 101.397 83.4355 99.7192 84.9612C98.0106 86.4868 96.668 86.6698 86.1413 86.6698H76.8656L77.3843 85.3578C77.842 84.2594 77.9031 82.8253 77.9031 74.9226C77.9031 66.959 77.842 65.6164 77.3843 64.6095L76.8656 63.4806H88.4603H100.024V66.8674Z"/>
</mask>
<path d="M81.1679 44.4715L78.6048 46.7904L81.473 49.6586L84.3106 52.4962L81.1679 55.6085L78.0556 58.7512L75.34 56.0356C73.8449 54.5405 72.5024 53.3811 72.3193 53.4421C71.8006 53.6557 67.3764 57.9274 67.3764 58.2325C67.3764 58.4156 68.6274 59.6971 70.1225 61.1006L72.8685 63.6332L69.7563 66.7454L66.6136 69.8576L63.7149 67.1726L60.8162 64.457L58.2837 66.9285L55.7817 69.4305L58.5889 72.2376L61.4265 75.0752L58.5889 77.9128L55.7817 80.72L58.1617 83.0999C59.4432 84.3814 60.6637 85.4493 60.8162 85.4493C60.9993 85.4493 62.2808 84.2899 63.7149 82.8558C65.149 81.4217 66.4305 80.2623 66.6136 80.2623C66.7661 80.2623 68.2612 81.6048 69.8784 83.222L72.8685 86.2121L70.0614 89.0193L67.2238 91.8569L69.7563 94.3589L72.2583 96.8914L75.157 93.9927L78.0251 91.1246L81.1679 94.2368L84.3106 97.3186L81.473 100.156L78.6659 102.994L81.1679 105.496L83.7004 107.998L85.5311 106.289C86.538 105.343 87.8195 104.153 88.3382 103.635L89.3451 102.719L92.0912 105.435L94.8678 108.15L97.3088 105.709C98.6208 104.397 99.7192 103.146 99.7192 102.963C99.7192 102.75 98.4988 101.438 96.9732 100.034L94.2271 97.4711L97.3698 94.3894L100.482 91.2772L103.472 94.0538L106.493 96.8304L108.964 94.3589L111.466 91.8569L108.629 89.0193L105.822 86.2121L108.964 83.0694L112.077 79.9572L114.823 82.7033C116.318 84.1983 117.691 85.4493 117.813 85.4493C117.966 85.4493 119.186 84.3814 120.498 83.0999L122.939 80.7505L120.101 77.9128L117.264 75.0752L120.101 72.2376L122.908 69.4305L120.376 66.898L117.843 64.3654L114.945 67.1115L112.077 69.8576L108.934 66.7454L105.791 63.6332L108.568 60.9176L111.375 58.202L108.842 55.6695L106.279 53.1065L103.472 55.9136L100.635 58.7512L97.5224 55.6085L94.3796 52.4962L97.0647 49.8111C98.5293 48.3466 99.6887 47.004 99.6887 46.8515C99.6582 46.6684 98.5598 45.5089 97.2173 44.2579L94.8373 42L92.0912 44.7156L89.3451 47.4617L86.66 44.7766C85.1955 43.3121 83.9139 42.1221 83.8529 42.1221C83.7614 42.1221 82.5409 43.1595 81.1679 44.4715ZM100.024 66.8674C100.024 70.2543 100.024 70.2543 99.3531 70.0102C98.9564 69.8881 95.4475 69.7356 91.5725 69.6746L84.4632 69.5525V70.6204V71.6884L90.9623 71.7799C96.9732 71.8714 97.5224 71.9325 98.7123 72.5427C100.94 73.7632 101.367 74.7091 101.489 78.6756C101.611 82.6422 101.397 83.4355 99.7192 84.9612C98.0106 86.4868 96.668 86.6698 86.1413 86.6698H76.8656L77.3843 85.3578C77.842 84.2594 77.9031 82.8253 77.9031 74.9226C77.9031 66.959 77.842 65.6164 77.3843 64.6095L76.8656 63.4806H88.4603H100.024V66.8674Z" fill="#E31E24" stroke="#C88C65" mask="url(#path-2-inside-1_6918_1502)"/>
<path d="M89.6504 78.0713H84.7134V79.1943V80.3174H89.4674C91.5444 80.3174 92.8068 80.2943 93.5984 80.223C94.4033 80.1506 94.654 80.0312 94.7828 79.9024L94.7827 79.9023L94.7876 79.8977C95.0702 79.63 95.1636 79.4699 95.1801 79.3163C95.198 79.1508 95.1348 78.9296 94.9224 78.5194C94.8609 78.4092 94.8098 78.35 94.7146 78.3008C94.6027 78.243 94.4134 78.1912 94.0528 78.1539C93.333 78.0793 92.053 78.0713 89.6504 78.0713Z" fill="#E31E24" stroke="#C88C65" stroke-width="0.5"/>
<path d="M43.2517 71.0499C42.7891 71.448 42.174 71.9947 41.5208 72.6024C40.8828 73.21 40.2992 73.7937 39.8762 74.2431C39.6642 74.4684 39.495 74.6573 39.3801 74.7973C39.336 74.8511 39.3019 74.8952 39.2772 74.9297C39.3033 74.97 39.3408 75.0225 39.3908 75.0874C39.5093 75.2415 39.684 75.448 39.9036 75.6941C40.3419 76.1854 40.9487 76.8226 41.6177 77.4916L43.8819 79.7558L46.1461 77.4916C46.8145 76.8232 47.4209 76.1788 47.8591 75.6803C48.0785 75.4305 48.2532 75.2203 48.3718 75.0633C48.4249 74.9932 48.464 74.9371 48.4904 74.8951C48.4642 74.8563 48.426 74.8052 48.3748 74.742C48.2563 74.5954 48.0834 74.4013 47.8706 74.174C47.4459 73.7205 46.8742 73.1478 46.2905 72.585C45.7069 72.0223 45.114 71.4722 44.6474 71.0637C44.4137 70.8591 44.2145 70.6926 44.0653 70.5783C44.0133 70.5385 43.9695 70.5066 43.9338 70.4824C43.9009 70.5078 43.8613 70.5392 43.8151 70.5766C43.6757 70.6893 43.4833 70.8506 43.2517 71.0499ZM39.2377 74.9907C39.236 74.9941 39.2367 74.9934 39.2384 74.9893C39.2381 74.9899 39.2378 74.9903 39.2377 74.9907ZM44.0243 70.4159C44.0264 70.4147 44.0275 70.414 44.0276 70.4139C44.0277 70.4138 44.0266 70.4144 44.0243 70.4159ZM43.854 70.4336C43.8499 70.4318 43.8504 70.4324 43.8547 70.434L43.854 70.4336Z" fill="#E31E24" stroke="#C88C65" stroke-width="0.5"/>
<path d="M132.477 72.5425L132.477 72.5425L132.475 72.5445C131.822 73.1363 131.232 73.7113 130.807 74.1631C130.594 74.3895 130.425 74.5815 130.311 74.7272C130.258 74.795 130.22 74.8486 130.196 74.8883C130.222 74.9311 130.263 74.9894 130.319 75.0633C130.437 75.2203 130.612 75.4305 130.832 75.6803C131.27 76.1788 131.876 76.8232 132.545 77.4916L134.809 79.7558L137.073 77.4916C137.741 76.8232 138.347 76.179 138.785 75.6772C139.005 75.4257 139.179 75.2132 139.297 75.0529C139.351 74.9788 139.391 74.9198 139.417 74.8756C139.392 74.8415 139.358 74.7975 139.313 74.7435C139.199 74.6076 139.034 74.4257 138.829 74.2114C138.422 73.7838 137.871 73.2384 137.302 72.6966C136.734 72.1548 136.15 71.619 135.678 71.21C135.442 71.0053 135.235 70.8344 135.074 70.711C134.993 70.6492 134.926 70.6014 134.874 70.5679C134.865 70.5619 134.856 70.5567 134.849 70.5522C134.821 70.5686 134.784 70.5917 134.738 70.6226C134.601 70.7153 134.411 70.8597 134.181 71.0469C133.721 71.42 133.115 71.9501 132.477 72.5425ZM130.169 74.84C130.169 74.84 130.169 74.8401 130.169 74.8401L130.169 74.84ZM139.447 74.8184C139.447 74.8184 139.446 74.8192 139.446 74.8207C139.446 74.8191 139.447 74.8184 139.447 74.8184ZM139.453 74.9298C139.454 74.9338 139.455 74.9344 139.454 74.9312C139.453 74.9309 139.453 74.9304 139.453 74.9298Z" fill="#E31E24" stroke="#C88C65" stroke-width="0.5"/>
<path d="M50 122.896V115.196H55.808V116.131H51.089V118.331H53.487C54.4037 118.331 55.1003 118.522 55.577 118.903C56.0537 119.285 56.292 119.838 56.292 120.564C56.292 121.312 56.0317 121.888 55.511 122.291C54.9977 122.695 54.2607 122.896 53.3 122.896H50ZM51.089 122.027H53.256C53.894 122.027 54.3743 121.906 54.697 121.664C55.027 121.422 55.192 121.063 55.192 120.586C55.192 119.662 54.5467 119.2 53.256 119.2H51.089V122.027Z" fill="#C98D65"/>
<path d="M59.2559 122.896V115.196H62.2589C62.9336 115.196 63.5092 115.303 63.9859 115.515C64.4626 115.728 64.8292 116.036 65.0859 116.439C65.3426 116.843 65.4709 117.323 65.4709 117.88C65.4709 118.438 65.3426 118.918 65.0859 119.321C64.8292 119.717 64.4626 120.025 63.9859 120.245C63.5092 120.458 62.9336 120.564 62.2589 120.564H59.8609L60.3559 120.047V122.896H59.2559ZM60.3559 120.157L59.8609 119.607H62.2259C62.9299 119.607 63.4616 119.457 63.8209 119.156C64.1876 118.856 64.3709 118.43 64.3709 117.88C64.3709 117.33 64.1876 116.905 63.8209 116.604C63.4616 116.304 62.9299 116.153 62.2259 116.153H59.8609L60.3559 115.603V120.157Z" fill="#C98D65"/>
<path d="M69.212 118.518H73.172V119.453H69.212V118.518ZM69.311 121.939H73.799V122.896H68.211V115.196H73.645V116.153H69.311V121.939Z" fill="#C98D65"/>
<path d="M80.1687 122.984C79.582 122.984 79.0394 122.889 78.5407 122.698C78.0494 122.5 77.6204 122.225 77.2537 121.873C76.8944 121.514 76.612 121.096 76.4067 120.619C76.2014 120.143 76.0987 119.618 76.0987 119.046C76.0987 118.474 76.2014 117.95 76.4067 117.473C76.612 116.997 76.898 116.582 77.2647 116.23C77.6314 115.871 78.0604 115.596 78.5517 115.405C79.0504 115.207 79.593 115.108 80.1797 115.108C80.7737 115.108 81.32 115.211 81.8187 115.416C82.3247 115.614 82.7537 115.911 83.1057 116.307L82.3907 117C82.0974 116.692 81.7674 116.465 81.4007 116.318C81.034 116.164 80.6417 116.087 80.2237 116.087C79.791 116.087 79.3877 116.161 79.0137 116.307C78.647 116.454 78.328 116.659 78.0567 116.923C77.7854 117.187 77.5727 117.503 77.4187 117.869C77.272 118.229 77.1987 118.621 77.1987 119.046C77.1987 119.472 77.272 119.868 77.4187 120.234C77.5727 120.594 77.7854 120.905 78.0567 121.169C78.328 121.433 78.647 121.639 79.0137 121.785C79.3877 121.932 79.791 122.005 80.2237 122.005C80.6417 122.005 81.034 121.932 81.4007 121.785C81.7674 121.631 82.0974 121.397 82.3907 121.081L83.1057 121.774C82.7537 122.17 82.3247 122.471 81.8187 122.676C81.32 122.882 80.77 122.984 80.1687 122.984Z" fill="#C98D65"/>
<path d="M87.3183 122.896V115.867L87.5933 116.153H84.6893V115.196H91.0363V116.153H88.1323L88.3963 115.867V122.896H87.3183Z" fill="#C98D65"/>
<path d="M96.9188 122.984C96.3321 122.984 95.7894 122.889 95.2908 122.698C94.7994 122.5 94.3704 122.225 94.0038 121.873C93.6444 121.514 93.3621 121.096 93.1568 120.619C92.9514 120.143 92.8488 119.618 92.8488 119.046C92.8488 118.474 92.9514 117.95 93.1568 117.473C93.3621 116.997 93.6481 116.582 94.0148 116.23C94.3814 115.871 94.8104 115.596 95.3018 115.405C95.8004 115.207 96.3431 115.108 96.9298 115.108C97.5238 115.108 98.0701 115.211 98.5688 115.416C99.0748 115.614 99.5038 115.911 99.8558 116.307L99.1408 117C98.8474 116.692 98.5174 116.465 98.1508 116.318C97.7841 116.164 97.3918 116.087 96.9738 116.087C96.5411 116.087 96.1378 116.161 95.7638 116.307C95.3971 116.454 95.0781 116.659 94.8068 116.923C94.5354 117.187 94.3228 117.503 94.1688 117.869C94.0221 118.229 93.9488 118.621 93.9488 119.046C93.9488 119.472 94.0221 119.868 94.1688 120.234C94.3228 120.594 94.5354 120.905 94.8068 121.169C95.0781 121.433 95.3971 121.639 95.7638 121.785C96.1378 121.932 96.5411 122.005 96.9738 122.005C97.3918 122.005 97.7841 121.932 98.1508 121.785C98.5174 121.631 98.8474 121.397 99.1408 121.081L99.8558 121.774C99.5038 122.17 99.0748 122.471 98.5688 122.676C98.0701 122.882 97.5201 122.984 96.9188 122.984Z" fill="#C98D65"/>
<path d="M107.762 122.896L104.968 119.101L105.859 118.551L109.016 122.896H107.762ZM102.581 122.896V115.196H103.659V122.896H102.581ZM103.329 119.508V118.54H105.826V119.508H103.329ZM105.958 119.167L104.946 119.013L107.707 115.196H108.884L105.958 119.167Z" fill="#C98D65"/>
<path d="M111.354 122.896V115.196H112.443V121.136L116.997 115.196H118.009V122.896H116.931V116.967L112.366 122.896H111.354Z" fill="#C98D65"/>
<path d="M121.619 122.896V115.196H122.708V121.136L127.262 115.196H128.274V122.896H127.196V116.967L122.631 122.896H121.619ZM124.93 114.657C124.329 114.657 123.863 114.525 123.533 114.261C123.211 113.997 123.046 113.627 123.038 113.15H123.819C123.827 113.436 123.929 113.66 124.127 113.821C124.325 113.975 124.593 114.052 124.93 114.052C125.26 114.052 125.524 113.975 125.722 113.821C125.928 113.66 126.034 113.436 126.041 113.15H126.811C126.804 113.627 126.635 113.997 126.305 114.261C125.983 114.525 125.524 114.657 124.93 114.657Z" fill="#C98D65"/>
<path d="M31 135.896V128.196H31.902L35.356 134.015H34.872L38.282 128.196H39.184L39.195 135.896H38.139L38.128 129.857H38.381L35.345 134.961H34.839L31.781 129.857H32.056V135.896H31Z" fill="#C98D65"/>
<path d="M47.3668 135.896V133.388L47.6528 133.652H45.2438C44.6205 133.652 44.0815 133.546 43.6268 133.333C43.1795 133.121 42.8348 132.816 42.5928 132.42C42.3581 132.017 42.2408 131.533 42.2408 130.968C42.2408 130.382 42.3691 129.883 42.6258 129.472C42.8825 129.054 43.2455 128.739 43.7148 128.526C44.1841 128.306 44.7305 128.196 45.3538 128.196H48.4448V135.896H47.3668ZM42.2408 135.896L44.1438 133.168H45.2658L43.4068 135.896H42.2408ZM47.3668 133.036V128.834L47.6528 129.153H45.3978C44.7378 129.153 44.2318 129.307 43.8798 129.615C43.5278 129.916 43.3518 130.363 43.3518 130.957C43.3518 131.522 43.5168 131.958 43.8468 132.266C44.1841 132.574 44.6791 132.728 45.3318 132.728H47.6528L47.3668 133.036Z" fill="#C98D65"/>
<path d="M55.5007 135.984C54.914 135.984 54.3714 135.889 53.8727 135.698C53.3814 135.5 52.9524 135.225 52.5857 134.873C52.2264 134.514 51.944 134.096 51.7387 133.619C51.5334 133.143 51.4307 132.618 51.4307 132.046C51.4307 131.474 51.5334 130.95 51.7387 130.473C51.944 129.997 52.23 129.582 52.5967 129.23C52.9634 128.871 53.3924 128.596 53.8837 128.405C54.3824 128.207 54.925 128.108 55.5117 128.108C56.1057 128.108 56.652 128.211 57.1507 128.416C57.6567 128.614 58.0857 128.911 58.4377 129.307L57.7227 130C57.4294 129.692 57.0994 129.465 56.7327 129.318C56.366 129.164 55.9737 129.087 55.5557 129.087C55.123 129.087 54.7197 129.161 54.3457 129.307C53.979 129.454 53.66 129.659 53.3887 129.923C53.1174 130.187 52.9047 130.503 52.7507 130.869C52.604 131.229 52.5307 131.621 52.5307 132.046C52.5307 132.472 52.604 132.868 52.7507 133.234C52.9047 133.594 53.1174 133.905 53.3887 134.169C53.66 134.433 53.979 134.639 54.3457 134.785C54.7197 134.932 55.123 135.005 55.5557 135.005C55.9737 135.005 56.366 134.932 56.7327 134.785C57.0994 134.631 57.4294 134.397 57.7227 134.081L58.4377 134.774C58.0857 135.17 57.6567 135.471 57.1507 135.676C56.652 135.882 56.102 135.984 55.5007 135.984Z" fill="#C98D65"/>
<path d="M64.4671 135.984C63.8804 135.984 63.3341 135.885 62.8281 135.687C62.3294 135.489 61.8967 135.214 61.5301 134.862C61.1634 134.503 60.8774 134.085 60.6721 133.608C60.4667 133.132 60.3641 132.611 60.3641 132.046C60.3641 131.482 60.4667 130.961 60.6721 130.484C60.8774 130.008 61.1634 129.593 61.5301 129.241C61.8967 128.882 62.3294 128.603 62.8281 128.405C63.3267 128.207 63.8731 128.108 64.4671 128.108C65.0537 128.108 65.5927 128.207 66.0841 128.405C66.5827 128.596 67.0154 128.871 67.3821 129.23C67.7561 129.582 68.0421 129.997 68.2401 130.473C68.4454 130.95 68.5481 131.474 68.5481 132.046C68.5481 132.618 68.4454 133.143 68.2401 133.619C68.0421 134.096 67.7561 134.514 67.3821 134.873C67.0154 135.225 66.5827 135.5 66.0841 135.698C65.5927 135.889 65.0537 135.984 64.4671 135.984ZM64.4671 135.005C64.8924 135.005 65.2847 134.932 65.6441 134.785C66.0107 134.639 66.3261 134.433 66.5901 134.169C66.8614 133.898 67.0704 133.583 67.2171 133.223C67.3711 132.864 67.4481 132.472 67.4481 132.046C67.4481 131.621 67.3711 131.229 67.2171 130.869C67.0704 130.51 66.8614 130.198 66.5901 129.934C66.3261 129.663 66.0107 129.454 65.6441 129.307C65.2847 129.161 64.8924 129.087 64.4671 129.087C64.0344 129.087 63.6347 129.161 63.2681 129.307C62.9087 129.454 62.5934 129.663 62.3221 129.934C62.0507 130.198 61.8381 130.51 61.6841 130.869C61.5374 131.229 61.4641 131.621 61.4641 132.046C61.4641 132.472 61.5374 132.864 61.6841 133.223C61.8381 133.583 62.0507 133.898 62.3221 134.169C62.5934 134.433 62.9087 134.639 63.2681 134.785C63.6347 134.932 64.0344 135.005 64.4671 135.005Z" fill="#C98D65"/>
<path d="M76.7173 135.896L73.9233 132.101L74.8143 131.551L77.9713 135.896H76.7173ZM71.5363 135.896V128.196H72.6143V135.896H71.5363ZM72.2843 132.508V131.54H74.7813V132.508H72.2843ZM74.9133 132.167L73.9013 132.013L76.6623 128.196H77.8393L74.9133 132.167Z" fill="#C98D65"/>
<path d="M83.7523 135.984C83.1656 135.984 82.6193 135.885 82.1133 135.687C81.6146 135.489 81.182 135.214 80.8153 134.862C80.4486 134.503 80.1626 134.085 79.9573 133.608C79.752 133.132 79.6493 132.611 79.6493 132.046C79.6493 131.482 79.752 130.961 79.9573 130.484C80.1626 130.008 80.4486 129.593 80.8153 129.241C81.182 128.882 81.6146 128.603 82.1133 128.405C82.612 128.207 83.1583 128.108 83.7523 128.108C84.339 128.108 84.878 128.207 85.3693 128.405C85.868 128.596 86.3006 128.871 86.6673 129.23C87.0413 129.582 87.3273 129.997 87.5253 130.473C87.7306 130.95 87.8333 131.474 87.8333 132.046C87.8333 132.618 87.7306 133.143 87.5253 133.619C87.3273 134.096 87.0413 134.514 86.6673 134.873C86.3006 135.225 85.868 135.5 85.3693 135.698C84.878 135.889 84.339 135.984 83.7523 135.984ZM83.7523 135.005C84.1776 135.005 84.57 134.932 84.9293 134.785C85.296 134.639 85.6113 134.433 85.8753 134.169C86.1466 133.898 86.3556 133.583 86.5023 133.223C86.6563 132.864 86.7333 132.472 86.7333 132.046C86.7333 131.621 86.6563 131.229 86.5023 130.869C86.3556 130.51 86.1466 130.198 85.8753 129.934C85.6113 129.663 85.296 129.454 84.9293 129.307C84.57 129.161 84.1776 129.087 83.7523 129.087C83.3196 129.087 82.92 129.161 82.5533 129.307C82.194 129.454 81.8786 129.663 81.6073 129.934C81.336 130.198 81.1233 130.51 80.9693 130.869C80.8226 131.229 80.7493 131.621 80.7493 132.046C80.7493 132.472 80.8226 132.864 80.9693 133.223C81.1233 133.583 81.336 133.898 81.6073 134.169C81.8786 134.433 82.194 134.639 82.5533 134.785C82.92 134.932 83.3196 135.005 83.7523 135.005Z" fill="#C98D65"/>
<path d="M90.8215 135.896V128.196H91.7235L95.1775 134.015H94.6935L98.1035 128.196H99.0055L99.0165 135.896H97.9605L97.9495 129.857H98.2025L95.1665 134.961H94.6605L91.6025 129.857H91.8775V135.896H90.8215Z" fill="#C98D65"/>
<path d="M102.623 135.896V128.196H108.431V129.131H103.712V131.331H106.11C107.027 131.331 107.724 131.522 108.2 131.903C108.677 132.285 108.915 132.838 108.915 133.564C108.915 134.312 108.655 134.888 108.134 135.291C107.621 135.695 106.884 135.896 105.923 135.896H102.623ZM103.712 135.027H105.879C106.517 135.027 106.998 134.906 107.32 134.664C107.65 134.422 107.815 134.063 107.815 133.586C107.815 132.662 107.17 132.2 105.879 132.2H103.712V135.027Z" fill="#C98D65"/>
<path d="M111.879 135.896V128.196H112.968V134.136L117.522 128.196H118.534V135.896H117.456V129.967L112.891 135.896H111.879Z" fill="#C98D65"/>
<path d="M127.667 128.196H128.767V135.896H127.667V128.196ZM123.245 135.896H122.145V128.196H123.245V135.896ZM127.766 132.464H123.135V131.507H127.766V132.464Z" fill="#C98D65"/>
<path d="M131.311 135.896L134.798 128.196H135.887L139.385 135.896H138.23L135.117 128.812H135.557L132.444 135.896H131.311ZM132.796 133.971L133.093 133.091H137.427L137.746 133.971H132.796Z" fill="#C98D65"/>
<path d="M143.111 135.896V128.867L143.386 129.153H140.482V128.196H146.829V129.153H143.925L144.189 128.867V135.896H143.111Z" fill="#C98D65"/>
</svg>
