<svg width="177" height="177" viewBox="0 0 177 177" fill="none" xmlns="http://www.w3.org/2000/svg">
<rect width="177" height="177" fill="white"/>
<path d="M19 78.4213L129.63 78.4199V99.5637L19 99.5651V78.4213Z" fill="#EC1B24"/>
<path d="M97.6418 82.2246C98.5935 82.2246 99.1834 82.5755 100.074 83.713L106.694 93.1857C107.046 93.6814 107.012 94.472 106.404 94.9855C105.866 95.4402 104.915 95.4811 104.398 94.7997L102.814 92.6081H92.3872L90.8046 94.8407C90.2461 95.503 89.5633 95.503 88.9434 95.0892C88.2988 94.6591 88.135 93.8275 88.5296 93.2485L95.2111 83.7144C96.0605 82.5346 96.7323 82.2246 97.6418 82.2246ZM98.0378 85.7299C97.863 85.4746 97.7988 85.45 97.6131 85.45C97.4055 85.45 97.3236 85.5538 97.1829 85.7422C96.9549 86.0467 94.3003 89.959 94.2703 89.959H100.974C100.96 89.959 98.4078 86.2775 98.0378 85.7299Z" fill="white"/>
<path d="M52.4895 82.2393H62.0264C64.3928 82.2393 64.61 84.9621 64.61 84.9621H52.8773C52.297 84.9621 51.7576 85.4005 51.7576 86.1638C51.7576 87.0336 52.4185 87.4474 52.8364 87.4474H61.1279C62.7706 87.4474 65.1084 88.8156 65.1084 91.178C65.1084 94.245 62.3923 95.3347 61.4474 95.3347H51.7467C48.8641 95.3347 49.0238 92.5859 49.0238 92.5859H61.0473C61.528 92.5859 62.2367 92.1093 62.2367 91.3965C62.2367 90.7164 61.6154 90.1948 61.1579 90.1948H53.033C50.728 90.1948 48.9419 88.4838 48.9419 86.1624C48.9378 83.5515 51.1786 82.2393 52.4895 82.2393Z" fill="white"/>
<path d="M113.615 82.2227H123.463C124.956 82.2227 127.27 83.4421 127.27 86.3588V86.5445C127.27 88.0972 126.298 89.4613 124.932 90.1222C124.932 90.1222 125.031 90.2711 127.146 93.1414C127.42 93.5128 127.435 94.4032 126.836 94.9412C126.264 95.4546 125.311 95.5188 124.83 94.9617C124.158 94.1847 123.381 93.1619 121.251 90.4541H117.403C116.306 90.4541 114.818 89.5842 114.818 87.6615H123.134C123.586 87.6424 124.31 87.2096 124.31 86.3602C124.31 85.575 123.613 85.0356 123.13 85.0356H113.945L113.952 93.7409C113.953 94.6913 113.224 95.3317 112.439 95.3317C111.694 95.3317 110.951 94.6708 110.951 93.7805V84.9114C110.948 83.4202 112.52 82.2227 113.615 82.2227Z" fill="white"/>
<path d="M73.0287 82.2441H82.8769C84.3694 82.2441 86.684 83.4649 86.684 86.3803V86.566C86.684 88.12 85.7117 89.4828 84.3462 90.1437C84.3462 90.1437 83.6402 90.3718 82.9779 90.4551H76.7921C75.6956 90.4551 74.2891 89.5661 74.2891 87.6421H82.5218C82.9738 87.623 83.7208 87.231 83.7208 86.3817C83.7208 85.5965 83.0243 85.0571 82.541 85.0571L73.3578 85.0558L73.3632 93.7624C73.3646 94.7128 72.6354 95.3532 71.8502 95.3532C71.1047 95.3532 70.3618 94.6923 70.3618 93.802V84.9329C70.3605 83.4417 71.9322 82.2441 73.0287 82.2441Z" fill="white"/>
<path d="M134.901 89.2779C134.901 93.3349 136.944 96.9685 140.544 98.7464C143.926 100.418 148.434 100.418 151.826 98.7464C155.171 97.0983 157.457 93.3362 157.457 89.2779C157.457 83.0716 152.492 78 146.179 78C139.836 78 134.901 83.032 134.901 89.2779Z" fill="#157946"/>
<path d="M146.186 80.9232C145.051 84.7713 141.669 90.4109 139.201 93.1761H145.051L145.065 94.8516C145.051 95.802 144.296 96.7879 143.197 96.7742C141.669 96.7565 139.758 96.0505 138.604 94.091C137.763 92.6613 137.153 91.5347 137.153 89.2775C137.153 84.3439 141.127 80.2568 146.182 80.2568C151.181 80.2568 155.211 84.464 155.211 89.2775C155.211 91.5361 154.156 93.4888 153.808 94.0514C152.574 96.0505 150.695 96.7565 149.239 96.7742C148.235 96.7865 147.311 96.0505 147.311 94.8461V93.1747H153.251C150.693 90.4109 147.311 84.7726 146.186 80.9232Z" fill="white"/>
</svg>
