<svg width="92" height="92" viewBox="0 0 92 92" fill="none" xmlns="http://www.w3.org/2000/svg">
  <g clip-path="url(#clip0_2457_11257)">
    <path
      d="M14.4772 77.4097C-2.90117 60.0314 -2.90117 31.8555 14.4772 14.4772C31.8555 -2.90111 60.0313 -2.90111 77.4097 14.4772C94.788 31.8556 94.788 60.0314 77.4097 77.4097C60.0313 94.7881 31.8555 94.7881 14.4772 77.4097Z"
      fill="#B3CC19" stroke-linecap="round" />
    <path
      d="M14.4772 77.4097C-2.90117 60.0314 -2.90117 31.8555 14.4772 14.4772C31.8555 -2.90111 60.0313 -2.90111 77.4097 14.4772C94.788 31.8556 94.788 60.0314 77.4097 77.4097C60.0313 94.7881 31.8555 94.7881 14.4772 77.4097Z"
      stroke="#B3CC19" stroke-width="3" stroke-linecap="round" />
    <path
      d="M45.9434 27.5586L64.3282 45.9434M64.3282 45.9434L45.9434 64.3281M64.3282 45.9434L27.5586 45.9434"
      stroke="white" stroke-width="5" stroke-linecap="round" />
  </g>
  <defs>
    <clipPath id="clip0_2457_11257">
      <rect width="92" height="92" fill="white" />
    </clipPath>
  </defs>
</svg>