<svg width="231" height="80" viewBox="0 0 231 80" fill="none" xmlns="http://www.w3.org/2000/svg">
<rect x="1.57395" y="1.50143" width="227" height="76" rx="38" transform="rotate(0.0546583 1.57395 1.50143)" fill="#B3CC19"/>
<rect x="1.57395" y="1.50143" width="227" height="76" rx="38" transform="rotate(0.0546583 1.57395 1.50143)" stroke="#B3CC19" stroke-width="3"/>
<path d="M68.4202 49.0651L71.5486 30.1521L73.7576 30.1542L70.6419 49.0672L68.4202 49.0651ZM59.8557 43.9915L60.2387 41.7829L74.5717 41.7966L74.2014 44.0052L59.8557 43.9915ZM61.7805 49.0588L64.8962 30.1457L67.1052 30.1478L63.9895 49.0609L61.7805 49.0588ZM60.9791 37.4291L61.3494 35.2078L75.657 35.2214L75.3121 37.4428L60.9791 37.4291ZM82.398 49.3705C81.0099 49.3691 79.8084 49.0675 78.7933 48.4656C77.7783 47.8638 76.9962 47.0167 76.4471 45.9243C75.9065 44.8236 75.6369 43.5411 75.6383 42.0769C75.6397 40.6212 75.9075 39.3392 76.4418 38.231C76.9845 37.1228 77.7428 36.2602 78.7167 35.6433C79.6991 35.0179 80.8504 34.7059 82.1707 34.7071C82.9748 34.7079 83.7533 34.8398 84.5063 35.1029C85.2593 35.366 85.936 35.7814 86.5364 36.349C87.1367 36.9166 87.61 37.6534 87.9561 38.5593C88.3107 39.4653 88.4874 40.5572 88.4862 41.8352L88.4853 42.8255L77.1991 42.8147L77.2011 40.7454L87.0654 40.7548L85.7825 41.4391C85.7833 40.5674 85.6486 39.7971 85.3784 39.1282C85.1082 38.4593 84.7025 37.9384 84.1612 37.5655C83.6283 37.1841 82.9641 36.9931 82.1686 36.9923C81.373 36.9915 80.6915 37.1813 80.1241 37.5616C79.5651 37.942 79.1372 38.4451 78.8404 39.0712C78.5436 39.6972 78.3948 40.3826 78.3941 41.1274L78.3928 42.5365C78.3918 43.5099 78.5603 44.3352 78.8982 45.0126C79.2361 45.69 79.7053 46.2067 80.3059 46.5628C80.9149 46.9188 81.6215 47.0972 82.4255 47.098C82.9503 47.0985 83.4243 47.0228 83.8476 46.8709C84.2794 46.7189 84.652 46.4908 84.9654 46.1864C85.2789 45.882 85.5162 45.5056 85.6775 45.0572L88.2922 45.5548C88.0799 46.3163 87.7069 46.9846 87.1731 47.5596C86.6394 48.1346 85.9661 48.5825 85.1533 48.9034C84.349 49.2157 83.4305 49.3714 82.398 49.3705ZM98.2385 39.9149L98.2363 42.3016L89.832 42.2936L89.8343 39.9068L98.2385 39.9149ZM106.241 49.3932C104.878 49.3919 103.702 49.0776 102.712 48.4504C101.723 47.8231 100.962 46.9591 100.43 45.8584C99.8975 44.7576 99.6321 43.4963 99.6335 42.0744C99.6349 40.6271 99.9069 39.3536 100.45 38.2539C101.001 37.1457 101.768 36.2831 102.75 35.6662C103.741 35.0409 104.901 34.7288 106.229 34.7301C107.313 34.7311 108.273 34.9309 109.111 35.3295C109.957 35.7197 110.637 36.2747 111.153 36.9946C111.677 37.7145 111.985 38.5526 112.077 39.5091L109.386 39.5065C109.293 39.0579 109.112 38.6472 108.841 38.2746C108.579 37.9019 108.232 37.6054 107.801 37.3849C107.37 37.1645 106.858 37.0539 106.265 37.0534C105.495 37.0526 104.822 37.2551 104.246 37.6608C103.679 38.0581 103.234 38.6289 102.911 39.3734C102.589 40.1179 102.427 40.998 102.427 42.0136C102.426 43.0377 102.581 43.9307 102.894 44.6927C103.206 45.4548 103.65 46.0434 104.225 46.4587C104.809 46.8655 105.485 47.0692 106.256 47.07C107.051 47.0707 107.729 46.8513 108.288 46.4117C108.855 45.9722 109.22 45.3716 109.381 44.6101L112.072 44.6126C111.978 45.5351 111.681 46.3557 111.181 47.0747C110.681 47.7936 110.012 48.36 109.174 48.7739C108.336 49.1878 107.358 49.3943 106.241 49.3932ZM119.457 49.4058C118.128 49.4045 116.965 49.0987 115.967 48.4884C114.977 47.8781 114.208 47.0225 113.659 45.9218C113.118 44.821 112.848 43.5427 112.85 42.087C112.851 40.6143 113.123 39.3281 113.666 38.2284C114.217 37.1202 114.988 36.2619 115.979 35.6535C116.978 35.045 118.142 34.7415 119.471 34.7427C120.808 34.744 121.972 35.0498 122.961 35.6601C123.951 36.2704 124.72 37.1302 125.269 38.2395C125.819 39.3403 126.092 40.627 126.091 42.0996C126.09 43.5554 125.813 44.8331 125.262 45.9328C124.711 47.0326 123.94 47.8866 122.949 48.4951C121.958 49.1035 120.794 49.4071 119.457 49.4058ZM119.459 47.0826C120.331 47.0834 121.051 46.8556 121.618 46.3991C122.186 45.9426 122.605 45.3378 122.877 44.5848C123.157 43.8234 123.297 42.9941 123.298 42.097C123.299 41.1829 123.16 40.3449 122.881 39.5829C122.611 38.8209 122.193 38.2111 121.626 37.7536C121.06 37.296 120.341 37.0668 119.469 37.066C118.606 37.0651 117.89 37.293 117.323 37.7495C116.764 38.206 116.344 38.8149 116.064 39.5764C115.784 40.3378 115.644 41.1756 115.643 42.0897C115.642 42.9868 115.781 43.8164 116.059 44.5783C116.338 45.3319 116.756 45.9374 117.314 46.395C117.881 46.8525 118.596 47.0817 119.459 47.0826ZM127.557 49.1215L127.571 34.9282L130.199 34.9307L130.197 37.2666L130.387 37.2668C130.684 36.48 131.167 35.8668 131.836 35.4274C132.514 34.9795 133.318 34.7559 134.249 34.7568C135.197 34.7577 135.988 34.9828 136.622 35.4319C137.265 35.8727 137.743 36.4867 138.055 37.2741L138.207 37.2743C138.547 36.5044 139.085 35.8956 139.821 35.4477C140.558 34.9914 141.434 34.7637 142.45 34.7646C143.737 34.7659 144.79 35.1731 145.61 35.9864C146.43 36.7912 146.84 38.0061 146.838 39.6311L146.829 49.1399L144.061 49.1373L144.07 39.8824C144.071 38.9176 143.809 38.2233 143.285 37.7996C142.761 37.3675 142.135 37.1511 141.407 37.1504C140.51 37.1495 139.811 37.4281 139.311 37.9863C138.82 38.5359 138.574 39.2339 138.573 40.0803L138.564 49.132L135.797 49.1294L135.806 39.6968C135.806 38.9266 135.57 38.3085 135.097 37.8426C134.623 37.3766 134.001 37.1433 133.231 37.1426C132.706 37.1421 132.219 37.2813 131.771 37.5601C131.33 37.8305 130.974 38.2111 130.703 38.7017C130.44 39.1839 130.309 39.7423 130.308 40.3771L130.3 49.1242L127.557 49.1215ZM148.95 49.1419L148.963 34.9486L151.591 34.9511L151.589 37.287L151.779 37.2872C152.076 36.5004 152.559 35.8872 153.228 35.4478C153.906 34.9999 154.71 34.7763 155.641 34.7772C156.589 34.7781 157.38 35.0032 158.014 35.4523C158.657 35.8931 159.135 36.5071 159.447 37.2945L159.6 37.2947C159.939 36.5248 160.477 35.916 161.214 35.4681C161.95 35.0118 162.827 34.7841 163.842 34.7851C165.129 34.7863 166.182 35.1935 167.002 36.0068C167.822 36.8116 168.232 38.0265 168.23 39.6515L168.221 49.1603L165.453 49.1577L165.462 39.9028C165.463 38.938 165.202 38.2437 164.677 37.82C164.153 37.3879 163.527 37.1715 162.799 37.1708C161.902 37.1699 161.203 37.4486 160.703 38.0067C160.212 38.5563 159.966 39.2543 159.965 40.1007L159.956 49.1524L157.189 49.1498L157.198 39.7172C157.199 38.947 156.962 38.3289 156.489 37.863C156.015 37.3971 155.393 37.1637 154.623 37.163C154.098 37.1625 153.612 37.3017 153.163 37.5805C152.722 37.8509 152.367 38.2315 152.095 38.7221C151.832 39.2043 151.701 39.7627 151.7 40.3975L151.692 49.1446L148.95 49.1419Z" fill="white"/>
</svg>
