<svg width="93" height="93" viewBox="0 0 93 93" fill="none" xmlns="http://www.w3.org/2000/svg">
<g clip-path="url(#clip0_2457_11243)">
<path d="M78.067 78.0668C60.6887 95.4452 32.5128 95.4452 15.1345 78.0668C-2.24382 60.6885 -2.24382 32.5127 15.1345 15.1343C32.5128 -2.24399 60.6887 -2.24399 78.067 15.1343C95.4453 32.5127 95.4453 60.6885 78.067 78.0668Z" fill="white"/>
<path d="M78.067 78.0668C60.6887 95.4452 32.5128 95.4452 15.1345 78.0668C-2.24382 60.6885 -2.24382 32.5127 15.1345 15.1343C32.5128 -2.24399 60.6887 -2.24399 78.067 15.1343C95.4453 32.5127 95.4453 60.6885 78.067 78.0668Z" stroke="#B3CC19" stroke-width="3"/>
<path d="M28.2163 46.5986H46.6011M46.6011 46.5986H64.9859M46.6011 46.5986L46.6011 64.9834M46.6011 46.5986L46.6011 28.2139" stroke="#B3CC19" stroke-width="12"/>
</g>
<defs>
<clipPath id="clip0_2457_11243">
<rect width="93" height="93" fill="white"/>
</clipPath>
</defs>
</svg>
