<svg width="335" height="80" viewBox="0 0 335 80" fill="none" xmlns="http://www.w3.org/2000/svg">
<rect x="0.561951" y="0.905273" width="334" height="79" rx="39.5" fill="#9B8FFD"/>
<path d="M62.0854 30.9893H64.9418V44.8779H65.1069L74.7426 30.9893H77.3832V49.9053H74.5268V36.042H74.3364L64.7514 49.9053H62.0854V30.9893ZM89.3173 41.6152V44.002H81.6367V41.6152H89.3173ZM82.3984 35.7119V49.9053H79.7197V35.7119H82.3984ZM91.247 35.7119V49.9053H88.5556V35.7119H91.247ZM91.603 38.0986V35.7119H103.549V38.0986H98.9409V49.9053H96.2368V38.0986H91.603ZM110.329 50.1973C108.941 50.1973 107.739 49.8968 106.724 49.2959C105.708 48.695 104.925 47.8486 104.375 46.7568C103.833 45.6566 103.562 44.3743 103.562 42.9102C103.562 41.4544 103.829 40.1722 104.362 39.0635C104.904 37.9548 105.661 37.0915 106.635 36.4736C107.617 35.8473 108.768 35.5342 110.088 35.5342C110.892 35.5342 111.671 35.6654 112.424 35.9277C113.177 36.1901 113.854 36.6048 114.455 37.1719C115.056 37.7389 115.53 38.4753 115.877 39.3809C116.232 40.2865 116.41 41.3783 116.41 42.6562V43.6465H105.124V41.5771H114.988L113.706 42.2627C113.706 41.3909 113.571 40.6208 113.3 39.9521C113.029 39.2835 112.623 38.763 112.081 38.3906C111.548 38.0098 110.883 37.8193 110.088 37.8193C109.292 37.8193 108.611 38.0098 108.044 38.3906C107.485 38.7715 107.058 39.2751 106.762 39.9014C106.465 40.5277 106.317 41.2132 106.317 41.958V43.3672C106.317 44.3405 106.487 45.1657 106.825 45.8428C107.164 46.5199 107.633 47.0361 108.234 47.3916C108.844 47.7471 109.55 47.9248 110.354 47.9248C110.879 47.9248 111.353 47.8486 111.776 47.6963C112.208 47.5439 112.58 47.3154 112.894 47.0107C113.207 46.7061 113.444 46.3294 113.604 45.8809L116.22 46.376C116.008 47.1377 115.636 47.8063 115.103 48.3818C114.569 48.9574 113.896 49.4059 113.084 49.7275C112.28 50.0407 111.362 50.1973 110.329 50.1973ZM117.82 55.2119V35.7119H120.486V38.0225H120.714C120.884 37.7262 121.116 37.3835 121.413 36.9941C121.717 36.6048 122.14 36.2663 122.682 35.9785C123.224 35.6823 123.931 35.5342 124.802 35.5342C125.945 35.5342 126.96 35.8219 127.849 36.3975C128.746 36.973 129.453 37.8066 129.969 38.8984C130.486 39.9902 130.744 41.3063 130.744 42.8467C130.744 44.3701 130.49 45.682 129.982 46.7822C129.474 47.874 128.772 48.7161 127.875 49.3086C126.986 49.8926 125.966 50.1846 124.815 50.1846C123.96 50.1846 123.258 50.0407 122.708 49.7529C122.166 49.4567 121.738 49.1139 121.425 48.7246C121.121 48.3353 120.884 47.9925 120.714 47.6963H120.562V55.2119H117.82ZM124.218 47.8359C125.039 47.8359 125.725 47.6159 126.275 47.1758C126.825 46.7357 127.24 46.139 127.519 45.3857C127.807 44.624 127.951 43.7692 127.951 42.8213C127.951 41.8818 127.811 41.0397 127.532 40.2949C127.252 39.5501 126.838 38.9619 126.288 38.5303C125.737 38.0986 125.048 37.8828 124.218 37.8828C123.414 37.8828 122.737 38.0902 122.187 38.5049C121.637 38.9111 121.218 39.4867 120.93 40.2314C120.651 40.9678 120.511 41.8311 120.511 42.8213C120.511 43.8115 120.655 44.6833 120.943 45.4365C121.231 46.1898 121.65 46.778 122.2 47.2012C122.758 47.6243 123.431 47.8359 124.218 47.8359ZM141.827 41.6152V44.002L134.147 44.002V41.6152L141.827 41.6152ZM134.908 35.7119V49.9053H132.23V35.7119L134.908 35.7119ZM143.757 35.7119V49.9053H141.065V35.7119H143.757ZM151.984 50.1973C150.596 50.1973 149.394 49.8968 148.378 49.2959C147.363 48.695 146.58 47.8486 146.03 46.7568C145.488 45.6566 145.217 44.3743 145.217 42.9102C145.217 41.4544 145.484 40.1722 146.017 39.0635C146.559 37.9548 147.316 37.0915 148.29 36.4736C149.271 35.8473 150.422 35.5342 151.743 35.5342C152.547 35.5342 153.325 35.6654 154.079 35.9277C154.832 36.1901 155.509 36.6048 156.11 37.1719C156.711 37.7389 157.185 38.4753 157.532 39.3809C157.887 40.2865 158.065 41.3783 158.065 42.6562V43.6465H146.779V41.5771H156.643L155.361 42.2627C155.361 41.3909 155.225 40.6208 154.955 39.9521C154.684 39.2835 154.278 38.763 153.736 38.3906C153.203 38.0098 152.538 37.8193 151.743 37.8193C150.947 37.8193 150.266 38.0098 149.699 38.3906C149.14 38.7715 148.713 39.2751 148.417 39.9014C148.12 40.5277 147.972 41.2132 147.972 41.958V43.3672C147.972 44.3405 148.141 45.1657 148.48 45.8428C148.819 46.5199 149.288 47.0361 149.889 47.3916C150.499 47.7471 151.205 47.9248 152.009 47.9248C152.534 47.9248 153.008 47.8486 153.431 47.6963C153.863 47.5439 154.235 47.3154 154.548 47.0107C154.862 46.7061 155.099 46.3294 155.259 45.8809L157.875 46.376C157.663 47.1377 157.291 47.8063 156.757 48.3818C156.224 48.9574 155.551 49.4059 154.739 49.7275C153.935 50.0407 153.016 50.1973 151.984 50.1973ZM158.218 38.0986V35.7119H170.164V38.0986H165.556V49.9053H162.852V38.0986H158.218ZM179.254 40.7266V43.1133H170.85V40.7266H179.254ZM189.259 46.4902L193.842 35.7119H196.216L190.287 49.9053H188.231L182.416 35.7119H184.765L189.259 46.4902ZM183.99 35.7119V49.9053H181.312V35.7119H183.99ZM194.591 49.9053V35.7119H197.257V49.9053H194.591ZM203.491 50.21C202.594 50.21 201.781 50.0449 201.053 49.7148C200.325 49.3763 199.75 48.8854 199.327 48.2422C198.904 47.599 198.692 46.8161 198.692 45.8936C198.692 45.0895 198.844 44.4336 199.149 43.9258C199.462 43.4095 199.881 42.999 200.406 42.6943C200.931 42.3896 201.515 42.1611 202.158 42.0088C202.801 41.8564 203.461 41.738 204.138 41.6533C204.993 41.5602 205.683 41.4798 206.208 41.4121C206.732 41.3444 207.113 41.2386 207.35 41.0947C207.596 40.9424 207.718 40.7012 207.718 40.3711V40.3076C207.718 39.5036 207.49 38.8815 207.033 38.4414C206.584 38.0013 205.916 37.7812 205.027 37.7812C204.104 37.7812 203.372 37.9844 202.831 38.3906C202.297 38.7884 201.929 39.2412 201.726 39.749L199.124 39.1523C199.437 38.2891 199.89 37.5951 200.482 37.0703C201.083 36.5371 201.769 36.1478 202.539 35.9023C203.317 35.6569 204.13 35.5342 204.976 35.5342C205.543 35.5342 206.144 35.6019 206.779 35.7373C207.414 35.8643 208.01 36.1055 208.569 36.4609C209.136 36.8079 209.597 37.3073 209.953 37.959C210.308 38.6107 210.486 39.4528 210.486 40.4854V49.9053H207.782V47.9629H207.68C207.511 48.3099 207.244 48.6569 206.88 49.0039C206.525 49.3509 206.068 49.6387 205.509 49.8672C204.951 50.0957 204.278 50.21 203.491 50.21ZM204.088 48.001C204.858 48.001 205.514 47.8529 206.055 47.5566C206.597 47.252 207.012 46.8542 207.299 46.3633C207.587 45.8724 207.731 45.3519 207.731 44.8018V42.9609C207.63 43.054 207.439 43.1429 207.16 43.2275C206.88 43.3122 206.563 43.3841 206.208 43.4434C205.852 43.5026 205.505 43.5576 205.167 43.6084C204.828 43.6507 204.545 43.6846 204.316 43.71C203.783 43.7861 203.296 43.9046 202.856 44.0654C202.416 44.2178 202.061 44.4463 201.79 44.751C201.527 45.0472 201.396 45.4408 201.396 45.9316C201.396 46.6172 201.65 47.1335 202.158 47.4805C202.666 47.8275 203.309 48.001 204.088 48.001ZM221.671 35.7119V38.0986H215.323V49.9053H212.619V35.7119H221.671ZM226.445 50.21C225.548 50.21 224.735 50.0449 224.007 49.7148C223.28 49.3763 222.704 48.8854 222.281 48.2422C221.858 47.599 221.646 46.8161 221.646 45.8936C221.646 45.0895 221.798 44.4336 222.103 43.9258C222.416 43.4095 222.835 42.999 223.36 42.6943C223.885 42.3896 224.469 42.1611 225.112 42.0088C225.755 41.8564 226.415 41.738 227.092 41.6533C227.947 41.5602 228.637 41.4798 229.162 41.4121C229.687 41.3444 230.067 41.2386 230.304 41.0947C230.55 40.9424 230.673 40.7012 230.673 40.3711V40.3076C230.673 39.5036 230.444 38.8815 229.987 38.4414C229.538 38.0013 228.87 37.7812 227.981 37.7812C227.059 37.7812 226.326 37.9844 225.785 38.3906C225.252 38.7884 224.883 39.2412 224.68 39.749L222.078 39.1523C222.391 38.2891 222.844 37.5951 223.436 37.0703C224.037 36.5371 224.723 36.1478 225.493 35.9023C226.271 35.6569 227.084 35.5342 227.93 35.5342C228.497 35.5342 229.098 35.6019 229.733 35.7373C230.368 35.8643 230.965 36.1055 231.523 36.4609C232.09 36.8079 232.551 37.3073 232.907 37.959C233.262 38.6107 233.44 39.4528 233.44 40.4854V49.9053H230.736V47.9629H230.634C230.465 48.3099 230.199 48.6569 229.835 49.0039C229.479 49.3509 229.022 49.6387 228.464 49.8672C227.905 50.0957 227.232 50.21 226.445 50.21ZM227.042 48.001C227.812 48.001 228.468 47.8529 229.009 47.5566C229.551 47.252 229.966 46.8542 230.254 46.3633C230.541 45.8724 230.685 45.3519 230.685 44.8018V42.9609C230.584 43.054 230.393 43.1429 230.114 43.2275C229.835 43.3122 229.517 43.3841 229.162 43.4434C228.806 43.5026 228.459 43.5576 228.121 43.6084C227.782 43.6507 227.499 43.6846 227.27 43.71C226.737 43.7861 226.25 43.9046 225.81 44.0654C225.37 44.2178 225.015 44.4463 224.744 44.751C224.481 45.0472 224.35 45.4408 224.35 45.9316C224.35 46.6172 224.604 47.1335 225.112 47.4805C225.62 47.8275 226.263 48.001 227.042 48.001ZM235.281 46.1475L238.087 46.1475C238.138 46.7314 238.404 47.18 238.887 47.4932C239.378 47.8063 240.017 47.9671 240.804 47.9756C241.591 47.9671 242.264 47.7936 242.822 47.4551C243.381 47.1165 243.665 46.5791 243.673 45.8428C243.673 45.4196 243.563 45.0472 243.343 44.7256C243.131 44.404 242.831 44.1543 242.442 43.9766C242.061 43.7904 241.612 43.7015 241.096 43.71H238.785V41.5391H241.096C241.866 41.5391 242.446 41.3656 242.835 41.0186C243.224 40.6631 243.419 40.2145 243.419 39.6729C243.419 39.0889 243.212 38.6191 242.797 38.2637C242.382 37.9082 241.803 37.7347 241.058 37.7432C240.321 37.7347 239.704 37.8997 239.204 38.2383C238.705 38.5684 238.443 38.9958 238.417 39.5205L235.624 39.5205C235.641 38.7334 235.878 38.0394 236.335 37.4385C236.801 36.8376 237.431 36.3721 238.227 36.042C239.022 35.7035 239.924 35.5342 240.931 35.5342C241.98 35.5342 242.89 35.7035 243.66 36.042C244.431 36.3805 245.027 36.8503 245.45 37.4512C245.874 38.0436 246.081 38.7292 246.072 39.5078C246.081 40.2865 245.848 40.9255 245.374 41.4248C244.909 41.9242 244.304 42.2796 243.559 42.4912V42.6309C244.109 42.6732 244.596 42.8424 245.019 43.1387C245.45 43.4264 245.785 43.8158 246.022 44.3066C246.267 44.7891 246.39 45.3392 246.39 45.957C246.39 46.8203 246.149 47.5693 245.666 48.2041C245.192 48.8389 244.536 49.3298 243.698 49.6768C242.861 50.0153 241.9 50.1888 240.817 50.1973C239.767 50.1888 238.828 50.0195 237.998 49.6895C237.177 49.3594 236.526 48.8939 236.043 48.293C235.561 47.6836 235.307 46.9684 235.281 46.1475ZM249.767 46.0205L256.026 35.7119H258.997V49.9053H256.305V39.584L250.072 49.9053H247.089V35.7119H249.767V46.0205ZM270.715 41.6152V44.002H263.034V41.6152H270.715ZM263.796 35.7119V49.9053H261.117V35.7119H263.796ZM272.645 35.7119V49.9053H269.953V35.7119H272.645Z" fill="white"/>
</svg>
