<svg width="276" height="80" viewBox="0 0 276 80" fill="none" xmlns="http://www.w3.org/2000/svg">
<rect x="0.879639" y="0.145508" width="275" height="79" rx="39.5" fill="#9B8FFD"/>
<path d="M62.4031 49.1455V30.2295H69.3474C70.6847 30.2295 71.7934 30.4495 72.6736 30.8896C73.5538 31.3298 74.2097 31.9264 74.6414 32.6797C75.0815 33.4245 75.3015 34.2624 75.3015 35.1934C75.3015 35.9805 75.1534 36.6449 74.8572 37.1865C74.5694 37.7282 74.1843 38.1598 73.7019 38.4814C73.2195 38.8031 72.6863 39.04 72.1023 39.1924V39.3701C72.7371 39.404 73.3549 39.6071 73.9558 39.9795C74.5567 40.3519 75.0518 40.8809 75.4412 41.5664C75.8389 42.2435 76.0378 43.0729 76.0378 44.0547C76.0378 45.0195 75.8093 45.887 75.3523 46.6572C74.9037 47.4189 74.2097 48.0241 73.2703 48.4727C72.3308 48.9212 71.1248 49.1455 69.6521 49.1455H62.4031ZM65.2595 46.708H69.3728C70.7439 46.708 71.7257 46.4414 72.3181 45.9082C72.9106 45.375 73.2068 44.7106 73.2068 43.915C73.2068 43.3141 73.0544 42.7682 72.7498 42.2773C72.4535 41.778 72.0261 41.3802 71.4675 41.084C70.9089 40.7878 70.2488 40.6396 69.4871 40.6396H65.2595V46.708ZM65.2595 38.418H69.0935C69.7283 38.418 70.3038 38.2952 70.8201 38.0498C71.3363 37.8044 71.7426 37.4574 72.0388 37.0088C72.3435 36.5518 72.4958 36.0228 72.4958 35.4219C72.4958 34.6432 72.2208 33.9915 71.6707 33.4668C71.129 32.9336 70.2953 32.667 69.1697 32.667H65.2595V38.418ZM77.5491 49.1455V47.0889L83.9475 40.4365C84.6246 39.7256 85.1832 39.0993 85.6233 38.5576C86.0719 38.0075 86.4062 37.487 86.6262 36.9961C86.8548 36.5052 86.969 35.9847 86.969 35.4346C86.969 34.7998 86.8209 34.2539 86.5247 33.7969C86.2285 33.3398 85.8264 32.9886 85.3186 32.7432C84.8108 32.4977 84.2353 32.375 83.5921 32.375C82.915 32.375 82.3268 32.5146 81.8274 32.7939C81.3281 33.0648 80.9387 33.4541 80.6594 33.9619C80.3886 34.4613 80.2532 35.0495 80.2532 35.7266H77.5364C77.5364 34.5755 77.7988 33.5684 78.3235 32.7051C78.8567 31.8418 79.5846 31.1732 80.5071 30.6992C81.4381 30.2168 82.4876 29.9756 83.6555 29.9756C84.8489 29.9756 85.8984 30.2126 86.804 30.6865C87.7096 31.1605 88.4163 31.8037 88.9241 32.6162C89.4319 33.4202 89.6858 34.3301 89.6858 35.3457C89.6858 36.0482 89.5546 36.7337 89.2923 37.4023C89.0383 38.071 88.5855 38.82 87.9339 39.6494C87.2906 40.4704 86.3935 41.4606 85.2424 42.6201L81.4846 46.5557V46.708H89.9905V49.1455H77.5491ZM92.1365 49.1455V30.2295H99.0808C100.418 30.2295 101.527 30.4495 102.407 30.8896C103.287 31.3298 103.943 31.9264 104.375 32.6797C104.815 33.4245 105.035 34.2624 105.035 35.1934C105.035 35.9805 104.887 36.6449 104.591 37.1865C104.303 37.7282 103.918 38.1598 103.435 38.4814C102.953 38.8031 102.42 39.04 101.836 39.1924V39.3701C102.47 39.404 103.088 39.6071 103.689 39.9795C104.29 40.3519 104.785 40.8809 105.175 41.5664C105.572 42.2435 105.771 43.0729 105.771 44.0547C105.771 45.0195 105.543 45.887 105.086 46.6572C104.637 47.4189 103.943 48.0241 103.004 48.4727C102.064 48.9212 100.858 49.1455 99.3855 49.1455H92.1365ZM94.993 46.708H99.1062C100.477 46.708 101.459 46.4414 102.052 45.9082C102.644 45.375 102.94 44.7106 102.94 43.915C102.94 43.3141 102.788 42.7682 102.483 42.2773C102.187 41.778 101.76 41.3802 101.201 41.084C100.642 40.7878 99.9822 40.6396 99.2205 40.6396H94.993V46.708ZM94.993 38.418H98.8269C99.4617 38.418 100.037 38.2952 100.554 38.0498C101.07 37.8044 101.476 37.4574 101.772 37.0088C102.077 36.5518 102.229 36.0228 102.229 35.4219C102.229 34.6432 101.954 33.9915 101.404 33.4668C100.862 32.9336 100.029 32.667 98.9031 32.667H94.993V38.418ZM115.674 39.9668V42.3535H107.27V39.9668H115.674ZM117.731 49.1455V34.9521H129.284V49.1455H126.58V37.3389H120.397V49.1455H117.731ZM137.359 49.4375C136.03 49.4375 134.866 49.1328 133.868 48.5234C132.877 47.9141 132.107 47.0592 131.557 45.959C131.015 44.8587 130.744 43.5807 130.744 42.125C130.744 40.6523 131.015 39.3659 131.557 38.2656C132.107 37.1569 132.877 36.2979 133.868 35.6885C134.866 35.0791 136.03 34.7744 137.359 34.7744C138.696 34.7744 139.86 35.0791 140.85 35.6885C141.84 36.2979 142.61 37.1569 143.16 38.2656C143.711 39.3659 143.986 40.6523 143.986 42.125C143.986 43.5807 143.711 44.8587 143.16 45.959C142.61 47.0592 141.84 47.9141 140.85 48.5234C139.86 49.1328 138.696 49.4375 137.359 49.4375ZM137.359 47.1143C138.23 47.1143 138.95 46.8857 139.517 46.4287C140.084 45.9717 140.503 45.3665 140.774 44.6133C141.053 43.8516 141.193 43.0221 141.193 42.125C141.193 41.2109 141.053 40.373 140.774 39.6113C140.503 38.8496 140.084 38.2402 139.517 37.7832C138.95 37.3262 138.23 37.0977 137.359 37.0977C136.495 37.0977 135.78 37.3262 135.213 37.7832C134.655 38.2402 134.236 38.8496 133.956 39.6113C133.677 40.373 133.537 41.2109 133.537 42.125C133.537 43.0221 133.677 43.8516 133.956 44.6133C134.236 45.3665 134.655 45.9717 135.213 46.4287C135.78 46.8857 136.495 47.1143 137.359 47.1143ZM145.459 54.4521V34.9521H148.125V37.2627H148.353C148.523 36.9665 148.755 36.6237 149.052 36.2344C149.356 35.8451 149.779 35.5065 150.321 35.2187C150.863 34.9225 151.57 34.7744 152.441 34.7744C153.584 34.7744 154.599 35.0622 155.488 35.6377C156.385 36.2132 157.092 37.0469 157.608 38.1387C158.125 39.2305 158.383 40.5465 158.383 42.0869C158.383 43.6104 158.129 44.9222 157.621 46.0225C157.113 47.1143 156.411 47.9564 155.514 48.5488C154.625 49.1328 153.605 49.4248 152.454 49.4248C151.599 49.4248 150.897 49.2809 150.347 48.9932C149.805 48.6969 149.377 48.3542 149.064 47.9648C148.76 47.5755 148.523 47.2327 148.353 46.9365H148.201V54.4521H145.459ZM151.857 47.0762C152.678 47.0762 153.364 46.8561 153.914 46.416C154.464 45.9759 154.879 45.3792 155.158 44.626C155.446 43.8643 155.59 43.0094 155.59 42.0615C155.59 41.1221 155.45 40.2799 155.171 39.5352C154.891 38.7904 154.477 38.2021 153.927 37.7705C153.376 37.3389 152.687 37.123 151.857 37.123C151.053 37.123 150.376 37.3304 149.826 37.7451C149.276 38.1514 148.857 38.7269 148.569 39.4717C148.29 40.208 148.15 41.0713 148.15 42.0615C148.15 43.0518 148.294 43.9235 148.582 44.6768C148.87 45.43 149.289 46.0182 149.839 46.4414C150.397 46.8646 151.07 47.0762 151.857 47.0762ZM158.155 37.3389V34.9521H170.101V37.3389H165.493V49.1455H162.788V37.3389H158.155ZM174.888 49.4502C173.99 49.4502 173.178 49.2852 172.45 48.9551C171.722 48.6165 171.147 48.1256 170.724 47.4824C170.3 46.8392 170.089 46.0563 170.089 45.1338C170.089 44.3298 170.241 43.6738 170.546 43.166C170.859 42.6497 171.278 42.2393 171.803 41.9346C172.327 41.6299 172.911 41.4014 173.555 41.249C174.198 41.0967 174.858 40.9782 175.535 40.8936C176.39 40.8005 177.08 40.7201 177.604 40.6523C178.129 40.5846 178.51 40.4788 178.747 40.335C178.992 40.1826 179.115 39.9414 179.115 39.6113V39.5479C179.115 38.7438 178.887 38.1217 178.43 37.6816C177.981 37.2415 177.312 37.0215 176.424 37.0215C175.501 37.0215 174.769 37.2246 174.227 37.6309C173.694 38.0286 173.326 38.4814 173.123 38.9893L170.52 38.3926C170.834 37.5293 171.286 36.8353 171.879 36.3105C172.48 35.7773 173.165 35.388 173.935 35.1426C174.714 34.8971 175.527 34.7744 176.373 34.7744C176.94 34.7744 177.541 34.8421 178.176 34.9775C178.81 35.1045 179.407 35.3457 179.966 35.7012C180.533 36.0482 180.994 36.5475 181.35 37.1992C181.705 37.8509 181.883 38.693 181.883 39.7256V49.1455H179.179V47.2031H179.077C178.908 47.5501 178.641 47.8971 178.277 48.2441C177.922 48.5911 177.465 48.8789 176.906 49.1074C176.348 49.3359 175.675 49.4502 174.888 49.4502ZM175.484 47.2412C176.254 47.2412 176.91 47.0931 177.452 46.7969C177.994 46.4922 178.408 46.0944 178.696 45.6035C178.984 45.1126 179.128 44.5921 179.128 44.042V42.2012C179.026 42.2943 178.836 42.3831 178.557 42.4678C178.277 42.5524 177.96 42.6243 177.604 42.6836C177.249 42.7428 176.902 42.7979 176.563 42.8486C176.225 42.8909 175.941 42.9248 175.713 42.9502C175.18 43.0264 174.693 43.1449 174.253 43.3057C173.813 43.458 173.457 43.6865 173.186 43.9912C172.924 44.2874 172.793 44.681 172.793 45.1719C172.793 45.8574 173.047 46.3737 173.555 46.7207C174.062 47.0677 174.706 47.2412 175.484 47.2412ZM182.886 49.1455L182.873 46.7588H183.369C183.902 46.7503 184.321 46.5937 184.625 46.2891C184.939 45.9759 185.171 45.4215 185.324 44.626C185.484 43.8304 185.59 42.7048 185.641 41.249L185.895 34.9521H195.785V49.1455H193.08V37.3389H188.434L188.205 42.1758C188.155 43.3437 188.04 44.3636 187.863 45.2354C187.685 46.1071 187.423 46.835 187.076 47.4189C186.729 47.9945 186.284 48.4261 185.743 48.7139C185.201 49.0016 184.541 49.1455 183.762 49.1455H182.886ZM199.962 39.8525H204.088C205.814 39.8441 207.143 40.2715 208.074 41.1348C209.014 41.998 209.488 43.111 209.496 44.4736C209.496 45.3623 209.284 46.1579 208.861 46.8604C208.438 47.5628 207.824 48.1214 207.02 48.5361C206.216 48.9424 205.239 49.1455 204.088 49.1455H197.893V34.9521H200.571V46.7588H204.088C204.875 46.7588 205.522 46.5557 206.03 46.1494C206.538 45.7347 206.796 45.2015 206.805 44.5498C206.796 43.8643 206.538 43.3057 206.03 42.874C205.522 42.4424 204.875 42.2308 204.088 42.2393H199.962V39.8525ZM211.515 49.1455V34.9521H214.257V49.1455H211.515Z" fill="white"/>
</svg>
