<svg width="243" height="80" viewBox="0 0 243 80" fill="none" xmlns="http://www.w3.org/2000/svg">
<path d="M0.707428 40.0059C0.707428 18.1906 18.3922 0.505859 40.2074 0.505859H203.207C225.023 0.505859 242.707 18.1906 242.707 40.0059V40.0059C242.707 61.8211 225.023 79.5059 203.207 79.5059H40.2074C18.3922 79.5059 0.707428 61.8211 0.707428 40.0059V40.0059Z" fill="#9B8FFD"/>
<path d="M62.2309 30.5898H65.7094L71.727 45.291H71.9428L77.9731 30.5898H81.5023V49.5059H78.7094V35.8203H78.5316L72.933 49.4805H70.6732L65.1381 35.8076H64.9604V49.5059H62.2309V30.5898ZM89.7802 49.7979C88.4514 49.7979 87.2877 49.4932 86.289 48.8838C85.2988 48.2744 84.5286 47.4196 83.9784 46.3193C83.4368 45.2191 83.1659 43.9411 83.1659 42.4854C83.1659 41.0127 83.4368 39.7262 83.9784 38.626C84.5286 37.5173 85.2988 36.6582 86.289 36.0488C87.2877 35.4395 88.4514 35.1348 89.7802 35.1348C91.1174 35.1348 92.2812 35.4395 93.2714 36.0488C94.2616 36.6582 95.0318 37.5173 95.582 38.626C96.1321 39.7262 96.4072 41.0127 96.4072 42.4854C96.4072 43.9411 96.1321 45.2191 95.582 46.3193C95.0318 47.4196 94.2616 48.2744 93.2714 48.8838C92.2812 49.4932 91.1174 49.7979 89.7802 49.7979ZM89.7802 47.4746C90.6519 47.4746 91.3713 47.2461 91.9384 46.7891C92.5055 46.332 92.9244 45.7269 93.1952 44.9736C93.4745 44.2119 93.6142 43.3825 93.6142 42.4854C93.6142 41.5713 93.4745 40.7334 93.1952 39.9717C92.9244 39.21 92.5055 38.6006 91.9384 38.1436C91.3713 37.6865 90.6519 37.458 89.7802 37.458C88.9169 37.458 88.2018 37.6865 87.6347 38.1436C87.0761 38.6006 86.6572 39.21 86.3779 39.9717C86.0986 40.7334 85.9589 41.5713 85.9589 42.4854C85.9589 43.3825 86.0986 44.2119 86.3779 44.9736C86.6572 45.7269 87.0761 46.332 87.6347 46.7891C88.2018 47.2461 88.9169 47.4746 89.7802 47.4746ZM104.875 49.7852C104.021 49.7852 103.318 49.6413 102.768 49.3535C102.226 49.0573 101.799 48.7145 101.486 48.3252C101.181 47.9359 100.944 47.5931 100.775 47.2969H100.546V49.5059H97.8803V30.5898H100.623V37.623H100.775C100.944 37.3268 101.177 36.984 101.473 36.5947C101.778 36.2054 102.201 35.8669 102.743 35.5791C103.284 35.2829 103.991 35.1348 104.863 35.1348C106.005 35.1348 107.021 35.4225 107.91 35.998C108.807 36.5736 109.513 37.4072 110.03 38.499C110.546 39.5908 110.804 40.9069 110.804 42.4473C110.804 43.9707 110.55 45.2826 110.042 46.3828C109.535 47.4746 108.832 48.3167 107.935 48.9092C107.046 49.4932 106.026 49.7852 104.875 49.7852ZM104.279 47.4365C105.1 47.4365 105.785 47.2165 106.335 46.7764C106.886 46.3363 107.3 45.7396 107.58 44.9863C107.867 44.2246 108.011 43.3698 108.011 42.4219C108.011 41.4824 107.872 40.6403 107.592 39.8955C107.313 39.1507 106.898 38.5625 106.348 38.1309C105.798 37.6992 105.108 37.4834 104.279 37.4834C103.475 37.4834 102.798 37.6908 102.248 38.1055C101.697 38.5117 101.278 39.0872 100.991 39.832C100.711 40.5684 100.572 41.4316 100.572 42.4219C100.572 43.4121 100.716 44.2839 101.003 45.0371C101.291 45.7904 101.71 46.3786 102.26 46.8018C102.819 47.2249 103.492 47.4365 104.279 47.4365ZM112.29 49.5059V35.3125H115.032V49.5059H112.29ZM113.674 33.1289C113.191 33.1289 112.781 32.9681 112.442 32.6465C112.104 32.3249 111.935 31.9398 111.935 31.4912C111.935 31.0342 112.104 30.6449 112.442 30.3232C112.781 30.0016 113.191 29.8408 113.674 29.8408C114.148 29.8408 114.554 30.0016 114.893 30.3232C115.24 30.6449 115.413 31.0342 115.413 31.4912C115.413 31.9398 115.24 32.3249 114.893 32.6465C114.554 32.9681 114.148 33.1289 113.674 33.1289ZM119.895 30.5898V49.5059H117.153V30.5898H119.895ZM128.122 49.7979C126.734 49.7979 125.532 49.4974 124.517 48.8965C123.501 48.2956 122.718 47.4492 122.168 46.3574C121.626 45.2572 121.355 43.9749 121.355 42.5107C121.355 41.055 121.622 39.7728 122.155 38.6641C122.697 37.5553 123.454 36.6921 124.428 36.0742C125.41 35.4479 126.561 35.1348 127.881 35.1348C128.685 35.1348 129.464 35.266 130.217 35.5283C130.97 35.7907 131.647 36.2054 132.248 36.7725C132.849 37.3395 133.323 38.0758 133.67 38.9814C134.025 39.887 134.203 40.9788 134.203 42.2568V43.2471H122.917V41.1777H132.781L131.499 41.8633C131.499 40.9915 131.364 40.2214 131.093 39.5527C130.822 38.8841 130.416 38.3636 129.874 37.9912C129.341 37.6104 128.676 37.4199 127.881 37.4199C127.085 37.4199 126.404 37.6104 125.837 37.9912C125.278 38.3721 124.851 38.8757 124.555 39.502C124.258 40.1283 124.11 40.8138 124.11 41.5586V42.9678C124.11 43.9411 124.28 44.7663 124.618 45.4434C124.957 46.1204 125.426 46.6367 126.027 46.9922C126.637 47.3477 127.343 47.5254 128.147 47.5254C128.672 47.5254 129.146 47.4492 129.569 47.2969C130.001 47.1445 130.373 46.916 130.687 46.6113C131 46.3066 131.237 45.93 131.397 45.4814L134.013 45.9766C133.801 46.7383 133.429 47.4069 132.896 47.9824C132.362 48.5579 131.689 49.0065 130.877 49.3281C130.073 49.6413 129.155 49.7979 128.122 49.7979ZM144.995 49.8105C144.098 49.8105 143.286 49.6455 142.558 49.3154C141.83 48.9769 141.254 48.486 140.831 47.8428C140.408 47.1995 140.196 46.4167 140.196 45.4941C140.196 44.6901 140.349 44.0342 140.653 43.5264C140.967 43.0101 141.385 42.5996 141.91 42.2949C142.435 41.9902 143.019 41.7617 143.662 41.6094C144.305 41.457 144.966 41.3385 145.643 41.2539C146.497 41.1608 147.187 41.0804 147.712 41.0127C148.237 40.945 148.618 40.8392 148.855 40.6953C149.1 40.543 149.223 40.3018 149.223 39.9717V39.9082C149.223 39.1042 148.994 38.4821 148.537 38.042C148.089 37.6019 147.42 37.3818 146.531 37.3818C145.609 37.3818 144.877 37.585 144.335 37.9912C143.802 38.389 143.434 38.8418 143.231 39.3496L140.628 38.7529C140.941 37.8896 141.394 37.1956 141.986 36.6709C142.587 36.1377 143.273 35.7484 144.043 35.5029C144.822 35.2575 145.634 35.1348 146.481 35.1348C147.048 35.1348 147.648 35.2025 148.283 35.3379C148.918 35.4648 149.515 35.7061 150.073 36.0615C150.64 36.4085 151.102 36.9079 151.457 37.5596C151.813 38.2113 151.99 39.0534 151.99 40.0859V49.5059H149.286V47.5635H149.185C149.015 47.9105 148.749 48.2575 148.385 48.6045C148.029 48.9515 147.572 49.2393 147.014 49.4678C146.455 49.6963 145.782 49.8105 144.995 49.8105ZM145.592 47.6016C146.362 47.6016 147.018 47.4535 147.56 47.1572C148.101 46.8525 148.516 46.4548 148.804 45.9639C149.092 45.473 149.235 44.9525 149.235 44.4023V42.5615C149.134 42.6546 148.943 42.7435 148.664 42.8281C148.385 42.9128 148.067 42.9847 147.712 43.0439C147.356 43.1032 147.009 43.1582 146.671 43.209C146.332 43.2513 146.049 43.2852 145.82 43.3105C145.287 43.3867 144.801 43.5052 144.36 43.666C143.92 43.8184 143.565 44.0469 143.294 44.3516C143.032 44.6478 142.9 45.0413 142.9 45.5322C142.9 46.2178 143.154 46.734 143.662 47.0811C144.17 47.4281 144.813 47.6016 145.592 47.6016ZM154.124 54.8125V35.3125H156.79V37.623H157.018C157.187 37.3268 157.42 36.984 157.716 36.5947C158.021 36.2054 158.444 35.8669 158.986 35.5791C159.528 35.2829 160.234 35.1348 161.106 35.1348C162.249 35.1348 163.264 35.4225 164.153 35.998C165.05 36.5736 165.757 37.4072 166.273 38.499C166.789 39.5908 167.047 40.9069 167.047 42.4473C167.047 43.9707 166.794 45.2826 166.286 46.3828C165.778 47.4746 165.075 48.3167 164.178 48.9092C163.29 49.4932 162.27 49.7852 161.119 49.7852C160.264 49.7852 159.561 49.6413 159.011 49.3535C158.47 49.0573 158.042 48.7145 157.729 48.3252C157.424 47.9359 157.187 47.5931 157.018 47.2969H156.866V54.8125H154.124ZM160.522 47.4365C161.343 47.4365 162.029 47.2165 162.579 46.7764C163.129 46.3363 163.544 45.7396 163.823 44.9863C164.111 44.2246 164.254 43.3698 164.254 42.4219C164.254 41.4824 164.115 40.6403 163.836 39.8955C163.556 39.1507 163.141 38.5625 162.591 38.1309C162.041 37.6992 161.351 37.4834 160.522 37.4834C159.718 37.4834 159.041 37.6908 158.491 38.1055C157.941 38.5117 157.522 39.0872 157.234 39.832C156.955 40.5684 156.815 41.4316 156.815 42.4219C156.815 43.4121 156.959 44.2839 157.247 45.0371C157.534 45.7904 157.953 46.3786 158.503 46.8018C159.062 47.2249 159.735 47.4365 160.522 47.4365ZM168.533 54.8125V35.3125H171.199V37.623H171.428C171.597 37.3268 171.83 36.984 172.126 36.5947C172.431 36.2054 172.854 35.8669 173.396 35.5791C173.937 35.2829 174.644 35.1348 175.516 35.1348C176.658 35.1348 177.674 35.4225 178.563 35.998C179.46 36.5736 180.166 37.4072 180.683 38.499C181.199 39.5908 181.457 40.9069 181.457 42.4473C181.457 43.9707 181.203 45.2826 180.695 46.3828C180.188 47.4746 179.485 48.3167 178.588 48.9092C177.699 49.4932 176.679 49.7852 175.528 49.7852C174.674 49.7852 173.971 49.6413 173.421 49.3535C172.879 49.0573 172.452 48.7145 172.139 48.3252C171.834 47.9359 171.597 47.5931 171.428 47.2969H171.275V54.8125H168.533ZM174.932 47.4365C175.753 47.4365 176.438 47.2165 176.988 46.7764C177.538 46.3363 177.953 45.7396 178.233 44.9863C178.52 44.2246 178.664 43.3698 178.664 42.4219C178.664 41.4824 178.524 40.6403 178.245 39.8955C177.966 39.1507 177.551 38.5625 177.001 38.1309C176.451 37.6992 175.761 37.4834 174.932 37.4834C174.128 37.4834 173.451 37.6908 172.9 38.1055C172.35 38.5117 171.931 39.0872 171.644 39.832C171.364 40.5684 171.225 41.4316 171.225 42.4219C171.225 43.4121 171.369 44.2839 171.656 45.0371C171.944 45.7904 172.363 46.3786 172.913 46.8018C173.472 47.2249 174.145 47.4365 174.932 47.4365Z" fill="white"/>
</svg>
