<svg width="333" height="80" viewBox="0 0 333 80" fill="none" xmlns="http://www.w3.org/2000/svg">
<rect x="2.04431" y="1.59277" width="328.789" height="76" rx="38" fill="#B3CC19"/>
<rect x="2.04431" y="1.59277" width="328.789" height="76" rx="38" stroke="#B3CC19" stroke-width="3"/>
<path d="M79.5747 49.0928H76.5405L83.3452 30.1768H86.646L93.438 49.0928H90.4165L85.0591 33.6172H84.9067L79.5747 49.0928ZM80.0825 41.6914H89.896V44.0781H80.0825V41.6914ZM94.3272 49.0928V34.8994H100.192C101.792 34.9079 103.062 35.2549 104.001 35.9404C104.94 36.6175 105.406 37.54 105.397 38.708C105.406 39.5374 105.144 40.1934 104.61 40.6758C104.077 41.1497 103.379 41.4756 102.516 41.6533C103.142 41.721 103.717 41.9072 104.242 42.2119C104.775 42.5166 105.203 42.9271 105.524 43.4434C105.855 43.9512 106.02 44.5563 106.02 45.2588C106.02 46.012 105.821 46.6807 105.423 47.2647C105.034 47.8402 104.475 48.2887 103.747 48.6104C103.019 48.932 102.135 49.0928 101.094 49.0928H94.3272ZM96.917 46.7695H101.094C101.771 46.778 102.304 46.6214 102.693 46.2998C103.083 45.9697 103.273 45.5254 103.265 44.9668C103.273 44.3066 103.083 43.7904 102.693 43.418C102.304 43.0371 101.771 42.8467 101.094 42.8467H96.917V46.7695ZM96.917 40.8281H100.218C100.996 40.8197 101.606 40.6546 102.046 40.333C102.494 40.0029 102.715 39.5586 102.706 39C102.715 38.4499 102.494 38.0225 102.046 37.7178C101.597 37.4046 100.98 37.248 100.192 37.248H96.917V40.8281ZM106.642 37.2861V34.8994H118.588V37.2861H113.98V49.0928H111.276V37.2861H106.642ZM125.216 49.3848C123.887 49.3848 122.723 49.0801 121.725 48.4707C120.734 47.8613 119.964 47.0065 119.414 45.9063C118.872 44.806 118.602 43.528 118.602 42.0723C118.602 40.5996 118.872 39.3132 119.414 38.2129C119.964 37.1042 120.734 36.2451 121.725 35.6357C122.723 35.0264 123.887 34.7217 125.216 34.7217C126.553 34.7217 127.717 35.0264 128.707 35.6357C129.697 36.2451 130.468 37.1042 131.018 38.2129C131.568 39.3132 131.843 40.5996 131.843 42.0723C131.843 43.528 131.568 44.806 131.018 45.9063C130.468 47.0065 129.697 47.8613 128.707 48.4707C127.717 49.0801 126.553 49.3848 125.216 49.3848ZM125.216 47.0615C126.088 47.0615 126.807 46.833 127.374 46.376C127.941 45.9189 128.36 45.3138 128.631 44.5605C128.91 43.7988 129.05 42.9694 129.05 42.0723C129.05 41.1582 128.91 40.3203 128.631 39.5586C128.36 38.7969 127.941 38.1875 127.374 37.7305C126.807 37.2734 126.088 37.0449 125.216 37.0449C124.353 37.0449 123.637 37.2734 123.07 37.7305C122.512 38.1875 122.093 38.7969 121.814 39.5586C121.534 40.3203 121.395 41.1582 121.395 42.0723C121.395 42.9694 121.534 43.7988 121.814 44.5605C122.093 45.3138 122.512 45.9189 123.07 46.376C123.637 46.833 124.353 47.0615 125.216 47.0615ZM141.263 45.6777L145.846 34.8994H148.22L142.292 49.0928H140.235L134.42 34.8994H136.769L141.263 45.6777ZM135.995 34.8994V49.0928H133.316V34.8994H135.995ZM146.595 49.0928V34.8994H149.261V49.0928H146.595ZM155.495 49.3975C154.598 49.3975 153.786 49.2324 153.058 48.9023C152.33 48.5638 151.754 48.0729 151.331 47.4297C150.908 46.7865 150.696 46.0036 150.696 45.0811C150.696 44.277 150.849 43.6211 151.153 43.1133C151.467 42.597 151.886 42.1865 152.41 41.8818C152.935 41.5771 153.519 41.3486 154.162 41.1963C154.805 41.0439 155.466 40.9255 156.143 40.8408C156.997 40.7477 157.687 40.6673 158.212 40.5996C158.737 40.5319 159.118 40.4261 159.355 40.2822C159.6 40.1299 159.723 39.8887 159.723 39.5586V39.4951C159.723 38.6911 159.494 38.069 159.037 37.6289C158.589 37.1888 157.92 36.9688 157.031 36.9688C156.109 36.9688 155.377 37.1719 154.835 37.5781C154.302 37.9759 153.934 38.4287 153.731 38.9365L151.128 38.3398C151.441 37.4766 151.894 36.7826 152.486 36.2578C153.087 35.7246 153.773 35.3353 154.543 35.0898C155.322 34.8444 156.134 34.7217 156.981 34.7217C157.548 34.7217 158.149 34.7894 158.783 34.9248C159.418 35.0518 160.015 35.293 160.573 35.6484C161.14 35.9954 161.602 36.4948 161.957 37.1465C162.313 37.7982 162.49 38.6403 162.49 39.6729V49.0928H159.786V47.1504H159.685C159.515 47.4974 159.249 47.8444 158.885 48.1914C158.529 48.5384 158.072 48.8262 157.514 49.0547C156.955 49.2832 156.282 49.3975 155.495 49.3975ZM156.092 47.1885C156.862 47.1885 157.518 47.0404 158.06 46.7441C158.601 46.4395 159.016 46.0417 159.304 45.5508C159.592 45.0599 159.735 44.5394 159.735 43.9893V42.1484C159.634 42.2415 159.443 42.3304 159.164 42.415C158.885 42.4997 158.567 42.5716 158.212 42.6309C157.857 42.6901 157.51 42.7451 157.171 42.7959C156.832 42.8382 156.549 42.8721 156.32 42.8975C155.787 42.9736 155.301 43.0921 154.86 43.2529C154.42 43.4053 154.065 43.6338 153.794 43.9385C153.532 44.2347 153.4 44.6283 153.4 45.1191C153.4 45.8047 153.654 46.321 154.162 46.668C154.67 47.015 155.313 47.1885 156.092 47.1885ZM162.859 37.2861V34.8994H174.805V37.2861H170.197V49.0928H167.493V37.2861H162.859ZM178.818 45.208L185.076 34.8994H188.047V49.0928H185.356V38.7715L179.122 49.0928H176.139V34.8994H178.818V45.208ZM189.876 45.335H192.681C192.732 45.9189 192.999 46.3675 193.481 46.6807C193.972 46.9938 194.611 47.1546 195.398 47.1631C196.185 47.1546 196.858 46.9811 197.417 46.6426C197.975 46.304 198.259 45.7666 198.267 45.0303C198.267 44.6071 198.157 44.2347 197.937 43.9131C197.726 43.5915 197.425 43.3418 197.036 43.1641C196.655 42.9779 196.206 42.889 195.69 42.8975H193.38V40.7266H195.69C196.46 40.7266 197.04 40.5531 197.429 40.2061C197.819 39.8506 198.013 39.402 198.013 38.8604C198.013 38.2764 197.806 37.8066 197.391 37.4512C196.977 37.0957 196.397 36.9222 195.652 36.9307C194.916 36.9222 194.298 37.0872 193.798 37.4258C193.299 37.7559 193.037 38.1833 193.011 38.708H190.218C190.235 37.9209 190.472 37.2269 190.929 36.626C191.395 36.0251 192.025 35.5596 192.821 35.2295C193.617 34.891 194.518 34.7217 195.525 34.7217C196.575 34.7217 197.484 34.891 198.255 35.2295C199.025 35.568 199.621 36.0378 200.045 36.6387C200.468 37.2311 200.675 37.9167 200.667 38.6953C200.675 39.474 200.442 40.113 199.968 40.6123C199.503 41.1117 198.898 41.4671 198.153 41.6787V41.8184C198.703 41.8607 199.19 42.0299 199.613 42.3262C200.045 42.6139 200.379 43.0033 200.616 43.4941C200.861 43.9766 200.984 44.5267 200.984 45.1445C200.984 46.0078 200.743 46.7568 200.26 47.3916C199.786 48.0264 199.131 48.5173 198.293 48.8643C197.455 49.2028 196.494 49.3763 195.411 49.3848C194.361 49.3763 193.422 49.207 192.592 48.877C191.771 48.5469 191.12 48.0814 190.637 47.4805C190.155 46.8711 189.901 46.1559 189.876 45.335ZM205.796 49.3975C204.899 49.3975 204.086 49.2324 203.359 48.9023C202.631 48.5638 202.055 48.0729 201.632 47.4297C201.209 46.7865 200.997 46.0036 200.997 45.0811C200.997 44.277 201.15 43.6211 201.454 43.1133C201.767 42.597 202.186 42.1865 202.711 41.8818C203.236 41.5771 203.82 41.3486 204.463 41.1963C205.106 41.0439 205.766 40.9255 206.444 40.8408C207.298 40.7477 207.988 40.6673 208.513 40.5996C209.038 40.5319 209.418 40.4261 209.655 40.2822C209.901 40.1299 210.024 39.8887 210.024 39.5586V39.4951C210.024 38.6911 209.795 38.069 209.338 37.6289C208.89 37.1888 208.221 36.9688 207.332 36.9688C206.41 36.9688 205.678 37.1719 205.136 37.5781C204.603 37.9759 204.235 38.4287 204.031 38.9365L201.429 38.3398C201.742 37.4766 202.195 36.7826 202.787 36.2578C203.388 35.7246 204.074 35.3353 204.844 35.0898C205.623 34.8444 206.435 34.7217 207.281 34.7217C207.848 34.7217 208.449 34.7894 209.084 34.9248C209.719 35.0518 210.316 35.293 210.874 35.6484C211.441 35.9954 211.903 36.4948 212.258 37.1465C212.613 37.7982 212.791 38.6403 212.791 39.6729V49.0928H210.087V47.1504H209.986C209.816 47.4974 209.55 47.8444 209.186 48.1914C208.83 48.5384 208.373 48.8262 207.815 49.0547C207.256 49.2832 206.583 49.3975 205.796 49.3975ZM206.393 47.1885C207.163 47.1885 207.819 47.0404 208.361 46.7441C208.902 46.4395 209.317 46.0417 209.605 45.5508C209.892 45.0599 210.036 44.5394 210.036 43.9893V42.1484C209.935 42.2415 209.744 42.3304 209.465 42.415C209.186 42.4997 208.868 42.5716 208.513 42.6309C208.157 42.6901 207.81 42.7451 207.472 42.7959C207.133 42.8382 206.85 42.8721 206.621 42.8975C206.088 42.9736 205.601 43.0921 205.161 43.2529C204.721 43.4053 204.366 43.6338 204.095 43.9385C203.833 44.2347 203.701 44.6283 203.701 45.1191C203.701 45.8047 203.955 46.321 204.463 46.668C204.971 47.015 205.614 47.1885 206.393 47.1885ZM226.477 34.8994V49.0928H214.925V34.8994H217.629V46.7061H223.811V34.8994H226.477ZM228.572 46.833V53.6631H225.842V46.833H228.572ZM232.445 45.208L238.703 34.8994H241.674V49.0928H238.983V38.7715L232.749 49.0928H229.766V34.8994H232.445V45.208ZM252.25 49.0928V37.2607H248.835C248.031 37.2692 247.404 37.4596 246.956 37.832C246.507 38.2044 246.287 38.6953 246.296 39.3047C246.287 39.9056 246.49 40.3923 246.905 40.7646C247.32 41.1286 247.904 41.3105 248.657 41.3105H253.037V43.5449H248.657C247.608 43.5449 246.702 43.3714 245.94 43.0244C245.187 42.6774 244.603 42.1823 244.188 41.5391C243.782 40.8958 243.583 40.1383 243.592 39.2666C243.583 38.3779 243.79 37.6077 244.214 36.9561C244.637 36.3044 245.242 35.8008 246.029 35.4453C246.816 35.0814 247.751 34.8994 248.835 34.8994H254.84V49.0928H252.25ZM242.931 49.0928L246.93 41.9199H249.761L245.75 49.0928H242.931Z" fill="white"/>
</svg>
