<svg width="195" height="80" viewBox="0 0 195 80" fill="none" xmlns="http://www.w3.org/2000/svg">
<path d="M40.4777 2.27197L155.478 2.27197C176.465 2.27197 193.478 19.2852 193.478 40.272C193.478 61.2588 176.465 78.272 155.478 78.272H40.4777C19.4909 78.272 2.47772 61.2588 2.47772 40.272C2.47772 19.2852 19.4909 2.27197 40.4777 2.27197Z" fill="white"/>
<path d="M40.4777 2.27197L155.478 2.27197C176.465 2.27197 193.478 19.2852 193.478 40.272C193.478 61.2588 176.465 78.272 155.478 78.272H40.4777C19.4909 78.272 2.47772 61.2588 2.47772 40.272C2.47772 19.2852 19.4909 2.27197 40.4777 2.27197Z" stroke="#B3CC19" stroke-width="3"/>
<path d="M39.676 30.856H42.5324V43.2974C42.5324 44.6177 42.2193 45.7899 41.593 46.814C40.9751 47.8296 40.1034 48.6294 38.9777 49.2134C37.8521 49.7889 36.5318 50.0767 35.0168 50.0767C33.5103 50.0767 32.19 49.7889 31.0558 49.2134C29.9302 48.6294 29.0542 47.8296 28.4279 46.814C27.8101 45.7899 27.5012 44.6177 27.5012 43.2974V30.856H30.3576V43.0688C30.3576 43.9237 30.5438 44.6854 30.9162 45.354C31.2971 46.0142 31.8345 46.5347 32.5285 46.9155C33.231 47.2964 34.0604 47.4868 35.0168 47.4868C35.9816 47.4868 36.8111 47.2964 37.5051 46.9155C38.1991 46.5347 38.7323 46.0142 39.1047 45.354C39.4855 44.6854 39.676 43.9237 39.676 43.0688V30.856ZM47.0524 30.856L51.572 38.2573H51.7243L56.2565 30.856H59.5573L53.6667 40.3267L59.5954 49.772H56.2692L51.7243 42.4722H51.572L47.0271 49.772H43.7136L49.7439 40.3267L43.7517 30.856H47.0524ZM67.7463 29.9673L61.6526 52.6157H59.1897L65.2834 29.9673H67.7463ZM80.8738 30.856H83.7302V43.2974C83.7302 44.6177 83.4171 45.7899 82.7908 46.814C82.1729 47.8296 81.3012 48.6294 80.1755 49.2134C79.0499 49.7889 77.7296 50.0767 76.2146 50.0767C74.7081 50.0767 73.3878 49.7889 72.2537 49.2134C71.128 48.6294 70.252 47.8296 69.6257 46.814C69.0079 45.7899 68.699 44.6177 68.699 43.2974V30.856H71.5554V43.0688C71.5554 43.9237 71.7416 44.6854 72.114 45.354C72.4949 46.0142 73.0323 46.5347 73.7263 46.9155C74.4288 47.2964 75.2582 47.4868 76.2146 47.4868C77.1794 47.4868 78.0089 47.2964 78.7029 46.9155C79.3969 46.5347 79.9301 46.0142 80.3025 45.354C80.6833 44.6854 80.8738 43.9237 80.8738 43.0688V30.856ZM89.1135 30.856V49.772H86.2571V30.856H89.1135ZM102 50.0513C100.849 50.0513 99.8252 49.7593 98.928 49.1753C98.0309 48.5828 97.3284 47.7407 96.8206 46.6489C96.3128 45.5487 96.0589 44.2368 96.0589 42.7134C96.0589 41.173 96.317 39.8569 96.8333 38.7651C97.3496 37.6733 98.0563 36.8397 98.9534 36.2642C99.8506 35.6886 100.866 35.4009 102 35.4009C102.889 35.4009 103.6 35.549 104.133 35.8452C104.675 36.133 105.094 36.4715 105.39 36.8608C105.695 37.2502 105.927 37.5929 106.088 37.8892H106.253V30.856H108.995V49.772H106.317V47.563H106.088C105.927 47.8592 105.69 48.202 105.377 48.5913C105.064 48.9806 104.637 49.3234 104.095 49.6196C103.562 49.9074 102.864 50.0513 102 50.0513ZM102.597 47.7026C103.393 47.7026 104.065 47.491 104.616 47.0679C105.166 46.6447 105.58 46.0565 105.86 45.3032C106.147 44.55 106.291 43.6782 106.291 42.688C106.291 41.6978 106.152 40.8345 105.872 40.0981C105.593 39.3534 105.178 38.7778 104.628 38.3716C104.078 37.9569 103.401 37.7495 102.597 37.7495C101.768 37.7495 101.078 37.9653 100.528 38.397C99.9775 38.8286 99.5628 39.4168 99.2835 40.1616C99.0042 40.9064 98.8646 41.7485 98.8646 42.688C98.8646 43.6359 99.0042 44.4907 99.2835 45.2524C99.5628 46.0057 99.9775 46.6024 100.528 47.0425C101.086 47.4826 101.776 47.7026 102.597 47.7026ZM117.235 50.064C115.847 50.064 114.645 49.7635 113.63 49.1626C112.614 48.5617 111.831 47.7153 111.281 46.6235C110.739 45.5233 110.469 44.241 110.469 42.7769C110.469 41.3211 110.735 40.0389 111.268 38.9302C111.81 37.8215 112.568 36.9582 113.541 36.3403C114.523 35.714 115.674 35.4009 116.994 35.4009C117.798 35.4009 118.577 35.5321 119.33 35.7944C120.083 36.0568 120.76 36.4715 121.361 37.0386C121.962 37.6056 122.436 38.342 122.783 39.2476C123.139 40.1532 123.316 41.245 123.316 42.5229V43.5132H112.03V41.4438H121.894L120.612 42.1294C120.612 41.2576 120.477 40.4875 120.206 39.8188C119.935 39.1502 119.529 38.6297 118.987 38.2573C118.454 37.8765 117.79 37.686 116.994 37.686C116.198 37.686 115.517 37.8765 114.95 38.2573C114.391 38.6382 113.964 39.1418 113.668 39.7681C113.372 40.3944 113.223 41.0799 113.223 41.8247V43.2339C113.223 44.2072 113.393 45.0324 113.731 45.7095C114.07 46.3866 114.54 46.9028 115.14 47.2583C115.75 47.6138 116.457 47.7915 117.261 47.7915C117.785 47.7915 118.259 47.7153 118.682 47.563C119.114 47.4106 119.486 47.1821 119.8 46.8774C120.113 46.5728 120.35 46.1961 120.511 45.7476L123.126 46.2427C122.914 47.0044 122.542 47.673 122.009 48.2485C121.475 48.8241 120.803 49.2726 119.99 49.5942C119.186 49.9074 118.268 50.064 117.235 50.064ZM135.339 39.0571L132.838 39.4888C132.677 39.0148 132.377 38.5789 131.937 38.1812C131.505 37.7834 130.858 37.5845 129.994 37.5845C129.216 37.5845 128.564 37.7622 128.039 38.1177C127.523 38.4647 127.265 38.909 127.265 39.4507C127.265 39.9246 127.438 40.3097 127.785 40.606C128.141 40.9022 128.704 41.1392 129.474 41.3169L131.746 41.8247C133.041 42.1209 134.01 42.5864 134.654 43.2212C135.297 43.856 135.618 44.6685 135.618 45.6587C135.618 46.5135 135.373 47.2752 134.882 47.9438C134.391 48.604 133.71 49.1245 132.838 49.5054C131.966 49.8778 130.959 50.064 129.817 50.064C128.226 50.064 126.931 49.7212 125.932 49.0356C124.933 48.3501 124.32 47.3853 124.091 46.1411L126.744 45.7349C126.914 46.4289 127.257 46.9536 127.773 47.3091C128.298 47.6646 128.975 47.8423 129.804 47.8423C130.701 47.8423 131.421 47.6519 131.962 47.271C132.512 46.8901 132.787 46.4289 132.787 45.8872C132.787 44.9901 132.119 44.3849 130.782 44.0718L128.382 43.5386C127.053 43.2339 126.072 42.7557 125.437 42.104C124.811 41.4438 124.497 40.6144 124.497 39.6157C124.497 38.7778 124.73 38.0415 125.196 37.4067C125.67 36.772 126.317 36.2811 127.138 35.9341C127.967 35.5786 128.911 35.4009 129.969 35.4009C131.509 35.4009 132.716 35.7352 133.587 36.4038C134.467 37.0724 135.051 37.9569 135.339 39.0571ZM137.028 49.772V35.5786H139.77V49.772H137.028ZM138.412 33.395C137.93 33.395 137.519 33.2342 137.181 32.9126C136.842 32.591 136.673 32.2059 136.673 31.7573C136.673 31.3003 136.842 30.911 137.181 30.5894C137.519 30.2677 137.93 30.1069 138.412 30.1069C138.886 30.1069 139.292 30.2677 139.631 30.5894C139.978 30.911 140.151 31.3003 140.151 31.7573C140.151 32.2059 139.978 32.591 139.631 32.9126C139.292 33.2342 138.886 33.395 138.412 33.395ZM147.807 55.3833C146.114 55.3833 144.781 55.0659 143.808 54.4312C142.835 53.7964 142.162 53.0431 141.789 52.1714L144.151 51.1938C144.32 51.4647 144.544 51.7524 144.824 52.0571C145.111 52.3618 145.496 52.62 145.979 52.8315C146.461 53.0431 147.083 53.1489 147.845 53.1489C148.886 53.1489 149.749 52.895 150.435 52.3872C151.12 51.8879 151.463 51.0838 151.463 49.9751V47.1948H151.273C151.12 47.491 150.888 47.8254 150.575 48.1978C150.261 48.5617 149.834 48.8791 149.292 49.1499C148.751 49.4207 148.044 49.5562 147.172 49.5562C146.055 49.5562 145.048 49.2938 144.151 48.769C143.262 48.2358 142.551 47.4572 142.018 46.4331C141.493 45.4006 141.231 44.131 141.231 42.6245C141.231 41.118 141.489 39.8273 142.005 38.7524C142.53 37.6691 143.241 36.8397 144.138 36.2642C145.035 35.6886 146.055 35.4009 147.198 35.4009C148.078 35.4009 148.789 35.549 149.33 35.8452C149.881 36.133 150.308 36.4715 150.613 36.8608C150.917 37.2502 151.154 37.5929 151.324 37.8892H151.527V35.5786H154.205V50.0894C154.205 51.3081 153.922 52.3068 153.355 53.0854C152.796 53.8641 152.035 54.4396 151.07 54.812C150.105 55.1929 149.017 55.3833 147.807 55.3833ZM147.782 47.2583C148.975 47.2583 149.889 46.8478 150.524 46.0269C151.167 45.1974 151.489 44.0506 151.489 42.5864C151.489 41.63 151.349 40.7922 151.07 40.0728C150.79 39.3449 150.376 38.7778 149.826 38.3716C149.275 37.9569 148.594 37.7495 147.782 37.7495C146.952 37.7495 146.258 37.9653 145.7 38.397C145.149 38.8201 144.735 39.3999 144.455 40.1362C144.176 40.8641 144.037 41.6808 144.037 42.5864C144.037 43.509 144.176 44.3257 144.455 45.0366C144.735 45.7391 145.154 46.285 145.712 46.6743C146.279 47.0636 146.969 47.2583 147.782 47.2583ZM159.068 41.355V49.772H156.326V35.5786H158.992V37.9146H159.183C159.504 37.1444 160.008 36.535 160.693 36.0864C161.379 35.6294 162.259 35.4009 163.334 35.4009C164.299 35.4009 165.141 35.604 165.86 36.0103C166.588 36.408 167.151 37.0047 167.549 37.8003C167.955 38.5959 168.158 39.5819 168.158 40.7583V49.772H165.416V41.0884C165.416 40.0643 165.145 39.2603 164.603 38.6763C164.062 38.0838 163.325 37.7876 162.394 37.7876C161.76 37.7876 161.188 37.9315 160.681 38.2192C160.181 38.4985 159.788 38.9006 159.5 39.4253C159.212 39.95 159.068 40.5933 159.068 41.355Z" fill="#B3CC19"/>
</svg>
