<svg width="190" height="80" viewBox="0 0 190 80" fill="none" xmlns="http://www.w3.org/2000/svg">
<rect x="1.58191" y="2.08643" width="186" height="76" rx="38" fill="white"/>
<rect x="1.58191" y="2.08643" width="186" height="76" rx="38" stroke="#B3CC19" stroke-width="3"/>
<path d="M68.4735 49.5864L71.5839 30.6704H73.7928L70.6952 49.5864H68.4735ZM59.9042 44.521L60.285 42.312H74.618L74.2499 44.521H59.9042ZM61.8339 49.5864L64.9315 30.6704H67.1405L64.0428 49.5864H61.8339ZM61.0214 37.9575L61.3895 35.7358H75.6971L75.3544 37.9575H61.0214ZM76.5482 30.6704H80.0268L86.0443 45.3716H86.2601L92.2904 30.6704H95.8197V49.5864H93.0268V35.9009H92.849L87.2504 49.561H84.9906L79.4555 35.8882H79.2777V49.5864H76.5482V30.6704ZM100.01 30.6704L105.278 46.0698H105.481L110.75 30.6704H113.822L107.03 49.5864H103.729L96.9247 30.6704H100.01ZM114.914 49.5864V30.6704H121.668C123.133 30.6704 124.347 30.9412 125.312 31.4829C126.277 32.0161 127 32.7482 127.483 33.6792C127.965 34.6017 128.206 35.6427 128.206 36.8022C128.206 37.9618 127.965 39.007 127.483 39.938C127 40.8605 126.273 41.5926 125.299 42.1343C124.334 42.6675 123.116 42.9341 121.643 42.9341H117.022V40.522H121.376C122.316 40.522 123.073 40.3612 123.649 40.0396C124.233 39.7179 124.656 39.2778 124.918 38.7192C125.189 38.1522 125.325 37.5132 125.325 36.8022C125.325 36.0828 125.189 35.4481 124.918 34.8979C124.656 34.3394 124.233 33.9035 123.649 33.5903C123.065 33.2772 122.303 33.1206 121.364 33.1206H117.771V49.5864H114.914Z" fill="#B3CC19"/>
</svg>
