<svg width="293" height="80" viewBox="0 0 293 80" fill="none" xmlns="http://www.w3.org/2000/svg">
<rect x="0.248718" y="0.52002" width="292" height="79" rx="39.5" fill="#9B8FFD"/>
<path d="M60.8327 33.0542V30.604H75.4831V33.0542H69.5925V49.52H66.7487V33.0542H60.8327ZM80.9426 49.812C79.5546 49.812 78.3527 49.5116 77.3371 48.9106C76.3215 48.3097 75.5386 47.4634 74.9885 46.3716C74.4468 45.2713 74.176 43.9891 74.176 42.5249C74.176 41.0692 74.4426 39.7869 74.9758 38.6782C75.5175 37.5695 76.2749 36.7062 77.2482 36.0884C78.23 35.4621 79.3811 35.1489 80.7014 35.1489C81.5054 35.1489 82.2841 35.2801 83.0373 35.5425C83.7906 35.8048 84.4676 36.2196 85.0686 36.7866C85.6695 37.3537 86.1434 38.09 86.4904 38.9956C86.8459 39.9012 87.0236 40.993 87.0236 42.271V43.2612H75.7375V41.1919H85.6018L84.3195 41.8774C84.3195 41.0057 84.1841 40.2355 83.9133 39.5669C83.6425 38.8983 83.2362 38.3778 82.6945 38.0054C82.1613 37.6245 81.4969 37.4341 80.7014 37.4341C79.9058 37.4341 79.2245 37.6245 78.6574 38.0054C78.0988 38.3862 77.6714 38.8898 77.3752 39.5161C77.079 40.1424 76.9309 40.828 76.9309 41.5728V42.9819C76.9309 43.9552 77.1001 44.7804 77.4387 45.4575C77.7772 46.1346 78.2469 46.6509 78.8479 47.0063C79.4572 47.3618 80.1639 47.5395 80.968 47.5395C81.4927 47.5395 81.9667 47.4634 82.3898 47.311C82.8215 47.1587 83.1939 46.9302 83.507 46.6255C83.8202 46.3208 84.0572 45.9442 84.218 45.4956L86.8332 45.9907C86.6216 46.7524 86.2492 47.4211 85.716 47.9966C85.1828 48.5721 84.51 49.0207 83.6975 49.3423C82.8934 49.6554 81.9751 49.812 80.9426 49.812ZM90.2741 35.3267L93.3845 40.8618L96.5456 35.3267H99.5798L95.1618 42.436L99.6052 49.52H96.5964L93.3845 44.2134L90.2234 49.52H87.1892L91.5945 42.436L87.24 35.3267H90.2741ZM100.837 49.52V35.3267H112.39V49.52H109.686V37.7134H103.503V49.52H100.837ZM120.465 49.812C119.136 49.812 117.972 49.5073 116.973 48.8979C115.983 48.2886 115.213 47.4338 114.663 46.3335C114.121 45.2332 113.85 43.9552 113.85 42.4995C113.85 41.0269 114.121 39.7404 114.663 38.6401C115.213 37.5314 115.983 36.6724 116.973 36.063C117.972 35.4536 119.136 35.1489 120.465 35.1489C121.802 35.1489 122.966 35.4536 123.956 36.063C124.946 36.6724 125.716 37.5314 126.266 38.6401C126.816 39.7404 127.092 41.0269 127.092 42.4995C127.092 43.9552 126.816 45.2332 126.266 46.3335C125.716 47.4338 124.946 48.2886 123.956 48.8979C122.966 49.5073 121.802 49.812 120.465 49.812ZM120.465 47.4888C121.336 47.4888 122.056 47.2603 122.623 46.8032C123.19 46.3462 123.609 45.741 123.88 44.9878C124.159 44.2261 124.299 43.3966 124.299 42.4995C124.299 41.5854 124.159 40.7476 123.88 39.9858C123.609 39.2241 123.19 38.6147 122.623 38.1577C122.056 37.7007 121.336 37.4722 120.465 37.4722C119.601 37.4722 118.886 37.7007 118.319 38.1577C117.761 38.6147 117.342 39.2241 117.062 39.9858C116.783 40.7476 116.643 41.5854 116.643 42.4995C116.643 43.3966 116.783 44.2261 117.062 44.9878C117.342 45.741 117.761 46.3462 118.319 46.8032C118.886 47.2603 119.601 47.4888 120.465 47.4888ZM127.168 53.6079V47.1333H128.311C128.607 46.8625 128.861 46.5409 129.073 46.1685C129.284 45.7876 129.458 45.339 129.593 44.8228C129.737 44.298 129.86 43.6929 129.961 43.0073C130.063 42.3218 130.152 41.5304 130.228 40.6333L130.672 35.3267L140.308 35.3267V47.1333H142.491V53.6079H139.787V49.52H129.91V53.6079H127.168ZM131.282 47.1333H137.616V37.688H133.135L132.83 40.6333C132.703 42.1313 132.53 43.4263 132.31 44.5181C132.098 45.6014 131.755 46.4731 131.282 47.1333ZM142.187 53.6079V47.1333H143.33C143.626 46.8625 143.88 46.5409 144.092 46.1685C144.303 45.7876 144.477 45.339 144.612 44.8228C144.756 44.298 144.879 43.6929 144.98 43.0073C145.082 42.3218 145.171 41.5304 145.247 40.6333L145.691 35.3267H155.327V47.1333L157.511 47.1333V53.6079L154.806 53.6079V49.52H144.929V53.6079H142.187ZM146.301 47.1333H152.636V37.688H148.154L147.849 40.6333C147.722 42.1313 147.549 43.4263 147.329 44.5181C147.117 45.6014 146.775 46.4731 146.301 47.1333ZM164.709 49.812C163.321 49.812 162.119 49.5116 161.104 48.9106C160.088 48.3097 159.305 47.4634 158.755 46.3716C158.214 45.2713 157.943 43.9891 157.943 42.5249C157.943 41.0692 158.209 39.7869 158.743 38.6782C159.284 37.5695 160.042 36.7062 161.015 36.0884C161.997 35.4621 163.148 35.1489 164.468 35.1489C165.272 35.1489 166.051 35.2801 166.804 35.5425C167.557 35.8048 168.234 36.2196 168.835 36.7866C169.436 37.3537 169.91 38.09 170.257 38.9956C170.613 39.9012 170.79 40.993 170.79 42.271V43.2612H159.504V41.1919H169.368L168.086 41.8774C168.086 41.0057 167.951 40.2355 167.68 39.5669C167.409 38.8983 167.003 38.3778 166.461 38.0054C165.928 37.6245 165.264 37.4341 164.468 37.4341C163.673 37.4341 162.991 37.6245 162.424 38.0054C161.866 38.3862 161.438 38.8898 161.142 39.5161C160.846 40.1424 160.698 40.828 160.698 41.5728V42.9819C160.698 43.9552 160.867 44.7804 161.205 45.4575C161.544 46.1346 162.014 46.6509 162.615 47.0063C163.224 47.3618 163.931 47.5395 164.735 47.5395C165.259 47.5395 165.733 47.4634 166.157 47.311C166.588 47.1587 166.961 46.9302 167.274 46.6255C167.587 46.3208 167.824 45.9442 167.985 45.4956L170.6 45.9907C170.388 46.7524 170.016 47.4211 169.483 47.9966C168.95 48.5721 168.277 49.0207 167.464 49.3423C166.66 49.6554 165.742 49.812 164.709 49.812ZM172.2 54.8267V35.3267H174.866V37.6372H175.095C175.264 37.341 175.497 36.9982 175.793 36.6089C176.097 36.2196 176.521 35.881 177.062 35.5933C177.604 35.297 178.311 35.1489 179.182 35.1489C180.325 35.1489 181.341 35.4367 182.229 36.0122C183.126 36.5877 183.833 37.4214 184.349 38.5132C184.866 39.605 185.124 40.9211 185.124 42.4614C185.124 43.9849 184.87 45.2967 184.362 46.397C183.854 47.4888 183.152 48.3309 182.255 48.9233C181.366 49.5073 180.346 49.7993 179.195 49.7993C178.34 49.7993 177.638 49.6554 177.088 49.3677C176.546 49.0715 176.119 48.7287 175.806 48.3394C175.501 47.95 175.264 47.6073 175.095 47.311H174.942V54.8267H172.2ZM178.598 47.4507C179.419 47.4507 180.105 47.2306 180.655 46.7905C181.205 46.3504 181.62 45.7537 181.899 45.0005C182.187 44.2388 182.331 43.384 182.331 42.436C182.331 41.4966 182.191 40.6545 181.912 39.9097C181.633 39.1649 181.218 38.5767 180.668 38.145C180.118 37.7134 179.428 37.4976 178.598 37.4976C177.794 37.4976 177.117 37.7049 176.567 38.1196C176.017 38.5259 175.598 39.1014 175.31 39.8462C175.031 40.5825 174.891 41.4458 174.891 42.436C174.891 43.4263 175.035 44.298 175.323 45.0513C175.611 45.8045 176.03 46.3927 176.58 46.8159C177.139 47.2391 177.811 47.4507 178.598 47.4507ZM185.137 49.52L190.647 42.2583L185.201 35.3267H188.412L192.805 41.23H193.783V35.3267H196.55V41.23H197.502L201.882 35.3267H205.107L199.686 42.2583L205.17 49.52H201.895L197.477 43.604H196.55V49.52H193.783V43.604H192.856L188.412 49.52H185.137ZM206.377 49.52V35.3267H209.119V41.2808H210.452L215.137 35.3267H218.539L213.067 42.2456L218.615 49.52H215.187L210.909 43.8452H209.119V49.52H206.377ZM223.249 49.8247C222.352 49.8247 221.54 49.6597 220.812 49.3296C220.084 48.991 219.509 48.5002 219.085 47.8569C218.662 47.2137 218.451 46.4308 218.451 45.5083C218.451 44.7043 218.603 44.0483 218.908 43.5405C219.221 43.0243 219.64 42.6138 220.164 42.3091C220.689 42.0044 221.273 41.7759 221.916 41.6235C222.56 41.4712 223.22 41.3527 223.897 41.2681C224.752 41.175 225.441 41.0946 225.966 41.0269C226.491 40.9591 226.872 40.8534 227.109 40.7095C227.354 40.5571 227.477 40.3159 227.477 39.9858V39.9224C227.477 39.1183 227.248 38.4963 226.791 38.0562C226.343 37.616 225.674 37.396 224.786 37.396C223.863 37.396 223.131 37.5991 222.589 38.0054C222.056 38.4032 221.688 38.856 221.485 39.3638L218.882 38.7671C219.195 37.9038 219.648 37.2098 220.241 36.6851C220.842 36.1519 221.527 35.7625 222.297 35.5171C223.076 35.2716 223.888 35.1489 224.735 35.1489C225.302 35.1489 225.903 35.2166 226.537 35.3521C227.172 35.479 227.769 35.7202 228.328 36.0757C228.895 36.4227 229.356 36.922 229.711 37.5737C230.067 38.2254 230.245 39.0675 230.245 40.1001V49.52H227.54V47.5776H227.439C227.27 47.9246 227.003 48.2716 226.639 48.6187C226.284 48.9657 225.827 49.2534 225.268 49.4819C224.709 49.7104 224.037 49.8247 223.249 49.8247ZM223.846 47.6157C224.616 47.6157 225.272 47.4676 225.814 47.1714C226.356 46.8667 226.77 46.4689 227.058 45.978C227.346 45.4871 227.49 44.9666 227.49 44.4165V42.5757C227.388 42.6688 227.198 42.7576 226.918 42.8423C226.639 42.9269 226.322 42.9989 225.966 43.0581C225.611 43.1173 225.264 43.1724 224.925 43.2231C224.587 43.2655 224.303 43.2993 224.075 43.3247C223.541 43.4009 223.055 43.5194 222.615 43.6802C222.175 43.8325 221.819 44.061 221.548 44.3657C221.286 44.6619 221.155 45.0555 221.155 45.5464C221.155 46.2319 221.409 46.7482 221.916 47.0952C222.424 47.4422 223.067 47.6157 223.846 47.6157Z" fill="white"/>
</svg>
