<svg width="191" height="80" viewBox="0 0 191 80" fill="none" xmlns="http://www.w3.org/2000/svg">
<path d="M40.4239 1.77686H151.424C172.411 1.77686 189.424 18.79 189.424 39.7769C189.424 60.7637 172.411 77.7769 151.424 77.7769H40.4239C19.437 77.7769 2.42386 60.7637 2.42386 39.7769C2.42386 18.79 19.437 1.77686 40.4239 1.77686Z" fill="white"/>
<path d="M40.4239 1.77686H151.424C172.411 1.77686 189.424 18.79 189.424 39.7769C189.424 60.7637 172.411 77.7769 151.424 77.7769H40.4239C19.437 77.7769 2.42386 60.7637 2.42386 39.7769C2.42386 18.79 19.437 1.77686 40.4239 1.77686Z" stroke="#B3CC19" stroke-width="3"/>
<path d="M69.3155 49.2769L72.4258 30.3608H74.6348L71.5371 49.2769H69.3155ZM60.7461 44.2114L61.127 42.0024H75.46L75.0918 44.2114H60.7461ZM62.6758 49.2769L65.7735 30.3608H67.9825L64.8848 49.2769H62.6758ZM61.8633 37.6479L62.2315 35.4263H76.5391L76.1963 37.6479H61.8633ZM85.2867 49.5308C83.6617 49.5308 82.2059 49.1414 80.9195 48.3628C79.633 47.5841 78.6216 46.4712 77.8853 45.0239C77.149 43.5682 76.7808 41.8374 76.7808 39.8315C76.7808 37.8088 77.149 36.0737 77.8853 34.6265C78.6301 33.1707 79.6415 32.0535 80.9195 31.2749C82.2059 30.4963 83.6617 30.1069 85.2867 30.1069C86.2854 30.1069 87.2206 30.2508 88.0923 30.5386C88.9725 30.8263 89.7597 31.2453 90.4537 31.7954C91.1477 32.3455 91.719 33.0184 92.1675 33.814C92.6246 34.6095 92.9292 35.5109 93.0816 36.5181H90.2125C90.1024 35.9002 89.8951 35.3586 89.5904 34.8931C89.2942 34.4191 88.926 34.0213 88.4859 33.6997C88.0542 33.3696 87.5676 33.1242 87.0259 32.9634C86.4927 32.7941 85.9257 32.7095 85.3248 32.7095C84.2414 32.7095 83.2639 32.9845 82.3921 33.5347C81.5289 34.0763 80.8475 34.8804 80.3482 35.9468C79.8573 37.0047 79.6119 38.2996 79.6119 39.8315C79.6119 41.3719 79.8615 42.6711 80.3609 43.729C80.8602 44.7785 81.5416 45.5741 82.4048 46.1157C83.2681 46.6574 84.2372 46.9282 85.3121 46.9282C85.913 46.9282 86.48 46.8478 87.0132 46.687C87.5464 46.5262 88.0331 46.285 88.4732 45.9634C88.9133 45.6418 89.2815 45.2524 89.5777 44.7954C89.8824 44.3299 90.094 43.7925 90.2125 43.1831H93.0816C92.9377 44.1226 92.6457 44.9816 92.2056 45.7603C91.7655 46.5304 91.2027 47.1991 90.5171 47.7661C89.8316 48.3247 89.0487 48.7606 88.1685 49.0737C87.2883 49.3784 86.3277 49.5308 85.2867 49.5308ZM94.8975 49.2769V30.3608H101.651C103.116 30.3608 104.33 30.6147 105.295 31.1226C106.26 31.6219 106.983 32.3201 107.466 33.2173C107.948 34.106 108.19 35.1343 108.19 36.3022C108.19 37.4533 107.948 38.4689 107.466 39.3491C106.983 40.2293 106.256 40.9106 105.282 41.3931C104.317 41.8755 103.099 42.1167 101.626 42.1167H96.5352V39.6792H101.359C102.299 39.6792 103.056 39.5438 103.632 39.2729C104.216 39.0021 104.639 38.617 104.901 38.1177C105.172 37.6183 105.308 37.0132 105.308 36.3022C105.308 35.5828 105.172 34.965 104.901 34.4487C104.631 33.924 104.203 33.522 103.619 33.2427C103.044 32.9549 102.286 32.811 101.347 32.811H97.754V49.2769H94.8975ZM105.663 49.2769L101.08 40.7329H104.241L108.913 49.2769H105.663ZM110.069 30.3608H113.547L119.565 45.062H119.781L125.811 30.3608H129.34V49.2769H126.547V35.5913H126.37L120.771 49.2515H118.511L112.976 35.5786H112.798V49.2769H110.069V30.3608Z" fill="#B3CC19"/>
</svg>
