<svg width="301" height="80" viewBox="0 0 301 80" fill="none" xmlns="http://www.w3.org/2000/svg">
<rect x="1.81226" y="2.2959" width="297" height="76" rx="38" fill="#B3CC19"/>
<rect x="1.81226" y="2.2959" width="297" height="76" rx="38" stroke="#B3CC19" stroke-width="3"/>
<path d="M86.9119 30.8799V49.7959H84.0935V33.749H83.9666L79.4724 36.707V33.9648L84.1697 30.8799H86.9119ZM97.3352 50.0498C95.7102 50.0498 94.2545 49.6605 92.968 48.8818C91.6816 48.1032 90.6702 46.9902 89.9339 45.543C89.1975 44.0872 88.8294 42.3564 88.8294 40.3506C88.8294 38.3278 89.1975 36.5928 89.9339 35.1455C90.6786 33.6898 91.69 32.5726 92.968 31.7939C94.2545 31.0153 95.7102 30.626 97.3352 30.626C98.3339 30.626 99.2691 30.7699 100.141 31.0576C101.021 31.3454 101.808 31.7643 102.502 32.3145C103.196 32.8646 103.768 33.5374 104.216 34.333C104.673 35.1286 104.978 36.0299 105.13 37.0371H102.261C102.151 36.4193 101.944 35.8776 101.639 35.4121C101.343 34.9382 100.975 34.5404 100.534 34.2188C100.103 33.8887 99.6161 33.6432 99.0745 33.4824C98.5413 33.3132 97.9742 33.2285 97.3733 33.2285C96.29 33.2285 95.3124 33.5036 94.4407 34.0537C93.5774 34.5954 92.8961 35.3994 92.3967 36.4658C91.9059 37.5238 91.6604 38.8187 91.6604 40.3506C91.6604 41.891 91.9101 43.1901 92.4094 44.248C92.9088 45.2975 93.5901 46.0931 94.4534 46.6348C95.3167 47.1764 96.2857 47.4473 97.3606 47.4473C97.9615 47.4473 98.5286 47.3669 99.0618 47.2061C99.595 47.0452 100.082 46.804 100.522 46.4824C100.962 46.1608 101.33 45.7715 101.626 45.3145C101.931 44.849 102.143 44.3115 102.261 43.7021H105.13C104.986 44.6416 104.694 45.5007 104.254 46.2793C103.814 47.0495 103.251 47.7181 102.566 48.2852C101.88 48.8438 101.097 49.2796 100.217 49.5928C99.3369 49.8975 98.3762 50.0498 97.3352 50.0498ZM120.353 40.6172V43.0039H111.949V40.6172H120.353ZM127.882 49.7959V30.8799H139.689V33.3301H130.739V38.5098H134.966C136.371 38.5098 137.564 38.7383 138.546 39.1953C139.528 39.6439 140.281 40.2871 140.806 41.125C141.331 41.9544 141.593 42.932 141.593 44.0576C141.593 45.1917 141.331 46.1904 140.806 47.0537C140.281 47.9085 139.528 48.5814 138.546 49.0723C137.564 49.5547 136.371 49.7959 134.966 49.7959H127.882ZM130.739 47.3838H134.966C135.787 47.3838 136.477 47.2272 137.035 46.9141C137.594 46.6009 138.022 46.1862 138.318 45.6699C138.614 45.1536 138.762 44.6077 138.762 44.0322C138.762 43.1774 138.436 42.4453 137.785 41.8359C137.133 41.2266 136.193 40.9219 134.966 40.9219H130.739V47.3838ZM145.834 45.9111L152.093 35.6025H155.063V49.7959H152.372V39.4746L146.139 49.7959H143.155V35.6025H145.834V45.9111ZM155.419 37.9893V35.6025H167.366V37.9893H162.757V49.7959H160.053V37.9893H155.419ZM168.699 55.1025V35.6025H171.365V37.9131H171.594C171.763 37.6169 171.996 37.2741 172.292 36.8848C172.597 36.4954 173.02 36.1569 173.561 35.8691C174.103 35.5729 174.81 35.4248 175.682 35.4248C176.824 35.4248 177.84 35.7126 178.728 36.2881C179.626 36.8636 180.332 37.6973 180.849 38.7891C181.365 39.8809 181.623 41.1969 181.623 42.7373C181.623 44.2607 181.369 45.5726 180.861 46.6729C180.353 47.7646 179.651 48.6068 178.754 49.1992C177.865 49.7832 176.845 50.0752 175.694 50.0752C174.839 50.0752 174.137 49.9313 173.587 49.6436C173.045 49.3473 172.618 49.0046 172.305 48.6152C172 48.2259 171.763 47.8831 171.594 47.5869H171.441V55.1025H168.699ZM175.098 47.7266C175.919 47.7266 176.604 47.5065 177.154 47.0664C177.704 46.6263 178.119 46.0296 178.398 45.2764C178.686 44.5146 178.83 43.6598 178.83 42.7119C178.83 41.7725 178.69 40.9303 178.411 40.1855C178.132 39.4408 177.717 38.8525 177.167 38.4209C176.617 37.9893 175.927 37.7734 175.098 37.7734C174.294 37.7734 173.616 37.9808 173.066 38.3955C172.516 38.8018 172.097 39.3773 171.809 40.1221C171.53 40.8584 171.391 41.7217 171.391 42.7119C171.391 43.7021 171.534 44.5739 171.822 45.3271C172.11 46.0804 172.529 46.6686 173.079 47.0918C173.638 47.515 174.31 47.7266 175.098 47.7266ZM185.788 45.9111L192.046 35.6025H195.017V49.7959H192.326V39.4746L186.092 49.7959H183.109V35.6025H185.788V45.9111ZM197.138 49.7959V35.6025H199.88V41.5566H201.213L205.897 35.6025H209.3L203.828 42.5215L209.376 49.7959H205.948L201.67 44.1211H199.88V49.7959H197.138ZM215.267 50.0879C213.904 50.0879 212.728 49.7747 211.738 49.1484C210.748 48.5221 209.986 47.6589 209.453 46.5586C208.919 45.4583 208.653 44.1973 208.653 42.7754C208.653 41.3281 208.924 40.0544 209.465 38.9541C210.015 37.8454 210.781 36.9821 211.763 36.3643C212.753 35.738 213.913 35.4248 215.242 35.4248C216.325 35.4248 217.286 35.6237 218.124 36.0215C218.97 36.4108 219.651 36.9652 220.167 37.6846C220.692 38.404 221.001 39.2419 221.094 40.1982H218.403C218.31 39.7497 218.128 39.3392 217.857 38.9668C217.595 38.5944 217.248 38.2982 216.816 38.0781C216.384 37.8581 215.872 37.748 215.28 37.748C214.51 37.748 213.837 37.9512 213.261 38.3574C212.694 38.7552 212.25 39.3265 211.928 40.0713C211.607 40.8161 211.446 41.6963 211.446 42.7119C211.446 43.736 211.602 44.6289 211.915 45.3906C212.229 46.1523 212.673 46.7406 213.249 47.1553C213.832 47.5615 214.51 47.7646 215.28 47.7646C216.075 47.7646 216.752 47.5446 217.311 47.1045C217.878 46.6644 218.242 46.0635 218.403 45.3018H221.094C221.001 46.2243 220.705 47.0452 220.206 47.7646C219.706 48.484 219.038 49.0511 218.2 49.4658C217.362 49.8805 216.384 50.0879 215.267 50.0879Z" fill="white"/>
</svg>
